<svg xmlns="http://www.w3.org/2000/svg" viewBox="0 0 389.54 330.21"><defs><style>.cls-1{isolation:isolate;}.cls-2{fill:gray;}.cls-3{fill:#838383;}.cls-4{fill:#e4e4e4;}</style></defs><title>alentheaFullLogo_light</title><g id="Layer_2" data-name="Layer 2"><g id="Layer_1-2" data-name="Layer 1"><g class="cls-1"><polygon class="cls-2" points="260.72 245.16 258.97 242.99 259.28 39.68 261.03 41.86 260.72 245.16"/><polygon class="cls-2" points="252.34 245.16 250.6 242.99 140.88 95.46 142.62 97.64 252.34 245.16"/><polygon class="cls-3" points="215.6 2.18 213.86 0 304.8 0.08 306.55 2.26 215.6 2.18"/><polygon class="cls-4" points="215.6 2.18 306.55 2.26 306.49 41.86 306.18 245.16 260.72 245.16 261.03 41.86 215.54 41.86 215.6 2.18"/><polygon class="cls-2" points="215.54 41.86 213.8 39.68 213.86 0 215.6 2.18 215.54 41.86"/><polygon class="cls-3" points="92.35 2.18 90.61 0 132.83 0 134.57 2.18 92.35 2.18"/><polygon class="cls-2" points="91.98 245.16 90.24 242.99 90.61 0 92.35 2.18 91.98 245.16"/><polygon class="cls-4" points="134.57 2.18 252.47 161.15 252.34 245.16 142.62 97.64 142.39 245.16 91.98 245.16 92.35 2.18 134.57 2.18"/></g><g class="cls-1"><polygon class="cls-2" points="44.36 330.21 42.62 328.03 37.85 315.07 39.59 317.25 44.36 330.21"/><polygon class="cls-3" points="18.67 309.08 16.92 306.9 34.92 306.9 36.66 309.08 18.67 309.08"/><polygon class="cls-2" points="36.66 309.08 34.92 306.9 25.93 282.4 27.67 284.58 36.66 309.08"/><polygon class="cls-3" points="23.38 274.17 21.64 271.99 30.39 271.99 32.13 274.17 23.38 274.17"/><polygon class="cls-2" points="1.74 330.21 0 328.03 21.64 271.99 23.38 274.17 1.74 330.21"/><path class="cls-4" d="M32.13,274.17l21.54,56H44.36l-4.77-13H15.65l-4.74,13H1.74l21.64-56ZM18.67,309.08h18l-9-24.5-9,24.5"/></g><g class="cls-1"><polygon class="cls-3" points="68.66 321.41 66.92 319.23 91.95 319.23 93.7 321.41 68.66 321.41"/><polygon class="cls-2" points="59.75 330.21 58.01 328.03 58.09 271.99 59.83 274.17 59.75 330.21"/><polygon class="cls-3" points="59.83 274.17 58.09 271.99 66.99 271.99 68.73 274.17 59.83 274.17"/><polygon class="cls-4" points="68.73 274.17 68.66 321.41 93.7 321.41 93.69 330.21 59.75 330.21 59.83 274.17 68.73 274.17"/></g><g class="cls-1"><polygon class="cls-3" points="109.64 321.49 107.89 319.31 134.91 319.31 136.66 321.49 109.64 321.49"/><polygon class="cls-3" points="109.67 297.47 107.93 295.29 131.05 295.29 132.79 297.47 109.67 297.47"/><polygon class="cls-2" points="100.73 330.21 98.98 328.03 99.07 271.99 100.81 274.17 100.73 330.21"/><polygon class="cls-3" points="100.81 274.17 99.07 271.99 134.02 271.99 135.77 274.17 100.81 274.17"/><polygon class="cls-4" points="135.77 274.17 135.75 282.9 109.7 282.9 109.67 297.47 132.79 297.47 132.78 306.04 109.66 306.04 109.64 321.49 136.66 321.49 136.64 330.21 100.73 330.21 100.81 274.17 135.77 274.17"/></g><g class="cls-1"><polygon class="cls-2" points="180.31 312.12 178.57 309.94 178.63 271.99 180.37 274.17 180.31 312.12"/><polygon class="cls-3" points="180.37 274.17 178.63 271.99 187.45 271.99 189.19 274.17 180.37 274.17"/><polygon class="cls-2" points="181.79 330.21 180.04 328.03 153.7 290.09 155.44 292.27 181.79 330.21"/><polygon class="cls-3" points="146.64 274.17 144.9 271.99 152.22 271.99 153.96 274.17 146.64 274.17"/><polygon class="cls-2" points="146.56 330.21 144.81 328.03 144.9 271.99 146.64 274.17 146.56 330.21"/><polygon class="cls-4" points="189.19 274.17 189.11 330.21 181.79 330.21 155.44 292.27 155.39 330.21 146.56 330.21 146.64 274.17 153.96 274.17 180.31 312.12 180.37 274.17 189.19 274.17"/></g><g class="cls-1"><polygon class="cls-2" points="211.68 330.21 209.94 328.03 210.01 280.8 211.76 282.98 211.68 330.21"/><polygon class="cls-2" points="195.88 282.98 194.14 280.8 194.15 271.99 195.89 274.17 195.88 282.98"/><polygon class="cls-3" points="195.89 274.17 194.15 271.99 234.79 271.99 236.53 274.17 195.89 274.17"/><polygon class="cls-4" points="236.53 274.17 236.52 282.98 220.64 282.98 220.57 330.21 211.68 330.21 211.76 282.98 195.88 282.98 195.89 274.17 236.53 274.17"/></g><g class="cls-1"><polygon class="cls-2" points="276.81 330.21 275.06 328.03 275.1 304.02 276.84 306.2 276.81 330.21"/><polygon class="cls-3" points="252.09 297.31 250.35 295.13 275.11 295.13 276.86 297.31 252.09 297.31"/><polygon class="cls-2" points="276.86 297.31 275.11 295.13 275.15 271.99 276.89 274.17 276.86 297.31"/><polygon class="cls-3" points="276.89 274.17 275.15 271.99 284.04 271.99 285.79 274.17 276.89 274.17"/><polygon class="cls-3" points="243.23 274.17 241.49 271.99 250.38 271.99 252.13 274.17 243.23 274.17"/><polygon class="cls-2" points="243.15 330.21 241.4 328.03 241.49 271.99 243.23 274.17 243.15 330.21"/><polygon class="cls-4" points="285.79 274.17 285.7 330.21 276.81 330.21 276.84 306.2 252.08 306.2 252.04 330.21 243.15 330.21 243.23 274.17 252.13 274.17 252.09 297.31 276.86 297.31 276.89 274.17 285.79 274.17"/></g><g class="cls-1"><polygon class="cls-3" points="307.46 321.49 305.72 319.31 332.74 319.31 334.48 321.49 307.46 321.49"/><polygon class="cls-3" points="307.5 297.47 305.76 295.29 328.88 295.29 330.62 297.47 307.5 297.47"/><polygon class="cls-2" points="298.55 330.21 296.81 328.03 296.89 271.99 298.64 274.17 298.55 330.21"/><polygon class="cls-3" points="298.64 274.17 296.89 271.99 331.86 271.99 333.6 274.17 298.64 274.17"/><polygon class="cls-4" points="333.6 274.17 333.59 282.9 307.52 282.9 307.5 297.47 330.62 297.47 330.61 306.04 307.49 306.04 307.46 321.49 334.48 321.49 334.47 330.21 298.55 330.21 298.64 274.17 333.6 274.17"/></g><g class="cls-1"><polygon class="cls-2" points="380.23 330.21 378.49 328.03 373.72 315.07 375.47 317.25 380.23 330.21"/><polygon class="cls-3" points="354.55 309.08 352.81 306.9 370.8 306.9 372.54 309.08 354.55 309.08"/><polygon class="cls-2" points="372.54 309.08 370.8 306.9 361.8 282.4 363.55 284.58 372.54 309.08"/><polygon class="cls-3" points="359.25 274.17 357.51 271.99 366.26 271.99 368 274.17 359.25 274.17"/><polygon class="cls-2" points="337.62 330.21 335.87 328.03 357.51 271.99 359.25 274.17 337.62 330.21"/><path class="cls-4" d="M368,274.17l21.54,56h-9.31l-4.76-13h-24l-4.74,13h-9.16l21.63-56Zm-13.45,34.91h18l-9-24.5-9,24.5"/></g></g></g></svg>