<?xml version="1.0" encoding="UTF-8" standalone="no"?>
<!DOCTYPE svg PUBLIC "-//W3C//DTD SVG 1.1//EN" "http://www.w3.org/Graphics/SVG/1.1/DTD/svg11.dtd">
<svg width="100%" height="100%" viewBox="0 0 503 318" version="1.1" xmlns="http://www.w3.org/2000/svg" xmlns:xlink="http://www.w3.org/1999/xlink" xml:space="preserve" xmlns:serif="http://www.serif.com/" style="fill-rule:evenodd;clip-rule:evenodd;stroke-linecap:square;stroke-linejoin:round;stroke-miterlimit:1.5;">
    <g transform="matrix(1,0,0,1,-4808.25,-3584.45)">
        <g transform="matrix(1,0,0,1.51295,177.581,288.127)">
            <g transform="matrix(0.726356,0,0,0.480092,1052.22,576.371)">
                <rect x="4964.59" y="3495.46" width="275" height="275" style="fill:rgb(230,230,230);stroke:black;stroke-width:7.45px;stroke-dasharray:7.45,37.23,7.45,29.78;"/>
            </g>
        </g>
        <g transform="matrix(1,0,0,1.51295,177.581,288.127)">
            <g transform="matrix(0.647774,0,0,0.505833,1490.5,301.02)">
                <path d="M5027.27,4031.04C5040.48,4012.31 5058.7,3986.53 5062.59,3981.24C5098.1,3932.98 5124.55,3904.87 5170.97,3867.73C5195.66,3847.97 5225.99,3827.68 5253.23,3811.41C5363.89,3745.28 5476.66,3717.24 5604.12,3712.15C5614.6,3711.73 5623.5,3718.58 5623.99,3727.45C5624.49,3736.31 5616.39,3743.85 5605.92,3744.26C5485.78,3749.07 5379.43,3775.35 5275.14,3837.68C5249.3,3853.12 5220.49,3872.35 5197.06,3891.1C5153.26,3926.14 5128.35,3952.7 5094.84,3998.24C5089.02,4006.14 5062.04,4048.5 5047.47,4065.99C5042.95,4071.41 5038.86,4075.03 5036.29,4076.62C5033.42,4078.41 5030.72,4079.29 5028.54,4079.75C5021.42,4081.25 5015.39,4079.86 5010.26,4076.6C5006.19,4074.02 5002.55,4068.76 5000.76,4064.65C4990.13,4040.37 4983.57,4017.45 4970.88,3993.37C4937.39,3929.83 4923.38,3906.51 4862.52,3895.11C4852.29,3893.19 4845.82,3884.6 4848.08,3875.94C4850.35,3867.28 4860.5,3861.8 4870.73,3863.72C4944.59,3877.55 4964.93,3903.16 5005.57,3980.27C5014.64,3997.49 5020.72,4014.12 5027.27,4031.04Z" style="fill:rgb(70,72,75);"/>
            </g>
        </g>
    </g>
</svg>
