<svg xmlns="http://www.w3.org/2000/svg" viewBox="0 0 248.39 200.36"><defs><style>.cls-1{opacity:0.9;isolation:isolate;}</style></defs><title>desktopDark</title><g id="Layer_2" data-name="Layer 2"><g id="Layer_1-2" data-name="Layer 1"><g class="cls-1"><path d="M237.93,139.1H10.46V12.74H237.93ZM124.2,164.53a4.8,4.8,0,0,1-3.42-1.43,4.56,4.56,0,0,1-1-1.58,4.86,4.86,0,0,1,0-3.72,4.56,4.56,0,0,1,1-1.58,4.81,4.81,0,0,1,5.27-1.06,4.88,4.88,0,0,1,0,9A4.7,4.7,0,0,1,124.2,164.53ZM241,0H7.61A7.33,7.33,0,0,0,4.76.5,7.27,7.27,0,0,0,2.32,2,7.52,7.52,0,0,0,0,7.24V164.16A7.86,7.86,0,0,0,.66,167a7.67,7.67,0,0,0,1.66,2.43,7.77,7.77,0,0,0,5.29,2.28h91.9c0,2.35-.83,12.51-5.64,17.43-3.77,3.87-9,7.5-7,9.37.49,1.16,2.85,1.82,8.21,1.82h60.45c6.11,0,8.23-1,8.26-2.63h-.21v-.29h-.21c-.26-2-4.34-5-7.43-8.19-4.78-4.9-5.51-15.06-5.62-17.43H241a7.46,7.46,0,0,0,2.87-.61,7.49,7.49,0,0,0,4-4.15,7.39,7.39,0,0,0,.53-2.9V7.24a7.18,7.18,0,0,0-.58-2.81,7.27,7.27,0,0,0-1.61-2.37A7.3,7.3,0,0,0,241,0Z"/></g></g></g></svg>