<?xml version="1.0" encoding="UTF-8" standalone="no"?>
<!DOCTYPE svg PUBLIC "-//W3C//DTD SVG 1.1//EN" "http://www.w3.org/Graphics/SVG/1.1/DTD/svg11.dtd">
<svg width="100%" height="100%" viewBox="0 0 1949 661" version="1.1" xmlns="http://www.w3.org/2000/svg" xmlns:xlink="http://www.w3.org/1999/xlink" xml:space="preserve" xmlns:serif="http://www.serif.com/" style="fill-rule:evenodd;clip-rule:evenodd;stroke-linejoin:round;stroke-miterlimit:2;">
    <g transform="matrix(1,0,0,1,-107741,-69589.5)">
        <g transform="matrix(1,0,0,1,112363,69263.3)">
            <g transform="matrix(0.833602,0,0,0.989468,-4655.66,-1257.68)">
                <g transform="matrix(388.889,0,0,388.889,17.3616,1882.05)">
                    <path d="M0.094,-0.7L0.224,-0.7L0.224,-0.11L0.59,-0.11L0.59,0L0.094,0L0.094,-0.7Z" style="fill:rgb(106,114,163);fill-rule:nonzero;"/>
                </g>
                <g transform="matrix(388.889,0,0,388.889,248.362,1882.05)">
                    <path d="M0.322,0.007C0.268,0.007 0.219,-0.005 0.176,-0.028C0.133,-0.051 0.099,-0.084 0.075,-0.126C0.05,-0.167 0.038,-0.214 0.038,-0.267C0.038,-0.32 0.05,-0.367 0.075,-0.408C0.099,-0.449 0.133,-0.482 0.176,-0.505C0.219,-0.528 0.268,-0.54 0.322,-0.54C0.377,-0.54 0.426,-0.528 0.469,-0.505C0.512,-0.482 0.546,-0.449 0.571,-0.408C0.595,-0.367 0.607,-0.32 0.607,-0.267C0.607,-0.214 0.595,-0.167 0.571,-0.126C0.546,-0.084 0.512,-0.051 0.469,-0.028C0.426,-0.005 0.377,0.007 0.322,0.007ZM0.322,-0.1C0.368,-0.1 0.406,-0.115 0.436,-0.146C0.466,-0.177 0.481,-0.217 0.481,-0.267C0.481,-0.317 0.466,-0.357 0.436,-0.388C0.406,-0.419 0.368,-0.434 0.322,-0.434C0.276,-0.434 0.238,-0.419 0.209,-0.388C0.179,-0.357 0.164,-0.317 0.164,-0.267C0.164,-0.217 0.179,-0.177 0.209,-0.146C0.238,-0.115 0.276,-0.1 0.322,-0.1Z" style="fill:rgb(106,114,163);fill-rule:nonzero;"/>
                </g>
                <g transform="matrix(388.889,0,0,388.889,499.195,1882.05)">
                    <path d="M0.612,-0.534L0.612,-0.081C0.612,0.107 0.516,0.201 0.324,0.201C0.273,0.201 0.224,0.194 0.178,0.181C0.132,0.168 0.094,0.15 0.064,0.125L0.12,0.031C0.143,0.05 0.173,0.066 0.209,0.077C0.244,0.089 0.28,0.095 0.317,0.095C0.376,0.095 0.419,0.082 0.446,0.055C0.473,0.028 0.487,-0.012 0.487,-0.067L0.487,-0.095C0.466,-0.072 0.44,-0.054 0.409,-0.042C0.378,-0.03 0.345,-0.024 0.308,-0.024C0.257,-0.024 0.212,-0.035 0.171,-0.057C0.13,-0.078 0.097,-0.109 0.074,-0.148C0.05,-0.187 0.038,-0.232 0.038,-0.283C0.038,-0.334 0.05,-0.379 0.074,-0.418C0.097,-0.457 0.13,-0.487 0.171,-0.508C0.212,-0.529 0.257,-0.54 0.308,-0.54C0.347,-0.54 0.382,-0.534 0.413,-0.521C0.445,-0.508 0.472,-0.489 0.493,-0.463L0.493,-0.534L0.612,-0.534ZM0.327,-0.13C0.374,-0.13 0.413,-0.144 0.444,-0.172C0.474,-0.201 0.489,-0.238 0.489,-0.283C0.489,-0.328 0.474,-0.364 0.444,-0.392C0.413,-0.42 0.374,-0.434 0.327,-0.434C0.279,-0.434 0.24,-0.42 0.21,-0.392C0.179,-0.364 0.164,-0.328 0.164,-0.283C0.164,-0.238 0.179,-0.201 0.21,-0.172C0.24,-0.144 0.279,-0.13 0.327,-0.13Z" style="fill:rgb(106,114,163);fill-rule:nonzero;"/>
                </g>
                <g transform="matrix(388.889,0,0,388.889,1060.42,1882.05)">
                    <path d="M0.247,0.007C0.204,0.007 0.161,0.001 0.12,-0.01C0.079,-0.021 0.046,-0.036 0.021,-0.053L0.069,-0.148C0.093,-0.132 0.122,-0.119 0.156,-0.11C0.189,-0.1 0.222,-0.095 0.255,-0.095C0.33,-0.095 0.367,-0.115 0.367,-0.154C0.367,-0.173 0.358,-0.186 0.339,-0.193C0.32,-0.2 0.289,-0.207 0.247,-0.214C0.203,-0.221 0.167,-0.228 0.14,-0.237C0.112,-0.246 0.088,-0.261 0.068,-0.282C0.047,-0.304 0.037,-0.334 0.037,-0.373C0.037,-0.424 0.058,-0.464 0.101,-0.495C0.143,-0.525 0.2,-0.54 0.272,-0.54C0.309,-0.54 0.345,-0.536 0.382,-0.528C0.419,-0.519 0.449,-0.508 0.472,-0.494L0.424,-0.399C0.379,-0.426 0.328,-0.439 0.271,-0.439C0.234,-0.439 0.206,-0.434 0.188,-0.423C0.169,-0.411 0.159,-0.397 0.159,-0.379C0.159,-0.359 0.169,-0.345 0.19,-0.337C0.21,-0.328 0.241,-0.32 0.284,-0.313C0.327,-0.306 0.362,-0.299 0.389,-0.29C0.416,-0.281 0.44,-0.267 0.46,-0.246C0.479,-0.225 0.489,-0.196 0.489,-0.158C0.489,-0.108 0.467,-0.068 0.424,-0.038C0.381,-0.008 0.322,0.007 0.247,0.007Z" style="fill:rgb(106,114,163);fill-rule:nonzero;"/>
                </g>
            </g>
            <g transform="matrix(0.833602,0,0,0.989468,-4666.94,-1266.58)">
                <g transform="matrix(388.889,0,0,388.889,17.3616,1882.05)">
                    <path d="M0.094,-0.7L0.224,-0.7L0.224,-0.11L0.59,-0.11L0.59,0L0.094,0L0.094,-0.7Z" style="fill:white;fill-rule:nonzero;"/>
                </g>
                <g transform="matrix(388.889,0,0,388.889,248.362,1882.05)">
                    <path d="M0.322,0.007C0.268,0.007 0.219,-0.005 0.176,-0.028C0.133,-0.051 0.099,-0.084 0.075,-0.126C0.05,-0.167 0.038,-0.214 0.038,-0.267C0.038,-0.32 0.05,-0.367 0.075,-0.408C0.099,-0.449 0.133,-0.482 0.176,-0.505C0.219,-0.528 0.268,-0.54 0.322,-0.54C0.377,-0.54 0.426,-0.528 0.469,-0.505C0.512,-0.482 0.546,-0.449 0.571,-0.408C0.595,-0.367 0.607,-0.32 0.607,-0.267C0.607,-0.214 0.595,-0.167 0.571,-0.126C0.546,-0.084 0.512,-0.051 0.469,-0.028C0.426,-0.005 0.377,0.007 0.322,0.007ZM0.322,-0.1C0.368,-0.1 0.406,-0.115 0.436,-0.146C0.466,-0.177 0.481,-0.217 0.481,-0.267C0.481,-0.317 0.466,-0.357 0.436,-0.388C0.406,-0.419 0.368,-0.434 0.322,-0.434C0.276,-0.434 0.238,-0.419 0.209,-0.388C0.179,-0.357 0.164,-0.317 0.164,-0.267C0.164,-0.217 0.179,-0.177 0.209,-0.146C0.238,-0.115 0.276,-0.1 0.322,-0.1Z" style="fill:white;fill-rule:nonzero;"/>
                </g>
                <g transform="matrix(388.889,0,0,388.889,499.195,1882.05)">
                    <path d="M0.612,-0.534L0.612,-0.081C0.612,0.107 0.516,0.201 0.324,0.201C0.273,0.201 0.224,0.194 0.178,0.181C0.132,0.168 0.094,0.15 0.064,0.125L0.12,0.031C0.143,0.05 0.173,0.066 0.209,0.077C0.244,0.089 0.28,0.095 0.317,0.095C0.376,0.095 0.419,0.082 0.446,0.055C0.473,0.028 0.487,-0.012 0.487,-0.067L0.487,-0.095C0.466,-0.072 0.44,-0.054 0.409,-0.042C0.378,-0.03 0.345,-0.024 0.308,-0.024C0.257,-0.024 0.212,-0.035 0.171,-0.057C0.13,-0.078 0.097,-0.109 0.074,-0.148C0.05,-0.187 0.038,-0.232 0.038,-0.283C0.038,-0.334 0.05,-0.379 0.074,-0.418C0.097,-0.457 0.13,-0.487 0.171,-0.508C0.212,-0.529 0.257,-0.54 0.308,-0.54C0.347,-0.54 0.382,-0.534 0.413,-0.521C0.445,-0.508 0.472,-0.489 0.493,-0.463L0.493,-0.534L0.612,-0.534ZM0.327,-0.13C0.374,-0.13 0.413,-0.144 0.444,-0.172C0.474,-0.201 0.489,-0.238 0.489,-0.283C0.489,-0.328 0.474,-0.364 0.444,-0.392C0.413,-0.42 0.374,-0.434 0.327,-0.434C0.279,-0.434 0.24,-0.42 0.21,-0.392C0.179,-0.364 0.164,-0.328 0.164,-0.283C0.164,-0.238 0.179,-0.201 0.21,-0.172C0.24,-0.144 0.279,-0.13 0.327,-0.13Z" style="fill:white;fill-rule:nonzero;"/>
                </g>
                <g transform="matrix(388.889,0,0,388.889,1060.42,1882.05)">
                    <path d="M0.247,0.007C0.204,0.007 0.161,0.001 0.12,-0.01C0.079,-0.021 0.046,-0.036 0.021,-0.053L0.069,-0.148C0.093,-0.132 0.122,-0.119 0.156,-0.11C0.189,-0.1 0.222,-0.095 0.255,-0.095C0.33,-0.095 0.367,-0.115 0.367,-0.154C0.367,-0.173 0.358,-0.186 0.339,-0.193C0.32,-0.2 0.289,-0.207 0.247,-0.214C0.203,-0.221 0.167,-0.228 0.14,-0.237C0.112,-0.246 0.088,-0.261 0.068,-0.282C0.047,-0.304 0.037,-0.334 0.037,-0.373C0.037,-0.424 0.058,-0.464 0.101,-0.495C0.143,-0.525 0.2,-0.54 0.272,-0.54C0.309,-0.54 0.345,-0.536 0.382,-0.528C0.419,-0.519 0.449,-0.508 0.472,-0.494L0.424,-0.399C0.379,-0.426 0.328,-0.439 0.271,-0.439C0.234,-0.439 0.206,-0.434 0.188,-0.423C0.169,-0.411 0.159,-0.397 0.159,-0.379C0.159,-0.359 0.169,-0.345 0.19,-0.337C0.21,-0.328 0.241,-0.32 0.284,-0.313C0.327,-0.306 0.362,-0.299 0.389,-0.29C0.416,-0.281 0.44,-0.267 0.46,-0.246C0.479,-0.225 0.489,-0.196 0.489,-0.158C0.489,-0.108 0.467,-0.068 0.424,-0.038C0.381,-0.008 0.322,0.007 0.247,0.007Z" style="fill:white;fill-rule:nonzero;"/>
                </g>
            </g>
            <g transform="matrix(0.803208,0,0,0.936689,-4635.29,-1261.51)">
                <g transform="matrix(416.667,0,0,416.667,205.501,2316.71)">
                    <path d="M0.59,-0.364C0.629,-0.351 0.659,-0.33 0.682,-0.301C0.705,-0.271 0.716,-0.234 0.716,-0.19C0.716,-0.129 0.693,-0.083 0.646,-0.05C0.599,-0.017 0.531,0 0.442,0L0.094,0L0.094,-0.7L0.422,-0.7C0.505,-0.7 0.568,-0.684 0.613,-0.652C0.658,-0.619 0.68,-0.575 0.68,-0.518C0.68,-0.483 0.672,-0.453 0.656,-0.426C0.64,-0.399 0.618,-0.379 0.59,-0.364ZM0.224,-0.598L0.224,-0.405L0.408,-0.405C0.453,-0.405 0.488,-0.413 0.513,-0.43C0.537,-0.446 0.549,-0.47 0.549,-0.501C0.549,-0.533 0.537,-0.557 0.513,-0.574C0.488,-0.59 0.453,-0.598 0.408,-0.598L0.224,-0.598ZM0.434,-0.102C0.535,-0.102 0.585,-0.136 0.585,-0.203C0.585,-0.27 0.535,-0.304 0.434,-0.304L0.224,-0.304L0.224,-0.102L0.434,-0.102Z" style="fill:rgb(106,114,163);fill-rule:nonzero;"/>
                </g>
                <g transform="matrix(416.667,0,0,416.667,522.584,2316.71)">
                    <path d="M0.201,-0.456C0.237,-0.512 0.3,-0.54 0.391,-0.54L0.391,-0.421C0.38,-0.423 0.371,-0.424 0.362,-0.424C0.313,-0.424 0.275,-0.41 0.248,-0.382C0.221,-0.353 0.207,-0.312 0.207,-0.259L0.207,0L0.082,0L0.082,-0.534L0.201,-0.534L0.201,-0.456Z" style="fill:rgb(106,114,163);fill-rule:nonzero;"/>
                </g>
                <g transform="matrix(416.667,0,0,416.667,1206.18,2316.71)">
                    <path d="M0.385,-0.54C0.452,-0.54 0.506,-0.52 0.547,-0.481C0.588,-0.442 0.608,-0.383 0.608,-0.306L0.608,0L0.483,0L0.483,-0.29C0.483,-0.337 0.472,-0.372 0.45,-0.396C0.428,-0.419 0.397,-0.431 0.356,-0.431C0.31,-0.431 0.274,-0.417 0.247,-0.39C0.22,-0.362 0.207,-0.322 0.207,-0.27L0.207,0L0.082,0L0.082,-0.534L0.201,-0.534L0.201,-0.465C0.222,-0.49 0.248,-0.508 0.279,-0.521C0.31,-0.534 0.346,-0.54 0.385,-0.54Z" style="fill:rgb(106,114,163);fill-rule:nonzero;"/>
                </g>
                <g transform="matrix(416.667,0,0,416.667,1493.68,2316.71)">
                    <path d="M0.605,-0.742L0.605,0L0.485,0L0.485,-0.069C0.464,-0.044 0.439,-0.025 0.408,-0.012C0.378,0.001 0.345,0.007 0.308,0.007C0.257,0.007 0.211,-0.004 0.17,-0.027C0.129,-0.05 0.096,-0.082 0.073,-0.124C0.05,-0.165 0.038,-0.213 0.038,-0.267C0.038,-0.321 0.05,-0.369 0.073,-0.41C0.096,-0.451 0.129,-0.483 0.17,-0.506C0.211,-0.529 0.257,-0.54 0.308,-0.54C0.343,-0.54 0.376,-0.534 0.405,-0.522C0.434,-0.51 0.459,-0.492 0.48,-0.468L0.48,-0.742L0.605,-0.742ZM0.323,-0.1C0.353,-0.1 0.38,-0.107 0.404,-0.121C0.428,-0.134 0.447,-0.154 0.461,-0.179C0.475,-0.204 0.482,-0.234 0.482,-0.267C0.482,-0.3 0.475,-0.33 0.461,-0.355C0.447,-0.38 0.428,-0.4 0.404,-0.413C0.38,-0.427 0.353,-0.434 0.323,-0.434C0.293,-0.434 0.266,-0.427 0.242,-0.413C0.218,-0.4 0.199,-0.38 0.185,-0.355C0.171,-0.33 0.164,-0.3 0.164,-0.267C0.164,-0.234 0.171,-0.204 0.185,-0.179C0.199,-0.154 0.218,-0.134 0.242,-0.121C0.266,-0.107 0.293,-0.1 0.323,-0.1Z" style="fill:rgb(106,114,163);fill-rule:nonzero;"/>
                </g>
                <g transform="matrix(416.667,0,0,416.667,1779.93,2316.71)">
                    <path d="M0.082,-0.534L0.207,-0.534L0.207,0L0.082,0L0.082,-0.534ZM0.145,-0.622C0.122,-0.622 0.103,-0.629 0.088,-0.644C0.073,-0.658 0.065,-0.676 0.065,-0.697C0.065,-0.718 0.073,-0.736 0.088,-0.75C0.103,-0.765 0.122,-0.772 0.145,-0.772C0.168,-0.772 0.187,-0.765 0.202,-0.751C0.217,-0.738 0.225,-0.721 0.225,-0.7C0.225,-0.678 0.218,-0.66 0.203,-0.645C0.188,-0.629 0.168,-0.622 0.145,-0.622Z" style="fill:rgb(106,114,163);fill-rule:nonzero;"/>
                </g>
                <g transform="matrix(416.667,0,0,416.667,1900.34,2316.71)">
                    <path d="M0.385,-0.54C0.452,-0.54 0.506,-0.52 0.547,-0.481C0.588,-0.442 0.608,-0.383 0.608,-0.306L0.608,0L0.483,0L0.483,-0.29C0.483,-0.337 0.472,-0.372 0.45,-0.396C0.428,-0.419 0.397,-0.431 0.356,-0.431C0.31,-0.431 0.274,-0.417 0.247,-0.39C0.22,-0.362 0.207,-0.322 0.207,-0.27L0.207,0L0.082,0L0.082,-0.534L0.201,-0.534L0.201,-0.465C0.222,-0.49 0.248,-0.508 0.279,-0.521C0.31,-0.534 0.346,-0.54 0.385,-0.54Z" style="fill:rgb(106,114,163);fill-rule:nonzero;"/>
                </g>
                <g transform="matrix(416.667,0,0,416.667,2187.84,2316.71)">
                    <path d="M0.612,-0.534L0.612,-0.081C0.612,0.107 0.516,0.201 0.324,0.201C0.273,0.201 0.224,0.194 0.178,0.181C0.132,0.168 0.094,0.15 0.064,0.125L0.12,0.031C0.143,0.05 0.173,0.066 0.209,0.077C0.244,0.089 0.28,0.095 0.317,0.095C0.376,0.095 0.419,0.082 0.446,0.055C0.473,0.028 0.487,-0.012 0.487,-0.067L0.487,-0.095C0.466,-0.072 0.44,-0.054 0.409,-0.042C0.378,-0.03 0.345,-0.024 0.308,-0.024C0.257,-0.024 0.212,-0.035 0.171,-0.057C0.13,-0.078 0.097,-0.109 0.074,-0.148C0.05,-0.187 0.038,-0.232 0.038,-0.283C0.038,-0.334 0.05,-0.379 0.074,-0.418C0.097,-0.457 0.13,-0.487 0.171,-0.508C0.212,-0.529 0.257,-0.54 0.308,-0.54C0.347,-0.54 0.382,-0.534 0.413,-0.521C0.445,-0.508 0.472,-0.489 0.493,-0.463L0.493,-0.534L0.612,-0.534ZM0.327,-0.13C0.374,-0.13 0.413,-0.144 0.444,-0.172C0.474,-0.201 0.489,-0.238 0.489,-0.283C0.489,-0.328 0.474,-0.364 0.444,-0.392C0.413,-0.42 0.374,-0.434 0.327,-0.434C0.279,-0.434 0.24,-0.42 0.21,-0.392C0.179,-0.364 0.164,-0.328 0.164,-0.283C0.164,-0.238 0.179,-0.201 0.21,-0.172C0.24,-0.144 0.279,-0.13 0.327,-0.13Z" style="fill:rgb(106,114,163);fill-rule:nonzero;"/>
                </g>
            </g>
            <g transform="matrix(0.803208,0,0,0.936689,-4646.57,-1270.41)">
                <g transform="matrix(416.667,0,0,416.667,205.501,2316.71)">
                    <path d="M0.59,-0.364C0.629,-0.351 0.659,-0.33 0.682,-0.301C0.705,-0.271 0.716,-0.234 0.716,-0.19C0.716,-0.129 0.693,-0.083 0.646,-0.05C0.599,-0.017 0.531,0 0.442,0L0.094,0L0.094,-0.7L0.422,-0.7C0.505,-0.7 0.568,-0.684 0.613,-0.652C0.658,-0.619 0.68,-0.575 0.68,-0.518C0.68,-0.483 0.672,-0.453 0.656,-0.426C0.64,-0.399 0.618,-0.379 0.59,-0.364ZM0.224,-0.598L0.224,-0.405L0.408,-0.405C0.453,-0.405 0.488,-0.413 0.513,-0.43C0.537,-0.446 0.549,-0.47 0.549,-0.501C0.549,-0.533 0.537,-0.557 0.513,-0.574C0.488,-0.59 0.453,-0.598 0.408,-0.598L0.224,-0.598ZM0.434,-0.102C0.535,-0.102 0.585,-0.136 0.585,-0.203C0.585,-0.27 0.535,-0.304 0.434,-0.304L0.224,-0.304L0.224,-0.102L0.434,-0.102Z" style="fill:white;fill-rule:nonzero;"/>
                </g>
                <g transform="matrix(416.667,0,0,416.667,522.584,2316.71)">
                    <path d="M0.201,-0.456C0.237,-0.512 0.3,-0.54 0.391,-0.54L0.391,-0.421C0.38,-0.423 0.371,-0.424 0.362,-0.424C0.313,-0.424 0.275,-0.41 0.248,-0.382C0.221,-0.353 0.207,-0.312 0.207,-0.259L0.207,0L0.082,0L0.082,-0.534L0.201,-0.534L0.201,-0.456Z" style="fill:white;fill-rule:nonzero;"/>
                </g>
                <g transform="matrix(416.667,0,0,416.667,1206.18,2316.71)">
                    <path d="M0.385,-0.54C0.452,-0.54 0.506,-0.52 0.547,-0.481C0.588,-0.442 0.608,-0.383 0.608,-0.306L0.608,0L0.483,0L0.483,-0.29C0.483,-0.337 0.472,-0.372 0.45,-0.396C0.428,-0.419 0.397,-0.431 0.356,-0.431C0.31,-0.431 0.274,-0.417 0.247,-0.39C0.22,-0.362 0.207,-0.322 0.207,-0.27L0.207,0L0.082,0L0.082,-0.534L0.201,-0.534L0.201,-0.465C0.222,-0.49 0.248,-0.508 0.279,-0.521C0.31,-0.534 0.346,-0.54 0.385,-0.54Z" style="fill:white;fill-rule:nonzero;"/>
                </g>
                <g transform="matrix(416.667,0,0,416.667,1493.68,2316.71)">
                    <path d="M0.605,-0.742L0.605,0L0.485,0L0.485,-0.069C0.464,-0.044 0.439,-0.025 0.408,-0.012C0.378,0.001 0.345,0.007 0.308,0.007C0.257,0.007 0.211,-0.004 0.17,-0.027C0.129,-0.05 0.096,-0.082 0.073,-0.124C0.05,-0.165 0.038,-0.213 0.038,-0.267C0.038,-0.321 0.05,-0.369 0.073,-0.41C0.096,-0.451 0.129,-0.483 0.17,-0.506C0.211,-0.529 0.257,-0.54 0.308,-0.54C0.343,-0.54 0.376,-0.534 0.405,-0.522C0.434,-0.51 0.459,-0.492 0.48,-0.468L0.48,-0.742L0.605,-0.742ZM0.323,-0.1C0.353,-0.1 0.38,-0.107 0.404,-0.121C0.428,-0.134 0.447,-0.154 0.461,-0.179C0.475,-0.204 0.482,-0.234 0.482,-0.267C0.482,-0.3 0.475,-0.33 0.461,-0.355C0.447,-0.38 0.428,-0.4 0.404,-0.413C0.38,-0.427 0.353,-0.434 0.323,-0.434C0.293,-0.434 0.266,-0.427 0.242,-0.413C0.218,-0.4 0.199,-0.38 0.185,-0.355C0.171,-0.33 0.164,-0.3 0.164,-0.267C0.164,-0.234 0.171,-0.204 0.185,-0.179C0.199,-0.154 0.218,-0.134 0.242,-0.121C0.266,-0.107 0.293,-0.1 0.323,-0.1Z" style="fill:white;fill-rule:nonzero;"/>
                </g>
                <g transform="matrix(416.667,0,0,416.667,1779.93,2316.71)">
                    <path d="M0.082,-0.534L0.207,-0.534L0.207,0L0.082,0L0.082,-0.534ZM0.145,-0.622C0.122,-0.622 0.103,-0.629 0.088,-0.644C0.073,-0.658 0.065,-0.676 0.065,-0.697C0.065,-0.718 0.073,-0.736 0.088,-0.75C0.103,-0.765 0.122,-0.772 0.145,-0.772C0.168,-0.772 0.187,-0.765 0.202,-0.751C0.217,-0.738 0.225,-0.721 0.225,-0.7C0.225,-0.678 0.218,-0.66 0.203,-0.645C0.188,-0.629 0.168,-0.622 0.145,-0.622Z" style="fill:white;fill-rule:nonzero;"/>
                </g>
                <g transform="matrix(416.667,0,0,416.667,1900.34,2316.71)">
                    <path d="M0.385,-0.54C0.452,-0.54 0.506,-0.52 0.547,-0.481C0.588,-0.442 0.608,-0.383 0.608,-0.306L0.608,0L0.483,0L0.483,-0.29C0.483,-0.337 0.472,-0.372 0.45,-0.396C0.428,-0.419 0.397,-0.431 0.356,-0.431C0.31,-0.431 0.274,-0.417 0.247,-0.39C0.22,-0.362 0.207,-0.322 0.207,-0.27L0.207,0L0.082,0L0.082,-0.534L0.201,-0.534L0.201,-0.465C0.222,-0.49 0.248,-0.508 0.279,-0.521C0.31,-0.534 0.346,-0.54 0.385,-0.54Z" style="fill:white;fill-rule:nonzero;"/>
                </g>
                <g transform="matrix(416.667,0,0,416.667,2187.84,2316.71)">
                    <path d="M0.612,-0.534L0.612,-0.081C0.612,0.107 0.516,0.201 0.324,0.201C0.273,0.201 0.224,0.194 0.178,0.181C0.132,0.168 0.094,0.15 0.064,0.125L0.12,0.031C0.143,0.05 0.173,0.066 0.209,0.077C0.244,0.089 0.28,0.095 0.317,0.095C0.376,0.095 0.419,0.082 0.446,0.055C0.473,0.028 0.487,-0.012 0.487,-0.067L0.487,-0.095C0.466,-0.072 0.44,-0.054 0.409,-0.042C0.378,-0.03 0.345,-0.024 0.308,-0.024C0.257,-0.024 0.212,-0.035 0.171,-0.057C0.13,-0.078 0.097,-0.109 0.074,-0.148C0.05,-0.187 0.038,-0.232 0.038,-0.283C0.038,-0.334 0.05,-0.379 0.074,-0.418C0.097,-0.457 0.13,-0.487 0.171,-0.508C0.212,-0.529 0.257,-0.54 0.308,-0.54C0.347,-0.54 0.382,-0.534 0.413,-0.521C0.445,-0.508 0.472,-0.489 0.493,-0.463L0.493,-0.534L0.612,-0.534ZM0.327,-0.13C0.374,-0.13 0.413,-0.144 0.444,-0.172C0.474,-0.201 0.489,-0.238 0.489,-0.283C0.489,-0.328 0.474,-0.364 0.444,-0.392C0.413,-0.42 0.374,-0.434 0.327,-0.434C0.279,-0.434 0.24,-0.42 0.21,-0.392C0.179,-0.364 0.164,-0.328 0.164,-0.283C0.164,-0.238 0.179,-0.201 0.21,-0.172C0.24,-0.144 0.279,-0.13 0.327,-0.13Z" style="fill:white;fill-rule:nonzero;"/>
                </g>
            </g>
            <g transform="matrix(572.696,0,0,714.564,-4080.74,904.035)">
                <path d="M0.619,0.011L0.531,-0.074C0.466,-0.018 0.387,0.01 0.296,0.01C0.247,0.01 0.204,0.002 0.165,-0.014C0.126,-0.03 0.096,-0.052 0.074,-0.081C0.052,-0.109 0.041,-0.141 0.041,-0.177C0.041,-0.22 0.054,-0.259 0.079,-0.292C0.104,-0.325 0.146,-0.357 0.203,-0.389C0.175,-0.417 0.155,-0.443 0.143,-0.468C0.131,-0.492 0.125,-0.517 0.125,-0.543C0.125,-0.592 0.143,-0.632 0.181,-0.663C0.218,-0.693 0.267,-0.708 0.328,-0.708C0.385,-0.708 0.43,-0.694 0.464,-0.667C0.498,-0.639 0.515,-0.601 0.515,-0.554C0.515,-0.518 0.504,-0.486 0.482,-0.458C0.459,-0.43 0.417,-0.386 0.367,-0.358L0.522,-0.209C0.55,-0.237 0.562,-0.262 0.578,-0.311L0.679,-0.311C0.669,-0.226 0.623,-0.183 0.595,-0.139L0.749,0.011L0.619,0.011ZM0.328,-0.619C0.301,-0.619 0.279,-0.612 0.263,-0.599C0.247,-0.585 0.232,-0.57 0.232,-0.548C0.232,-0.532 0.235,-0.511 0.243,-0.497C0.252,-0.482 0.272,-0.45 0.297,-0.426C0.337,-0.448 0.37,-0.482 0.386,-0.499C0.401,-0.515 0.409,-0.533 0.409,-0.552C0.409,-0.573 0.402,-0.589 0.388,-0.601C0.373,-0.613 0.353,-0.619 0.328,-0.619ZM0.305,-0.092C0.363,-0.092 0.414,-0.11 0.457,-0.145L0.272,-0.322C0.232,-0.3 0.204,-0.279 0.188,-0.259C0.171,-0.238 0.163,-0.215 0.163,-0.19C0.163,-0.161 0.176,-0.137 0.202,-0.119C0.228,-0.101 0.262,-0.092 0.305,-0.092Z" style="fill:rgb(106,114,163);fill-rule:nonzero;"/>
            </g>
            <g transform="matrix(572.696,0,0,714.564,-4092.02,895.13)">
                <path d="M0.619,0.011L0.531,-0.074C0.466,-0.018 0.387,0.01 0.296,0.01C0.247,0.01 0.204,0.002 0.165,-0.014C0.126,-0.03 0.096,-0.052 0.074,-0.081C0.052,-0.109 0.041,-0.141 0.041,-0.177C0.041,-0.22 0.054,-0.259 0.079,-0.292C0.104,-0.325 0.146,-0.357 0.203,-0.389C0.175,-0.417 0.155,-0.443 0.143,-0.468C0.131,-0.492 0.125,-0.517 0.125,-0.543C0.125,-0.592 0.143,-0.632 0.181,-0.663C0.218,-0.693 0.267,-0.708 0.328,-0.708C0.385,-0.708 0.43,-0.694 0.464,-0.667C0.498,-0.639 0.515,-0.601 0.515,-0.554C0.515,-0.518 0.504,-0.486 0.482,-0.458C0.459,-0.43 0.417,-0.386 0.367,-0.358L0.522,-0.209C0.55,-0.237 0.562,-0.262 0.578,-0.311L0.679,-0.311C0.669,-0.226 0.623,-0.183 0.595,-0.139L0.749,0.011L0.619,0.011ZM0.328,-0.619C0.301,-0.619 0.279,-0.612 0.263,-0.599C0.247,-0.585 0.232,-0.57 0.232,-0.548C0.232,-0.532 0.235,-0.511 0.243,-0.497C0.252,-0.482 0.272,-0.45 0.297,-0.426C0.337,-0.448 0.37,-0.482 0.386,-0.499C0.401,-0.515 0.409,-0.533 0.409,-0.552C0.409,-0.573 0.402,-0.589 0.388,-0.601C0.373,-0.613 0.353,-0.619 0.328,-0.619ZM0.305,-0.092C0.363,-0.092 0.414,-0.11 0.457,-0.145L0.272,-0.322C0.232,-0.3 0.204,-0.279 0.188,-0.259C0.171,-0.238 0.163,-0.215 0.163,-0.19C0.163,-0.161 0.176,-0.137 0.202,-0.119C0.228,-0.101 0.262,-0.092 0.305,-0.092Z" style="fill:white;fill-rule:nonzero;"/>
            </g>
        </g>
    </g>
</svg>
