<?xml version="1.0" encoding="UTF-8" standalone="no"?>
<!DOCTYPE svg PUBLIC "-//W3C//DTD SVG 1.1//EN" "http://www.w3.org/Graphics/SVG/1.1/DTD/svg11.dtd">
<svg width="100%" height="100%" viewBox="0 0 1950 609" version="1.1" xmlns="http://www.w3.org/2000/svg" xmlns:xlink="http://www.w3.org/1999/xlink" xml:space="preserve" xmlns:serif="http://www.serif.com/" style="fill-rule:evenodd;clip-rule:evenodd;stroke-linejoin:round;stroke-miterlimit:2;">
    <g transform="matrix(1,0,0,1,-109869,-68282)">
        <g transform="matrix(1,0,0,1,114505,67959.1)">
            <g transform="matrix(0.64952,0,0,0.770967,-4464.18,201.812)">
                <g transform="matrix(388.889,0,0,388.889,294.985,467.651)">
                    <path d="M0.094,-0.7L0.4,-0.7C0.475,-0.7 0.541,-0.686 0.599,-0.657C0.657,-0.627 0.702,-0.587 0.734,-0.534C0.766,-0.481 0.782,-0.419 0.782,-0.35C0.782,-0.281 0.766,-0.22 0.734,-0.167C0.702,-0.114 0.657,-0.073 0.599,-0.043C0.541,-0.015 0.475,0 0.4,0L0.094,0L0.094,-0.7ZM0.394,-0.11C0.445,-0.11 0.491,-0.12 0.53,-0.14C0.569,-0.159 0.599,-0.187 0.62,-0.224C0.641,-0.26 0.651,-0.302 0.651,-0.35C0.651,-0.398 0.641,-0.44 0.62,-0.476C0.599,-0.513 0.569,-0.541 0.53,-0.561C0.491,-0.58 0.445,-0.59 0.394,-0.59L0.224,-0.59L0.224,-0.11L0.394,-0.11Z" style="fill:rgb(106,114,163);fill-rule:nonzero;"/>
                </g>
                <g transform="matrix(388.889,0,0,388.889,616.207,467.651)">
                    <path d="M0.082,-0.534L0.207,-0.534L0.207,0L0.082,0L0.082,-0.534ZM0.145,-0.622C0.122,-0.622 0.103,-0.629 0.088,-0.644C0.073,-0.658 0.065,-0.676 0.065,-0.697C0.065,-0.718 0.073,-0.736 0.088,-0.75C0.103,-0.765 0.122,-0.772 0.145,-0.772C0.168,-0.772 0.187,-0.765 0.202,-0.751C0.217,-0.738 0.225,-0.721 0.225,-0.7C0.225,-0.678 0.218,-0.66 0.203,-0.645C0.188,-0.629 0.168,-0.622 0.145,-0.622Z" style="fill:rgb(106,114,163);fill-rule:nonzero;"/>
                </g>
                <g transform="matrix(388.889,0,0,388.889,728.596,467.651)">
                    <path d="M0.612,-0.534L0.612,-0.081C0.612,0.107 0.516,0.201 0.324,0.201C0.273,0.201 0.224,0.194 0.178,0.181C0.132,0.168 0.094,0.15 0.064,0.125L0.12,0.031C0.143,0.05 0.173,0.066 0.209,0.077C0.244,0.089 0.28,0.095 0.317,0.095C0.376,0.095 0.419,0.082 0.446,0.055C0.473,0.028 0.487,-0.012 0.487,-0.067L0.487,-0.095C0.466,-0.072 0.44,-0.054 0.409,-0.042C0.378,-0.03 0.345,-0.024 0.308,-0.024C0.257,-0.024 0.212,-0.035 0.171,-0.057C0.13,-0.078 0.097,-0.109 0.074,-0.148C0.05,-0.187 0.038,-0.232 0.038,-0.283C0.038,-0.334 0.05,-0.379 0.074,-0.418C0.097,-0.457 0.13,-0.487 0.171,-0.508C0.212,-0.529 0.257,-0.54 0.308,-0.54C0.347,-0.54 0.382,-0.534 0.413,-0.521C0.445,-0.508 0.472,-0.489 0.493,-0.463L0.493,-0.534L0.612,-0.534ZM0.327,-0.13C0.374,-0.13 0.413,-0.144 0.444,-0.172C0.474,-0.201 0.489,-0.238 0.489,-0.283C0.489,-0.328 0.474,-0.364 0.444,-0.392C0.413,-0.42 0.374,-0.434 0.327,-0.434C0.279,-0.434 0.24,-0.42 0.21,-0.392C0.179,-0.364 0.164,-0.328 0.164,-0.283C0.164,-0.238 0.179,-0.201 0.21,-0.172C0.24,-0.144 0.279,-0.13 0.327,-0.13Z" style="fill:rgb(106,114,163);fill-rule:nonzero;"/>
                </g>
                <g transform="matrix(388.889,0,0,388.889,998.485,467.651)">
                    <path d="M0.082,-0.534L0.207,-0.534L0.207,0L0.082,0L0.082,-0.534ZM0.145,-0.622C0.122,-0.622 0.103,-0.629 0.088,-0.644C0.073,-0.658 0.065,-0.676 0.065,-0.697C0.065,-0.718 0.073,-0.736 0.088,-0.75C0.103,-0.765 0.122,-0.772 0.145,-0.772C0.168,-0.772 0.187,-0.765 0.202,-0.751C0.217,-0.738 0.225,-0.721 0.225,-0.7C0.225,-0.678 0.218,-0.66 0.203,-0.645C0.188,-0.629 0.168,-0.622 0.145,-0.622Z" style="fill:rgb(106,114,163);fill-rule:nonzero;"/>
                </g>
                <g transform="matrix(388.889,0,0,388.889,1110.87,467.651)">
                    <path d="M0.403,-0.029C0.388,-0.017 0.371,-0.008 0.349,-0.002C0.329,0.004 0.306,0.007 0.283,0.007C0.224,0.007 0.179,-0.008 0.147,-0.039C0.115,-0.07 0.099,-0.114 0.099,-0.173L0.099,-0.43L0.011,-0.43L0.011,-0.53L0.099,-0.53L0.099,-0.652L0.224,-0.652L0.224,-0.53L0.367,-0.53L0.367,-0.43L0.224,-0.43L0.224,-0.176C0.224,-0.15 0.23,-0.13 0.243,-0.117C0.256,-0.103 0.274,-0.096 0.298,-0.096C0.326,-0.096 0.349,-0.103 0.368,-0.118L0.403,-0.029Z" style="fill:rgb(106,114,163);fill-rule:nonzero;"/>
                </g>
                <g transform="matrix(388.889,0,0,388.889,1275.76,467.651)">
                    <path d="M0.286,-0.54C0.365,-0.54 0.425,-0.521 0.467,-0.484C0.508,-0.446 0.529,-0.389 0.529,-0.313L0.529,0L0.411,0L0.411,-0.065C0.396,-0.042 0.374,-0.024 0.345,-0.012C0.317,0.001 0.283,0.007 0.243,0.007C0.203,0.007 0.168,0 0.138,-0.014C0.108,-0.027 0.085,-0.046 0.069,-0.07C0.052,-0.095 0.044,-0.122 0.044,-0.153C0.044,-0.201 0.062,-0.239 0.098,-0.269C0.133,-0.298 0.189,-0.312 0.266,-0.312L0.404,-0.312L0.404,-0.32C0.404,-0.357 0.393,-0.386 0.371,-0.406C0.348,-0.426 0.315,-0.436 0.271,-0.436C0.241,-0.436 0.212,-0.431 0.183,-0.422C0.154,-0.413 0.129,-0.4 0.109,-0.383L0.06,-0.474C0.088,-0.495 0.122,-0.512 0.161,-0.523C0.2,-0.534 0.242,-0.54 0.286,-0.54ZM0.269,-0.084C0.3,-0.084 0.328,-0.091 0.353,-0.106C0.377,-0.12 0.394,-0.14 0.404,-0.167L0.404,-0.229L0.275,-0.229C0.203,-0.229 0.167,-0.205 0.167,-0.158C0.167,-0.135 0.176,-0.117 0.194,-0.104C0.212,-0.091 0.237,-0.084 0.269,-0.084Z" style="fill:rgb(106,114,163);fill-rule:nonzero;"/>
                </g>
                <g transform="matrix(388.889,0,0,388.889,1511.82,467.651)">
                    <rect x="0.082" y="-0.742" width="0.125" height="0.742" style="fill:rgb(106,114,163);fill-rule:nonzero;"/>
                </g>
            </g>
        </g>
        <g transform="matrix(1,0,0,1,114505,67959.1)">
            <g transform="matrix(1.02057,0,0,1.02149,-6876.27,-108.446)">
                <g transform="matrix(448.486,0,0,434.778,2166.94,931.047)">
                    <path d="M0.737,0L0.736,-0.464L0.506,-0.08L0.448,-0.08L0.218,-0.458L0.218,0L0.094,0L0.094,-0.7L0.201,-0.7L0.479,-0.236L0.752,-0.7L0.859,-0.7L0.86,0L0.737,0Z" style="fill:rgb(106,114,163);fill-rule:nonzero;"/>
                </g>
                <g transform="matrix(366.289,0,0,434.778,2600.9,931.047)">
                    <path d="M0.286,-0.54C0.365,-0.54 0.425,-0.521 0.467,-0.484C0.508,-0.446 0.529,-0.389 0.529,-0.313L0.529,0L0.411,0L0.411,-0.065C0.396,-0.042 0.374,-0.024 0.345,-0.012C0.317,0.001 0.283,0.007 0.243,0.007C0.203,0.007 0.168,0 0.138,-0.014C0.108,-0.027 0.085,-0.046 0.069,-0.07C0.052,-0.095 0.044,-0.122 0.044,-0.153C0.044,-0.201 0.062,-0.239 0.098,-0.269C0.133,-0.298 0.189,-0.312 0.266,-0.312L0.404,-0.312L0.404,-0.32C0.404,-0.357 0.393,-0.386 0.371,-0.406C0.348,-0.426 0.315,-0.436 0.271,-0.436C0.241,-0.436 0.212,-0.431 0.183,-0.422C0.154,-0.413 0.129,-0.4 0.109,-0.383L0.06,-0.474C0.088,-0.495 0.122,-0.512 0.161,-0.523C0.2,-0.534 0.242,-0.54 0.286,-0.54ZM0.269,-0.084C0.3,-0.084 0.328,-0.091 0.353,-0.106C0.377,-0.12 0.394,-0.14 0.404,-0.167L0.404,-0.229L0.275,-0.229C0.203,-0.229 0.167,-0.205 0.167,-0.158C0.167,-0.135 0.176,-0.117 0.194,-0.104C0.212,-0.091 0.237,-0.084 0.269,-0.084Z" style="fill:rgb(106,114,163);fill-rule:nonzero;"/>
                </g>
                <g transform="matrix(366.289,0,0,327.246,2823.24,931.047)">
                    <path d="M0.201,-0.456C0.237,-0.512 0.3,-0.54 0.391,-0.54L0.391,-0.421C0.38,-0.423 0.371,-0.424 0.362,-0.424C0.313,-0.424 0.275,-0.41 0.248,-0.382C0.221,-0.353 0.207,-0.282 0.207,-0.229L0.207,0L0.082,0L0.082,-0.534L0.201,-0.534L0.201,-0.456Z" style="fill:rgb(106,114,163);fill-rule:nonzero;"/>
                </g>
                <g transform="matrix(344.473,0,0,334.084,2966.56,931.047)">
                    <path d="M0.3,-0.328L0.207,-0.2L0.207,0L0.082,0L0.082,-0.742L0.207,-0.742L0.207,-0.426L0.409,-0.738L0.559,-0.738L0.387,-0.442L0.637,0L0.485,0L0.3,-0.328Z" style="fill:rgb(106,114,163);fill-rule:nonzero;"/>
                </g>
                <g transform="matrix(366.289,0,0,434.778,3168.57,931.047)">
                    <path d="M0.584,-0.264C0.584,-0.255 0.583,-0.243 0.582,-0.227L0.163,-0.227C0.17,-0.188 0.19,-0.157 0.221,-0.134C0.252,-0.111 0.29,-0.099 0.336,-0.099C0.395,-0.099 0.443,-0.118 0.481,-0.157L0.548,-0.08C0.524,-0.051 0.494,-0.03 0.457,-0.015C0.42,0 0.379,0.007 0.333,0.007C0.274,0.007 0.223,-0.005 0.178,-0.028C0.133,-0.051 0.099,-0.084 0.075,-0.126C0.05,-0.167 0.038,-0.214 0.038,-0.267C0.038,-0.319 0.05,-0.366 0.074,-0.407C0.097,-0.449 0.13,-0.482 0.172,-0.505C0.214,-0.528 0.261,-0.54 0.314,-0.54C0.366,-0.54 0.412,-0.529 0.454,-0.505C0.495,-0.483 0.527,-0.45 0.55,-0.408C0.573,-0.367 0.584,-0.319 0.584,-0.264ZM0.314,-0.44C0.274,-0.44 0.24,-0.428 0.213,-0.405C0.185,-0.381 0.168,-0.349 0.162,-0.31L0.465,-0.31C0.46,-0.349 0.443,-0.38 0.416,-0.404C0.389,-0.428 0.355,-0.44 0.314,-0.44Z" style="fill:rgb(106,114,163);fill-rule:nonzero;"/>
                </g>
                <g transform="matrix(366.289,0,0,434.778,3387.59,931.047)">
                    <path d="M0.403,-0.029C0.388,-0.017 0.371,-0.008 0.349,-0.002C0.329,0.004 0.306,0.007 0.283,0.007C0.224,0.007 0.179,-0.008 0.147,-0.039C0.115,-0.07 0.099,-0.114 0.099,-0.173L0.099,-0.43L0.011,-0.43L0.011,-0.53L0.099,-0.53L0.099,-0.652L0.224,-0.652L0.224,-0.53L0.367,-0.53L0.367,-0.43L0.224,-0.43L0.224,-0.176C0.224,-0.15 0.23,-0.13 0.243,-0.117C0.256,-0.103 0.274,-0.096 0.298,-0.096C0.326,-0.096 0.349,-0.103 0.368,-0.118L0.403,-0.029Z" style="fill:rgb(106,114,163);fill-rule:nonzero;"/>
                </g>
                <g transform="matrix(366.289,0,0,434.778,3535.05,931.047)">
                    <path d="M0.082,-0.534L0.207,-0.534L0.207,0L0.082,0L0.082,-0.534ZM0.145,-0.622C0.122,-0.622 0.103,-0.629 0.088,-0.644C0.073,-0.658 0.065,-0.676 0.065,-0.697C0.065,-0.718 0.073,-0.736 0.088,-0.75C0.103,-0.765 0.122,-0.772 0.145,-0.772C0.168,-0.772 0.187,-0.765 0.202,-0.751C0.217,-0.738 0.225,-0.721 0.225,-0.7C0.225,-0.678 0.218,-0.66 0.203,-0.645C0.188,-0.629 0.168,-0.622 0.145,-0.622Z" style="fill:rgb(106,114,163);fill-rule:nonzero;"/>
                </g>
                <g transform="matrix(366.289,0,0,434.778,3628.17,931.047)">
                    <path d="M0.385,-0.54C0.452,-0.54 0.506,-0.52 0.547,-0.481C0.588,-0.442 0.608,-0.383 0.608,-0.306L0.608,0L0.483,0L0.483,-0.29C0.483,-0.337 0.472,-0.372 0.45,-0.396C0.428,-0.419 0.397,-0.431 0.356,-0.431C0.31,-0.431 0.274,-0.417 0.247,-0.39C0.22,-0.362 0.207,-0.322 0.207,-0.27L0.207,0L0.082,0L0.082,-0.534L0.201,-0.534L0.201,-0.465C0.222,-0.49 0.248,-0.508 0.279,-0.521C0.31,-0.534 0.346,-0.54 0.385,-0.54Z" style="fill:rgb(106,114,163);fill-rule:nonzero;"/>
                </g>
                <g transform="matrix(366.289,0,0,434.778,3881.26,931.047)">
                    <path d="M0.612,-0.534L0.612,-0.081C0.612,0.107 0.516,0.201 0.324,0.201C0.273,0.201 0.224,0.194 0.178,0.181C0.132,0.168 0.094,0.15 0.064,0.125L0.12,0.031C0.143,0.05 0.173,0.066 0.209,0.077C0.244,0.089 0.28,0.095 0.317,0.095C0.376,0.095 0.419,0.082 0.446,0.055C0.473,0.028 0.487,-0.012 0.487,-0.067L0.487,-0.095C0.466,-0.072 0.44,-0.054 0.409,-0.042C0.378,-0.03 0.345,-0.024 0.308,-0.024C0.257,-0.024 0.212,-0.035 0.171,-0.057C0.13,-0.078 0.097,-0.109 0.074,-0.148C0.05,-0.187 0.038,-0.232 0.038,-0.283C0.038,-0.334 0.05,-0.379 0.074,-0.418C0.097,-0.457 0.13,-0.487 0.171,-0.508C0.212,-0.529 0.257,-0.54 0.308,-0.54C0.347,-0.54 0.382,-0.534 0.413,-0.521C0.445,-0.508 0.472,-0.489 0.493,-0.463L0.493,-0.534L0.612,-0.534ZM0.327,-0.13C0.374,-0.13 0.413,-0.144 0.444,-0.172C0.474,-0.201 0.489,-0.238 0.489,-0.283C0.489,-0.328 0.474,-0.364 0.444,-0.392C0.413,-0.42 0.374,-0.434 0.327,-0.434C0.279,-0.434 0.24,-0.42 0.21,-0.392C0.179,-0.364 0.164,-0.328 0.164,-0.283C0.164,-0.238 0.179,-0.201 0.21,-0.172C0.24,-0.144 0.279,-0.13 0.327,-0.13Z" style="fill:rgb(106,114,163);fill-rule:nonzero;"/>
                </g>
            </g>
        </g>
        <g transform="matrix(1,0,0,1,114505,67959.1)">
            <g transform="matrix(0.64952,0,0,0.770967,-4476.37,193.812)">
                <g transform="matrix(388.889,0,0,388.889,294.985,467.651)">
                    <path d="M0.094,-0.7L0.4,-0.7C0.475,-0.7 0.541,-0.686 0.599,-0.657C0.657,-0.627 0.702,-0.587 0.734,-0.534C0.766,-0.481 0.782,-0.419 0.782,-0.35C0.782,-0.281 0.766,-0.22 0.734,-0.167C0.702,-0.114 0.657,-0.073 0.599,-0.043C0.541,-0.015 0.475,0 0.4,0L0.094,0L0.094,-0.7ZM0.394,-0.11C0.445,-0.11 0.491,-0.12 0.53,-0.14C0.569,-0.159 0.599,-0.187 0.62,-0.224C0.641,-0.26 0.651,-0.302 0.651,-0.35C0.651,-0.398 0.641,-0.44 0.62,-0.476C0.599,-0.513 0.569,-0.541 0.53,-0.561C0.491,-0.58 0.445,-0.59 0.394,-0.59L0.224,-0.59L0.224,-0.11L0.394,-0.11Z" style="fill:white;fill-rule:nonzero;"/>
                </g>
                <g transform="matrix(388.889,0,0,388.889,616.207,467.651)">
                    <path d="M0.082,-0.534L0.207,-0.534L0.207,0L0.082,0L0.082,-0.534ZM0.145,-0.622C0.122,-0.622 0.103,-0.629 0.088,-0.644C0.073,-0.658 0.065,-0.676 0.065,-0.697C0.065,-0.718 0.073,-0.736 0.088,-0.75C0.103,-0.765 0.122,-0.772 0.145,-0.772C0.168,-0.772 0.187,-0.765 0.202,-0.751C0.217,-0.738 0.225,-0.721 0.225,-0.7C0.225,-0.678 0.218,-0.66 0.203,-0.645C0.188,-0.629 0.168,-0.622 0.145,-0.622Z" style="fill:white;fill-rule:nonzero;"/>
                </g>
                <g transform="matrix(388.889,0,0,388.889,728.596,467.651)">
                    <path d="M0.612,-0.534L0.612,-0.081C0.612,0.107 0.516,0.201 0.324,0.201C0.273,0.201 0.224,0.194 0.178,0.181C0.132,0.168 0.094,0.15 0.064,0.125L0.12,0.031C0.143,0.05 0.173,0.066 0.209,0.077C0.244,0.089 0.28,0.095 0.317,0.095C0.376,0.095 0.419,0.082 0.446,0.055C0.473,0.028 0.487,-0.012 0.487,-0.067L0.487,-0.095C0.466,-0.072 0.44,-0.054 0.409,-0.042C0.378,-0.03 0.345,-0.024 0.308,-0.024C0.257,-0.024 0.212,-0.035 0.171,-0.057C0.13,-0.078 0.097,-0.109 0.074,-0.148C0.05,-0.187 0.038,-0.232 0.038,-0.283C0.038,-0.334 0.05,-0.379 0.074,-0.418C0.097,-0.457 0.13,-0.487 0.171,-0.508C0.212,-0.529 0.257,-0.54 0.308,-0.54C0.347,-0.54 0.382,-0.534 0.413,-0.521C0.445,-0.508 0.472,-0.489 0.493,-0.463L0.493,-0.534L0.612,-0.534ZM0.327,-0.13C0.374,-0.13 0.413,-0.144 0.444,-0.172C0.474,-0.201 0.489,-0.238 0.489,-0.283C0.489,-0.328 0.474,-0.364 0.444,-0.392C0.413,-0.42 0.374,-0.434 0.327,-0.434C0.279,-0.434 0.24,-0.42 0.21,-0.392C0.179,-0.364 0.164,-0.328 0.164,-0.283C0.164,-0.238 0.179,-0.201 0.21,-0.172C0.24,-0.144 0.279,-0.13 0.327,-0.13Z" style="fill:white;fill-rule:nonzero;"/>
                </g>
                <g transform="matrix(388.889,0,0,388.889,998.485,467.651)">
                    <path d="M0.082,-0.534L0.207,-0.534L0.207,0L0.082,0L0.082,-0.534ZM0.145,-0.622C0.122,-0.622 0.103,-0.629 0.088,-0.644C0.073,-0.658 0.065,-0.676 0.065,-0.697C0.065,-0.718 0.073,-0.736 0.088,-0.75C0.103,-0.765 0.122,-0.772 0.145,-0.772C0.168,-0.772 0.187,-0.765 0.202,-0.751C0.217,-0.738 0.225,-0.721 0.225,-0.7C0.225,-0.678 0.218,-0.66 0.203,-0.645C0.188,-0.629 0.168,-0.622 0.145,-0.622Z" style="fill:white;fill-rule:nonzero;"/>
                </g>
                <g transform="matrix(388.889,0,0,388.889,1110.87,467.651)">
                    <path d="M0.403,-0.029C0.388,-0.017 0.371,-0.008 0.349,-0.002C0.329,0.004 0.306,0.007 0.283,0.007C0.224,0.007 0.179,-0.008 0.147,-0.039C0.115,-0.07 0.099,-0.114 0.099,-0.173L0.099,-0.43L0.011,-0.43L0.011,-0.53L0.099,-0.53L0.099,-0.652L0.224,-0.652L0.224,-0.53L0.367,-0.53L0.367,-0.43L0.224,-0.43L0.224,-0.176C0.224,-0.15 0.23,-0.13 0.243,-0.117C0.256,-0.103 0.274,-0.096 0.298,-0.096C0.326,-0.096 0.349,-0.103 0.368,-0.118L0.403,-0.029Z" style="fill:white;fill-rule:nonzero;"/>
                </g>
                <g transform="matrix(388.889,0,0,388.889,1275.76,467.651)">
                    <path d="M0.286,-0.54C0.365,-0.54 0.425,-0.521 0.467,-0.484C0.508,-0.446 0.529,-0.389 0.529,-0.313L0.529,0L0.411,0L0.411,-0.065C0.396,-0.042 0.374,-0.024 0.345,-0.012C0.317,0.001 0.283,0.007 0.243,0.007C0.203,0.007 0.168,0 0.138,-0.014C0.108,-0.027 0.085,-0.046 0.069,-0.07C0.052,-0.095 0.044,-0.122 0.044,-0.153C0.044,-0.201 0.062,-0.239 0.098,-0.269C0.133,-0.298 0.189,-0.312 0.266,-0.312L0.404,-0.312L0.404,-0.32C0.404,-0.357 0.393,-0.386 0.371,-0.406C0.348,-0.426 0.315,-0.436 0.271,-0.436C0.241,-0.436 0.212,-0.431 0.183,-0.422C0.154,-0.413 0.129,-0.4 0.109,-0.383L0.06,-0.474C0.088,-0.495 0.122,-0.512 0.161,-0.523C0.2,-0.534 0.242,-0.54 0.286,-0.54ZM0.269,-0.084C0.3,-0.084 0.328,-0.091 0.353,-0.106C0.377,-0.12 0.394,-0.14 0.404,-0.167L0.404,-0.229L0.275,-0.229C0.203,-0.229 0.167,-0.205 0.167,-0.158C0.167,-0.135 0.176,-0.117 0.194,-0.104C0.212,-0.091 0.237,-0.084 0.269,-0.084Z" style="fill:white;fill-rule:nonzero;"/>
                </g>
                <g transform="matrix(388.889,0,0,388.889,1511.82,467.651)">
                    <rect x="0.082" y="-0.742" width="0.125" height="0.742" style="fill:white;fill-rule:nonzero;"/>
                </g>
            </g>
        </g>
        <g transform="matrix(1,0,0,1,114505,67959.1)">
            <g transform="matrix(1.02057,0,0,1.02149,-6890.46,-116.446)">
                <g transform="matrix(448.486,0,0,434.778,2166.94,931.047)">
                    <path d="M0.737,0L0.736,-0.464L0.506,-0.08L0.448,-0.08L0.218,-0.458L0.218,0L0.094,0L0.094,-0.7L0.201,-0.7L0.479,-0.236L0.752,-0.7L0.859,-0.7L0.86,0L0.737,0Z" style="fill:white;fill-rule:nonzero;"/>
                </g>
                <g transform="matrix(366.289,0,0,434.778,2600.9,931.047)">
                    <path d="M0.286,-0.54C0.365,-0.54 0.425,-0.521 0.467,-0.484C0.508,-0.446 0.529,-0.389 0.529,-0.313L0.529,0L0.411,0L0.411,-0.065C0.396,-0.042 0.374,-0.024 0.345,-0.012C0.317,0.001 0.283,0.007 0.243,0.007C0.203,0.007 0.168,0 0.138,-0.014C0.108,-0.027 0.085,-0.046 0.069,-0.07C0.052,-0.095 0.044,-0.122 0.044,-0.153C0.044,-0.201 0.062,-0.239 0.098,-0.269C0.133,-0.298 0.189,-0.312 0.266,-0.312L0.404,-0.312L0.404,-0.32C0.404,-0.357 0.393,-0.386 0.371,-0.406C0.348,-0.426 0.315,-0.436 0.271,-0.436C0.241,-0.436 0.212,-0.431 0.183,-0.422C0.154,-0.413 0.129,-0.4 0.109,-0.383L0.06,-0.474C0.088,-0.495 0.122,-0.512 0.161,-0.523C0.2,-0.534 0.242,-0.54 0.286,-0.54ZM0.269,-0.084C0.3,-0.084 0.328,-0.091 0.353,-0.106C0.377,-0.12 0.394,-0.14 0.404,-0.167L0.404,-0.229L0.275,-0.229C0.203,-0.229 0.167,-0.205 0.167,-0.158C0.167,-0.135 0.176,-0.117 0.194,-0.104C0.212,-0.091 0.237,-0.084 0.269,-0.084Z" style="fill:white;fill-rule:nonzero;"/>
                </g>
                <g transform="matrix(366.289,0,0,327.246,2823.24,931.047)">
                    <path d="M0.201,-0.456C0.237,-0.512 0.3,-0.54 0.391,-0.54L0.391,-0.421C0.38,-0.423 0.371,-0.424 0.362,-0.424C0.313,-0.424 0.275,-0.41 0.248,-0.382C0.221,-0.353 0.207,-0.282 0.207,-0.229L0.207,0L0.082,0L0.082,-0.534L0.201,-0.534L0.201,-0.456Z" style="fill:white;fill-rule:nonzero;"/>
                </g>
                <g transform="matrix(338.883,0,0,334.084,2970.12,931.047)">
                    <path d="M0.3,-0.328L0.207,-0.205L0.207,0L0.082,0L0.082,-0.742L0.207,-0.742L0.207,-0.426L0.409,-0.738L0.559,-0.738L0.387,-0.442L0.637,0L0.485,0L0.3,-0.328Z" style="fill:white;fill-rule:nonzero;"/>
                </g>
                <g transform="matrix(366.289,0,0,434.778,3168.57,931.047)">
                    <path d="M0.584,-0.264C0.584,-0.255 0.583,-0.243 0.582,-0.227L0.163,-0.227C0.17,-0.188 0.19,-0.157 0.221,-0.134C0.252,-0.111 0.29,-0.099 0.336,-0.099C0.395,-0.099 0.443,-0.118 0.481,-0.157L0.548,-0.08C0.524,-0.051 0.494,-0.03 0.457,-0.015C0.42,0 0.379,0.007 0.333,0.007C0.274,0.007 0.223,-0.005 0.178,-0.028C0.133,-0.051 0.099,-0.084 0.075,-0.126C0.05,-0.167 0.038,-0.214 0.038,-0.267C0.038,-0.319 0.05,-0.366 0.074,-0.407C0.097,-0.449 0.13,-0.482 0.172,-0.505C0.214,-0.528 0.261,-0.54 0.314,-0.54C0.366,-0.54 0.412,-0.529 0.454,-0.505C0.495,-0.483 0.527,-0.45 0.55,-0.408C0.573,-0.367 0.584,-0.319 0.584,-0.264ZM0.314,-0.44C0.274,-0.44 0.24,-0.428 0.213,-0.405C0.185,-0.381 0.168,-0.349 0.162,-0.31L0.465,-0.31C0.46,-0.349 0.443,-0.38 0.416,-0.404C0.389,-0.428 0.355,-0.44 0.314,-0.44Z" style="fill:white;fill-rule:nonzero;"/>
                </g>
                <g transform="matrix(366.289,0,0,434.778,3387.59,931.047)">
                    <path d="M0.403,-0.029C0.388,-0.017 0.371,-0.008 0.349,-0.002C0.329,0.004 0.306,0.007 0.283,0.007C0.224,0.007 0.179,-0.008 0.147,-0.039C0.115,-0.07 0.099,-0.114 0.099,-0.173L0.099,-0.43L0.011,-0.43L0.011,-0.53L0.099,-0.53L0.099,-0.652L0.224,-0.652L0.224,-0.53L0.367,-0.53L0.367,-0.43L0.224,-0.43L0.224,-0.176C0.224,-0.15 0.23,-0.13 0.243,-0.117C0.256,-0.103 0.274,-0.096 0.298,-0.096C0.326,-0.096 0.349,-0.103 0.368,-0.118L0.403,-0.029Z" style="fill:white;fill-rule:nonzero;"/>
                </g>
                <g transform="matrix(366.289,0,0,434.778,3535.05,931.047)">
                    <path d="M0.082,-0.534L0.207,-0.534L0.207,0L0.082,0L0.082,-0.534ZM0.145,-0.622C0.122,-0.622 0.103,-0.629 0.088,-0.644C0.073,-0.658 0.065,-0.676 0.065,-0.697C0.065,-0.718 0.073,-0.736 0.088,-0.75C0.103,-0.765 0.122,-0.772 0.145,-0.772C0.168,-0.772 0.187,-0.765 0.202,-0.751C0.217,-0.738 0.225,-0.721 0.225,-0.7C0.225,-0.678 0.218,-0.66 0.203,-0.645C0.188,-0.629 0.168,-0.622 0.145,-0.622Z" style="fill:white;fill-rule:nonzero;"/>
                </g>
                <g transform="matrix(366.289,0,0,434.778,3628.17,931.047)">
                    <path d="M0.385,-0.54C0.452,-0.54 0.506,-0.52 0.547,-0.481C0.588,-0.442 0.608,-0.383 0.608,-0.306L0.608,0L0.483,0L0.483,-0.29C0.483,-0.337 0.472,-0.372 0.45,-0.396C0.428,-0.419 0.397,-0.431 0.356,-0.431C0.31,-0.431 0.274,-0.417 0.247,-0.39C0.22,-0.362 0.207,-0.322 0.207,-0.27L0.207,0L0.082,0L0.082,-0.534L0.201,-0.534L0.201,-0.465C0.222,-0.49 0.248,-0.508 0.279,-0.521C0.31,-0.534 0.346,-0.54 0.385,-0.54Z" style="fill:white;fill-rule:nonzero;"/>
                </g>
                <g transform="matrix(366.289,0,0,434.778,3881.26,931.047)">
                    <path d="M0.612,-0.534L0.612,-0.081C0.612,0.107 0.516,0.201 0.324,0.201C0.273,0.201 0.224,0.194 0.178,0.181C0.132,0.168 0.094,0.15 0.064,0.125L0.12,0.031C0.143,0.05 0.173,0.066 0.209,0.077C0.244,0.089 0.28,0.095 0.317,0.095C0.376,0.095 0.419,0.082 0.446,0.055C0.473,0.028 0.487,-0.012 0.487,-0.067L0.487,-0.095C0.466,-0.072 0.44,-0.054 0.409,-0.042C0.378,-0.03 0.345,-0.024 0.308,-0.024C0.257,-0.024 0.212,-0.035 0.171,-0.057C0.13,-0.078 0.097,-0.109 0.074,-0.148C0.05,-0.187 0.038,-0.232 0.038,-0.283C0.038,-0.334 0.05,-0.379 0.074,-0.418C0.097,-0.457 0.13,-0.487 0.171,-0.508C0.212,-0.529 0.257,-0.54 0.308,-0.54C0.347,-0.54 0.382,-0.534 0.413,-0.521C0.445,-0.508 0.472,-0.489 0.493,-0.463L0.493,-0.534L0.612,-0.534ZM0.327,-0.13C0.374,-0.13 0.413,-0.144 0.444,-0.172C0.474,-0.201 0.489,-0.238 0.489,-0.283C0.489,-0.328 0.474,-0.364 0.444,-0.392C0.413,-0.42 0.374,-0.434 0.327,-0.434C0.279,-0.434 0.24,-0.42 0.21,-0.392C0.179,-0.364 0.164,-0.328 0.164,-0.283C0.164,-0.238 0.179,-0.201 0.21,-0.172C0.24,-0.144 0.279,-0.13 0.327,-0.13Z" style="fill:white;fill-rule:nonzero;"/>
                </g>
            </g>
        </g>
    </g>
</svg>
