<?xml version="1.0" encoding="UTF-8" standalone="no"?><!DOCTYPE svg PUBLIC "-//W3C//DTD SVG 1.1//EN" "http://www.w3.org/Graphics/SVG/1.1/DTD/svg11.dtd"><svg width="100%" height="100%" viewBox="0 0 1964 580" version="1.1" xmlns="http://www.w3.org/2000/svg" xmlns:xlink="http://www.w3.org/1999/xlink" xml:space="preserve" xmlns:serif="http://www.serif.com/" style="fill-rule:evenodd;clip-rule:evenodd;stroke-linejoin:round;stroke-miterlimit:2;"><g><g><path d="M391.199,214.015l0,-202.658l75.861,0c17.125,0 30.194,0.968 39.207,2.903c12.619,2.673 23.385,7.511 32.298,14.515c11.617,9.032 20.304,20.575 26.063,34.629c5.758,14.054 8.637,30.113 8.637,48.176c0,15.391 -1.952,29.03 -5.858,40.919c-3.906,11.888 -8.913,21.726 -15.022,29.514c-6.109,7.787 -12.794,13.916 -20.055,18.385c-7.26,4.47 -16.023,7.857 -26.288,10.161c-10.265,2.304 -22.057,3.456 -35.377,3.456l-79.466,0Zm29.143,-23.915l47.018,0c14.522,0 25.913,-1.245 34.175,-3.733c8.262,-2.488 14.847,-5.99 19.754,-10.506c6.91,-6.359 12.293,-14.907 16.149,-25.643c3.856,-10.737 5.783,-23.754 5.783,-39.053c0,-21.196 -3.78,-37.485 -11.341,-48.867c-7.561,-11.382 -16.75,-19.008 -27.566,-22.878c-7.811,-2.765 -20.379,-4.148 -37.705,-4.148l-46.267,0l0,154.828Z" style="fill:#6a72a3;fill-rule:nonzero;stroke:#6a72a3;stroke-width:3.33px;"/><rect x="608.059" y="67.206" width="27.04" height="146.809" style="fill:#6a72a3;fill-rule:nonzero;stroke:#6a72a3;stroke-width:3.33px;"/><path d="M674.317,226.18l26.289,3.594c1.101,7.465 4.156,12.902 9.163,16.312c6.71,4.608 15.873,6.912 27.49,6.912c12.519,0 22.183,-2.304 28.993,-6.912c6.81,-4.608 11.416,-11.059 13.82,-19.353c1.402,-5.069 2.053,-15.713 1.953,-31.933c-11.818,12.81 -26.539,19.215 -44.165,19.215c-21.932,0 -38.907,-7.281 -50.924,-21.842c-12.018,-14.561 -18.027,-32.025 -18.027,-52.392c0,-14.008 2.754,-26.934 8.262,-38.776c5.508,-11.843 13.495,-20.989 23.96,-27.441c10.466,-6.451 22.759,-9.676 36.879,-9.676c18.828,0 34.351,7.004 46.568,21.012l0,-17.694l24.937,0l0,126.903c0,22.855 -2.529,39.052 -7.586,48.59c-5.058,9.539 -13.069,17.073 -24.035,22.602c-10.966,5.53 -24.461,8.295 -40.485,8.295c-19.027,0 -34.4,-3.94 -46.117,-11.82c-11.717,-7.879 -17.375,-19.745 -16.975,-35.596Zm22.383,-88.196c0,19.261 4.156,33.315 12.468,42.162c8.312,8.848 18.727,13.271 31.246,13.271c12.418,0 22.833,-4.4 31.246,-13.201c8.412,-8.802 12.618,-22.602 12.618,-41.403c0,-17.971 -4.331,-31.518 -12.994,-40.642c-8.663,-9.124 -19.103,-13.686 -31.321,-13.686c-12.017,0 -22.232,4.493 -30.645,13.479c-8.412,8.985 -12.618,22.325 -12.618,40.02Z" style="fill:#6a72a3;fill-rule:nonzero;stroke:#6a72a3;stroke-width:3.33px;"/><ellipse cx="863.942" cy="26.388" rx="18.698" ry="17.207" style="fill:#6a72a3;stroke:#6a72a3;stroke-width:3.33px;stroke-linecap:round;stroke-miterlimit:1.5;"/><ellipse cx="622.17" cy="25.456" rx="18.698" ry="17.207" style="fill:#6a72a3;stroke:#6a72a3;stroke-width:3.33px;stroke-linecap:round;stroke-miterlimit:1.5;"/><rect x="850.423" y="67.206" width="27.04" height="146.809" style="fill:#6a72a3;fill-rule:nonzero;stroke:#6a72a3;stroke-width:3.33px;"/><path d="M982.788,191.758l3.906,21.98c-7.612,1.475 -14.422,2.212 -20.43,2.212c-9.815,0 -17.426,-1.428 -22.834,-4.285c-5.408,-2.857 -9.213,-6.613 -11.416,-11.267c-2.204,-4.654 -3.305,-14.446 -3.305,-29.375l0,-84.464l-19.829,0l0,-19.353l19.829,0l0,-36.357l26.889,-14.93l0,51.287l27.19,0l0,19.353l-27.19,0l0,85.846c0,7.096 0.476,11.658 1.427,13.686c0.952,2.027 2.504,3.64 4.657,4.838c2.153,1.198 5.233,1.797 9.238,1.797c3.005,0 6.961,-0.322 11.868,-0.968Z" style="fill:#6a72a3;fill-rule:nonzero;stroke:#6a72a3;stroke-width:3.33px;"/><path d="M1113.33,195.906c-10.015,7.833 -19.654,13.363 -28.917,16.588c-9.264,3.226 -19.204,4.839 -29.819,4.839c-17.526,0 -30.995,-3.94 -40.409,-11.82c-9.414,-7.879 -14.121,-17.948 -14.121,-30.205c0,-7.188 1.778,-13.755 5.333,-19.699c3.555,-5.944 8.212,-10.713 13.97,-14.308c5.759,-3.594 12.243,-6.313 19.454,-8.156c5.308,-1.29 13.319,-2.534 24.035,-3.732c21.832,-2.396 37.905,-5.253 48.221,-8.571c0.1,-3.41 0.15,-5.576 0.15,-6.497c0,-10.138 -2.554,-17.28 -7.661,-21.427c-6.911,-5.622 -17.176,-8.433 -30.796,-8.433c-12.718,0 -22.107,2.051 -28.166,6.152c-6.059,4.101 -10.54,11.359 -13.444,21.773l-26.439,-3.318c2.403,-10.414 6.359,-18.824 11.867,-25.229c5.508,-6.405 13.47,-11.335 23.885,-14.791c10.415,-3.456 22.483,-5.184 36.203,-5.184c13.62,0 24.686,1.474 33.199,4.423c8.512,2.95 14.771,6.659 18.777,11.129c4.006,4.469 6.81,10.114 8.413,16.934c0.901,4.239 1.352,11.888 1.352,22.947l0,33.178c0,23.132 0.575,37.762 1.727,43.89c1.152,6.129 3.43,12.004 6.835,17.626l-28.241,0c-2.804,-5.161 -4.607,-11.197 -5.408,-18.109Zm-2.253,-55.572c-9.815,3.686 -24.536,6.819 -44.165,9.4c-11.116,1.474 -18.978,3.133 -23.585,4.977c-4.606,1.843 -8.162,4.538 -10.665,8.086c-2.504,3.549 -3.756,7.488 -3.756,11.82c0,6.635 2.729,12.165 8.187,16.589c5.458,4.423 13.445,6.635 23.96,6.635c10.416,0 19.679,-2.097 27.791,-6.29c8.112,-4.193 14.071,-9.93 17.876,-17.211c2.904,-5.621 4.357,-13.916 4.357,-24.883l0,-9.123Z" style="fill:#6a72a3;fill-rule:nonzero;stroke:#6a72a3;stroke-width:3.33px;"/><rect x="1179.73" y="11.357" width="27.04" height="202.658" style="fill:#6a72a3;fill-rule:nonzero;stroke:#6a72a3;stroke-width:3.33px;"/></g><g><path d="M382.57,207.432l0,-202.658l75.861,0c17.125,0 30.195,0.968 39.208,2.903c12.618,2.673 23.384,7.511 32.297,14.515c11.617,9.032 20.305,20.575 26.063,34.629c5.759,14.054 8.638,30.113 8.638,48.176c0,15.391 -1.953,29.03 -5.859,40.919c-3.906,11.888 -8.913,21.726 -15.022,29.514c-6.109,7.787 -12.794,13.916 -20.054,18.386c-7.261,4.469 -16.024,7.856 -26.289,10.16c-10.265,2.304 -22.057,3.456 -35.376,3.456l-79.467,0Zm29.143,-23.915l47.019,0c14.521,0 25.913,-1.244 34.175,-3.733c8.262,-2.488 14.847,-5.99 19.754,-10.506c6.91,-6.359 12.293,-14.906 16.148,-25.643c3.856,-10.737 5.784,-23.754 5.784,-39.052c0,-21.197 -3.781,-37.486 -11.342,-48.868c-7.561,-11.381 -16.749,-19.008 -27.565,-22.878c-7.812,-2.765 -20.38,-4.147 -37.705,-4.147l-46.268,0l0,154.827Z" style="fill:#fff;fill-rule:nonzero;stroke:#fff;stroke-width:3.33px;"/><rect x="599.43" y="60.623" width="27.04" height="146.809" style="fill:#fff;fill-rule:nonzero;stroke:#fff;stroke-width:3.33px;"/><path d="M665.688,219.597l26.289,3.594c1.102,7.465 4.156,12.903 9.163,16.312c6.71,4.608 15.874,6.912 27.491,6.912c12.518,0 22.182,-2.304 28.992,-6.912c6.81,-4.607 11.417,-11.059 13.82,-19.353c1.402,-5.069 2.053,-15.713 1.953,-31.933c-11.817,12.81 -26.539,19.215 -44.165,19.215c-21.932,0 -38.906,-7.28 -50.924,-21.842c-12.018,-14.561 -18.026,-32.025 -18.026,-52.392c0,-14.008 2.754,-26.933 8.262,-38.776c5.508,-11.842 13.494,-20.989 23.96,-27.44c10.465,-6.451 22.758,-9.677 36.879,-9.677c18.827,0 34.35,7.004 46.568,21.012l0,-17.694l24.936,0l0,126.903c0,22.855 -2.528,39.052 -7.586,48.591c-5.057,9.538 -13.069,17.072 -24.035,22.602c-10.966,5.529 -24.461,8.294 -40.484,8.294c-19.028,0 -34.401,-3.94 -46.118,-11.819c-11.717,-7.88 -17.375,-19.746 -16.975,-35.597Zm22.383,-88.196c0,19.261 4.156,33.315 12.468,42.163c8.313,8.847 18.728,13.271 31.246,13.271c12.418,0 22.834,-4.401 31.246,-13.202c8.412,-8.801 12.618,-22.602 12.618,-41.403c0,-17.971 -4.331,-31.518 -12.994,-40.642c-8.662,-9.124 -19.103,-13.685 -31.32,-13.685c-12.018,0 -22.233,4.492 -30.645,13.478c-8.413,8.985 -12.619,22.325 -12.619,40.02Z" style="fill:#fff;fill-rule:nonzero;stroke:#fff;stroke-width:3.33px;"/><ellipse cx="855.314" cy="19.805" rx="18.698" ry="17.207" style="fill:#fff;stroke:#fff;stroke-width:3.33px;stroke-linecap:round;stroke-miterlimit:1.5;"/><ellipse cx="613.541" cy="18.874" rx="18.698" ry="17.207" style="fill:#fff;stroke:#fff;stroke-width:3.33px;stroke-linecap:round;stroke-miterlimit:1.5;"/><rect x="841.794" y="60.623" width="27.04" height="146.809" style="fill:#fff;fill-rule:nonzero;stroke:#fff;stroke-width:3.33px;"/><path d="M974.159,185.176l3.906,21.98c-7.611,1.474 -14.421,2.211 -20.43,2.211c-9.814,0 -17.425,-1.428 -22.833,-4.285c-5.408,-2.857 -9.214,-6.612 -11.417,-11.266c-2.203,-4.654 -3.305,-14.446 -3.305,-29.376l0,-84.464l-19.829,0l0,-19.353l19.829,0l0,-36.357l26.889,-14.93l0,51.287l27.19,0l0,19.353l-27.19,0l0,85.846c0,7.097 0.476,11.658 1.427,13.686c0.952,2.027 2.504,3.64 4.657,4.838c2.153,1.198 5.233,1.797 9.239,1.797c3.004,0 6.96,-0.322 11.867,-0.967Z" style="fill:#fff;fill-rule:nonzero;stroke:#fff;stroke-width:3.33px;"/><path d="M1104.7,189.323c-10.014,7.833 -19.654,13.363 -28.917,16.589c-9.264,3.225 -19.203,4.838 -29.819,4.838c-17.525,0 -30.995,-3.94 -40.409,-11.82c-9.414,-7.879 -14.121,-17.948 -14.121,-30.205c0,-7.188 1.778,-13.754 5.333,-19.699c3.555,-5.944 8.212,-10.713 13.971,-14.307c5.758,-3.595 12.243,-6.313 19.453,-8.156c5.308,-1.291 13.32,-2.535 24.035,-3.733c21.832,-2.396 37.906,-5.253 48.221,-8.571c0.1,-3.41 0.15,-5.575 0.15,-6.497c0,-10.137 -2.554,-17.28 -7.661,-21.427c-6.91,-5.622 -17.175,-8.432 -30.795,-8.432c-12.719,0 -22.108,2.05 -28.166,6.151c-6.059,4.101 -10.541,11.359 -13.445,21.773l-26.439,-3.318c2.404,-10.414 6.36,-18.823 11.868,-25.229c5.508,-6.405 13.469,-11.335 23.885,-14.791c10.415,-3.456 22.482,-5.184 36.203,-5.184c13.619,0 24.686,1.475 33.198,4.424c8.513,2.949 14.772,6.658 18.778,11.128c4.005,4.47 6.81,10.114 8.412,16.934c0.901,4.239 1.352,11.889 1.352,22.948l0,33.177c0,23.132 0.576,37.762 1.727,43.891c1.152,6.128 3.43,12.003 6.835,17.625l-28.241,0c-2.804,-5.161 -4.607,-11.197 -5.408,-18.109Zm-2.253,-55.572c-9.814,3.686 -24.536,6.82 -44.165,9.4c-11.116,1.475 -18.977,3.134 -23.584,4.977c-4.607,1.843 -8.162,4.539 -10.666,8.087c-2.504,3.548 -3.755,7.488 -3.755,11.819c0,6.636 2.729,12.165 8.187,16.589c5.458,4.423 13.444,6.635 23.96,6.635c10.415,0 19.678,-2.096 27.79,-6.29c8.112,-4.193 14.071,-9.93 17.877,-17.21c2.904,-5.622 4.356,-13.916 4.356,-24.883l0,-9.124Z" style="fill:#fff;fill-rule:nonzero;stroke:#fff;stroke-width:3.33px;"/><rect x="1171.1" y="4.774" width="27.04" height="202.658" style="fill:#fff;fill-rule:nonzero;stroke:#fff;stroke-width:3.33px;"/></g><path d="M824.237,241.152l0,252.939l36.389,0l0.895,-252.729l-37.284,-0.21Z" style="fill:#6a72a3;fill-rule:nonzero;"/><path d="M331.635,344.661c-2.685,-47.964 -5.966,-92.764 -5.469,-135.684l-1.59,0c-12.528,40.349 -27.74,70.314 -46.233,117.784l-64.725,166.936l-35.892,0l-59.256,-163.87c-17.4,-48.459 -32.114,-80.007 -42.355,-120.85l-1.094,0c-1.093,42.92 -3.778,87.72 -7.059,139.244l-9.743,147.553l-45.139,0l25.552,-331.202l60.351,0l62.537,153.585c15.212,42.327 27.74,80.106 36.986,115.906l1.591,0c9.246,-34.713 22.271,-72.491 38.576,-115.906l65.222,-153.585l60.351,0l22.867,331.202l-46.232,0l-9.246,-151.113Z" style="fill:#6a72a3;fill-rule:nonzero;"/><path d="M588.9,495.774l-3.778,-31.153l-1.69,0c-14.615,19.384 -42.951,36.691 -80.434,36.691c-53.291,0 -80.434,-35.207 -80.434,-70.908c0,-59.733 56.572,-92.369 158.184,-91.874l0,-5.143c0,-20.372 -5.966,-44.305 -59.754,-44.305c-24.458,0 -46.43,7.125 -64.923,18.4l-14.417,-29.575c21.773,-13.252 53.291,-21.955 86.399,-21.955c80.434,0 100.02,38.668 100.02,88.215l0,92.368c0,21.46 1.094,42.327 4.375,59.239l-43.548,0Zm-7.059,-126.092c-52.197,-0.989 -111.454,7.615 -111.454,55.678c0,29.075 20.68,42.921 45.139,42.921c34.201,0 55.975,-20.373 63.631,-41.339c1.693,-4.597 2.6,-9.444 2.684,-14.34l0,-42.92Z" style="fill:#6a72a3;fill-rule:nonzero;"/><path d="M668.245,361.71c0,-22.416 -0.473,-42.924 -2.08,-60.612l37.302,-1.712l4.017,40.289l2.08,0c11.346,-25.542 38.766,-31.794 69.306,-31.794c4.359,-0.038 8.708,0.346 12.954,1.144l0,22.721c-5.102,-0.837 -10.302,-1.221 -15.507,-1.144c-32.053,0 -54.172,6.199 -60.318,32.122c-1.258,5.331 -2.622,23.067 -2.748,28.492l0,101.558l-45.006,0l0,-131.064Z" style="fill:#6a72a3;fill-rule:nonzero;"/><path d="M863.311,323.712l78.147,-76.986l57.666,0l-101.612,94.339l115.829,154.709l-58.163,0l-91.768,-125.892l0,-46.17l-0.099,0Z" style="fill:#6a72a3;fill-rule:nonzero;"/><path d="M1053.92,394.997c0.977,62.375 36.383,71.162 79.105,71.162c30.553,0 49.027,-5.79 65.103,-13.105l7.283,33.017c-15.01,7.314 -40.767,15.746 -78.16,15.746c-72.386,0 -114.009,-38.489 -114.009,-114.986c0,-76.496 40.202,-136.549 108.68,-136.549c76.739,0 87.621,72.548 87.621,119.279c-0.073,7.206 -0.548,18.4 -1.422,25.537l-154.201,-0.101Zm114.233,-37.017c0.533,-29.359 -1.733,-74.682 -49.783,-74.682c-43.255,0 -60.631,42.681 -64.006,74.682l113.789,0Z" style="fill:#6a72a3;fill-rule:nonzero;"/><path d="M1306.75,190.582l0,70.908l68.503,0l0,34.218l-68.503,0l0,120.356c0,30.657 9.247,47.964 35.892,47.964c9.338,0.122 18.656,-0.908 27.74,-3.066l2.187,33.724c-9.247,3.56 -23.961,6.131 -42.355,6.131c-22.271,0 -40.266,-6.626 -51.601,-18.889c-13.621,-13.252 -18.493,-35.207 -18.493,-64.282l0,-121.938l-40.763,0l0,-34.218l40.763,0l0,-59.238l46.63,-11.67Z" style="fill:#6a72a3;fill-rule:nonzero;"/><path d="M1453.93,192.164c0.497,15.329 -11.434,27.592 -30.424,27.592c-16.802,0 -28.832,-12.263 -28.832,-27.592c0,-15.823 12.527,-28.086 29.926,-28.086c17.896,0 29.33,12.263 29.33,28.086Zm-53.291,303.61l0,-234.185l47.823,0l0,234.185l-47.823,0Z" style="fill:#6a72a3;fill-rule:nonzero;"/><path d="M1476.59,316.586c0,-25.515 -0.596,-33.625 -2.187,-53.997l42.355,0l2.684,27.987l1.094,0c13.024,-23.537 31.517,-33.624 75.065,-33.624c36.389,0 92.961,7.516 92.961,92.269l0,147.553l-47.823,0l0,-142.41c0,-39.855 -15.808,-60.128 -60.847,-60.128c-31.518,0 -44.045,8.109 -52.198,33.13c-2.187,5.637 -3.281,13.252 -3.281,20.965l0,148.541l-47.823,0l0,-180.286Z" style="fill:#6a72a3;fill-rule:nonzero;"/><path d="M1963.69,261.589c-1.094,17.9 -2.187,24.922 -2.187,54.986l0,143.398c0,56.668 -11.931,68.634 -37.483,90.094c-25.552,22.449 -62.538,29.57 -95.646,29.57c-31.517,0 -66.316,-7.121 -87.493,-20.373l11.931,-34.217c17.399,10.186 44.542,19.383 77.153,19.383c48.916,0 84.809,-24.031 84.809,-86.237l0,-4.747l-1.094,0c-14.715,22.944 -42.951,41.339 -83.715,41.339c-65.222,0 -111.952,-52.118 -111.952,-120.455c0,-83.666 58.164,-118.279 118.514,-118.279c45.635,0 70.69,9.593 82.124,30.064l1.094,0l2.187,-24.427l41.758,0l0,-0.099Zm-49.513,84.556c0,-7.714 -0.497,-14.34 -2.684,-20.373c-8.75,-26.009 -32.114,-34.613 -66.913,-34.613c-45.635,0 -78.246,23.339 -78.246,80.501c0,48.458 26.049,88.808 77.749,88.808c29.33,0 55.976,-17.406 66.316,-45.987c2.598,-7.744 3.875,-15.867 3.778,-24.031l0,-44.305Z" style="fill:#6a72a3;fill-rule:nonzero;"/><path d="M320.599,335.761c-2.685,-47.965 -5.966,-92.764 -5.469,-135.685l-1.591,0c-12.527,40.349 -27.739,70.315 -46.232,117.784l-64.725,166.936l-35.892,0l-59.256,-163.87c-17.3,-48.459 -32.114,-80.006 -42.355,-120.85l-1.094,0c-1.093,42.921 -3.778,87.72 -7.059,139.245l-9.743,147.552l-45.139,0l25.552,-331.201l60.351,0l62.537,153.585c15.212,42.327 27.739,80.105 36.986,115.905l1.591,0c9.246,-34.712 22.271,-72.49 38.576,-115.905l65.222,-153.585l60.351,0l22.867,331.201l-46.232,0l-9.246,-151.112Z" style="fill:#fff;fill-rule:nonzero;stroke:#fff;stroke-width:0.99px;stroke-linejoin:miter;stroke-miterlimit:4;"/><path d="M577.864,486.774l-3.778,-31.152l-1.591,0c-14.714,19.383 -42.951,36.789 -80.433,36.789c-53.292,0 -80.434,-35.207 -80.434,-70.908c0,-59.733 56.572,-92.368 158.183,-91.874l0,-5.143c0,-20.372 -5.965,-44.305 -59.754,-44.305c-24.458,0 -46.43,7.126 -64.923,18.4l-14.417,-29.575c21.774,-13.252 53.291,-21.955 86.399,-21.955c80.434,0 100.021,38.668 100.021,88.215l0,92.369c0,21.46 1.094,42.327 4.375,59.238l-43.648,-0.099Zm-7.059,-126.092c-52.197,-0.989 -111.454,7.615 -111.454,55.678c0,29.076 20.68,42.921 45.139,42.921c34.201,0 55.975,-20.372 63.631,-41.338c1.693,-4.598 2.6,-9.445 2.684,-14.34l0,-42.921Z" style="fill:#fff;fill-rule:nonzero;stroke:#fff;stroke-width:0.99px;stroke-linejoin:miter;stroke-miterlimit:4;"/><path d="M660.41,343.138c0,-24.03 -0.464,-34.084 -2.043,-53.047l39.105,0l1.486,29.425l2.044,0c11.146,-27.381 38.084,-34.084 68.086,-34.084c4.288,-0.054 8.567,0.386 12.725,1.308l0,34.983c-5.011,-0.897 -10.119,-1.308 -15.233,-1.226c-31.489,0 -53.874,9.237 -59.912,37.027c-1.236,5.715 -1.92,11.512 -2.043,17.328l0,108.873l-44.215,0l0,-140.587Z" style="fill:#fff;fill-rule:nonzero;stroke:#fff;stroke-width:0.87px;stroke-linejoin:miter;stroke-miterlimit:4;"/><path d="M852.484,360.705l0,126.024l-36.389,0l0,-251.993c7.755,0 15.411,0.105 23.166,0.211l13.223,0.315l0,78.672l77.938,-76.779l57.666,0l-101.711,94.445l115.829,154.708l-58.163,0l-91.559,-125.603Z" style="fill:#fff;"/><path d="M1042.06,385.104c0.977,60.233 36.382,72.137 79.104,72.137c30.553,0 49.027,-5.592 65.103,-12.655l7.283,31.883c-15.01,7.063 -40.767,15.205 -78.159,15.205c-72.387,0 -114.01,-36.723 -114.01,-110.592c0,-73.869 40.202,-132.401 108.68,-132.401c76.739,0 87.621,70.5 87.621,115.626c-0.073,6.958 -0.547,13.905 -1.421,20.797l-154.201,0Zm114.233,-31.882c0.533,-28.351 -1.734,-72.56 -49.784,-72.56c-43.255,0 -60.63,41.658 -64.005,72.56l113.789,0Z" style="fill:#fff;fill-rule:nonzero;stroke:#fff;stroke-width:0.94px;stroke-linejoin:miter;stroke-miterlimit:4;"/><path d="M1295.71,181.681l0,71.007l68.503,0l0,34.119l-68.503,0l0,120.356c0,30.658 9.247,47.964 35.892,47.964c9.338,0.122 18.656,-0.908 27.739,-3.065l2.188,33.723c-9.247,3.56 -23.961,6.132 -42.355,6.132c-22.271,0 -40.267,-6.626 -51.601,-18.889c-13.621,-13.252 -18.493,-35.207 -18.493,-64.283l0,-121.938l-40.764,0l0,-34.218l40.764,0l0,-59.238l46.63,-11.67Z" style="fill:#fff;fill-rule:nonzero;stroke:#fff;stroke-width:0.99px;stroke-linejoin:miter;stroke-miterlimit:4;"/><path d="M1442.89,183.165c0.497,15.329 -11.434,27.592 -30.424,27.592c-16.902,0 -28.833,-12.263 -28.833,-27.592c0,-15.824 12.528,-28.087 29.927,-28.087c17.896,0.099 29.33,12.263 29.33,28.087Zm-53.291,303.609l0,-234.185l47.823,0l0,234.185l-47.823,0Z" style="fill:#fff;fill-rule:nonzero;stroke:#fff;stroke-width:0.99px;stroke-linejoin:miter;stroke-miterlimit:4;"/><path d="M1465.55,307.685c0,-25.515 -0.596,-33.624 -2.187,-53.997l42.355,0l2.684,40.844l1.094,0c13.024,-23.537 31.517,-46.481 75.065,-46.481c36.389,0 92.961,7.516 92.961,92.27l0,147.552l-47.823,0l0,-142.41c0,-39.855 -15.808,-60.128 -60.847,-60.128c-31.518,0 -44.045,8.109 -52.198,33.13c-2.187,5.637 -3.281,13.252 -3.281,20.966l0,148.541l-47.823,0l0,-180.287Z" style="fill:#fff;fill-rule:nonzero;stroke:#fff;stroke-width:0.99px;stroke-linejoin:miter;stroke-miterlimit:4;"/><path d="M1952.56,252.589c-1.094,17.901 -2.188,24.922 -2.188,54.986l0,143.399c0,56.667 -11.931,68.633 -37.483,90.094c-25.552,22.449 -62.537,29.569 -95.645,29.569c-31.518,0 -66.316,-7.12 -87.493,-20.372l11.93,-34.218c17.4,10.186 44.542,19.384 77.153,19.384c48.917,0 84.809,-24.032 84.809,-86.237l0,-4.747l-1.094,0c-14.714,22.944 -42.951,41.338 -83.715,41.338c-65.222,0 -111.951,-52.118 -111.951,-120.455c0,-83.764 58.163,-118.378 118.513,-118.378c45.636,0 70.691,22.45 82.125,42.921l1.093,0l2.188,-37.284l41.758,0Zm-49.414,84.655c0,-7.714 -0.497,-14.34 -2.685,-20.372c-8.749,-26.01 -32.113,-34.614 -66.912,-34.614c-45.635,0 -78.247,23.339 -78.247,80.501c0,48.459 26.05,88.808 77.75,88.808c29.33,0 55.976,-17.306 66.316,-45.986c2.598,-7.745 3.875,-15.868 3.778,-24.032l0,-44.305Z" style="fill:#fff;fill-rule:nonzero;stroke:#fff;stroke-width:0.99px;stroke-linejoin:miter;stroke-miterlimit:4;"/></g></svg>