<?xml version="1.0" encoding="UTF-8" standalone="no"?><!DOCTYPE svg PUBLIC "-//W3C//DTD SVG 1.1//EN" "http://www.w3.org/Graphics/SVG/1.1/DTD/svg11.dtd"><svg width="100%" height="100%" viewBox="0 0 1473 434" version="1.1" xmlns="http://www.w3.org/2000/svg" xmlns:xlink="http://www.w3.org/1999/xlink" xml:space="preserve" xmlns:serif="http://www.serif.com/" style="fill-rule:evenodd;clip-rule:evenodd;"><g><g><path d="M293.399,159.261l0,-151.993l56.896,0c12.844,0 22.646,0.726 29.406,2.177c9.463,2.005 17.538,5.633 24.222,10.886c8.713,6.774 15.229,15.431 19.548,25.972c4.319,10.541 6.478,22.585 6.478,36.132c0,11.543 -1.465,21.773 -4.394,30.689c-2.929,8.916 -6.685,16.295 -11.266,22.135c-4.582,5.841 -9.596,10.438 -15.041,13.79c-5.446,3.352 -12.018,5.892 -19.716,7.62c-7.699,1.728 -16.543,2.592 -26.533,2.592l-59.6,0Zm21.857,-17.936l35.264,0c10.891,0 19.435,-0.933 25.632,-2.8c6.196,-1.866 11.135,-4.492 14.815,-7.879c5.183,-4.769 9.22,-11.18 12.111,-19.233c2.892,-8.052 4.338,-17.815 4.338,-29.289c0,-15.897 -2.835,-28.114 -8.506,-36.65c-5.671,-8.537 -12.562,-14.256 -20.674,-17.159c-5.859,-2.074 -15.285,-3.111 -28.279,-3.111l-34.701,0l0,116.121Z" style="fill:#6a72a3;fill-rule:nonzero;"/><rect x="456.044" y="49.154" width="20.28" height="110.107" style="fill:#6a72a3;fill-rule:nonzero;"/><path d="M505.738,168.385l19.716,2.696c0.826,5.598 3.117,9.676 6.873,12.234c5.032,3.456 11.905,5.184 20.617,5.184c9.389,0 16.637,-1.728 21.745,-5.184c5.107,-3.456 8.562,-8.295 10.365,-14.515c1.051,-3.802 1.54,-11.785 1.465,-23.95c-8.863,9.607 -19.905,14.411 -33.124,14.411c-16.449,0 -29.18,-5.46 -38.193,-16.381c-9.014,-10.921 -13.52,-24.019 -13.52,-39.294c0,-10.507 2.065,-20.201 6.196,-29.082c4.131,-8.882 10.122,-15.742 17.97,-20.581c7.849,-4.838 17.069,-7.257 27.66,-7.257c14.12,0 25.762,5.253 34.926,15.759l0,-13.271l18.702,0l0,95.177c0,17.142 -1.896,29.29 -5.689,36.444c-3.793,7.153 -9.802,12.804 -18.027,16.951c-8.224,4.147 -18.345,6.221 -30.363,6.221c-14.271,0 -25.8,-2.955 -34.588,-8.865c-8.788,-5.909 -13.032,-14.809 -12.731,-26.697Zm16.787,-66.147c0,14.446 3.117,24.986 9.351,31.622c6.234,6.635 14.046,9.953 23.434,9.953c9.314,0 17.125,-3.3 23.435,-9.901c6.309,-6.601 9.463,-16.952 9.463,-31.052c0,-13.478 -3.248,-23.639 -9.745,-30.482c-6.497,-6.843 -14.327,-10.264 -23.491,-10.264c-9.013,0 -16.674,3.37 -22.983,10.109c-6.31,6.739 -9.464,16.744 -9.464,30.015Z" style="fill:#6a72a3;fill-rule:nonzero;"/><ellipse cx="647.957" cy="18.541" rx="14.024" ry="12.905" style="fill:#6a72a3;"/><ellipse cx="466.627" cy="17.842" rx="14.024" ry="12.905" style="fill:#6a72a3;"/><rect x="637.817" y="49.154" width="20.28" height="110.107" style="fill:#6a72a3;fill-rule:nonzero;"/><path d="M737.091,142.569l2.929,16.485c-5.708,1.106 -10.816,1.659 -15.322,1.659c-7.361,0 -13.069,-1.072 -17.125,-3.214c-4.056,-2.143 -6.91,-4.96 -8.563,-8.45c-1.652,-3.491 -2.478,-10.835 -2.478,-22.032l0,-63.348l-14.872,0l0,-14.515l14.872,0l0,-27.267l20.167,-11.198l0,38.465l20.392,0l0,14.515l-20.392,0l0,64.385c0,5.322 0.356,8.743 1.07,10.264c0.713,1.521 1.878,2.73 3.492,3.629c1.615,0.898 3.925,1.348 6.929,1.348c2.254,0 5.22,-0.242 8.901,-0.726Z" style="fill:#6a72a3;fill-rule:nonzero;"/><path d="M834.997,145.679c-7.511,5.875 -14.741,10.023 -21.688,12.442c-6.948,2.419 -14.403,3.628 -22.364,3.628c-13.145,0 -23.247,-2.954 -30.307,-8.864c-7.061,-5.91 -10.591,-13.461 -10.591,-22.654c0,-5.391 1.334,-10.316 4,-14.774c2.666,-4.458 6.159,-8.035 10.478,-10.731c4.319,-2.696 9.182,-4.735 14.59,-6.117c3.981,-0.968 9.989,-1.901 18.026,-2.799c16.374,-1.797 28.429,-3.94 36.166,-6.428c0.075,-2.558 0.112,-4.182 0.112,-4.873c0,-7.603 -1.915,-12.96 -5.746,-16.071c-5.182,-4.216 -12.881,-6.324 -23.096,-6.324c-9.539,0 -16.58,1.538 -21.125,4.614c-4.544,3.076 -7.905,8.519 -10.083,16.329l-19.829,-2.488c1.803,-7.811 4.769,-14.118 8.9,-18.922c4.131,-4.803 10.103,-8.501 17.914,-11.093c7.812,-2.592 16.862,-3.888 27.152,-3.888c10.215,0 18.515,1.106 24.899,3.318c6.385,2.211 11.079,4.993 14.083,8.346c3.005,3.352 5.108,7.586 6.31,12.7c0.676,3.18 1.014,8.917 1.014,17.211l0,24.883c0,17.349 0.432,28.322 1.295,32.918c0.864,4.597 2.573,9.003 5.127,13.219l-21.181,0c-2.104,-3.871 -3.456,-8.398 -4.056,-13.582Zm-1.69,-41.679c-7.361,2.765 -18.402,5.115 -33.124,7.05c-8.337,1.106 -14.233,2.351 -17.688,3.733c-3.455,1.382 -6.122,3.404 -7.999,6.065c-1.878,2.661 -2.817,5.616 -2.817,8.865c0,4.976 2.047,9.123 6.14,12.441c4.094,3.318 10.084,4.977 17.97,4.977c7.812,0 14.759,-1.573 20.843,-4.718c6.084,-3.145 10.553,-7.447 13.407,-12.908c2.179,-4.216 3.268,-10.437 3.268,-18.662l0,-6.843Z" style="fill:#6a72a3;fill-rule:nonzero;"/><rect x="884.794" y="7.268" width="20.28" height="151.993" style="fill:#6a72a3;fill-rule:nonzero;"/></g><g><path d="M286.928,154.324l0,-151.993l56.896,0c12.843,0 22.645,0.726 29.405,2.177c9.464,2.004 17.538,5.633 24.223,10.886c8.713,6.774 15.229,15.431 19.547,25.972c4.319,10.541 6.479,22.585 6.479,36.132c0,11.543 -1.465,21.773 -4.394,30.689c-2.93,8.916 -6.685,16.295 -11.267,22.135c-4.582,5.841 -9.595,10.437 -15.041,13.79c-5.445,3.352 -12.017,5.892 -19.716,7.62c-7.699,1.728 -16.543,2.592 -26.533,2.592l-59.599,0Zm21.857,-17.936l35.264,0c10.891,0 19.435,-0.933 25.631,-2.8c6.197,-1.866 11.135,-4.492 14.816,-7.879c5.182,-4.77 9.219,-11.18 12.111,-19.233c2.892,-8.052 4.338,-17.815 4.338,-29.289c0,-15.897 -2.836,-28.114 -8.507,-36.651c-5.67,-8.536 -12.562,-14.255 -20.674,-17.158c-5.858,-2.074 -15.284,-3.111 -28.278,-3.111l-34.701,0l0,116.121Z" style="fill:#fff;fill-rule:nonzero;"/><rect x="449.572" y="44.217" width="20.28" height="110.107" style="fill:#fff;fill-rule:nonzero;"/><path d="M499.266,163.448l19.717,2.695c0.826,5.599 3.117,9.677 6.872,12.235c5.033,3.456 11.905,5.184 20.618,5.184c9.389,0 16.637,-1.728 21.744,-5.184c5.108,-3.456 8.563,-8.295 10.365,-14.515c1.052,-3.802 1.54,-11.785 1.465,-23.95c-8.863,9.607 -19.904,14.411 -33.123,14.411c-16.449,0 -29.181,-5.46 -38.194,-16.381c-9.013,-10.921 -13.52,-24.019 -13.52,-39.294c0,-10.507 2.066,-20.201 6.197,-29.082c4.131,-8.882 10.121,-15.742 17.97,-20.581c7.849,-4.838 17.069,-7.257 27.659,-7.257c14.121,0 25.763,5.253 34.926,15.759l0,-13.271l18.703,0l0,95.177c0,17.142 -1.897,29.29 -5.69,36.443c-3.793,7.154 -9.802,12.805 -18.026,16.952c-8.225,4.147 -18.346,6.221 -30.363,6.221c-14.271,0 -25.801,-2.955 -34.589,-8.865c-8.787,-5.91 -13.031,-14.809 -12.731,-26.697Zm16.787,-66.147c0,14.446 3.117,24.986 9.352,31.622c6.234,6.635 14.045,9.953 23.434,9.953c9.314,0 17.125,-3.301 23.434,-9.901c6.309,-6.601 9.464,-16.952 9.464,-31.052c0,-13.479 -3.248,-23.639 -9.745,-30.482c-6.497,-6.843 -14.328,-10.264 -23.491,-10.264c-9.013,0 -16.675,3.369 -22.984,10.109c-6.309,6.739 -9.464,16.744 -9.464,30.015Z" style="fill:#fff;fill-rule:nonzero;"/><ellipse cx="641.485" cy="13.604" rx="14.024" ry="12.905" style="fill:#fff;"/><ellipse cx="460.156" cy="12.905" rx="14.024" ry="12.905" style="fill:#fff;"/><rect x="631.345" y="44.217" width="20.28" height="110.107" style="fill:#fff;fill-rule:nonzero;"/><path d="M730.619,137.632l2.93,16.485c-5.709,1.106 -10.816,1.659 -15.323,1.659c-7.361,0 -13.069,-1.072 -17.125,-3.214c-4.056,-2.143 -6.91,-4.96 -8.562,-8.45c-1.653,-3.491 -2.479,-10.835 -2.479,-22.032l0,-63.348l-14.872,0l0,-14.515l14.872,0l0,-27.268l20.167,-11.197l0,38.465l20.392,0l0,14.515l-20.392,0l0,64.385c0,5.322 0.357,8.743 1.07,10.264c0.714,1.521 1.878,2.73 3.493,3.629c1.615,0.898 3.924,1.348 6.929,1.348c2.253,0 5.22,-0.242 8.9,-0.726Z" style="fill:#fff;fill-rule:nonzero;"/><path d="M828.525,140.742c-7.511,5.875 -14.74,10.022 -21.688,12.442c-6.948,2.419 -14.402,3.628 -22.364,3.628c-13.144,0 -23.246,-2.954 -30.307,-8.864c-7.06,-5.91 -10.59,-13.461 -10.59,-22.654c0,-5.391 1.333,-10.316 3.999,-14.774c2.667,-4.458 6.159,-8.035 10.478,-10.731c4.319,-2.696 9.182,-4.735 14.59,-6.117c3.981,-0.968 9.99,-1.901 18.027,-2.799c16.374,-1.798 28.429,-3.94 36.165,-6.429c0.075,-2.557 0.113,-4.181 0.113,-4.872c0,-7.604 -1.915,-12.96 -5.746,-16.071c-5.183,-4.216 -12.881,-6.324 -23.096,-6.324c-9.539,0 -16.581,1.538 -21.125,4.614c-4.544,3.075 -7.905,8.519 -10.084,16.329l-19.829,-2.488c1.803,-7.811 4.77,-14.118 8.901,-18.922c4.131,-4.803 10.102,-8.501 17.914,-11.093c7.811,-2.592 16.862,-3.888 27.152,-3.888c10.215,0 18.515,1.106 24.899,3.317c6.384,2.212 11.079,4.994 14.083,8.347c3.004,3.352 5.107,7.585 6.309,12.7c0.676,3.18 1.014,8.917 1.014,17.211l0,24.883c0,17.349 0.432,28.322 1.296,32.918c0.864,4.596 2.572,9.003 5.126,13.219l-21.181,0c-2.103,-3.871 -3.455,-8.398 -4.056,-13.582Zm-1.69,-41.679c-7.361,2.765 -18.402,5.115 -33.123,7.05c-8.337,1.106 -14.234,2.35 -17.689,3.733c-3.455,1.382 -6.121,3.404 -7.999,6.065c-1.878,2.661 -2.817,5.616 -2.817,8.865c0,4.976 2.047,9.123 6.141,12.441c4.093,3.318 10.083,4.977 17.97,4.977c7.811,0 14.759,-1.573 20.843,-4.718c6.084,-3.145 10.553,-7.447 13.407,-12.908c2.178,-4.216 3.267,-10.437 3.267,-18.662l0,-6.843Z" style="fill:#fff;fill-rule:nonzero;"/><rect x="878.323" y="2.331" width="20.28" height="151.993" style="fill:#fff;fill-rule:nonzero;"/></g><path d="M618.178,179.614l0,189.704l27.292,0l0.671,-189.546l-27.963,-0.158Z" style="fill:#6a72a3;fill-rule:nonzero;"/><path d="M248.726,257.246c-2.013,-35.973 -4.474,-69.573 -4.101,-101.764l-1.193,0c-9.396,30.262 -20.805,52.736 -34.674,88.339l-48.544,125.202l-26.919,0l-44.443,-122.903c-13.049,-36.344 -24.085,-60.005 -31.766,-90.638l-0.82,0c-0.82,32.191 -2.834,65.791 -5.294,104.434l-7.308,110.664l-33.854,0l19.164,-248.401l45.263,0l46.903,115.189c11.409,31.745 20.805,60.079 27.739,86.929l1.194,0c6.934,-26.034 16.703,-54.368 28.932,-86.929l48.917,-115.189l45.262,0l17.151,248.401l-34.674,0l-6.935,-113.334Z" style="fill:#6a72a3;fill-rule:nonzero;"/><path d="M441.675,370.58l-2.833,-23.364l-1.268,0c-10.961,14.538 -32.213,27.518 -60.325,27.518c-39.969,0 -60.326,-26.405 -60.326,-53.181c0,-44.8 42.429,-69.277 118.638,-68.906l0,-3.857c0,-15.279 -4.474,-33.229 -44.816,-33.229c-18.343,0 -34.822,5.345 -48.692,13.8l-10.813,-22.181c16.331,-9.939 39.969,-16.466 64.8,-16.466c60.325,0 75.015,29.001 75.015,66.161l0,69.276c0,16.096 0.82,31.746 3.281,44.429l-32.661,0Zm-5.294,-94.569c-39.148,-0.741 -83.591,5.712 -83.591,41.759c0,21.806 15.51,32.19 33.854,32.19c25.652,0 41.982,-15.279 47.724,-31.003c1.269,-3.448 1.95,-7.084 2.013,-10.755l0,-32.191Z" style="fill:#6a72a3;fill-rule:nonzero;"/><path d="M501.184,270.032c0,-16.811 -0.355,-32.192 -1.56,-45.459l27.976,-1.284l3.013,30.217l1.56,0c8.51,-19.156 29.074,-23.845 51.98,-23.845c3.269,-0.029 6.531,0.259 9.715,0.858l0,17.04c-3.826,-0.628 -7.726,-0.915 -11.63,-0.857c-24.04,0 -40.629,4.649 -45.239,24.091c-0.943,3.998 -1.966,17.3 -2.06,21.369l0,76.168l-33.755,0l0,-98.298Z" style="fill:#6a72a3;fill-rule:nonzero;"/><path d="M647.483,241.534l58.61,-57.74l43.25,0l-76.209,70.755l86.872,116.031l-43.622,0l-68.827,-94.418l0,-34.628l-0.074,0Z" style="fill:#6a72a3;fill-rule:nonzero;"/><path d="M790.442,294.997c0.732,46.782 27.287,53.373 59.328,53.373c22.915,0 36.77,-4.343 48.827,-9.829l5.463,24.762c-11.258,5.486 -30.576,11.81 -58.62,11.81c-54.29,0 -85.507,-28.867 -85.507,-86.239c0,-57.373 30.151,-102.413 81.51,-102.413c57.554,0 65.715,54.412 65.715,89.46c-0.054,5.405 -0.41,13.8 -1.065,19.153l-115.651,-0.077Zm85.675,-27.762c0.399,-22.02 -1.3,-56.011 -37.338,-56.011c-32.441,0 -45.473,32.01 -48.004,56.011l85.342,0Z" style="fill:#6a72a3;fill-rule:nonzero;"/><path d="M980.06,141.686l0,53.182l51.378,0l0,25.663l-51.378,0l0,90.267c0,22.993 6.935,35.973 26.919,35.973c7.004,0.091 13.992,-0.681 20.805,-2.299l1.64,25.292c-6.934,2.67 -17.971,4.599 -31.766,4.599c-16.703,0 -30.2,-4.97 -38.7,-14.167c-10.216,-9.939 -13.87,-26.405 -13.87,-48.211l0,-91.454l-30.573,0l0,-25.663l30.573,0l0,-44.429l34.972,-8.753Z" style="fill:#6a72a3;fill-rule:nonzero;"/><path d="M1090.45,142.873c0.373,11.497 -8.575,20.694 -22.818,20.694c-12.602,0 -21.625,-9.197 -21.625,-20.694c0,-11.867 9.396,-21.065 22.445,-21.065c13.423,0 21.998,9.198 21.998,21.065Zm-39.969,227.707l0,-175.638l35.868,0l0,175.638l-35.868,0Z" style="fill:#6a72a3;fill-rule:nonzero;"/><path d="M1107.44,236.189c0,-19.136 -0.448,-25.218 -1.641,-40.497l31.766,0l2.014,20.99l0.82,0c9.768,-17.653 23.638,-25.218 56.299,-25.218c27.291,0 69.721,5.637 69.721,69.202l0,110.664l-35.868,0l0,-106.807c0,-29.891 -11.856,-45.096 -45.635,-45.096c-23.638,0 -33.034,6.082 -39.148,24.847c-1.641,4.228 -2.461,9.939 -2.461,15.725l0,111.405l-35.867,0l0,-135.215Z" style="fill:#6a72a3;fill-rule:nonzero;"/><path d="M1472.77,194.942c-0.82,13.425 -1.641,18.691 -1.641,41.239l0,107.549c0,42.5 -8.948,51.475 -28.112,67.57c-19.164,16.837 -46.903,22.178 -71.734,22.178c-23.638,0 -49.737,-5.341 -65.62,-15.28l8.948,-25.663c13.05,7.64 33.407,14.538 57.865,14.538c36.687,0 63.606,-18.024 63.606,-64.678l0,-3.56l-0.82,0c-11.036,17.208 -32.213,31.003 -62.786,31.003c-48.917,0 -83.964,-39.088 -83.964,-90.341c0,-62.749 43.623,-88.709 88.885,-88.709c34.227,0 53.018,7.195 61.594,22.548l0.82,0l1.64,-18.32l31.319,0l0,-0.074Zm-37.135,63.416c0,-5.785 -0.373,-10.754 -2.013,-15.279c-6.562,-19.507 -24.086,-25.96 -50.185,-25.96c-34.226,0 -58.685,17.505 -58.685,60.376c0,36.344 19.537,66.606 58.313,66.606c21.997,0 41.981,-13.054 49.736,-34.49c1.949,-5.808 2.907,-11.901 2.834,-18.024l0,-33.229Z" style="fill:#6a72a3;fill-rule:nonzero;"/><path d="M240.449,250.57c-2.013,-35.973 -4.474,-69.573 -4.101,-101.763l-1.193,0c-9.396,30.262 -20.805,52.736 -34.674,88.338l-48.544,125.202l-26.919,0l-44.443,-122.902c-12.975,-36.344 -24.085,-60.005 -31.766,-90.638l-0.82,0c-0.82,32.19 -2.834,65.79 -5.294,104.434l-7.308,110.664l-33.854,0l19.164,-248.401l45.263,0l46.903,115.188c11.409,31.746 20.805,60.079 27.739,86.93l1.194,0c6.934,-26.035 16.703,-54.368 28.932,-86.93l48.916,-115.188l45.263,0l17.151,248.401l-34.674,0l-6.935,-113.335Z" style="fill:#fff;fill-rule:nonzero;stroke:#fff;stroke-width:0.74px;"/><path d="M433.398,363.831l-2.833,-23.365l-1.193,0c-11.036,14.538 -32.214,27.592 -60.326,27.592c-39.968,0 -60.325,-26.405 -60.325,-53.181c0,-44.799 42.429,-69.276 118.637,-68.905l0,-3.857c0,-15.279 -4.474,-33.229 -44.815,-33.229c-18.344,0 -34.823,5.344 -48.692,13.8l-10.813,-22.181c16.33,-9.939 39.968,-16.467 64.799,-16.467c60.326,0 75.016,29.002 75.016,66.162l0,69.276c0,16.095 0.82,31.745 3.281,44.429l-32.736,-0.074Zm-5.294,-94.569c-39.148,-0.742 -83.591,5.711 -83.591,41.758c0,21.807 15.51,32.191 33.854,32.191c25.652,0 41.982,-15.28 47.724,-31.004c1.269,-3.448 1.95,-7.083 2.013,-10.755l0,-32.19Z" style="fill:#fff;fill-rule:nonzero;stroke:#fff;stroke-width:0.74px;"/><path d="M495.308,256.104c0,-18.023 -0.349,-25.563 -1.533,-39.786l29.329,0l1.115,22.069l1.532,0c8.36,-20.536 28.563,-25.563 51.065,-25.563c3.216,-0.041 6.425,0.289 9.544,0.981l0,26.238c-3.759,-0.674 -7.59,-0.982 -11.425,-0.92c-23.616,0 -40.406,6.927 -44.934,27.77c-0.927,4.286 -1.44,8.634 -1.533,12.996l0,81.655l-33.16,0l0,-105.44Z" style="fill:#fff;fill-rule:nonzero;stroke:#fff;stroke-width:0.66px;"/><path d="M639.363,269.279l0,94.518l-27.292,0l0,-188.995c5.817,0 11.559,0.079 17.375,0.158l9.917,0.237l0,59.004l58.453,-57.585l43.25,0l-76.283,70.834l86.871,116.031l-43.622,0l-68.669,-94.202Z" style="fill:#fff;"/><path d="M781.548,287.578c0.732,45.175 27.287,54.103 59.328,54.103c22.915,0 36.77,-4.194 48.827,-9.491l5.463,23.912c-11.258,5.297 -30.576,11.404 -58.62,11.404c-54.29,0 -85.507,-27.543 -85.507,-82.945c0,-55.401 30.151,-99.3 81.51,-99.3c57.554,0 65.715,52.875 65.715,86.719c-0.054,5.219 -0.41,10.429 -1.065,15.598l-115.651,0Zm85.675,-23.912c0.399,-21.263 -1.301,-54.42 -37.338,-54.42c-32.441,0 -45.473,31.244 -48.004,54.42l85.342,0Z" style="fill:#fff;fill-rule:nonzero;stroke:#fff;stroke-width:0.7px;"/><path d="M971.783,135.011l0,53.255l51.378,0l0,25.589l-51.378,0l0,90.267c0,22.994 6.935,35.974 26.919,35.974c7.004,0.091 13.992,-0.681 20.805,-2.3l1.64,25.293c-6.934,2.67 -17.971,4.598 -31.766,4.598c-16.703,0 -30.2,-4.969 -38.7,-14.166c-10.216,-9.939 -13.87,-26.405 -13.87,-48.212l0,-91.454l-30.573,0l0,-25.663l30.573,0l0,-44.429l34.972,-8.752Z" style="fill:#fff;fill-rule:nonzero;stroke:#fff;stroke-width:0.74px;"/><path d="M1082.17,136.124c0.373,11.496 -8.575,20.693 -22.818,20.693c-12.677,0 -21.625,-9.197 -21.625,-20.693c0,-11.868 9.396,-21.065 22.445,-21.065c13.423,0.074 21.998,9.197 21.998,21.065Zm-39.969,227.707l0,-175.639l35.868,0l0,175.639l-35.868,0Z" style="fill:#fff;fill-rule:nonzero;stroke:#fff;stroke-width:0.74px;"/><path d="M1099.16,229.514c0,-19.136 -0.448,-25.218 -1.641,-40.498l31.766,0l2.013,30.633l0.821,0c9.768,-17.653 23.638,-34.861 56.299,-34.861c27.291,0 69.721,5.638 69.721,69.203l0,110.664l-35.868,0l0,-106.807c0,-29.892 -11.856,-45.097 -45.635,-45.097c-23.638,0 -33.034,6.082 -39.148,24.848c-1.641,4.227 -2.461,9.939 -2.461,15.724l0,111.406l-35.867,0l0,-135.215Z" style="fill:#fff;fill-rule:nonzero;stroke:#fff;stroke-width:0.74px;"/><path d="M1464.42,188.192c-0.82,13.425 -1.64,18.691 -1.64,41.24l0,107.548c0,42.501 -8.948,51.476 -28.112,67.571c-19.164,16.837 -46.904,22.177 -71.735,22.177c-23.638,0 -49.737,-5.34 -65.62,-15.279l8.949,-25.664c13.049,7.64 33.406,14.538 57.864,14.538c36.688,0 63.607,-18.024 63.607,-64.678l0,-3.56l-0.82,0c-11.037,17.208 -32.214,31.004 -62.787,31.004c-48.916,0 -83.963,-39.089 -83.963,-90.341c0,-62.824 43.622,-88.784 88.885,-88.784c34.226,0 53.018,16.837 61.593,32.191l0.82,0l1.641,-27.963l31.318,0Zm-37.06,63.491c0,-5.785 -0.373,-10.755 -2.013,-15.279c-6.562,-19.507 -24.086,-25.96 -50.185,-25.96c-34.226,0 -58.685,17.504 -58.685,60.375c0,36.344 19.537,66.606 58.313,66.606c21.997,0 41.981,-12.98 49.736,-34.489c1.949,-5.809 2.907,-11.901 2.834,-18.024l0,-33.229Z" style="fill:#fff;fill-rule:nonzero;stroke:#fff;stroke-width:0.74px;"/></g></svg>