<?xml version="1.0" encoding="UTF-8" standalone="no"?>
<!DOCTYPE svg PUBLIC "-//W3C//DTD SVG 1.1//EN" "http://www.w3.org/Graphics/SVG/1.1/DTD/svg11.dtd">
<svg width="100%" height="100%" viewBox="0 0 443 355" version="1.1" xmlns="http://www.w3.org/2000/svg" xmlns:xlink="http://www.w3.org/1999/xlink" xml:space="preserve" xmlns:serif="http://www.serif.com/" style="fill-rule:evenodd;clip-rule:evenodd;stroke-linejoin:round;stroke-miterlimit:1.5;">
    <g transform="matrix(1,0,0,1,-1617.48,-6545.59)">
        <g transform="matrix(1,0,0,1,0,-155.205)">
            <g transform="matrix(1,0,0,1,-773.397,879.626)">
                <g>
                    <g>
                        <g>
                            <g transform="matrix(6.26238e-17,-1.02273,1.02273,6.26238e-17,-4140.29,7818.51)">
                                <path d="M1754.46,6775.29L1788.66,6809.49L1754.46,6775.29Z" style="fill:url(#_Radial1);stroke:rgb(43,44,43);stroke-width:3.79px;"/>
                            </g>
                            <g transform="matrix(1.22082e-16,-1.99374,1.99374,1.22082e-16,-10738.7,9514.63)">
                                <path d="M1748.71,6769.54L1781.56,6802.39L1748.71,6769.54Z" style="fill:url(#_Radial2);stroke:rgb(43,44,43);stroke-width:1.94px;"/>
                            </g>
                            <g transform="matrix(6.26238e-17,-1.02273,1.02273,6.26238e-17,-4174.44,7771.69)">
                                <path d="M1697.38,6718.21L1821.25,6842.08L1697.38,6718.21Z" style="fill:url(#_Radial3);stroke:rgb(43,44,43);stroke-width:3.79px;"/>
                            </g>
                            <g transform="matrix(1.61835e-16,-2.64297,2.64297,1.61835e-16,-15175.4,10664.9)">
                                <path d="M1753.06,6773.89L1789.28,6810.11L1753.06,6773.89Z" style="fill:url(#_Radial4);stroke:rgb(43,44,43);stroke-width:1.47px;"/>
                            </g>
                            <g transform="matrix(6.26238e-17,-1.02273,1.02273,6.26238e-17,-4242.17,7758.46)">
                                <path d="M1673.87,6694.7L1851.54,6872.37L1673.87,6694.7Z" style="fill:url(#_Radial5);stroke:rgb(43,44,43);stroke-width:3.79px;"/>
                            </g>
                            <g transform="matrix(6.26238e-17,-1.02273,1.02273,6.26238e-17,-4203.84,7747.99)">
                                <path d="M1668.2,6689.03L1841.71,6862.54L1668.2,6689.03Z" style="fill:url(#_Radial6);stroke:rgb(43,44,43);stroke-width:3.79px;"/>
                            </g>
                            <g transform="matrix(6.37328e-17,-1.04084,1.04084,6.37328e-17,-4309.66,7788.55)">
                                <path d="M1680.92,6701.76L1831.57,6852.4L1680.92,6701.76Z" style="fill:url(#_Radial7);stroke:rgb(43,44,43);stroke-width:3.72px;"/>
                            </g>
                            <g transform="matrix(6.26238e-17,-1.02273,1.02273,6.26238e-17,-4278.19,7767.48)">
                                <path d="M1679.65,6700.48L1860.69,6881.53L1679.65,6700.48Z" style="fill:url(#_Radial8);stroke:rgb(43,44,43);stroke-width:3.79px;"/>
                            </g>
                            <g transform="matrix(6.18411e-17,-1.00994,1.00994,6.18411e-17,-4215.45,7744.8)">
                                <path d="M1674.65,6695.48L1861.68,6882.51L1674.65,6695.48Z" style="fill:url(#_Radial9);stroke:rgb(43,44,43);stroke-width:3.83px;"/>
                            </g>
                            <g transform="matrix(6.26238e-17,-1.02273,1.02273,6.26238e-17,-4321.31,7762.36)">
                                <path d="M1679.03,6699.86L1855.37,6876.2L1679.03,6699.86Z" style="fill:url(#_Radial10);stroke:rgb(43,44,43);stroke-width:3.79px;"/>
                            </g>
                            <g transform="matrix(6.26238e-17,-1.02273,1.02273,6.26238e-17,-4344.65,7761.57)">
                                <path d="M1697.55,6718.38L1854.35,6875.18L1697.55,6718.38Z" style="fill:url(#_Radial11);stroke:rgb(43,44,43);stroke-width:3.79px;"/>
                            </g>
                            <g transform="matrix(6.26238e-17,-1.02273,1.02273,6.26238e-17,-4364.68,7757.48)">
                                <path d="M1713.11,6733.94L1850.35,6871.18L1713.11,6733.94Z" style="fill:url(#_Radial12);stroke:rgb(43,44,43);stroke-width:3.79px;"/>
                            </g>
                            <g transform="matrix(6.26238e-17,-1.02273,1.02273,6.26238e-17,-4376.7,7745.38)">
                                <path d="M1720.79,6741.62L1838.76,6859.59L1720.79,6741.62Z" style="fill:url(#_Radial13);stroke:rgb(43,44,43);stroke-width:3.79px;"/>
                            </g>
                            <g transform="matrix(6.26238e-17,-1.02273,1.02273,6.26238e-17,-4376.7,7721.26)">
                                <path d="M1716.83,6737.66L1814.75,6835.58L1716.83,6737.66Z" style="fill:url(#_Radial14);stroke:rgb(43,44,43);stroke-width:3.79px;"/>
                            </g>
                            <g transform="matrix(6.26238e-17,-1.02273,1.02273,6.26238e-17,-4376.7,7697.14)">
                                <path d="M1713.55,6734.38L1791.15,6811.98L1713.55,6734.38Z" style="fill:url(#_Radial15);stroke:rgb(43,44,43);stroke-width:3.79px;"/>
                            </g>
                            <g transform="matrix(6.26238e-17,-1.02273,1.02273,6.26238e-17,-4375.75,7672.08)">
                                <path d="M1707.6,6728.43L1767.02,6787.85L1707.6,6728.43Z" style="fill:url(#_Radial16);stroke:rgb(43,44,43);stroke-width:3.79px;"/>
                            </g>
                            <g transform="matrix(6.26238e-17,-1.02273,1.02273,6.26238e-17,-4375.75,7647.95)">
                                <path d="M1703.39,6724.23L1743.74,6764.57L1703.39,6724.23Z" style="fill:url(#_Radial17);stroke:rgb(43,44,43);stroke-width:3.79px;"/>
                            </g>
                            <g transform="matrix(6.26238e-17,-1.02273,1.02273,6.26238e-17,-4377.26,7623.26)">
                                <path d="M1699.92,6720.75L1719.88,6740.71L1699.92,6720.75Z" style="fill:url(#_Radial18);stroke:rgb(43,44,43);stroke-width:3.79px;"/>
                            </g>
                            <g transform="matrix(1,0,0,1,773.397,-758.973)">
                                <path d="M1750.19,6771.02L1789.28,6810.11L1750.19,6771.02Z" style="fill:url(#_Radial19);stroke:rgb(43,44,43);stroke-width:3.87px;"/>
                            </g>
                            <g transform="matrix(1.94944,0,0,1.94944,-894.713,-7220.46)">
                                <path d="M1749.93,6770.76L1785.63,6806.45L1749.93,6770.76Z" style="fill:url(#_Radial20);stroke:rgb(43,44,43);stroke-width:1.99px;"/>
                            </g>
                            <g transform="matrix(1,0,0,1,811.574,-799.968)">
                                <path d="M1690.64,6711.47L1821.86,6842.69L1690.64,6711.47Z" style="fill:url(#_Radial21);stroke:rgb(43,44,43);stroke-width:3.87px;"/>
                            </g>
                            <g transform="matrix(2.58424,0,0,2.58424,-2014.08,-11553.2)">
                                <path d="M1750.5,6771.33L1789.28,6810.11L1750.5,6771.33Z" style="fill:url(#_Radial22);stroke:rgb(43,44,43);stroke-width:1.5px;"/>
                            </g>
                            <g transform="matrix(1,0,0,1,851.476,-839.237)">
                                <path d="M1683.09,6703.92L1852.71,6873.54L1683.09,6703.92Z" style="fill:url(#_Radial23);stroke:rgb(43,44,43);stroke-width:3.87px;"/>
                            </g>
                            <g transform="matrix(1,0,0,1,838.895,-824.565)">
                                <path d="M1668.2,6689.03L1841.71,6862.54L1668.2,6689.03Z" style="fill:url(#_Radial24);stroke:rgb(43,44,43);stroke-width:3.87px;"/>
                            </g>
                            <g transform="matrix(1.01771,0,0,1.01771,793.015,-934.261)">
                                <path d="M1671.76,6692.59L1831.57,6852.4L1671.76,6692.59Z" style="fill:url(#_Radial25);stroke:rgb(43,44,43);stroke-width:3.81px;"/>
                            </g>
                            <g transform="matrix(1,0,0,1,867.079,-850.025)">
                                <path d="M1693.88,6714.71L1860.69,6881.53L1693.88,6714.71Z" style="fill:url(#_Radial26);stroke:rgb(43,44,43);stroke-width:3.87px;"/>
                            </g>
                            <g transform="matrix(0.987501,0,0,0.987501,911.836,-766.098)">
                                <path d="M1693.88,6714.71L1860.69,6881.53L1693.88,6714.71Z" style="fill:url(#_Radial27);stroke:rgb(43,44,43);stroke-width:3.92px;"/>
                            </g>
                            <g transform="matrix(1,0,0,1,914.25,-850.025)">
                                <path d="M1693.88,6714.71L1855.37,6876.2L1693.88,6714.71Z" style="fill:url(#_Radial28);stroke:rgb(43,44,43);stroke-width:3.87px;"/>
                            </g>
                            <g transform="matrix(1,0,0,1,937.835,-850.025)">
                                <path d="M1693.88,6714.71L1853.82,6874.65L1693.88,6714.71Z" style="fill:url(#_Radial29);stroke:rgb(43,44,43);stroke-width:3.87px;"/>
                            </g>
                            <g transform="matrix(1,0,0,1,961.421,-850.025)">
                                <path d="M1693.88,6714.71L1850.35,6871.18L1693.88,6714.71Z" style="fill:url(#_Radial30);stroke:rgb(43,44,43);stroke-width:3.87px;"/>
                            </g>
                            <g transform="matrix(1,0,0,1,985.006,-850.025)">
                                <path d="M1693.88,6714.71L1838.76,6859.59L1693.88,6714.71Z" style="fill:url(#_Radial31);stroke:rgb(43,44,43);stroke-width:3.87px;"/>
                            </g>
                            <g transform="matrix(1,0,0,1,1008.59,-850.025)">
                                <path d="M1693.88,6714.71L1814.75,6835.58L1693.88,6714.71Z" style="fill:url(#_Radial32);stroke:rgb(43,44,43);stroke-width:3.87px;"/>
                            </g>
                            <g transform="matrix(1,0,0,1,1032.18,-850.025)">
                                <path d="M1693.88,6714.71L1791.15,6811.98L1693.88,6714.71Z" style="fill:url(#_Radial33);stroke:rgb(43,44,43);stroke-width:3.87px;"/>
                            </g>
                            <g transform="matrix(1,0,0,1,1055.76,-850.025)">
                                <path d="M1693.88,6714.71L1767.02,6787.85L1693.88,6714.71Z" style="fill:url(#_Radial34);stroke:rgb(43,44,43);stroke-width:3.87px;"/>
                            </g>
                            <g transform="matrix(1,0,0,1,1079.35,-850.025)">
                                <path d="M1693.88,6714.71L1743.74,6764.57L1693.88,6714.71Z" style="fill:url(#_Radial35);stroke:rgb(43,44,43);stroke-width:3.87px;"/>
                            </g>
                            <g transform="matrix(1,0,0,1,1102.93,-850.025)">
                                <path d="M1693.88,6714.71L1719.88,6740.71L1693.88,6714.71Z" style="fill:url(#_Radial36);stroke:rgb(43,44,43);stroke-width:3.87px;"/>
                            </g>
                            <g transform="matrix(1,0,0,1,773.397,-758.973)">
                                <path d="M2059.96,6770.84C2059.96,6776.9 2059.78,6779.71 2057.83,6783C2055.54,6786.87 2051.76,6787.37 2046.78,6788.26L1763.34,6822.07C1765.17,6828.46 1766.52,6834.95 1767.39,6841.54C1766.43,6847.73 1752.97,6855.53 1749.87,6860.96L2011.35,6860.96C2013.63,6860.96 2015.83,6861.4 2017.94,6862.28C2020.04,6863.17 2021.9,6864.47 2023.52,6866.1C2025.13,6867.74 2025.13,6875.06 2023.52,6876.69C2021.9,6878.32 2020.04,6879.58 2017.94,6880.47C2015.83,6881.35 2013.63,6881.79 2011.35,6881.79L1728.95,6881.79C1728.12,6881.77 1726.69,6881.42 1726.44,6881.34C1724.29,6880.6 1722.52,6879.17 1720.92,6877.55C1719.32,6875.93 1717.66,6874.2 1717.18,6871.97C1713.95,6857.02 1738.9,6848.66 1742.95,6840.47L1694.36,6601.98L1634.69,6601.98C1632.43,6601.92 1630.26,6601.43 1628.18,6600.53C1626.1,6599.62 1624.27,6598.36 1622.66,6596.74C1621.07,6595.12 1617.53,6591.19 1617.48,6587.56C1617.46,6585.27 1617.53,6580.9 1619.79,6580.57C1622.66,6580.15 1632.43,6580.21 1634.69,6580.15L1694.53,6580.15C1712.75,6580.15 1713.77,6599.69 1715.79,6613.01L2044.75,6613.01C2053.09,6613.1 2055.6,6613.61 2057.83,6615.34C2059.94,6616.97 2059.96,6618.21 2059.96,6630.42L2059.96,6770.84ZM2048.59,6777.46L1761.2,6811.64L1720.99,6626.51L2047.26,6626.51L2048.59,6777.46Z" style="fill:rgb(43,44,43);"/>
                            </g>
                        </g>
                    </g>
                    <g transform="matrix(1,0,0,1,749.544,-792.369)">
                        <circle cx="1769.57" cy="6941.38" r="24.45" style="fill:rgb(44,44,44);stroke:rgb(44,44,44);stroke-width:3.87px;"/>
                    </g>
                    <g transform="matrix(1,0,0,1,997.622,-792.369)">
                        <circle cx="1769.57" cy="6941.38" r="24.45" style="fill:rgb(44,44,44);stroke:rgb(44,44,44);stroke-width:3.87px;"/>
                    </g>
                </g>
            </g>
        </g>
    </g>
    <defs>
        <radialGradient id="_Radial1" cx="0" cy="0" r="1" gradientUnits="userSpaceOnUse" gradientTransform="matrix(39.0874,0,0,39.0874,1750.19,6790.56)"><stop offset="0" style="stop-color:rgb(119,255,139);stop-opacity:1"/><stop offset="0.53" style="stop-color:rgb(199,255,207);stop-opacity:1"/><stop offset="1" style="stop-color:rgb(119,255,139);stop-opacity:1"/></radialGradient>
        <radialGradient id="_Radial2" cx="0" cy="0" r="1" gradientUnits="userSpaceOnUse" gradientTransform="matrix(39.0874,0,0,39.0874,1750.19,6790.56)"><stop offset="0" style="stop-color:rgb(119,255,139);stop-opacity:1"/><stop offset="0.53" style="stop-color:rgb(199,255,207);stop-opacity:1"/><stop offset="1" style="stop-color:rgb(119,255,139);stop-opacity:1"/></radialGradient>
        <radialGradient id="_Radial3" cx="0" cy="0" r="1" gradientUnits="userSpaceOnUse" gradientTransform="matrix(39.0874,0,0,39.0874,1750.19,6790.56)"><stop offset="0" style="stop-color:rgb(119,255,139);stop-opacity:1"/><stop offset="0.53" style="stop-color:rgb(199,255,207);stop-opacity:1"/><stop offset="1" style="stop-color:rgb(119,255,139);stop-opacity:1"/></radialGradient>
        <radialGradient id="_Radial4" cx="0" cy="0" r="1" gradientUnits="userSpaceOnUse" gradientTransform="matrix(39.0874,0,0,39.0874,1750.19,6790.56)"><stop offset="0" style="stop-color:rgb(119,255,139);stop-opacity:1"/><stop offset="0.53" style="stop-color:rgb(199,255,207);stop-opacity:1"/><stop offset="1" style="stop-color:rgb(119,255,139);stop-opacity:1"/></radialGradient>
        <radialGradient id="_Radial5" cx="0" cy="0" r="1" gradientUnits="userSpaceOnUse" gradientTransform="matrix(39.0874,0,0,39.0874,1750.19,6790.56)"><stop offset="0" style="stop-color:rgb(119,255,139);stop-opacity:1"/><stop offset="0.53" style="stop-color:rgb(199,255,207);stop-opacity:1"/><stop offset="1" style="stop-color:rgb(119,255,139);stop-opacity:1"/></radialGradient>
        <radialGradient id="_Radial6" cx="0" cy="0" r="1" gradientUnits="userSpaceOnUse" gradientTransform="matrix(39.0874,0,0,39.0874,1750.19,6790.56)"><stop offset="0" style="stop-color:rgb(119,255,139);stop-opacity:1"/><stop offset="0.53" style="stop-color:rgb(199,255,207);stop-opacity:1"/><stop offset="1" style="stop-color:rgb(119,255,139);stop-opacity:1"/></radialGradient>
        <radialGradient id="_Radial7" cx="0" cy="0" r="1" gradientUnits="userSpaceOnUse" gradientTransform="matrix(39.0874,0,0,39.0874,1750.19,6790.56)"><stop offset="0" style="stop-color:rgb(119,255,139);stop-opacity:1"/><stop offset="0.53" style="stop-color:rgb(199,255,207);stop-opacity:1"/><stop offset="1" style="stop-color:rgb(119,255,139);stop-opacity:1"/></radialGradient>
        <radialGradient id="_Radial8" cx="0" cy="0" r="1" gradientUnits="userSpaceOnUse" gradientTransform="matrix(39.0874,0,0,39.0874,1750.19,6790.56)"><stop offset="0" style="stop-color:rgb(119,255,139);stop-opacity:1"/><stop offset="0.53" style="stop-color:rgb(199,255,207);stop-opacity:1"/><stop offset="1" style="stop-color:rgb(119,255,139);stop-opacity:1"/></radialGradient>
        <radialGradient id="_Radial9" cx="0" cy="0" r="1" gradientUnits="userSpaceOnUse" gradientTransform="matrix(39.0874,0,0,39.0874,1750.19,6790.56)"><stop offset="0" style="stop-color:rgb(119,255,139);stop-opacity:1"/><stop offset="0.53" style="stop-color:rgb(199,255,207);stop-opacity:1"/><stop offset="1" style="stop-color:rgb(119,255,139);stop-opacity:1"/></radialGradient>
        <radialGradient id="_Radial10" cx="0" cy="0" r="1" gradientUnits="userSpaceOnUse" gradientTransform="matrix(39.0874,0,0,39.0874,1750.19,6790.56)"><stop offset="0" style="stop-color:rgb(119,255,139);stop-opacity:1"/><stop offset="0.53" style="stop-color:rgb(199,255,207);stop-opacity:1"/><stop offset="1" style="stop-color:rgb(119,255,139);stop-opacity:1"/></radialGradient>
        <radialGradient id="_Radial11" cx="0" cy="0" r="1" gradientUnits="userSpaceOnUse" gradientTransform="matrix(39.0874,0,0,39.0874,1750.19,6790.56)"><stop offset="0" style="stop-color:rgb(119,255,139);stop-opacity:1"/><stop offset="0.53" style="stop-color:rgb(199,255,207);stop-opacity:1"/><stop offset="1" style="stop-color:rgb(119,255,139);stop-opacity:1"/></radialGradient>
        <radialGradient id="_Radial12" cx="0" cy="0" r="1" gradientUnits="userSpaceOnUse" gradientTransform="matrix(39.0874,0,0,39.0874,1750.19,6790.56)"><stop offset="0" style="stop-color:rgb(119,255,139);stop-opacity:1"/><stop offset="0.53" style="stop-color:rgb(199,255,207);stop-opacity:1"/><stop offset="1" style="stop-color:rgb(119,255,139);stop-opacity:1"/></radialGradient>
        <radialGradient id="_Radial13" cx="0" cy="0" r="1" gradientUnits="userSpaceOnUse" gradientTransform="matrix(39.0874,0,0,39.0874,1750.19,6790.56)"><stop offset="0" style="stop-color:rgb(119,255,139);stop-opacity:1"/><stop offset="0.53" style="stop-color:rgb(199,255,207);stop-opacity:1"/><stop offset="1" style="stop-color:rgb(119,255,139);stop-opacity:1"/></radialGradient>
        <radialGradient id="_Radial14" cx="0" cy="0" r="1" gradientUnits="userSpaceOnUse" gradientTransform="matrix(39.0874,0,0,39.0874,1750.19,6790.56)"><stop offset="0" style="stop-color:rgb(119,255,139);stop-opacity:1"/><stop offset="0.53" style="stop-color:rgb(199,255,207);stop-opacity:1"/><stop offset="1" style="stop-color:rgb(119,255,139);stop-opacity:1"/></radialGradient>
        <radialGradient id="_Radial15" cx="0" cy="0" r="1" gradientUnits="userSpaceOnUse" gradientTransform="matrix(39.0874,0,0,39.0874,1750.19,6790.56)"><stop offset="0" style="stop-color:rgb(119,255,139);stop-opacity:1"/><stop offset="0.53" style="stop-color:rgb(199,255,207);stop-opacity:1"/><stop offset="1" style="stop-color:rgb(119,255,139);stop-opacity:1"/></radialGradient>
        <radialGradient id="_Radial16" cx="0" cy="0" r="1" gradientUnits="userSpaceOnUse" gradientTransform="matrix(39.0874,0,0,39.0874,1750.19,6790.56)"><stop offset="0" style="stop-color:rgb(119,255,139);stop-opacity:1"/><stop offset="0.53" style="stop-color:rgb(199,255,207);stop-opacity:1"/><stop offset="1" style="stop-color:rgb(119,255,139);stop-opacity:1"/></radialGradient>
        <radialGradient id="_Radial17" cx="0" cy="0" r="1" gradientUnits="userSpaceOnUse" gradientTransform="matrix(39.0874,0,0,39.0874,1750.19,6790.56)"><stop offset="0" style="stop-color:rgb(119,255,139);stop-opacity:1"/><stop offset="0.53" style="stop-color:rgb(199,255,207);stop-opacity:1"/><stop offset="1" style="stop-color:rgb(119,255,139);stop-opacity:1"/></radialGradient>
        <radialGradient id="_Radial18" cx="0" cy="0" r="1" gradientUnits="userSpaceOnUse" gradientTransform="matrix(39.0874,0,0,39.0874,1750.19,6790.56)"><stop offset="0" style="stop-color:rgb(119,255,139);stop-opacity:1"/><stop offset="0.53" style="stop-color:rgb(199,255,207);stop-opacity:1"/><stop offset="1" style="stop-color:rgb(119,255,139);stop-opacity:1"/></radialGradient>
        <radialGradient id="_Radial19" cx="0" cy="0" r="1" gradientUnits="userSpaceOnUse" gradientTransform="matrix(39.0874,0,0,39.0874,1750.19,6790.56)"><stop offset="0" style="stop-color:rgb(119,255,139);stop-opacity:1"/><stop offset="0.53" style="stop-color:rgb(199,255,207);stop-opacity:1"/><stop offset="1" style="stop-color:rgb(119,255,139);stop-opacity:1"/></radialGradient>
        <radialGradient id="_Radial20" cx="0" cy="0" r="1" gradientUnits="userSpaceOnUse" gradientTransform="matrix(39.0874,0,0,39.0874,1750.19,6790.56)"><stop offset="0" style="stop-color:rgb(119,255,139);stop-opacity:1"/><stop offset="0.53" style="stop-color:rgb(199,255,207);stop-opacity:1"/><stop offset="1" style="stop-color:rgb(119,255,139);stop-opacity:1"/></radialGradient>
        <radialGradient id="_Radial21" cx="0" cy="0" r="1" gradientUnits="userSpaceOnUse" gradientTransform="matrix(39.0874,0,0,39.0874,1750.19,6790.56)"><stop offset="0" style="stop-color:rgb(119,255,139);stop-opacity:1"/><stop offset="0.53" style="stop-color:rgb(199,255,207);stop-opacity:1"/><stop offset="1" style="stop-color:rgb(119,255,139);stop-opacity:1"/></radialGradient>
        <radialGradient id="_Radial22" cx="0" cy="0" r="1" gradientUnits="userSpaceOnUse" gradientTransform="matrix(39.0874,0,0,39.0874,1750.19,6790.56)"><stop offset="0" style="stop-color:rgb(119,255,139);stop-opacity:1"/><stop offset="0.53" style="stop-color:rgb(199,255,207);stop-opacity:1"/><stop offset="1" style="stop-color:rgb(119,255,139);stop-opacity:1"/></radialGradient>
        <radialGradient id="_Radial23" cx="0" cy="0" r="1" gradientUnits="userSpaceOnUse" gradientTransform="matrix(39.0874,0,0,39.0874,1750.19,6790.56)"><stop offset="0" style="stop-color:rgb(119,255,139);stop-opacity:1"/><stop offset="0.53" style="stop-color:rgb(199,255,207);stop-opacity:1"/><stop offset="1" style="stop-color:rgb(119,255,139);stop-opacity:1"/></radialGradient>
        <radialGradient id="_Radial24" cx="0" cy="0" r="1" gradientUnits="userSpaceOnUse" gradientTransform="matrix(39.0874,0,0,39.0874,1750.19,6790.56)"><stop offset="0" style="stop-color:rgb(119,255,139);stop-opacity:1"/><stop offset="0.53" style="stop-color:rgb(199,255,207);stop-opacity:1"/><stop offset="1" style="stop-color:rgb(119,255,139);stop-opacity:1"/></radialGradient>
        <radialGradient id="_Radial25" cx="0" cy="0" r="1" gradientUnits="userSpaceOnUse" gradientTransform="matrix(39.0874,0,0,39.0874,1750.19,6790.56)"><stop offset="0" style="stop-color:rgb(119,255,139);stop-opacity:1"/><stop offset="0.53" style="stop-color:rgb(199,255,207);stop-opacity:1"/><stop offset="1" style="stop-color:rgb(119,255,139);stop-opacity:1"/></radialGradient>
        <radialGradient id="_Radial26" cx="0" cy="0" r="1" gradientUnits="userSpaceOnUse" gradientTransform="matrix(39.0874,0,0,39.0874,1750.19,6790.56)"><stop offset="0" style="stop-color:rgb(119,255,139);stop-opacity:1"/><stop offset="0.53" style="stop-color:rgb(199,255,207);stop-opacity:1"/><stop offset="1" style="stop-color:rgb(119,255,139);stop-opacity:1"/></radialGradient>
        <radialGradient id="_Radial27" cx="0" cy="0" r="1" gradientUnits="userSpaceOnUse" gradientTransform="matrix(39.0874,0,0,39.0874,1750.19,6790.56)"><stop offset="0" style="stop-color:rgb(119,255,139);stop-opacity:1"/><stop offset="0.53" style="stop-color:rgb(199,255,207);stop-opacity:1"/><stop offset="1" style="stop-color:rgb(119,255,139);stop-opacity:1"/></radialGradient>
        <radialGradient id="_Radial28" cx="0" cy="0" r="1" gradientUnits="userSpaceOnUse" gradientTransform="matrix(39.0874,0,0,39.0874,1750.19,6790.56)"><stop offset="0" style="stop-color:rgb(119,255,139);stop-opacity:1"/><stop offset="0.53" style="stop-color:rgb(199,255,207);stop-opacity:1"/><stop offset="1" style="stop-color:rgb(119,255,139);stop-opacity:1"/></radialGradient>
        <radialGradient id="_Radial29" cx="0" cy="0" r="1" gradientUnits="userSpaceOnUse" gradientTransform="matrix(39.0874,0,0,39.0874,1750.19,6790.56)"><stop offset="0" style="stop-color:rgb(119,255,139);stop-opacity:1"/><stop offset="0.53" style="stop-color:rgb(199,255,207);stop-opacity:1"/><stop offset="1" style="stop-color:rgb(119,255,139);stop-opacity:1"/></radialGradient>
        <radialGradient id="_Radial30" cx="0" cy="0" r="1" gradientUnits="userSpaceOnUse" gradientTransform="matrix(39.0874,0,0,39.0874,1750.19,6790.56)"><stop offset="0" style="stop-color:rgb(119,255,139);stop-opacity:1"/><stop offset="0.53" style="stop-color:rgb(199,255,207);stop-opacity:1"/><stop offset="1" style="stop-color:rgb(119,255,139);stop-opacity:1"/></radialGradient>
        <radialGradient id="_Radial31" cx="0" cy="0" r="1" gradientUnits="userSpaceOnUse" gradientTransform="matrix(39.0874,0,0,39.0874,1750.19,6790.56)"><stop offset="0" style="stop-color:rgb(119,255,139);stop-opacity:1"/><stop offset="0.53" style="stop-color:rgb(199,255,207);stop-opacity:1"/><stop offset="1" style="stop-color:rgb(119,255,139);stop-opacity:1"/></radialGradient>
        <radialGradient id="_Radial32" cx="0" cy="0" r="1" gradientUnits="userSpaceOnUse" gradientTransform="matrix(39.0874,0,0,39.0874,1750.19,6790.56)"><stop offset="0" style="stop-color:rgb(119,255,139);stop-opacity:1"/><stop offset="0.53" style="stop-color:rgb(199,255,207);stop-opacity:1"/><stop offset="1" style="stop-color:rgb(119,255,139);stop-opacity:1"/></radialGradient>
        <radialGradient id="_Radial33" cx="0" cy="0" r="1" gradientUnits="userSpaceOnUse" gradientTransform="matrix(39.0874,0,0,39.0874,1750.19,6790.56)"><stop offset="0" style="stop-color:rgb(119,255,139);stop-opacity:1"/><stop offset="0.53" style="stop-color:rgb(199,255,207);stop-opacity:1"/><stop offset="1" style="stop-color:rgb(119,255,139);stop-opacity:1"/></radialGradient>
        <radialGradient id="_Radial34" cx="0" cy="0" r="1" gradientUnits="userSpaceOnUse" gradientTransform="matrix(39.0874,0,0,39.0874,1750.19,6790.56)"><stop offset="0" style="stop-color:rgb(119,255,139);stop-opacity:1"/><stop offset="0.53" style="stop-color:rgb(199,255,207);stop-opacity:1"/><stop offset="1" style="stop-color:rgb(119,255,139);stop-opacity:1"/></radialGradient>
        <radialGradient id="_Radial35" cx="0" cy="0" r="1" gradientUnits="userSpaceOnUse" gradientTransform="matrix(39.0874,0,0,39.0874,1750.19,6790.56)"><stop offset="0" style="stop-color:rgb(119,255,139);stop-opacity:1"/><stop offset="0.53" style="stop-color:rgb(199,255,207);stop-opacity:1"/><stop offset="1" style="stop-color:rgb(119,255,139);stop-opacity:1"/></radialGradient>
        <radialGradient id="_Radial36" cx="0" cy="0" r="1" gradientUnits="userSpaceOnUse" gradientTransform="matrix(39.0874,0,0,39.0874,1750.19,6790.56)"><stop offset="0" style="stop-color:rgb(119,255,139);stop-opacity:1"/><stop offset="0.53" style="stop-color:rgb(199,255,207);stop-opacity:1"/><stop offset="1" style="stop-color:rgb(119,255,139);stop-opacity:1"/></radialGradient>
    </defs>
</svg>
