<?xml version="1.0" encoding="UTF-8" standalone="no"?>
<!DOCTYPE svg PUBLIC "-//W3C//DTD SVG 1.1//EN" "http://www.w3.org/Graphics/SVG/1.1/DTD/svg11.dtd">
<svg width="100%" height="100%" viewBox="0 0 444 355" version="1.1" xmlns="http://www.w3.org/2000/svg" xmlns:xlink="http://www.w3.org/1999/xlink" xml:space="preserve" xmlns:serif="http://www.serif.com/" style="fill-rule:evenodd;clip-rule:evenodd;stroke-linejoin:round;stroke-miterlimit:1.5;">
    <g transform="matrix(1,0,0,1,-2330.7,-6530.44)">
        <g transform="matrix(6.26238e-17,-1.02273,1.02273,6.26238e-17,-4199.97,8528.29)">
            <path d="M1754.46,6775.29L1788.66,6809.49L1754.46,6775.29Z" style="fill:white;stroke:white;stroke-width:3.79px;"/>
        </g>
        <g transform="matrix(1.22082e-16,-1.99374,1.99374,1.22082e-16,-10798.4,10224.4)">
            <path d="M1748.71,6769.54L1781.56,6802.39L1748.71,6769.54Z" style="fill:white;stroke:white;stroke-width:1.94px;"/>
        </g>
        <g transform="matrix(6.26238e-17,-1.02273,1.02273,6.26238e-17,-4234.12,8481.46)">
            <path d="M1697.38,6718.21L1821.25,6842.08L1697.38,6718.21Z" style="fill:white;stroke:white;stroke-width:3.79px;"/>
        </g>
        <g transform="matrix(1.61835e-16,-2.64297,2.64297,1.61835e-16,-15235.1,11374.6)">
            <path d="M1753.06,6773.89L1789.28,6810.11L1753.06,6773.89Z" style="fill:white;stroke:white;stroke-width:1.47px;"/>
        </g>
        <g transform="matrix(6.26238e-17,-1.02273,1.02273,6.26238e-17,-4301.85,8468.23)">
            <path d="M1673.87,6694.7L1851.54,6872.37L1673.87,6694.7Z" style="fill:white;stroke:white;stroke-width:3.79px;"/>
        </g>
        <g transform="matrix(6.26238e-17,-1.02273,1.02273,6.26238e-17,-4263.51,8457.77)">
            <path d="M1668.2,6689.03L1841.71,6862.54L1668.2,6689.03Z" style="fill:white;stroke:white;stroke-width:3.79px;"/>
        </g>
        <g transform="matrix(6.37328e-17,-1.04084,1.04084,6.37328e-17,-4369.34,8498.32)">
            <path d="M1680.92,6701.76L1831.57,6852.4L1680.92,6701.76Z" style="fill:white;stroke:white;stroke-width:3.72px;"/>
        </g>
        <g transform="matrix(6.26238e-17,-1.02273,1.02273,6.26238e-17,-4337.86,8477.25)">
            <path d="M1679.65,6700.48L1860.69,6881.53L1679.65,6700.48Z" style="fill:white;stroke:white;stroke-width:3.79px;"/>
        </g>
        <g transform="matrix(6.18411e-17,-1.00994,1.00994,6.18411e-17,-4275.13,8454.57)">
            <path d="M1674.65,6695.48L1861.68,6882.51L1674.65,6695.48Z" style="fill:white;stroke:white;stroke-width:3.83px;"/>
        </g>
        <g transform="matrix(6.26238e-17,-1.02273,1.02273,6.26238e-17,-4380.99,8472.14)">
            <path d="M1679.03,6699.86L1855.37,6876.2L1679.03,6699.86Z" style="fill:white;stroke:white;stroke-width:3.79px;"/>
        </g>
        <g transform="matrix(6.26238e-17,-1.02273,1.02273,6.26238e-17,-4404.32,8471.35)">
            <path d="M1697.55,6718.38L1854.35,6875.18L1697.55,6718.38Z" style="fill:white;stroke:white;stroke-width:3.79px;"/>
        </g>
        <g transform="matrix(6.26238e-17,-1.02273,1.02273,6.26238e-17,-4424.36,8467.26)">
            <path d="M1713.11,6733.94L1850.35,6871.18L1713.11,6733.94Z" style="fill:white;stroke:white;stroke-width:3.79px;"/>
        </g>
        <g transform="matrix(6.26238e-17,-1.02273,1.02273,6.26238e-17,-4436.37,8455.16)">
            <path d="M1720.79,6741.62L1838.76,6859.59L1720.79,6741.62Z" style="fill:white;stroke:white;stroke-width:3.79px;"/>
        </g>
        <g transform="matrix(6.26238e-17,-1.02273,1.02273,6.26238e-17,-4436.37,8431.03)">
            <path d="M1716.83,6737.66L1814.75,6835.58L1716.83,6737.66Z" style="fill:white;stroke:white;stroke-width:3.79px;"/>
        </g>
        <g transform="matrix(6.26238e-17,-1.02273,1.02273,6.26238e-17,-4436.37,8406.91)">
            <path d="M1713.55,6734.38L1791.15,6811.98L1713.55,6734.38Z" style="fill:white;stroke:white;stroke-width:3.79px;"/>
        </g>
        <g transform="matrix(6.26238e-17,-1.02273,1.02273,6.26238e-17,-4435.43,8381.85)">
            <path d="M1707.6,6728.43L1767.02,6787.85L1707.6,6728.43Z" style="fill:white;stroke:white;stroke-width:3.79px;"/>
        </g>
        <g transform="matrix(6.26238e-17,-1.02273,1.02273,6.26238e-17,-4435.43,8357.73)">
            <path d="M1703.39,6724.23L1743.74,6764.57L1703.39,6724.23Z" style="fill:white;stroke:white;stroke-width:3.79px;"/>
        </g>
        <g transform="matrix(6.26238e-17,-1.02273,1.02273,6.26238e-17,-4436.94,8333.04)">
            <path d="M1699.92,6720.75L1719.88,6740.71L1699.92,6720.75Z" style="fill:white;stroke:white;stroke-width:3.79px;"/>
        </g>
        <g transform="matrix(1,0,0,1,713.719,-49.2003)">
            <path d="M1750.19,6771.02L1789.28,6810.11L1750.19,6771.02Z" style="fill:white;stroke:white;stroke-width:3.87px;"/>
        </g>
        <g transform="matrix(1.94944,0,0,1.94944,-954.392,-6510.69)">
            <path d="M1749.93,6770.76L1785.63,6806.45L1749.93,6770.76Z" style="fill:white;stroke:white;stroke-width:1.99px;"/>
        </g>
        <g transform="matrix(1,0,0,1,751.895,-90.1952)">
            <path d="M1690.64,6711.47L1821.86,6842.69L1690.64,6711.47Z" style="fill:white;stroke:white;stroke-width:3.87px;"/>
        </g>
        <g transform="matrix(2.58424,0,0,2.58424,-2073.76,-10843.5)">
            <path d="M1750.5,6771.33L1789.28,6810.11L1750.5,6771.33Z" style="fill:white;stroke:white;stroke-width:1.5px;"/>
        </g>
        <g transform="matrix(1,0,0,1,791.798,-129.464)">
            <path d="M1683.09,6703.92L1852.71,6873.54L1683.09,6703.92Z" style="fill:white;stroke:white;stroke-width:3.87px;"/>
        </g>
        <g transform="matrix(1,0,0,1,779.216,-114.792)">
            <path d="M1668.2,6689.03L1841.71,6862.54L1668.2,6689.03Z" style="fill:white;stroke:white;stroke-width:3.87px;"/>
        </g>
        <g transform="matrix(1.01771,0,0,1.01771,733.337,-224.488)">
            <path d="M1671.76,6692.59L1831.57,6852.4L1671.76,6692.59Z" style="fill:white;stroke:white;stroke-width:3.81px;"/>
        </g>
        <g transform="matrix(1,0,0,1,807.4,-140.252)">
            <path d="M1693.88,6714.71L1860.69,6881.53L1693.88,6714.71Z" style="fill:white;stroke:white;stroke-width:3.87px;"/>
        </g>
        <g transform="matrix(0.987501,0,0,0.987501,852.158,-56.3254)">
            <path d="M1693.88,6714.71L1860.69,6881.53L1693.88,6714.71Z" style="fill:white;stroke:white;stroke-width:3.92px;"/>
        </g>
        <g transform="matrix(1,0,0,1,854.571,-140.252)">
            <path d="M1693.88,6714.71L1855.37,6876.2L1693.88,6714.71Z" style="fill:white;stroke:white;stroke-width:3.87px;"/>
        </g>
        <g transform="matrix(1,0,0,1,878.157,-140.252)">
            <path d="M1693.88,6714.71L1853.82,6874.65L1693.88,6714.71Z" style="fill:white;stroke:white;stroke-width:3.87px;"/>
        </g>
        <g transform="matrix(1,0,0,1,901.742,-140.252)">
            <path d="M1693.88,6714.71L1850.35,6871.18L1693.88,6714.71Z" style="fill:white;stroke:white;stroke-width:3.87px;"/>
        </g>
        <g transform="matrix(1,0,0,1,925.328,-140.252)">
            <path d="M1693.88,6714.71L1838.76,6859.59L1693.88,6714.71Z" style="fill:white;stroke:white;stroke-width:3.87px;"/>
        </g>
        <g transform="matrix(1,0,0,1,948.914,-140.252)">
            <path d="M1693.88,6714.71L1814.75,6835.58L1693.88,6714.71Z" style="fill:white;stroke:white;stroke-width:3.87px;"/>
        </g>
        <g transform="matrix(1,0,0,1,972.499,-140.252)">
            <path d="M1693.88,6714.71L1791.15,6811.98L1693.88,6714.71Z" style="fill:white;stroke:white;stroke-width:3.87px;"/>
        </g>
        <g transform="matrix(1,0,0,1,996.085,-140.252)">
            <path d="M1693.88,6714.71L1767.02,6787.85L1693.88,6714.71Z" style="fill:white;stroke:white;stroke-width:3.87px;"/>
        </g>
        <g transform="matrix(1,0,0,1,1019.67,-140.252)">
            <path d="M1693.88,6714.71L1743.74,6764.57L1693.88,6714.71Z" style="fill:white;stroke:white;stroke-width:3.87px;"/>
        </g>
        <g transform="matrix(1,0,0,1,1043.26,-140.252)">
            <path d="M1693.88,6714.71L1719.88,6740.71L1693.88,6714.71Z" style="fill:white;stroke:white;stroke-width:3.87px;"/>
        </g>
        <g transform="matrix(1,0,0,1,713.719,-49.2003)">
            <path d="M2059.96,6770.84C2059.96,6776.9 2059.78,6779.71 2057.83,6783C2055.54,6786.87 2051.76,6787.37 2046.78,6788.26L1763.34,6822.07C1765.17,6828.46 1766.52,6834.95 1767.39,6841.54C1766.43,6847.73 1752.97,6855.53 1749.87,6860.96L2011.35,6860.96C2013.63,6860.96 2015.83,6861.4 2017.94,6862.28C2020.04,6863.17 2021.9,6864.47 2023.52,6866.1C2025.13,6867.74 2025.13,6875.06 2023.52,6876.69C2021.9,6878.32 2020.04,6879.58 2017.94,6880.47C2015.83,6881.35 2013.63,6881.79 2011.35,6881.79L1728.95,6881.79C1728.12,6881.77 1726.69,6881.42 1726.44,6881.34C1724.29,6880.6 1722.52,6879.17 1720.92,6877.55C1719.32,6875.93 1717.66,6874.2 1717.18,6871.97C1713.95,6857.02 1738.9,6848.66 1742.95,6840.47L1694.36,6601.98L1634.69,6601.98C1632.43,6601.92 1630.26,6601.43 1628.18,6600.53C1626.1,6599.62 1624.27,6598.36 1622.66,6596.74C1621.07,6595.12 1617.53,6591.19 1617.48,6587.56C1617.46,6585.27 1617.53,6580.9 1619.79,6580.57C1622.66,6580.15 1632.43,6580.21 1634.69,6580.15L1694.53,6580.15C1712.75,6580.15 1713.77,6599.69 1715.79,6613.01L2044.75,6613.01C2053.09,6613.1 2055.6,6613.61 2057.83,6615.34C2059.94,6616.97 2059.96,6618.21 2059.96,6630.42L2059.96,6770.84ZM2048.59,6777.46L1761.2,6811.64L1720.99,6626.51L2047.26,6626.51L2048.59,6777.46Z" style="fill:white;stroke:white;stroke-width:1px;stroke-miterlimit:2;"/>
        </g>
        <g transform="matrix(1,0,0,1,689.865,-82.5955)">
            <circle cx="1769.57" cy="6941.38" r="24.45" style="fill:white;"/>
        </g>
        <g transform="matrix(1,0,0,1,937.944,-82.5955)">
            <circle cx="1769.57" cy="6941.38" r="24.45" style="fill:white;"/>
        </g>
    </g>
</svg>
