<svg xmlns="http://www.w3.org/2000/svg" viewBox="0 0 44.9 38.1"><defs><style>.cls-1{fill:#fff;}</style></defs><title>ecommerce-light</title><g id="Layer_2" data-name="Layer 2"><g id="Layer_1-2" data-name="Layer 1"><path class="cls-1" d="M44.9,19.1a1.73,1.73,0,0,1-1.5,1.7L15.2,24.1a12.86,12.86,0,0,1,.4,1.9,4.92,4.92,0,0,1-.6,1.7H39.9a1.7,1.7,0,1,1,0,3.4H12a1.75,1.75,0,0,1-1.7-1.7c0-.8,1.3-2.9,1.7-3.7L7.2,3.4H1.7A1.75,1.75,0,0,1,0,1.7,1.75,1.75,0,0,1,1.7,0H8.6c1.8,0,1.9,2.2,2.1,3.5H43.2a1.75,1.75,0,0,1,1.7,1.7Zm-31.2,19a3.5,3.5,0,1,1,3.5-3.5A3.48,3.48,0,0,1,13.7,38.1Zm24.2,0a3.5,3.5,0,1,1,3.5-3.5A3.42,3.42,0,0,1,37.9,38.1Z"/></g></g></svg>