<svg xmlns="http://www.w3.org/2000/svg" viewBox="0 0 491.72 246.2"><defs><style>.cls-1{fill:#f1f1f1;}.cls-2{fill:#df5a63;}.cls-3{fill:#d05150;}.cls-4{fill:#b23e2e;}.cls-5{fill:#fafafa;}.cls-6{fill:#d97273;}.cls-7{fill:#1b4b5d;}</style></defs><title>filfilment</title><g id="Layer_2" data-name="Layer 2"><g id="Layer_1-2" data-name="Layer 1"><rect class="cls-1" width="491.72" height="246.19"/><path class="cls-2" d="M.22,160.07q0-79.48,0-159C.2.2.4,0,1.3,0Q246,0,490.61,0c.9,0,1.11.2,1.11,1.1q0,106.49,0,213c-.3-.12-.35-.42-.46-.66a20.25,20.25,0,0,0-7.33-8.68c-7.51-5-15.64-5.93-24.19-3.33-1.07.33-1.59.3-2.12-.8a23.82,23.82,0,0,0-5-6.68,35,35,0,0,0-23.3-9.95c-11.93-.6-22.29,3-30.29,12.26-.55.63-.92.57-1.6.24a42.93,42.93,0,0,0-34.67-1.73c-.94.34-1.18.21-1.4-.74a25.94,25.94,0,0,0-10.43-15.6c-9.29-6.68-19.45-7.81-30.19-4.12-.92.32-1.3.18-1.71-.69a33.67,33.67,0,0,0-7.3-10.32C299.84,151.94,285.79,148.58,270,152a45.75,45.75,0,0,0-12.38,5.07,12.42,12.42,0,0,0-2.45-3.52c-3-3.11-5.83-6.31-9.41-8.8a36.86,36.86,0,0,0-14.06-6.32,28.45,28.45,0,0,0-9.87-.16,17.62,17.62,0,0,0-5.35,1.63A40.16,40.16,0,0,1,212,142c-3.9,1.39-7.72,3-11.68,4.23s-8.13,2.75-12.2,4.1a56.73,56.73,0,0,0-10.5,4.46,22.23,22.23,0,0,0-8.75,8.3c-.39.7-.75.83-1.53.56a50.69,50.69,0,0,0-7.61-2.44c-2-.34-3.93-.65-5.88.15-4.16,1.7-8.29,3.49-12.55,5-2.4.84-6.78,1.76-9.17,2.64-.2-4.53-.61-9.05-.8-13.58-.07-1.71,0-3.44-.22-5.13-.6-4.18-9.87-6.18-10.17-.73-.16,2.95-.37,5.89-.51,8.84-.23,5-.6,10.1-.92,15.15-2.42-.43-5.81-1-8.27-1.32a48.91,48.91,0,0,0-9.52-.34,20,20,0,0,0-6.45,1.5c-3,1.25-5.87,2.78-8.79,4.19-1.5.72-1.66.67-2.55-.75a15.11,15.11,0,0,0-3.4-3.82,55.43,55.43,0,0,0-11.27-6.91q-4.68-2.15-9.49-3.94c-2.71-1-5.43-2.05-8.13-3.1-1.86-.72-3.68-1.52-5.53-2.25A64.46,64.46,0,0,1,38.26,153c-2.43-1.36-4.67-3.05-7.1-4.41a26.53,26.53,0,0,0-9.42-3.17,10.09,10.09,0,0,0-2.62-.21c-2.92.39-5.77.79-8.35,2.52a27.62,27.62,0,0,0-7.95,8.13C1.92,157.25,1.23,158.76.22,160.07Z"/><path class="cls-1" d="M257.38,157.3a45.56,45.56,0,0,1,12.37-5.07c15.85-3.46,29.89-.09,41.76,11.22a34,34,0,0,1,7.3,10.32c.4.88.78,1,1.7.7,10.75-3.7,20.9-2.56,30.19,4.12a25.92,25.92,0,0,1,10.44,15.6c.21.94.45,1.08,1.39.74a43,43,0,0,1,34.68,1.73c.67.32,1.05.39,1.6-.24,8-9.26,18.35-12.87,30.29-12.26a35,35,0,0,1,23.29,10,23.9,23.9,0,0,1,5,6.68c.53,1.09,1,1.12,2.11.8,8.56-2.6,16.68-1.7,24.19,3.32a20.32,20.32,0,0,1,7.34,8.68c.11.25.15.55.46.66q0,15.42,0,30.83c0,.88-.18,1.11-1.1,1.11q-121,0-242.08,0-123.57,0-247.13,0c-1,0-1.21-.26-1.21-1.25q0-29.5,0-59c.33,0,.51-.2.72-.37a39.34,39.34,0,0,1,13.32-7.08,46.63,46.63,0,0,1,15.22-1.89,66,66,0,0,1,6.87,1c11,2.59,19.78,8.16,25.23,18.34.33.61.63.63,1.22.42a29.73,29.73,0,0,1,15.82-1.27c10.34,2.06,18,7.34,21.08,18,.19.63.47.59,1,.46a14.5,14.5,0,0,1,5.94,0,25.92,25.92,0,0,1,9.74,3.82l2.88,3,.2.48.08.18c1.12,2.34,1.16,4.87,1.32,7.38a19.85,19.85,0,0,0,1.55,7.33c.49,1.64,1.36-4.93,2.46-3.18a32.33,32.33,0,0,1,2-8.61c1-2.71,9.48-4.66,10.51-5.46l.42-.23q13.05-8.43,27.57-2.88c.88.33,1,0,1.14-.69a21.76,21.76,0,0,1,29.33-15.33c.78.3,1,.18,1.39-.56,5.62-11.4,14.81-17.36,27.51-17.78a30.25,30.25,0,0,1,14.32,3.37c.78.35.52-.35.56-.61a36.75,36.75,0,0,1,9.74-19.54A49.44,49.44,0,0,1,257.38,157.3Z"/><path class="cls-3" d="M29.38,176.3a46.64,46.64,0,0,0-15.22,1.9A39.31,39.31,0,0,0,.84,185.27c-.22.18-.4.41-.72.38V160c1-1.31,1.71-2.82,2.6-4.21a27.74,27.74,0,0,1,8-8.13c2.58-1.73,5.44-2.13,8.35-2.52a10.05,10.05,0,0,1,2.62.21,26.65,26.65,0,0,1,9.43,3.17c2.42,1.37,4.66,3,7.09,4.41A64.46,64.46,0,0,0,46,156.67c1.85.74,3.68,1.53,5.53,2.25C54.25,160,57,161,59.69,162q4.8,1.8,9.48,3.94a55.16,55.16,0,0,1,11.27,6.91,15,15,0,0,1,3.4,3.83c.89,1.41,1,1.47,2.55.74,2.92-1.41,5.8-2.93,8.79-4.19a20.1,20.1,0,0,1,6.46-1.5,48.83,48.83,0,0,1,9.51.34c2.46.32,5.85.89,8.28,1.33,0,1.47-.1,2.94-.2,4.41-.33,5.09-.54,10.19-.8,15.28a42.22,42.22,0,0,0-7.85-1,39.12,39.12,0,0,0-12.16,1.61c-.52.16-1,.33-1.46-.32-1.94-2.8-4.91-3.78-8-4.44a80.33,80.33,0,0,0-12.85-1.14,70.65,70.65,0,0,1-13.37-1.74,22,22,0,0,1-9-4.22,27.31,27.31,0,0,0-19.15-6.51A11.67,11.67,0,0,0,29.38,176.3Z"/><path class="cls-3" d="M257.47,157a50.78,50.78,0,0,0-8.3,6.83,36.78,36.78,0,0,0-9.74,19.55c0,.26.22,1-.56.61.3-.35,0-.48-.24-.63-.77-.49-1.57-.94-2.33-1.46-5.69-3.84-11.79-6.67-18.7-7.44a10.69,10.69,0,0,0-7.68,1.61,27.27,27.27,0,0,1-3.95,2.44c-4,1.93-8.37,2.84-12.7,3.75-3.55.74-7.17,1.17-10.73,1.84-5.52,1.05-11.09,1.87-16.41,3.82a15.42,15.42,0,0,0-7,4.56,1.29,1.29,0,0,1-1.56.48,35,35,0,0,0-11.94-1.52c-3.07.17-6.11.62-8.79,2.36a11.88,11.88,0,0,1-3.31.51c-.09-2.11-.08-4.22-.31-6.31-.2-1.79-.08-3.58-.26-5.35-.46-4.59-.55-10.2-.89-14.79,2.39-.88,6.77-.8,9.17-1.63,4.26-1.48,8.39-3.28,12.56-5,1.94-.8,3.9-.49,5.87-.15a52,52,0,0,1,7.62,2.44c.77.27,1.13.14,1.52-.56a22.36,22.36,0,0,1,8.75-8.3,56.73,56.73,0,0,1,10.5-4.46c4.07-1.35,8.12-2.8,12.21-4.1s7.77-2.84,11.67-4.23a40.16,40.16,0,0,0,4.42-2.06,18,18,0,0,1,5.35-1.62,28.27,28.27,0,0,1,9.88.15,37,37,0,0,1,14.06,6.32c3.57,2.5,6.44,5.69,9.4,8.8A12.42,12.42,0,0,1,257.47,157Z"/><path class="cls-4" d="M117.54,192.18c0,.07.93,1.07.95,1.14-.16,2.3-.44,4.59-.46,6.89,0,5.6-1.68,12.43-1.7,18-3-1.89-6.3-4.52-9.83-5.08a14.37,14.37,0,0,0-6,.05c-.48.12-.77.17-1-.47-3.06-10.63-10.75-15.91-21.08-18a29.63,29.63,0,0,0-15.82,1.28c-.59.21-.89.19-1.22-.43C56,185.45,47.22,179.88,36.25,177.29a66.06,66.06,0,0,0-6.87-1,11.67,11.67,0,0,1,5.13-.91,27.31,27.31,0,0,1,19.15,6.51,22,22,0,0,0,9,4.22,70.65,70.65,0,0,0,13.37,1.74A80.33,80.33,0,0,1,88.91,189c3.14.66,6.11,1.64,8,4.44.45.65.94.48,1.46.32a39.12,39.12,0,0,1,12.16-1.61C112.9,192.2,115.29,191.64,117.54,192.18Z"/><path class="cls-5" d="M120.34,140.79a1.93,1.93,0,0,0-2.31-.94q-5.86.85-11.79,1.36c-1.73.14-2.17-.18-2.18-1.84,0-2.25,0-4.51.13-6.76a5.72,5.72,0,0,1,1.91-4.08c1.91-1.81,3.74-3.69,5.64-5.5a2.22,2.22,0,0,0,.75-1.82A33.83,33.83,0,0,1,115,106.7a6.52,6.52,0,0,1,1.25-2.08,56.19,56.19,0,0,1,19.23.26c2.26,3.7,2.92,7.77,3.25,11.92a28,28,0,0,1,0,5,1.64,1.64,0,0,0,.67,1.41c2,2,3.9,4,5.89,5.89a5.43,5.43,0,0,1,1.73,3.71c.09,2.36.1,4.72.06,7.08,0,1.6-.47,1.94-2.16,1.74-4.08-.48-8.16-1-12.23-1.56-.93-.13-1.5,0-1.88.82A32,32,0,0,1,120.34,140.79Zm-7.59-17.31c-2.14,2.13-4.09,4.09-6.06,6a3.76,3.76,0,0,0-1.21,2.42c-.17,2.43-.28,4.86-.22,7.3,0,.57.22.86.91.8,4.09-.3,8.15-.88,12.38-1.41a18.8,18.8,0,0,1-2.24-3.57c-.12-.29-.39-.65-.17-.92s.66,0,1,0a57.56,57.56,0,0,0,16.37.31c.49-.06,1.14-.39,1.44,0s-.11,1-.36,1.39c-.46.79-1,1.54-1.51,2.32-.14.23-.48.39-.31.79,4,.56,8,1.13,12,1.54,1,.1,1.23-.28,1.22-1.07,0-2.26-.06-4.51-.12-6.76a3.12,3.12,0,0,0-.69-2c-2.1-2.26-4.28-4.46-6.4-6.65a.55.55,0,0,0-.39.53,50.07,50.07,0,0,1-2.81,8.3,1.55,1.55,0,0,1-1.43,1,59.59,59.59,0,0,1-17.18-.23,1.57,1.57,0,0,1-1.4-1.08A50.26,50.26,0,0,1,112.75,123.48Zm7.09-4.32a5.54,5.54,0,0,0,5.56,5.58,5.44,5.44,0,1,0-5.56-5.58Z"/><path class="cls-4" d="M133.46,195c0-.23,0-.47,0-.7a2.08,2.08,0,0,0,1.31-.51c2.68-1.74,7.72-2.19,10.79-2.36A35,35,0,0,1,157.54,193a1.29,1.29,0,0,0,1.56-.48,15.42,15.42,0,0,1,7-4.56c5.32-1.95,10.89-2.77,16.41-3.82,3.56-.67,7.18-1.1,10.73-1.84,4.33-.91,8.68-1.82,12.7-3.75a27.27,27.27,0,0,0,3.95-2.44,10.69,10.69,0,0,1,7.68-1.61c6.91.77,13,3.6,18.7,7.44.76.52,1.56,1,2.33,1.46.24.15.54.28.24.63a30.28,30.28,0,0,0-14.32-3.37c-12.7.42-21.89,6.38-27.52,17.77-.36.74-.6.87-1.38.57a21.76,21.76,0,0,0-29.34,15.32c-.17.71-.26,1-1.13.69-9.67-3.7-20.87-.73-29.57,4.89l-.42.23a2.52,2.52,0,0,1-.26-.65c-.26-4.34-.47-10.68-.75-15C134,201.29,133.71,198.15,133.46,195Z"/><path class="cls-6" d="M118.92,170.06c.13-2.68.33-5.36.49-8,.29-5,.42-9.92.77-14.87.12-1.67.13-3.33.2-5a5.4,5.4,0,0,1,1.24,1.73c-.9,2.17.54,4.28,1.35,6.37,0,0-3.13,49.22-3.13,49.22l-2.66-1S118.69,174.65,118.92,170.06Z"/><path class="cls-6" d="M134.59,199.89c0,.21-3.66,3.34-3.66,3.34-.11-5.4.24-18.33,0-23.73-.18-3.47-.38-6.95-.46-10.43-.12-4.93-.6-9.85-.57-14.79l-1.09-3a9,9,0,0,0,.63-3.12c.14-1.4.77-2.74.46-4.09a5.29,5.29,0,0,1,.91-1.34C131,145.53,134.5,198,134.59,199.89Z"/><path class="cls-5" d="M116.47,103.17a3.11,3.11,0,0,1,.68-1.93,40.45,40.45,0,0,1,8-9c.45-.39.87-.66,1.48-.12a40.35,40.35,0,0,1,8.34,9.71,2.37,2.37,0,0,1,.5,1.64A55.81,55.81,0,0,0,116.47,103.17Z"/><path class="cls-4" d="M129.15,199.41c.75-.37.93-1.11,1.35-1.66s.45-1.09,1.19-1.49c.11.74.51,7.39.55,8.07.11,2,.17,4,.26,6.07q.23,5.06.49,10.11a3.87,3.87,0,0,0,.27,1l-3.1,3c-.3-.28-.23-.63-.23-1C129.89,218.45,129.12,200,129.15,199.41Z"/><path class="cls-7" d="M116.47,103.17a55.81,55.81,0,0,1,19,.29l0,1.42a56.19,56.19,0,0,0-19.23-.26A2.78,2.78,0,0,1,116.47,103.17Z"/><path class="cls-7" d="M130.78,142.69a5.29,5.29,0,0,0-.91,1.34c-.39-.52-1.07-.48-1.61-.73h0c-.1,0-3.93.12-4.4-.13-.63-.34-1.4.07-2,.51a1.79,1.79,0,0,0-.25.22,5.4,5.4,0,0,0-1.24-1.73c-.15-.45-.74-.89,0-1.37a32,32,0,0,0,10.51.11C131.6,141.52,131.07,142.1,130.78,142.69Z"/><path class="cls-3" d="M130.16,224.51a27.36,27.36,0,0,0-4.34,6.34,24.86,24.86,0,0,0-1.9,7.3,16.11,16.11,0,0,1-2.39-4.08c.27-.58.58-36,1-39.76.58.14,5.84,4.79,6.69,5.33.37.38.69,18.81.73,23.91C129.93,223.88,129.86,224.23,130.16,224.51Z"/><path class="cls-6" d="M124,153.05c1.1,1,2.76,0,3.86-1,.11,0,.26.1.33.36a4.37,4.37,0,0,1,.09,1.05c0,1.19.12,2.38.11,3.57,0,5.55.21,11.1.33,16.64.09,3.74,0,7.47.18,11.2.26,5.9.42,11.59.59,17.49.06,2.24-2.58,16.65-3.09,16.65s-1.57-5.25-1.64-5.62c-.56-2.84-.23-16.34-1.91-18.76-.29-.4.1-3.07.21-9,.13-7.53.2-15.07.49-22.6.11-2.86.08-5.73.18-8.59A2.26,2.26,0,0,1,124,153.05Z"/><path class="cls-3" d="M119.84,199.48c0-1.15,2.54-48.66,2.54-48.66.64.89,1.11,1.51,1.67,2.37-.3.4-1.16,48.07-1.36,48.34-.68-.2-1.17-1-1.75-1.36Z"/><path class="cls-3" d="M119.84,199.48s0-.85,0-1.17"/><path class="cls-3" d="M118.83,221.31a39.38,39.38,0,0,0-2.5-3.06c0-4.75,1.06-24.12,1.21-26.07l2.6,1S119.07,221.1,118.83,221.31Z"/><path class="cls-3" d="M120.77,199.88c-.26-.14-1.26-.47-1.26-.47"/><path class="cls-3" d="M131.69,196.3c-.74.41-.84,1-1.19,1.49s-.33,1.48-1.07,1.85c-.34-2.06-1.35-45.89-1.38-47,0,0,1.14-1.74,1.73-2.4Z"/><path class="cls-3" d="M134.21,194.17c.23,2.66.88,11,1.07,13.7.27,3.67.49,7.35.74,11a1.59,1.59,0,0,0,.25.55l-3,2.05a3.87,3.87,0,0,1-.27-1q-.27-5.06-.49-10.11c-.09-2-.79-13.56-.81-14.1C131.67,196,133.5,194.8,134.21,194.17Z"/><path class="cls-4" d="M120.14,193.16a23.38,23.38,0,0,1,2.83,1.63s-.94,38.7-1.21,39.28a15,15,0,0,1-1.51-6.22,41.22,41.22,0,0,0-1.42-6.54C118.77,221.17,120.14,193.16,120.14,193.16Z"/><path class="cls-7" d="M112.75,123.48a50.26,50.26,0,0,0,2.78,9,1.57,1.57,0,0,0,1.4,1.08,59.59,59.59,0,0,0,17.18.23,1.55,1.55,0,0,0,1.43-1,50.07,50.07,0,0,0,2.81-8.3.55.55,0,0,1,.39-.53c2.12,2.19,4.3,4.39,6.4,6.65a3.12,3.12,0,0,1,.69,2c.06,2.25.07,4.5.12,6.76,0,.79-.24,1.17-1.22,1.07-4-.41-8-1-12-1.54-.17-.4.17-.56.31-.79.5-.78,1.05-1.53,1.51-2.32.25-.43.72-1,.36-1.39s-1,0-1.44,0a57.56,57.56,0,0,1-16.37-.31c-.32,0-.73-.33-1,0s0,.63.17.92a18.8,18.8,0,0,0,2.24,3.57c-4.23.53-8.29,1.11-12.38,1.41-.69.06-.89-.23-.91-.8-.06-2.44,0-4.87.22-7.3a3.76,3.76,0,0,1,1.21-2.42C108.66,127.57,110.61,125.61,112.75,123.48Z"/><path class="cls-7" d="M119.84,119.16a5.74,5.74,0,1,1,5.56,5.58A5.54,5.54,0,0,1,119.84,119.16Zm1.5.14a4.1,4.1,0,0,0,4.13,4,4.05,4.05,0,1,0,.12-8.09A4.17,4.17,0,0,0,121.34,119.3Z"/><path class="cls-1" d="M129.42,150.88c-.54.74-1.15,1.39-1.67,2.19a35.35,35.35,0,0,0-1.92,3.9,9.33,9.33,0,0,0-1.94-3.92c-.66-.85-1.89-2.72-1.92-2.79a7.86,7.86,0,0,1-.35-6.37,1.79,1.79,0,0,1,.25-.22c.18-.14.65-.5.69-.43s-.43,1-.5,1.47a6.62,6.62,0,0,0,1.07,4.79c1,1.45,2.28,2.71,2.72,4.48a12.13,12.13,0,0,1,2.31-3.93c1.6-1.56,1.65-3.43,1.19-5.39-.06-.23-.38-.95-.29-1.11s.62.22.81.48a12.62,12.62,0,0,1,.54,4.09A5.4,5.4,0,0,1,129.42,150.88Z"/><path class="cls-4" d="M123.15,142.91c.64,0,5,0,5.34.13,1,3-1.7,6.7-2.69,9.28-.35-1.31-2-3.14-2.67-4C122.16,147,122.59,144.55,123.15,142.91Z"/><path class="cls-5" d="M124.45,142.85c.3,0,2.38,0,2.53.06.47,1.41-.8,3.18-1.27,4.4a7.71,7.71,0,0,0-1.27-1.89A3.19,3.19,0,0,1,124.45,142.85Z"/><path class="cls-6" d="M128,143.16h0Z"/><path class="cls-6" d="M128.26,143.3h0Z"/><path class="cls-6" d="M121.34,119.3a4.17,4.17,0,0,1,4.25-4,4.05,4.05,0,1,1-.12,8.09A4.1,4.1,0,0,1,121.34,119.3Z"/><path class="cls-6" d="M123.15,143a6.75,6.75,0,0,0,1,5.41,8.54,8.54,0,0,1,1.67,3c1-2.58,3.67-5.32,2.69-8.28.58-.19.75,1.13.86,1.58.46,2,.41,3.83-1.19,5.39a12.13,12.13,0,0,0-2.31,3.93c-.44-1.77-1.74-3-2.72-4.48a6.62,6.62,0,0,1-1.07-4.79C122.15,144.08,122.46,142.79,123.15,143Z"/></g></g></svg>