<svg xmlns="http://www.w3.org/2000/svg" viewBox="0 0 811.71 154.07"><defs><style>.cls-1{isolation:isolate;}.cls-2{fill:gray;}.cls-3{fill:#838383;}.cls-4{fill:#e4e4e4;}</style></defs><title>footerLogo</title><g id="Layer_2" data-name="Layer 2"><g id="Layer_1-2" data-name="Layer 1"><g class="cls-1"><polygon class="cls-2" points="80.87 135.1 79.13 132.92 79.27 37.58 81.01 39.76 80.87 135.1"/><polygon class="cls-2" points="76.95 135.1 75.2 132.92 23.74 63.74 25.49 65.92 76.95 135.1"/><polygon class="cls-3" points="59.72 21.15 57.97 18.97 100.62 19.01 102.37 21.19 59.72 21.15"/><polygon class="cls-4" points="59.72 21.15 102.37 21.19 102.19 135.1 80.87 135.1 81.01 39.76 59.69 39.76 59.72 21.15"/><polygon class="cls-2" points="59.69 39.76 57.94 37.58 57.97 18.97 59.72 21.15 59.69 39.76"/><polygon class="cls-3" points="1.92 21.15 0.17 18.97 19.97 18.97 21.71 21.15 1.92 21.15"/><polygon class="cls-2" points="1.74 135.1 0 132.92 0.17 18.97 1.92 21.15 1.74 135.1"/><polygon class="cls-4" points="21.71 21.15 77.01 95.71 76.95 135.1 25.49 65.92 25.38 135.1 1.74 135.1 1.92 21.15 21.71 21.15"/></g><g class="cls-1"><polygon class="cls-2" points="259.94 122.92 258.2 120.74 250.57 100.01 252.32 102.19 259.94 122.92"/><polygon class="cls-3" points="218.88 89.14 217.13 86.96 245.89 86.96 247.63 89.14 218.88 89.14"/><polygon class="cls-2" points="247.63 89.14 245.89 86.96 231.51 47.79 233.26 49.97 247.63 89.14"/><polygon class="cls-3" points="226.39 33.34 224.65 31.16 238.65 31.16 240.4 33.34 226.39 33.34"/><polygon class="cls-2" points="191.81 122.92 190.07 120.74 224.65 31.16 226.39 33.34 191.81 122.92"/><path class="cls-4" d="M240.4,33.34l34.41,89.58H259.94l-7.62-20.73H214.05l-7.58,20.73H191.81l34.58-89.58Zm-21.52,55.8h28.75L233.26,50,218.88,89.14"/></g><g class="cls-1"><polygon class="cls-3" points="298.77 108.85 297.03 106.67 337.06 106.67 338.8 108.85 298.77 108.85"/><polygon class="cls-2" points="284.54 122.92 282.8 120.74 282.93 31.16 284.68 33.34 284.54 122.92"/><polygon class="cls-3" points="284.68 33.34 282.93 31.16 297.14 31.16 298.89 33.34 284.68 33.34"/><polygon class="cls-4" points="298.89 33.34 298.77 108.85 338.8 108.85 338.78 122.92 284.54 122.92 284.68 33.34 298.89 33.34"/></g><g class="cls-1"><polygon class="cls-2" points="145.3 154.07 143.56 151.89 143.78 6 145.52 8.18 145.3 154.07"/><polygon class="cls-2" points="145.52 8.18 143.78 6 150.19 0 151.93 2.18 145.52 8.18"/><polygon class="cls-4" points="151.93 2.18 151.63 148.08 145.3 154.07 145.52 8.18 151.93 2.18"/></g><g class="cls-1"><polygon class="cls-3" points="364.28 108.97 362.54 106.79 405.73 106.79 407.47 108.97 364.28 108.97"/><polygon class="cls-3" points="364.34 70.58 362.59 68.4 399.55 68.4 401.3 70.58 364.34 70.58"/><polygon class="cls-2" points="350.04 122.92 348.29 120.74 348.43 31.16 350.17 33.34 350.04 122.92"/><polygon class="cls-3" points="350.17 33.34 348.43 31.16 404.31 31.16 406.06 33.34 350.17 33.34"/><polygon class="cls-4" points="406.06 33.34 406.04 47.29 364.37 47.29 364.34 70.58 401.3 70.58 401.27 84.27 364.32 84.27 364.28 108.97 407.47 108.97 407.45 122.92 350.04 122.92 350.17 33.34 406.06 33.34"/></g><g class="cls-1"><polygon class="cls-2" points="477.25 94 475.51 91.82 475.6 31.16 477.35 33.34 477.25 94"/><polygon class="cls-3" points="477.35 33.34 475.6 31.16 489.72 31.16 491.46 33.34 477.35 33.34"/><polygon class="cls-2" points="479.62 122.92 477.88 120.74 435.76 60.08 437.5 62.26 479.62 122.92"/><polygon class="cls-3" points="423.44 33.34 421.7 31.16 433.39 31.16 435.14 33.34 423.44 33.34"/><polygon class="cls-2" points="423.31 122.92 421.56 120.74 421.7 31.16 423.44 33.34 423.31 122.92"/><polygon class="cls-4" points="491.46 33.34 491.32 122.92 479.62 122.92 437.5 62.26 437.41 122.92 423.31 122.92 423.44 33.34 435.14 33.34 477.25 94 477.35 33.34 491.46 33.34"/></g><g class="cls-1"><polygon class="cls-2" points="527.4 122.92 525.66 120.74 525.77 45.24 527.51 47.42 527.4 122.92"/><polygon class="cls-2" points="502.15 47.42 500.41 45.24 500.43 31.16 502.17 33.34 502.15 47.42"/><polygon class="cls-3" points="502.17 33.34 500.43 31.16 565.38 31.16 567.12 33.34 502.17 33.34"/><polygon class="cls-4" points="567.12 33.34 567.1 47.42 541.74 47.42 541.62 122.92 527.4 122.92 527.51 47.42 502.15 47.42 502.17 33.34 567.12 33.34"/></g><g class="cls-1"><polygon class="cls-2" points="631.5 122.92 629.76 120.74 629.82 82.34 631.56 84.53 631.5 122.92"/><polygon class="cls-3" points="592 70.32 590.25 68.14 629.84 68.14 631.58 70.32 592 70.32"/><polygon class="cls-2" points="631.58 70.32 629.84 68.14 629.9 31.16 631.64 33.34 631.58 70.32"/><polygon class="cls-3" points="631.64 33.34 629.9 31.16 644.12 31.16 645.86 33.34 631.64 33.34"/><polygon class="cls-3" points="577.83 33.34 576.09 31.16 590.31 31.16 592.05 33.34 577.83 33.34"/><polygon class="cls-2" points="577.7 122.92 575.95 120.74 576.09 31.16 577.83 33.34 577.7 122.92"/><polygon class="cls-4" points="645.86 33.34 645.72 122.92 631.5 122.92 631.56 84.53 591.98 84.53 591.92 122.92 577.7 122.92 577.83 33.34 592.05 33.34 592 70.32 631.58 70.32 631.64 33.34 645.86 33.34"/></g><g class="cls-1"><polygon class="cls-3" points="680.51 108.97 678.76 106.79 721.97 106.79 723.71 108.97 680.51 108.97"/><polygon class="cls-3" points="680.57 70.58 678.82 68.4 715.79 68.4 717.53 70.58 680.57 70.58"/><polygon class="cls-2" points="666.28 122.92 664.53 120.74 664.67 31.16 666.41 33.34 666.28 122.92"/><polygon class="cls-3" points="666.41 33.34 664.67 31.16 720.54 31.16 722.29 33.34 666.41 33.34"/><polygon class="cls-4" points="722.29 33.34 722.26 47.29 680.6 47.29 680.57 70.58 717.53 70.58 717.51 84.27 680.55 84.27 680.51 108.97 723.71 108.97 723.69 122.92 666.28 122.92 666.41 33.34 722.29 33.34"/></g><g class="cls-1"><polygon class="cls-2" points="796.84 122.92 795.1 120.74 787.47 100.01 789.22 102.19 796.84 122.92"/><polygon class="cls-3" points="755.77 89.14 754.02 86.96 782.79 86.96 784.53 89.14 755.77 89.14"/><polygon class="cls-2" points="784.53 89.14 782.79 86.96 768.41 47.79 770.16 49.97 784.53 89.14"/><polygon class="cls-3" points="763.29 33.34 761.55 31.16 775.54 31.16 777.29 33.34 763.29 33.34"/><polygon class="cls-2" points="728.71 122.92 726.96 120.74 761.55 31.16 763.29 33.34 728.71 122.92"/><path class="cls-4" d="M777.29,33.34l34.42,89.58H796.84l-7.62-20.73H750.94l-7.58,20.73H728.71l34.58-89.58Zm-21.52,55.8h28.76L770.16,50,755.77,89.14"/></g></g></g></svg>