<svg xmlns="http://www.w3.org/2000/svg" viewBox="0 0 492.09 246.2"><defs><style>.cls-1{fill:#f1f1f1;}.cls-2,.cls-4,.cls-9{fill:#d05150;}.cls-2,.cls-4{stroke:#d05150;stroke-miterlimit:10;}.cls-2{stroke-width:2px;}.cls-3{fill:#df5a63;}.cls-5{fill:#b23e2e;}.cls-6{fill:#fafafa;}.cls-7{fill:#d97273;}.cls-8{fill:#1b4b5d;}</style></defs><title>fulfilment_2</title><g id="Layer_2" data-name="Layer 2"><g id="Layer_1-2" data-name="Layer 1"><rect class="cls-1" x="0.38" width="491.72" height="246.19"/><path class="cls-2" d="M257.85,157a50,50,0,0,0-8.3,6.83,36.78,36.78,0,0,0-9.74,19.55c-.05.26.21,1-.56.61.29-.35,0-.48-.24-.63-.78-.49-1.57-.94-2.33-1.46-5.69-3.84-11.79-6.67-18.7-7.44a10.68,10.68,0,0,0-7.68,1.61,27.27,27.27,0,0,1-4,2.44c-4,1.93-8.38,2.84-12.7,3.75-3.55.74-7.17,1.17-10.73,1.84-5.53,1.05-11.1,1.87-16.41,3.82a15.31,15.31,0,0,0-7,4.56,1.29,1.29,0,0,1-1.56.48A35,35,0,0,0,146,191.44c-3.07.17-6.11.62-8.79,2.36a11.93,11.93,0,0,1-3.31.51c-.09-2.11-.08-4.22-.31-6.31-.2-1.79-.09-3.58-.26-5.35-.47-4.59-.56-10.2-.89-14.79,2.39-.88,6.77-.8,9.17-1.63,4.26-1.48,8.39-3.28,12.55-5,2-.8,3.91-.49,5.88-.15a51.87,51.87,0,0,1,7.61,2.44c.78.27,1.14.14,1.53-.56a22.3,22.3,0,0,1,8.75-8.3,56.73,56.73,0,0,1,10.5-4.46c4.07-1.35,8.12-2.8,12.2-4.1s7.78-2.84,11.68-4.23a40.16,40.16,0,0,0,4.42-2.06,17.88,17.88,0,0,1,5.35-1.62,28.21,28.21,0,0,1,9.87.15A37,37,0,0,1,246,144.68c3.58,2.5,6.45,5.69,9.41,8.8A12.42,12.42,0,0,1,257.85,157Z"/><path class="cls-3" d="M.6,160.07q0-79.48,0-159C.57.2.78,0,1.68,0Q246.33,0,491,0c.9,0,1.1.2,1.1,1.1q0,106.49,0,213c-.3-.12-.35-.42-.46-.66a20.21,20.21,0,0,0-7.34-8.68c-7.5-5-15.63-5.93-24.18-3.33-1.07.33-1.59.3-2.12-.8a24,24,0,0,0-5-6.68A35,35,0,0,0,429.67,184c-11.94-.6-22.3,3-30.29,12.26-.55.63-.92.57-1.6.24a42.94,42.94,0,0,0-34.67-1.73c-.94.34-1.18.21-1.4-.74a25.94,25.94,0,0,0-10.43-15.6c-9.29-6.68-19.45-7.81-30.19-4.12-.92.32-1.3.18-1.71-.69a33.67,33.67,0,0,0-7.3-10.32c-11.86-11.32-25.91-14.68-41.75-11.23A45.75,45.75,0,0,0,258,157.1a12.63,12.63,0,0,0-2.45-3.52c-3-3.11-5.83-6.31-9.41-8.8A36.86,36.86,0,0,0,232,138.46a28.51,28.51,0,0,0-9.88-.16,17.64,17.64,0,0,0-5.34,1.63,40.16,40.16,0,0,1-4.42,2.06c-3.9,1.39-7.72,3-11.68,4.23s-8.13,2.75-12.2,4.1a56.73,56.73,0,0,0-10.5,4.46,22.32,22.32,0,0,0-8.76,8.3c-.38.7-.74.83-1.52.56a50.69,50.69,0,0,0-7.61-2.44c-2-.34-3.93-.65-5.88.15-4.17,1.7-8.29,3.49-12.55,5-2.4.84-6.78,1.76-9.17,2.64-.2-4.53-.62-9.05-.81-13.58-.07-1.71,0-3.44-.21-5.13-.6-4.18-9.87-6.18-10.17-.73-.17,2.95-.37,5.89-.51,8.84-.24,5-.61,10.1-.92,15.15-2.42-.43-5.82-1-8.27-1.32a48.91,48.91,0,0,0-9.52-.34,20,20,0,0,0-6.45,1.5c-3,1.25-5.87,2.78-8.8,4.19-1.49.72-1.66.67-2.54-.75A15,15,0,0,0,80.91,173a54.89,54.89,0,0,0-11.27-6.91q-4.67-2.15-9.48-3.94Q56.08,160.59,52,159c-1.85-.72-3.67-1.52-5.52-2.25A65.31,65.31,0,0,1,38.63,153c-2.42-1.36-4.67-3.05-7.09-4.41a26.51,26.51,0,0,0-9.43-3.17,10,10,0,0,0-2.61-.21c-2.92.39-5.77.79-8.35,2.52a27.65,27.65,0,0,0-8,8.13C2.3,157.25,1.61,158.76.6,160.07Z"/><path class="cls-1" d="M257.75,157.3a45.75,45.75,0,0,1,12.38-5.07c15.84-3.46,29.89-.09,41.75,11.22a33.79,33.79,0,0,1,7.3,10.32c.41.88.79,1,1.71.7,10.75-3.7,20.9-2.56,30.19,4.12a25.91,25.91,0,0,1,10.43,15.6c.22.94.46,1.08,1.4.74a43,43,0,0,1,34.68,1.73c.67.32,1.05.39,1.59-.24,8-9.26,18.36-12.87,30.3-12.26a35,35,0,0,1,23.29,10,23.9,23.9,0,0,1,5,6.68c.52,1.09,1,1.12,2.11.8,8.56-2.6,16.68-1.7,24.19,3.32a20.37,20.37,0,0,1,7.33,8.68c.11.25.16.55.47.66,0,10.28,0,20.55,0,30.83,0,.88-.18,1.11-1.1,1.11q-121,0-242.09,0-123.55,0-247.12,0c-1,0-1.21-.26-1.21-1.25q0-29.5,0-59c.32,0,.5-.2.72-.37a39.16,39.16,0,0,1,13.32-7.08,46.63,46.63,0,0,1,15.22-1.89,66,66,0,0,1,6.87,1c11,2.59,19.78,8.16,25.23,18.34.33.61.63.63,1.22.42a29.73,29.73,0,0,1,15.82-1.27c10.33,2.06,18,7.34,21.08,18,.18.63.47.59,1,.46a14.55,14.55,0,0,1,6,0,25.92,25.92,0,0,1,9.74,3.82l2.88,3,.2.48.08.18c1.12,2.34,1.15,4.87,1.32,7.38a19.64,19.64,0,0,0,1.54,7.33c.49,1.64,1.36-4.93,2.46-3.18a32.72,32.72,0,0,1,2-8.61c1-2.71,9.48-4.66,10.51-5.46l.42-.23q13.05-8.43,27.57-2.88c.87.33,1,0,1.13-.69a21.77,21.77,0,0,1,29.34-15.33c.78.3,1,.18,1.38-.56,5.63-11.4,14.82-17.36,27.52-17.78a30.28,30.28,0,0,1,14.32,3.37c.78.35.52-.35.56-.61a36.75,36.75,0,0,1,9.74-19.54A49.77,49.77,0,0,1,257.75,157.3Z"/><path class="cls-4" d="M29.76,176.3a46.7,46.7,0,0,0-15.23,1.9,39.5,39.5,0,0,0-13.32,7.07c-.21.18-.39.41-.71.38V160c1-1.31,1.7-2.82,2.59-4.21a27.65,27.65,0,0,1,8-8.13c2.58-1.73,5.43-2.13,8.35-2.52a10.09,10.09,0,0,1,2.62.21,26.53,26.53,0,0,1,9.42,3.17c2.43,1.37,4.67,3,7.1,4.41a64.46,64.46,0,0,0,7.86,3.77c1.85.74,3.67,1.53,5.53,2.25,2.7,1.05,5.42,2.08,8.13,3.1q4.81,1.8,9.48,3.94a55.23,55.23,0,0,1,11.28,6.91,15,15,0,0,1,3.4,3.83c.89,1.41,1,1.47,2.55.74,2.92-1.41,5.8-2.93,8.79-4.19a20,20,0,0,1,6.45-1.5,48.91,48.91,0,0,1,9.52.34c2.45.32,5.85.89,8.27,1.33,0,1.47-.1,2.94-.19,4.41-.33,5.09-.54,10.19-.8,15.28a42.32,42.32,0,0,0-7.85-1,39.12,39.12,0,0,0-12.16,1.61c-.52.16-1,.33-1.46-.32-1.94-2.8-4.91-3.78-8-4.44a80.45,80.45,0,0,0-12.86-1.14,70.86,70.86,0,0,1-13.37-1.74,22,22,0,0,1-9-4.22,27.29,27.29,0,0,0-19.14-6.51A11.67,11.67,0,0,0,29.76,176.3Z"/><path class="cls-5" d="M117.92,192.18c0,.07.93,1.07.94,1.14-.16,2.3-.43,4.59-.45,6.89,0,5.6-1.69,12.43-1.7,18-3-1.89-6.31-4.52-9.83-5.08a14.37,14.37,0,0,0-5.95.05c-.48.12-.77.17-1-.47-3.06-10.63-10.75-15.91-21.08-18a29.63,29.63,0,0,0-15.82,1.28c-.59.21-.89.19-1.22-.43-5.45-10.17-14.26-15.74-25.23-18.33a66.45,66.45,0,0,0-6.87-1,11.67,11.67,0,0,1,5.13-.91A27.29,27.29,0,0,1,54,181.9a22,22,0,0,0,9,4.22,70.86,70.86,0,0,0,13.37,1.74A80.45,80.45,0,0,1,89.29,189c3.14.66,6.11,1.64,8,4.44.45.65.94.48,1.46.32A39.12,39.12,0,0,1,111,192.15C113.27,192.2,115.66,191.64,117.92,192.18Z"/><path class="cls-6" d="M120.71,140.79a1.92,1.92,0,0,0-2.3-.94c-3.91.57-7.85,1-11.79,1.36-1.73.14-2.18-.18-2.18-1.84,0-2.25,0-4.51.12-6.76a5.77,5.77,0,0,1,1.92-4.08c1.91-1.81,3.73-3.69,5.64-5.5a2.22,2.22,0,0,0,.75-1.82,33.82,33.82,0,0,1,2.51-14.51,6.74,6.74,0,0,1,1.26-2.08,56.2,56.2,0,0,1,19.23.26c2.26,3.7,2.92,7.77,3.25,11.92a28,28,0,0,1,0,5,1.61,1.61,0,0,0,.67,1.41c2,2,3.9,4,5.88,5.89a5.39,5.39,0,0,1,1.73,3.71c.1,2.36.11,4.72.07,7.08,0,1.6-.47,1.94-2.16,1.74-4.08-.48-8.16-1-12.23-1.56-.93-.13-1.51,0-1.89.82A32,32,0,0,1,120.71,140.79Zm-7.58-17.31c-2.14,2.13-4.09,4.09-6.07,6a3.8,3.8,0,0,0-1.2,2.42c-.17,2.43-.29,4.86-.22,7.3,0,.57.22.86.91.8,4.09-.3,8.15-.88,12.38-1.41a17.85,17.85,0,0,1-2.24-3.57c-.13-.29-.39-.65-.17-.92s.66,0,1,0a57.56,57.56,0,0,0,16.37.31c.49-.06,1.13-.39,1.44,0s-.11,1-.36,1.39c-.46.79-1,1.54-1.51,2.32-.14.23-.48.39-.31.79,4,.56,8,1.13,12,1.54,1,.1,1.23-.28,1.21-1.07,0-2.26-.06-4.51-.12-6.76a3.11,3.11,0,0,0-.68-2c-2.11-2.26-4.29-4.46-6.4-6.65a.53.53,0,0,0-.39.53,51,51,0,0,1-2.81,8.3,1.55,1.55,0,0,1-1.43,1,59.65,59.65,0,0,1-17.19-.23,1.56,1.56,0,0,1-1.39-1.08A48.69,48.69,0,0,1,113.13,123.48Zm7.09-4.32a5.54,5.54,0,0,0,5.55,5.58,5.44,5.44,0,1,0-5.55-5.58Z"/><path class="cls-5" d="M133.84,195c0-.23,0-.47,0-.7a2.1,2.1,0,0,0,1.31-.51c2.68-1.74,7.72-2.19,10.79-2.36A35,35,0,0,1,157.92,193a1.29,1.29,0,0,0,1.56-.48,15.31,15.31,0,0,1,7-4.56c5.31-1.95,10.88-2.77,16.41-3.82,3.56-.67,7.18-1.1,10.73-1.84,4.32-.91,8.68-1.82,12.7-3.75a27.27,27.27,0,0,0,4-2.44,10.68,10.68,0,0,1,7.68-1.61c6.91.77,13,3.6,18.7,7.44.76.52,1.55,1,2.33,1.46.24.15.53.28.24.63a30.28,30.28,0,0,0-14.32-3.37c-12.7.42-21.89,6.38-27.52,17.77-.36.74-.6.87-1.38.57a21.76,21.76,0,0,0-29.34,15.32c-.17.71-.26,1-1.13.69-9.67-3.7-20.87-.73-29.58,4.89l-.41.23a2.21,2.21,0,0,1-.26-.65c-.26-4.34-.48-10.68-.75-15C134.36,201.29,134.08,198.15,133.84,195Z"/><path class="cls-7" d="M119.3,170.06c.13-2.68.33-5.36.49-8,.29-5,.42-9.92.77-14.87.12-1.67.12-3.33.19-5a5.11,5.11,0,0,1,1.24,1.73c-.89,2.17.54,4.28,1.36,6.37,0,0-3.14,49.22-3.14,49.22l-2.66-1S119.07,174.65,119.3,170.06Z"/><path class="cls-7" d="M135,199.89c0,.21-3.67,3.34-3.67,3.34-.1-5.4.25-18.33,0-23.73-.17-3.47-.37-6.95-.45-10.43-.13-4.93-.6-9.85-.57-14.79l-1.09-3a9,9,0,0,0,.63-3.12c.13-1.4.76-2.74.46-4.09a4.82,4.82,0,0,1,.91-1.34C131.39,145.53,134.88,198,135,199.89Z"/><path class="cls-6" d="M116.85,103.17a3.11,3.11,0,0,1,.68-1.93,40,40,0,0,1,8-9c.45-.39.87-.66,1.48-.12a40.57,40.57,0,0,1,8.34,9.71,2.32,2.32,0,0,1,.49,1.64A55.74,55.74,0,0,0,116.85,103.17Z"/><path class="cls-5" d="M129.53,199.41c.75-.37.93-1.11,1.34-1.66s.46-1.09,1.19-1.49c.12.74.52,7.39.56,8.07.11,2,.16,4,.26,6.07q.23,5.06.48,10.11a4.92,4.92,0,0,0,.27,1l-3.09,3c-.3-.28-.23-.63-.23-1C130.27,218.45,129.5,200,129.53,199.41Z"/><path class="cls-8" d="M116.85,103.17a55.74,55.74,0,0,1,19,.29c0,.47,0,1,0,1.42a56.2,56.2,0,0,0-19.23-.26A2.69,2.69,0,0,1,116.85,103.17Z"/><path class="cls-8" d="M131.16,142.69a4.82,4.82,0,0,0-.91,1.34c-.39-.52-1.07-.48-1.61-.73h0c-.1,0-3.94.12-4.4-.13-.63-.34-1.4.07-2,.51-.09.06-.16.15-.25.22a5.11,5.11,0,0,0-1.24-1.73c-.14-.45-.73-.89,0-1.37a32,32,0,0,0,10.51.11C132,141.52,131.44,142.1,131.16,142.69Z"/><path class="cls-9" d="M130.54,224.51a27.36,27.36,0,0,0-4.34,6.34,24.86,24.86,0,0,0-1.9,7.3,15.81,15.81,0,0,1-2.39-4.08c.27-.58.57-36,1-39.76.58.14,5.84,4.79,6.69,5.33.37.38.69,18.81.73,23.91C130.31,223.88,130.24,224.23,130.54,224.51Z"/><path class="cls-7" d="M124.36,153.05c1.11,1,2.77,0,3.86-1,.12,0,.27.1.34.36a5.73,5.73,0,0,1,.09,1.05c0,1.19.12,2.38.11,3.57,0,5.55.21,11.1.33,16.64.08,3.74,0,7.47.17,11.2.27,5.9.43,11.59.6,17.49.06,2.24-2.58,16.65-3.09,16.65s-1.57-5.25-1.64-5.62c-.56-2.84-.23-16.34-1.92-18.76-.28-.4.11-3.07.21-9,.14-7.53.21-15.07.5-22.6.11-2.86.08-5.73.17-8.59A2.42,2.42,0,0,1,124.36,153.05Z"/><path class="cls-9" d="M120.21,199.48c0-1.15,2.55-48.66,2.55-48.66.64.89,1.11,1.51,1.66,2.37-.29.4-1.15,48.07-1.36,48.34-.68-.2-1.16-1-1.74-1.36Z"/><path class="cls-9" d="M120.21,199.48s.06-.85.06-1.17"/><path class="cls-9" d="M119.21,221.31a39.38,39.38,0,0,0-2.5-3.06c0-4.75,1.05-24.12,1.21-26.07l2.6,1S119.45,221.1,119.21,221.31Z"/><path class="cls-9" d="M121.15,199.88c-.26-.14-1.26-.47-1.26-.47"/><path class="cls-9" d="M132.06,196.3c-.73.41-.83,1-1.19,1.49s-.32,1.48-1.07,1.85c-.34-2.06-1.34-45.89-1.37-47,0,0,1.14-1.74,1.73-2.4Z"/><path class="cls-9" d="M134.58,194.17c.24,2.66.89,11,1.08,13.7.27,3.67.48,7.35.73,11a2.08,2.08,0,0,0,.25.55l-3,2.05a4.92,4.92,0,0,1-.27-1q-.26-5.06-.48-10.11c-.1-2-.79-13.56-.82-14.1C132.05,196,133.87,194.8,134.58,194.17Z"/><path class="cls-5" d="M120.52,193.16a23.38,23.38,0,0,1,2.83,1.63s-.94,38.7-1.22,39.28a14.93,14.93,0,0,1-1.5-6.22,41.22,41.22,0,0,0-1.42-6.54C119.14,221.17,120.52,193.16,120.52,193.16Z"/><path class="cls-8" d="M113.13,123.48a48.69,48.69,0,0,0,2.78,9,1.56,1.56,0,0,0,1.39,1.08,59.65,59.65,0,0,0,17.19.23,1.55,1.55,0,0,0,1.43-1,51,51,0,0,0,2.81-8.3.53.53,0,0,1,.39-.53c2.11,2.19,4.29,4.39,6.4,6.65a3.11,3.11,0,0,1,.68,2c.06,2.25.08,4.5.12,6.76,0,.79-.23,1.17-1.21,1.07-4-.41-8-1-12-1.54-.17-.4.17-.56.31-.79.49-.78,1.05-1.53,1.51-2.32.25-.43.72-1,.36-1.39s-.95,0-1.44,0a57.56,57.56,0,0,1-16.37-.31c-.32,0-.73-.33-1,0s0,.63.17.92a17.85,17.85,0,0,0,2.24,3.57c-4.23.53-8.29,1.11-12.38,1.41-.69.06-.89-.23-.91-.8-.07-2.44,0-4.87.22-7.3a3.8,3.8,0,0,1,1.2-2.42C109,127.57,111,125.61,113.13,123.48Z"/><path class="cls-8" d="M120.22,119.16a5.74,5.74,0,1,1,5.55,5.58A5.54,5.54,0,0,1,120.22,119.16Zm1.49.14a4.11,4.11,0,0,0,4.13,4,4.05,4.05,0,1,0,.13-8.09A4.18,4.18,0,0,0,121.71,119.3Z"/><path class="cls-1" d="M129.8,150.88c-.54.74-1.16,1.39-1.67,2.19a35.35,35.35,0,0,0-1.92,3.9,9.45,9.45,0,0,0-1.94-3.92c-.66-.85-1.89-2.72-1.92-2.79a7.86,7.86,0,0,1-.36-6.37c.09-.07.16-.16.25-.22s.66-.5.7-.43-.44,1-.5,1.47a6.58,6.58,0,0,0,1.07,4.79c1,1.45,2.28,2.71,2.72,4.48a12.13,12.13,0,0,1,2.31-3.93c1.59-1.56,1.65-3.43,1.18-5.39-.05-.23-.38-.95-.28-1.11s.61.22.81.48a13.19,13.19,0,0,1,.54,4.09A5.49,5.49,0,0,1,129.8,150.88Z"/><path class="cls-5" d="M123.53,142.91c.63,0,5,0,5.33.13,1,3-1.7,6.7-2.68,9.28-.35-1.31-2-3.14-2.67-4C122.53,147,123,144.55,123.53,142.91Z"/><path class="cls-6" d="M124.83,142.85c.3,0,2.38,0,2.53.06.46,1.41-.81,3.18-1.27,4.4a7.71,7.71,0,0,0-1.27-1.89A3.19,3.19,0,0,1,124.83,142.85Z"/><path class="cls-7" d="M128.34,143.16h0Z"/><path class="cls-7" d="M128.64,143.3h0Z"/><path class="cls-7" d="M121.71,119.3a4.18,4.18,0,0,1,4.26-4,4.05,4.05,0,1,1-.13,8.09A4.11,4.11,0,0,1,121.71,119.3Z"/><path class="cls-7" d="M123.53,143a6.71,6.71,0,0,0,1,5.41,8.54,8.54,0,0,1,1.67,3c1-2.58,3.66-5.32,2.68-8.28.58-.19.76,1.13.86,1.58.47,2,.41,3.83-1.18,5.39a12.13,12.13,0,0,0-2.31,3.93c-.44-1.77-1.74-3-2.72-4.48a6.58,6.58,0,0,1-1.07-4.79C122.53,144.08,122.84,142.79,123.53,143Z"/></g></g></svg>