<?xml version="1.0" encoding="UTF-8" standalone="no"?>
<!DOCTYPE svg PUBLIC "-//W3C//DTD SVG 1.1//EN" "http://www.w3.org/Graphics/SVG/1.1/DTD/svg11.dtd">
<svg width="100%" height="100%" viewBox="0 0 493 247" version="1.1" xmlns="http://www.w3.org/2000/svg" xmlns:xlink="http://www.w3.org/1999/xlink" xml:space="preserve" xmlns:serif="http://www.serif.com/" style="fill-rule:evenodd;clip-rule:evenodd;stroke-linejoin:round;stroke-miterlimit:2;">
    <g transform="matrix(1.00425,0,0,1,-2.091,0)">
        <g id="Layer_2">
            <g id="Layer_1-2">
                <rect x="0.38" y="0" width="491.72" height="246.19" style="fill:rgb(241,241,241);"/>
                <path d="M257.85,157C254.846,158.972 252.063,161.262 249.55,163.83C244.399,169.209 241.002,176.028 239.81,183.38C239.76,183.64 240.02,184.38 239.25,183.99C239.54,183.64 239.25,183.51 239.01,183.36C238.23,182.87 237.44,182.42 236.68,181.9C230.99,178.06 224.89,175.23 217.98,174.46C215.309,174.003 212.562,174.579 210.3,176.07C209.039,176.997 207.701,177.813 206.3,178.51C202.3,180.44 197.92,181.35 193.6,182.26C190.05,183 186.43,183.43 182.87,184.1C177.34,185.15 171.77,185.97 166.46,187.92C163.749,188.762 161.325,190.341 159.46,192.48C159.121,192.989 158.466,193.19 157.9,192.96C154.05,191.772 150.025,191.258 146,191.44C142.93,191.61 139.89,192.06 137.21,193.8C136.136,194.125 135.022,194.296 133.9,194.31C133.81,192.2 133.82,190.09 133.59,188C133.39,186.21 133.5,184.42 133.33,182.65C132.86,178.06 132.77,172.45 132.44,167.86C134.83,166.98 139.21,167.06 141.61,166.23C145.87,164.75 150,162.95 154.16,161.23C156.16,160.43 158.07,160.74 160.04,161.08C162.636,161.696 165.18,162.512 167.65,163.52C168.43,163.79 168.79,163.66 169.18,162.96C171.279,159.442 174.307,156.57 177.93,154.66C181.271,152.824 184.789,151.33 188.43,150.2C192.5,148.85 196.55,147.4 200.63,146.1C204.71,144.8 208.41,143.26 212.31,141.87C213.824,141.274 215.3,140.586 216.73,139.81C218.417,138.993 220.223,138.446 222.08,138.19C225.353,137.66 228.694,137.71 231.95,138.34C237.026,139.444 241.814,141.604 246,144.68C249.58,147.18 252.45,150.37 255.41,153.48C256.421,154.503 257.247,155.694 257.85,157Z" style="fill:rgb(191,37,56);fill-opacity:0.88;fill-rule:nonzero;"/>
                <path d="M0.6,160.07L0.6,1.07C0.57,0.2 0.78,0 1.68,0L491,0C491.9,0 492.1,0.2 492.1,1.1L492.1,214.1C491.8,213.98 491.75,213.68 491.64,213.44C490.074,209.904 487.526,206.891 484.3,204.76C476.8,199.76 468.67,198.83 460.12,201.43C459.05,201.76 458.53,201.73 458,200.63C456.736,198.129 455.044,195.868 453,193.95C446.743,187.835 438.414,184.283 429.67,184C417.73,183.4 407.37,187 399.38,196.26C398.83,196.89 398.46,196.83 397.78,196.5C386.987,191.072 374.39,190.444 363.11,194.77C362.17,195.11 361.93,194.98 361.71,194.03C360.302,187.713 356.58,182.145 351.28,178.43C341.99,171.75 331.83,170.62 321.09,174.31C320.17,174.63 319.79,174.49 319.38,173.62C317.62,169.75 315.143,166.248 312.08,163.3C300.22,151.98 286.17,148.62 270.33,152.07C265.997,153.136 261.843,154.831 258,157.1C257.39,155.796 256.561,154.605 255.55,153.58C252.55,150.47 249.72,147.27 246.14,144.78C241.928,141.696 237.108,139.541 232,138.46C228.741,137.832 225.397,137.778 222.12,138.3C220.265,138.556 218.462,139.107 216.78,139.93C215.35,140.706 213.874,141.394 212.36,141.99C208.46,143.38 204.64,144.99 200.68,146.22C196.72,147.45 192.55,148.97 188.48,150.32C184.839,151.45 181.321,152.944 177.98,154.78C174.354,156.69 171.322,159.562 169.22,163.08C168.84,163.78 168.48,163.91 167.7,163.64C165.232,162.628 162.687,161.812 160.09,161.2C158.09,160.86 156.16,160.55 154.21,161.35C150.04,163.05 145.92,164.84 141.66,166.35C139.26,167.19 134.88,168.11 132.49,168.99C132.29,164.46 131.87,159.94 131.68,155.41C131.61,153.7 131.68,151.97 131.47,150.28C130.87,146.1 121.6,144.1 121.3,149.55C121.13,152.5 120.93,155.44 120.79,158.39C120.55,163.39 120.18,168.49 119.87,173.54C117.45,173.11 114.05,172.54 111.6,172.22C108.445,171.797 105.257,171.683 102.08,171.88C99.862,172.018 97.682,172.525 95.63,173.38C92.63,174.63 89.76,176.16 86.83,177.57C85.34,178.29 85.17,178.24 84.29,176.82C83.39,175.363 82.246,174.071 80.91,173C77.445,170.251 73.661,167.931 69.64,166.09C66.527,164.657 63.367,163.343 60.16,162.15C57.44,161.11 54.72,160.06 52,159C50.15,158.28 48.33,157.48 46.48,156.75C43.783,155.676 41.16,154.423 38.63,153C36.21,151.64 33.96,149.95 31.54,148.59C28.625,146.948 25.425,145.872 22.11,145.42C21.253,145.236 20.375,145.165 19.5,145.21C16.58,145.6 13.73,146 11.15,147.73C7.947,149.854 5.223,152.624 3.15,155.86C2.3,157.25 1.61,158.76 0.6,160.07Z" style="fill:rgb(223,90,99);fill-rule:nonzero;"/>
                <path d="M257.75,157.3C261.606,155.013 265.777,153.304 270.13,152.23C285.97,148.77 300.02,152.14 311.88,163.45C314.941,166.4 317.418,169.901 319.18,173.77C319.59,174.65 319.97,174.77 320.89,174.47C331.64,170.77 341.79,171.91 351.08,178.59C356.382,182.303 360.105,187.871 361.51,194.19C361.73,195.13 361.97,195.27 362.91,194.93C374.194,190.608 386.792,191.237 397.59,196.66C398.26,196.98 398.64,197.05 399.18,196.42C407.18,187.16 417.54,183.55 429.48,184.16C438.217,184.466 446.531,188.036 452.77,194.16C454.815,196.076 456.508,198.337 457.77,200.84C458.29,201.93 458.77,201.96 459.88,201.64C468.44,199.04 476.56,199.94 484.07,204.96C487.287,207.099 489.829,210.11 491.4,213.64C491.51,213.89 491.56,214.19 491.87,214.3L491.87,245.13C491.87,246.01 491.69,246.24 490.77,246.24L1.56,246.24C0.56,246.24 0.35,245.98 0.35,244.99L0.35,185.99C0.67,185.99 0.85,185.79 1.07,185.62C5.009,182.419 9.533,180.014 14.39,178.54C19.324,177.074 24.467,176.436 29.61,176.65C31.916,176.863 34.209,177.196 36.48,177.65C47.48,180.24 56.26,185.81 61.71,195.99C62.04,196.6 62.34,196.62 62.93,196.41C67.99,194.561 73.459,194.122 78.75,195.14C89.08,197.2 96.75,202.48 99.83,213.14C100.01,213.77 100.3,213.73 100.83,213.6C102.808,213.183 104.852,213.183 106.83,213.6C110.302,214.198 113.617,215.498 116.57,217.42L119.45,220.42L119.65,220.9L119.73,221.08C120.85,223.42 120.88,225.95 121.05,228.46C121.088,230.979 121.611,233.468 122.59,235.79C123.08,237.43 123.95,230.86 125.05,232.61C125.324,229.663 125.997,226.766 127.05,224C128.05,221.29 136.53,219.34 137.56,218.54L137.98,218.31C146.68,212.69 155.87,211.73 165.55,215.43C166.42,215.76 166.55,215.43 166.68,214.74C168.941,204.884 177.787,197.838 187.899,197.838C190.681,197.838 193.438,198.372 196.02,199.41C196.8,199.71 197.02,199.59 197.4,198.85C203.03,187.45 212.22,181.49 224.92,181.07C229.898,180.999 234.817,182.157 239.24,184.44C240.02,184.79 239.76,184.09 239.8,183.83C240.992,176.481 244.39,169.666 249.54,164.29C252.015,161.67 254.768,159.326 257.75,157.3Z" style="fill:white;fill-rule:nonzero;"/>
                <path d="M29.76,176.3C24.613,176.089 19.467,176.731 14.53,178.2C9.677,179.679 5.155,182.08 1.21,185.27C1,185.45 0.82,185.68 0.5,185.65L0.5,160C1.5,158.69 2.2,157.18 3.09,155.79C5.163,152.554 7.887,149.784 11.09,147.66C13.67,145.93 16.52,145.53 19.44,145.14C20.319,145.095 21.2,145.166 22.06,145.35C25.372,145.804 28.568,146.879 31.48,148.52C33.91,149.89 36.15,151.52 38.58,152.93C41.112,154.363 43.738,155.622 46.44,156.7C48.29,157.44 50.11,158.23 51.97,158.95C54.67,160 57.39,161.03 60.1,162.05C63.307,163.25 66.467,164.563 69.58,165.99C73.603,167.833 77.39,170.153 80.86,172.9C82.204,173.972 83.355,175.268 84.26,176.73C85.15,178.14 85.26,178.2 86.81,177.47C89.73,176.06 92.61,174.54 95.6,173.28C97.652,172.425 99.832,171.918 102.05,171.78C105.227,171.583 108.415,171.697 111.57,172.12C114.02,172.44 117.42,173.01 119.84,173.45C119.84,174.92 119.74,176.39 119.65,177.86C119.32,182.95 119.11,188.05 118.85,193.14C116.27,192.562 113.642,192.227 111,192.14C106.887,192.034 102.783,192.577 98.84,193.75C98.32,193.91 97.84,194.08 97.38,193.43C95.44,190.63 92.47,189.65 89.38,188.99C85.131,188.266 80.83,187.885 76.52,187.85C72.018,187.696 67.541,187.114 63.15,186.11C59.867,185.408 56.789,183.965 54.15,181.89C48.84,177.351 41.986,175.02 35.01,175.38C33.213,175.278 31.416,175.592 29.76,176.3Z" style="fill:rgb(191,37,56);fill-opacity:0.88;fill-rule:nonzero;"/>
                <path d="M117.92,192.18C117.92,192.25 118.85,193.25 118.86,193.32C118.7,195.62 118.43,197.91 118.41,200.21C118.41,205.81 116.72,212.64 116.71,218.21C113.71,216.32 110.4,213.69 106.88,213.13C104.915,212.731 102.888,212.748 100.93,213.18C100.45,213.3 100.16,213.35 99.93,212.71C96.87,202.08 89.18,196.8 78.85,194.71C73.559,193.69 68.088,194.133 63.03,195.99C62.44,196.2 62.14,196.18 61.81,195.56C56.36,185.39 47.55,179.82 36.58,177.23C34.309,176.777 32.016,176.443 29.71,176.23C31.33,175.544 33.083,175.233 34.84,175.32C41.832,174.974 48.696,177.331 54,181.9C56.639,183.975 59.717,185.418 63,186.12C67.391,187.124 71.868,187.706 76.37,187.86C80.7,187.892 85.021,188.273 89.29,189C92.43,189.66 95.4,190.64 97.29,193.44C97.74,194.09 98.23,193.92 98.75,193.76C102.722,192.578 106.857,192.034 111,192.15C113.27,192.2 115.66,191.64 117.92,192.18Z" style="fill:rgb(178,62,46);fill-rule:nonzero;"/>
                <path d="M120.71,140.79C120.279,139.959 119.3,139.559 118.41,139.85C114.5,140.42 110.56,140.85 106.62,141.21C104.89,141.35 104.44,141.03 104.44,139.37C104.44,137.12 104.44,134.86 104.56,132.61C104.62,131.047 105.314,129.573 106.48,128.53C108.39,126.72 110.21,124.84 112.12,123.03C112.64,122.574 112.917,121.9 112.87,121.21C112.631,116.248 113.488,111.293 115.38,106.7C115.67,105.936 116.097,105.231 116.64,104.62C123.017,103.601 129.523,103.689 135.87,104.88C138.13,108.58 138.79,112.65 139.12,116.8C139.269,118.463 139.269,120.137 139.12,121.8C139.085,122.353 139.339,122.887 139.79,123.21C141.79,125.21 143.69,127.21 145.67,129.1C146.712,130.061 147.334,131.394 147.4,132.81C147.5,135.17 147.51,137.53 147.47,139.89C147.47,141.49 147,141.83 145.31,141.63C141.23,141.15 137.15,140.63 133.08,140.07C132.15,139.94 131.57,140.07 131.19,140.89C127.715,141.433 124.174,141.399 120.71,140.79ZM113.13,123.48C110.99,125.61 109.04,127.57 107.06,129.48C106.377,130.112 105.95,130.974 105.86,131.9C105.69,134.33 105.57,136.76 105.64,139.2C105.64,139.77 105.86,140.06 106.55,140C110.64,139.7 114.7,139.12 118.93,138.59C118.045,137.493 117.293,136.294 116.69,135.02C116.56,134.73 116.3,134.37 116.52,134.1C116.74,133.83 117.18,134.1 117.52,134.1C122.934,134.983 128.446,135.087 133.89,134.41C134.38,134.35 135.02,134.02 135.33,134.41C135.64,134.8 135.22,135.41 134.97,135.8C134.51,136.59 133.97,137.34 133.46,138.12C133.32,138.35 132.98,138.51 133.15,138.91C137.15,139.47 141.15,140.04 145.15,140.45C146.15,140.55 146.38,140.17 146.36,139.38C146.36,137.12 146.3,134.87 146.24,132.62C146.254,131.895 146.013,131.187 145.56,130.62C143.45,128.36 141.27,126.16 139.16,123.97C138.924,124.035 138.761,124.255 138.77,124.5C138.073,127.342 137.133,130.119 135.96,132.8C135.735,133.394 135.165,133.792 134.53,133.8C128.819,134.554 123.029,134.476 117.34,133.57C116.7,133.531 116.146,133.101 115.95,132.49C114.72,129.585 113.776,126.568 113.13,123.48ZM120.22,119.16C120.22,119.173 120.22,119.187 120.22,119.2C120.22,122.239 122.721,124.74 125.76,124.74C125.763,124.74 125.767,124.74 125.77,124.74C128.711,124.68 131.098,122.243 131.098,119.301C131.098,116.317 128.642,113.861 125.658,113.861C122.727,113.861 120.296,116.23 120.22,119.16Z" style="fill:rgb(250,250,250);fill-rule:nonzero;"/>
                <path d="M133.84,195L133.84,194.3C134.322,194.286 134.785,194.105 135.15,193.79C137.83,192.05 142.87,191.6 145.94,191.43C149.994,191.255 154.048,191.786 157.92,193C158.486,193.23 159.141,193.029 159.48,192.52C161.345,190.381 163.769,188.802 166.48,187.96C171.79,186.01 177.36,185.19 182.89,184.14C186.45,183.47 190.07,183.04 193.62,182.3C197.94,181.39 202.3,180.48 206.32,178.55C207.721,177.853 209.059,177.037 210.32,176.11C212.582,174.619 215.329,174.043 218,174.5C224.91,175.27 231,178.1 236.7,181.94C237.46,182.46 238.25,182.94 239.03,183.4C239.27,183.55 239.56,183.68 239.27,184.03C234.847,181.747 229.928,180.589 224.95,180.66C212.25,181.08 203.06,187.04 197.43,198.43C197.07,199.17 196.83,199.3 196.05,199C193.466,197.959 190.705,197.424 187.919,197.424C177.811,197.424 168.969,204.467 166.71,214.32C166.54,215.03 166.45,215.32 165.58,215.01C155.91,211.31 144.71,214.28 136,219.9L135.59,220.13C135.469,219.929 135.382,219.709 135.33,219.48C135.07,215.14 134.85,208.8 134.58,204.48C134.36,201.29 134.08,198.15 133.84,195Z" style="fill:rgb(178,62,46);fill-rule:nonzero;"/>
                <path d="M119.3,170.06C119.43,167.38 119.63,164.7 119.79,162.06C120.08,157.06 120.21,152.14 120.56,147.19C120.68,145.52 120.68,143.86 120.75,142.19C121.28,142.673 121.703,143.263 121.99,143.92C121.1,146.09 122.53,148.2 123.35,150.29L120.21,199.51L117.55,198.51C117.55,198.51 119.07,174.65 119.3,170.06Z" style="fill:rgb(217,114,115);fill-rule:nonzero;"/>
                <path d="M135,199.89C135,200.1 131.33,203.23 131.33,203.23C131.23,197.83 131.58,184.9 131.33,179.5C131.16,176.03 130.96,172.55 130.88,169.07C130.75,164.14 130.28,159.22 130.31,154.28L129.22,151.28C129.614,150.286 129.827,149.229 129.85,148.16C129.98,146.76 130.61,145.42 130.31,144.07C130.536,143.575 130.843,143.122 131.22,142.73C131.39,145.53 134.88,198 135,199.89Z" style="fill:rgb(217,114,115);fill-rule:nonzero;"/>
                <path d="M116.85,103.17C116.852,102.469 117.092,101.788 117.53,101.24C119.727,97.854 122.424,94.819 125.53,92.24C125.98,91.85 126.4,91.58 127.01,92.12C130.286,94.895 133.101,98.172 135.35,101.83C135.716,102.294 135.892,102.881 135.84,103.47C129.574,102.284 123.15,102.183 116.85,103.17Z" style="fill:rgb(250,250,250);fill-rule:nonzero;"/>
                <path d="M129.53,199.41C130.28,199.04 130.46,198.3 130.87,197.75C131.28,197.2 131.33,196.66 132.06,196.26C132.18,197 132.58,203.65 132.62,204.33C132.73,206.33 132.78,208.33 132.88,210.4C133.033,213.773 133.193,217.143 133.36,220.51C133.415,220.852 133.505,221.187 133.63,221.51L130.54,224.51C130.24,224.23 130.31,223.88 130.31,223.51C130.27,218.45 129.5,200 129.53,199.41Z" style="fill:rgb(255,155,165);fill-rule:nonzero;"/>
                <path d="M116.85,103.17C123.153,102.178 129.58,102.277 135.85,103.46L135.85,104.88C129.503,103.689 122.997,103.601 116.62,104.62C116.561,104.125 116.64,103.623 116.85,103.17Z" style="fill:rgb(27,75,93);fill-rule:nonzero;"/>
                <path d="M131.16,142.69C130.783,143.082 130.476,143.535 130.25,144.03C129.86,143.51 129.18,143.55 128.64,143.3C128.54,143.3 124.7,143.42 124.24,143.17C123.61,142.83 122.84,143.24 122.24,143.68C122.15,143.74 122.08,143.83 121.99,143.9C121.703,143.243 121.28,142.653 120.75,142.17C120.61,141.72 120.02,141.28 120.75,140.8C124.223,141.416 127.775,141.453 131.26,140.91C132,141.52 131.44,142.1 131.16,142.69Z" style="fill:rgb(27,75,93);fill-rule:nonzero;"/>
                <path d="M130.54,224.51C128.802,226.409 127.341,228.543 126.2,230.85C125.199,233.173 124.558,235.634 124.3,238.15C123.303,236.918 122.498,235.542 121.91,234.07C122.18,233.49 122.48,198.07 122.91,194.31C123.49,194.45 128.75,199.1 129.6,199.64C129.97,200.02 130.29,218.45 130.33,223.55C130.31,223.88 130.24,224.23 130.54,224.51Z" style="fill:rgb(217,114,115);fill-rule:nonzero;"/>
                <path d="M124.36,153.05C125.47,154.05 127.13,153.05 128.22,152.05C128.34,152.05 128.49,152.15 128.56,152.41C128.622,152.756 128.652,153.108 128.65,153.46C128.65,154.65 128.77,155.84 128.76,157.03C128.76,162.58 128.97,168.13 129.09,173.67C129.17,177.41 129.09,181.14 129.26,184.87C129.53,190.77 129.69,196.46 129.86,202.36C129.92,204.6 127.28,219.01 126.77,219.01C126.26,219.01 125.2,213.76 125.13,213.39C124.57,210.55 124.9,197.05 123.21,194.63C122.93,194.23 123.32,191.56 123.42,185.63C123.56,178.1 123.63,170.56 123.92,163.03C124.03,160.17 124,157.3 124.09,154.44C124.039,153.96 124.133,153.476 124.36,153.05Z" style="fill:rgb(217,114,115);fill-rule:nonzero;"/>
                <path d="M120.21,199.48C120.21,198.33 122.76,150.82 122.76,150.82C123.4,151.71 123.87,152.33 124.42,153.19C124.13,153.59 123.27,201.26 123.06,201.53C122.38,201.33 121.9,200.53 121.32,200.17L120.21,199.48Z" style="fill:rgb(255,155,165);fill-rule:nonzero;"/>
                <path d="M120.21,199.48C120.21,199.48 120.27,198.63 120.27,198.31" style="fill-rule:nonzero;"/>
                <path d="M119.21,221.31C118.428,220.249 117.594,219.228 116.71,218.25C116.71,213.5 117.76,194.13 117.92,192.18L120.52,193.18C120.52,193.18 119.45,221.1 119.21,221.31Z" style="fill:rgb(217,114,115);fill-rule:nonzero;"/>
                <path d="M121.15,199.88C120.89,199.74 119.89,199.41 119.89,199.41" style="fill-rule:nonzero;"/>
                <path d="M132.06,196.3C131.33,196.71 131.23,197.3 130.87,197.79C130.51,198.28 130.55,199.27 129.8,199.64C129.46,197.58 128.46,153.75 128.43,152.64C128.43,152.64 129.57,150.9 130.16,150.24L132.06,196.3Z" style="fill:rgb(255,155,165);fill-rule:nonzero;"/>
                <path d="M134.58,194.17C134.82,196.83 135.47,205.17 135.66,207.87C135.93,211.54 136.14,215.22 136.39,218.87C136.446,219.065 136.53,219.25 136.64,219.42L133.64,221.47C133.515,221.147 133.425,220.812 133.37,220.47C133.197,217.097 133.037,213.727 132.89,210.36C132.79,208.36 132.1,196.8 132.07,196.26C132.05,196 133.87,194.8 134.58,194.17Z" style="fill:rgb(217,114,115);fill-rule:nonzero;"/>
                <path d="M120.52,193.16C121.5,193.637 122.446,194.181 123.35,194.79C124.254,195.399 122.41,233.49 122.13,234.07C121.186,232.129 120.675,230.007 120.63,227.85C120.335,225.635 119.86,223.448 119.21,221.31C119.14,221.17 120.52,193.16 120.52,193.16Z" style="fill:rgb(255,155,165);fill-rule:nonzero;"/>
                <path d="M113.13,123.48C113.764,126.563 114.695,129.577 115.91,132.48C116.106,133.091 116.66,133.521 117.3,133.56C122.989,134.466 128.779,134.544 134.49,133.79C135.125,133.782 135.695,133.384 135.92,132.79C137.093,130.109 138.033,127.332 138.73,124.49C138.721,124.245 138.884,124.025 139.12,123.96C141.23,126.15 143.41,128.35 145.52,130.61C145.973,131.177 146.214,131.885 146.2,132.61C146.26,134.86 146.28,137.11 146.32,139.37C146.32,140.16 146.09,140.54 145.11,140.44C141.11,140.03 137.11,139.44 133.11,138.9C132.94,138.5 133.28,138.34 133.42,138.11C133.91,137.33 134.47,136.58 134.93,135.79C135.18,135.36 135.65,134.79 135.29,134.4C134.93,134.01 134.34,134.4 133.85,134.4C128.406,135.077 122.894,134.973 117.48,134.09C117.16,134.09 116.75,133.76 116.48,134.09C116.21,134.42 116.48,134.72 116.65,135.01C117.253,136.284 118.005,137.483 118.89,138.58C114.66,139.11 110.6,139.69 106.51,139.99C105.82,140.05 105.62,139.76 105.6,139.19C105.53,136.75 105.6,134.32 105.82,131.89C105.91,130.964 106.337,130.102 107.02,129.47C109,127.57 111,125.61 113.13,123.48Z" style="fill:rgb(27,75,93);fill-rule:nonzero;"/>
                <path d="M120.22,119.16C120.219,119.108 120.218,119.055 120.218,119.003C120.218,115.854 122.809,113.263 125.958,113.263C129.107,113.263 131.698,115.854 131.698,119.003C131.698,122.152 129.107,124.743 125.958,124.743C125.895,124.743 125.833,124.742 125.77,124.74C125.767,124.74 125.763,124.74 125.76,124.74C122.721,124.74 120.22,122.239 120.22,119.2C120.22,119.187 120.22,119.173 120.22,119.16ZM121.71,119.3C121.769,121.52 123.619,123.312 125.84,123.3C125.925,123.305 126.01,123.308 126.095,123.308C128.317,123.308 130.145,121.48 130.145,119.258C130.145,117.036 128.317,115.208 126.095,115.208C126.054,115.208 126.012,115.209 125.97,115.21C123.68,115.166 121.759,117.011 121.71,119.3Z" style="fill:rgb(27,75,93);fill-rule:nonzero;"/>
                <path d="M129.8,150.88C129.26,151.62 128.64,152.27 128.13,153.07C127.411,154.329 126.769,155.632 126.21,156.97C125.879,155.53 125.214,154.187 124.27,153.05C123.61,152.2 122.38,150.33 122.35,150.26C121.335,148.284 121.204,145.968 121.99,143.89C122.08,143.82 122.15,143.73 122.24,143.67C122.33,143.61 122.9,143.17 122.94,143.24C122.98,143.31 122.5,144.24 122.44,144.71C122.166,146.384 122.549,148.102 123.51,149.5C124.51,150.95 125.79,152.21 126.23,153.98C126.745,152.536 127.529,151.202 128.54,150.05C130.13,148.49 130.19,146.62 129.72,144.66C129.67,144.43 129.34,143.71 129.44,143.55C129.54,143.39 130.05,143.77 130.25,144.03C130.643,145.357 130.826,146.737 130.79,148.12C130.716,149.113 130.374,150.067 129.8,150.88Z" style="fill:rgb(241,241,241);fill-rule:nonzero;"/>
                <path d="M123.53,142.91C124.16,142.91 128.53,142.91 128.86,143.04C129.86,146.04 127.16,149.74 126.18,152.32C125.83,151.01 124.18,149.18 123.51,148.32C122.53,147 123,144.55 123.53,142.91Z" style="fill:rgb(178,62,46);fill-rule:nonzero;"/>
                <path d="M124.83,142.85C125.13,142.85 127.21,142.85 127.36,142.91C127.82,144.32 126.55,146.09 126.09,147.31C125.763,146.621 125.335,145.984 124.82,145.42C124.463,144.6 124.467,143.667 124.83,142.85Z" style="fill:rgb(250,250,250);fill-rule:nonzero;"/>
                <path d="M121.71,119.3C121.807,117.045 123.713,115.255 125.97,115.3C126.012,115.299 126.054,115.298 126.095,115.298C128.317,115.298 130.145,117.126 130.145,119.348C130.145,121.57 128.317,123.398 126.095,123.398C126.01,123.398 125.925,123.395 125.84,123.39C125.833,123.39 125.827,123.39 125.82,123.39C123.573,123.39 121.721,121.547 121.71,119.3Z" style="fill:rgb(217,114,115);fill-rule:nonzero;"/>
                <path d="M123.53,143C123.075,144.862 123.439,146.833 124.53,148.41C125.284,149.287 125.852,150.307 126.2,151.41C127.2,148.83 129.86,146.09 128.88,143.13C129.46,142.94 129.64,144.26 129.74,144.71C130.21,146.71 130.15,148.54 128.56,150.1C127.549,151.252 126.765,152.586 126.25,154.03C125.81,152.26 124.51,151.03 123.53,149.55C122.569,148.152 122.186,146.434 122.46,144.76C122.53,144.08 122.84,142.79 123.53,143Z" style="fill:rgb(217,114,115);fill-rule:nonzero;"/>
            </g>
        </g>
    </g>
</svg>
