<?xml version="1.0" encoding="UTF-8" standalone="no"?><!DOCTYPE svg PUBLIC "-//W3C//DTD SVG 1.1//EN" "http://www.w3.org/Graphics/SVG/1.1/DTD/svg11.dtd"><svg width="100%" height="100%" viewBox="0 0 1964 666" version="1.1" xmlns="http://www.w3.org/2000/svg" xmlns:xlink="http://www.w3.org/1999/xlink" xml:space="preserve" xmlns:serif="http://www.serif.com/" style="fill-rule:evenodd;clip-rule:evenodd;stroke-linejoin:round;stroke-miterlimit:2;"><g transform="matrix(0.839854,0,0,0.996889,-33.9182,-1595.84)"><g transform="matrix(388.889,0,0,388.889,17.3616,1882.05)"><path d="M0.094,-0.7l0.13,0l0,0.59l0.366,0l0,0.11l-0.496,0l0,-0.7Z" style="fill:#6a72a3;fill-rule:nonzero;"/></g><g transform="matrix(388.889,0,0,388.889,248.362,1882.05)"><path d="M0.322,0.007c-0.054,0 -0.103,-0.012 -0.146,-0.035c-0.043,-0.023 -0.077,-0.056 -0.102,-0.098c-0.024,-0.041 -0.036,-0.088 -0.036,-0.141c0,-0.053 0.012,-0.1 0.036,-0.141c0.025,-0.041 0.059,-0.074 0.102,-0.097c0.043,-0.023 0.092,-0.035 0.146,-0.035c0.055,0 0.104,0.012 0.147,0.035c0.043,0.023 0.077,0.056 0.102,0.097c0.024,0.041 0.036,0.088 0.036,0.141c0,0.053 -0.012,0.1 -0.036,0.142c-0.025,0.041 -0.059,0.074 -0.102,0.097c-0.043,0.023 -0.092,0.035 -0.147,0.035Zm0,-0.107c0.046,0 0.084,-0.015 0.114,-0.046c0.03,-0.031 0.045,-0.071 0.045,-0.121c0,-0.05 -0.015,-0.09 -0.045,-0.121c-0.03,-0.031 -0.068,-0.046 -0.114,-0.046c-0.046,0 -0.084,0.015 -0.113,0.046c-0.03,0.031 -0.045,0.071 -0.045,0.121c0,0.05 0.015,0.09 0.045,0.121c0.029,0.031 0.067,0.046 0.113,0.046Z" style="fill:#6a72a3;fill-rule:nonzero;"/></g><g transform="matrix(388.889,0,0,388.889,499.195,1882.05)"><path d="M0.612,-0.534l0,0.453c0,0.188 -0.096,0.282 -0.288,0.282c-0.051,0 -0.1,-0.007 -0.146,-0.02c-0.046,-0.013 -0.084,-0.031 -0.114,-0.056l0.056,-0.094c0.023,0.019 0.053,0.035 0.089,0.046c0.035,0.012 0.071,0.018 0.108,0.018c0.059,0 0.102,-0.013 0.129,-0.04c0.027,-0.027 0.041,-0.067 0.041,-0.122l0,-0.028c-0.021,0.023 -0.047,0.041 -0.078,0.053c-0.031,0.012 -0.064,0.018 -0.101,0.018c-0.051,0 -0.096,-0.011 -0.137,-0.033c-0.041,-0.021 -0.074,-0.052 -0.097,-0.091c-0.024,-0.039 -0.036,-0.084 -0.036,-0.135c0,-0.051 0.012,-0.096 0.036,-0.135c0.023,-0.039 0.056,-0.069 0.097,-0.09c0.041,-0.021 0.086,-0.032 0.137,-0.032c0.039,0 0.074,0.006 0.106,0.019c0.031,0.013 0.058,0.032 0.079,0.058l0,-0.071l0.119,0Zm-0.285,0.404c0.047,0 0.086,-0.014 0.117,-0.042c0.03,-0.029 0.045,-0.066 0.045,-0.111c0,-0.045 -0.015,-0.081 -0.045,-0.109c-0.031,-0.028 -0.07,-0.042 -0.117,-0.042c-0.048,0 -0.087,0.014 -0.117,0.042c-0.031,0.028 -0.046,0.064 -0.046,0.109c0,0.045 0.015,0.082 0.046,0.111c0.03,0.028 0.069,0.042 0.117,0.042Z" style="fill:#6a72a3;fill-rule:nonzero;"/></g><g transform="matrix(388.889,0,0,388.889,1060.42,1882.05)"><path d="M0.247,0.007c-0.043,0 -0.086,-0.006 -0.127,-0.017c-0.041,-0.011 -0.074,-0.026 -0.099,-0.043l0.048,-0.095c0.024,0.016 0.053,0.029 0.087,0.039c0.033,0.009 0.066,0.014 0.099,0.014c0.075,0 0.112,-0.02 0.112,-0.059c0,-0.019 -0.01,-0.032 -0.028,-0.039c-0.019,-0.007 -0.05,-0.014 -0.092,-0.021c-0.044,-0.007 -0.08,-0.014 -0.107,-0.023c-0.028,-0.009 -0.052,-0.024 -0.072,-0.045c-0.021,-0.022 -0.031,-0.052 -0.031,-0.091c0,-0.051 0.021,-0.091 0.064,-0.122c0.042,-0.03 0.099,-0.045 0.171,-0.045c0.037,0 0.073,0.004 0.11,0.013c0.037,0.008 0.067,0.019 0.09,0.033l-0.048,0.095c-0.045,-0.027 -0.096,-0.04 -0.153,-0.04c-0.037,0 -0.065,0.006 -0.084,0.017c-0.018,0.011 -0.028,0.025 -0.028,0.043c0,0.02 0.01,0.034 0.031,0.042c0.02,0.009 0.051,0.017 0.094,0.024c0.043,0.007 0.078,0.014 0.105,0.023c0.027,0.009 0.051,0.023 0.071,0.044c0.019,0.021 0.029,0.05 0.029,0.088c0,0.05 -0.022,0.09 -0.065,0.12c-0.043,0.03 -0.102,0.045 -0.177,0.045Z" style="fill:#6a72a3;fill-rule:nonzero;"/></g></g><g transform="matrix(0.839854,0,0,0.996889,-45.2825,-1604.81)"><g transform="matrix(388.889,0,0,388.889,17.3616,1882.05)"><path d="M0.094,-0.7l0.13,0l0,0.59l0.366,0l0,0.11l-0.496,0l0,-0.7Z" style="fill:#fff;fill-rule:nonzero;"/></g><g transform="matrix(388.889,0,0,388.889,248.362,1882.05)"><path d="M0.322,0.007c-0.054,0 -0.103,-0.012 -0.146,-0.035c-0.043,-0.023 -0.077,-0.056 -0.102,-0.098c-0.024,-0.041 -0.036,-0.088 -0.036,-0.141c0,-0.053 0.012,-0.1 0.036,-0.141c0.025,-0.041 0.059,-0.074 0.102,-0.097c0.043,-0.023 0.092,-0.035 0.146,-0.035c0.055,0 0.104,0.012 0.147,0.035c0.043,0.023 0.077,0.056 0.102,0.097c0.024,0.041 0.036,0.088 0.036,0.141c0,0.053 -0.012,0.1 -0.036,0.142c-0.025,0.041 -0.059,0.074 -0.102,0.097c-0.043,0.023 -0.092,0.035 -0.147,0.035Zm0,-0.107c0.046,0 0.084,-0.015 0.114,-0.046c0.03,-0.031 0.045,-0.071 0.045,-0.121c0,-0.05 -0.015,-0.09 -0.045,-0.121c-0.03,-0.031 -0.068,-0.046 -0.114,-0.046c-0.046,0 -0.084,0.015 -0.113,0.046c-0.03,0.031 -0.045,0.071 -0.045,0.121c0,0.05 0.015,0.09 0.045,0.121c0.029,0.031 0.067,0.046 0.113,0.046Z" style="fill:#fff;fill-rule:nonzero;"/></g><g transform="matrix(388.889,0,0,388.889,499.195,1882.05)"><path d="M0.612,-0.534l0,0.453c0,0.188 -0.096,0.282 -0.288,0.282c-0.051,0 -0.1,-0.007 -0.146,-0.02c-0.046,-0.013 -0.084,-0.031 -0.114,-0.056l0.056,-0.094c0.023,0.019 0.053,0.035 0.089,0.046c0.035,0.012 0.071,0.018 0.108,0.018c0.059,0 0.102,-0.013 0.129,-0.04c0.027,-0.027 0.041,-0.067 0.041,-0.122l0,-0.028c-0.021,0.023 -0.047,0.041 -0.078,0.053c-0.031,0.012 -0.064,0.018 -0.101,0.018c-0.051,0 -0.096,-0.011 -0.137,-0.033c-0.041,-0.021 -0.074,-0.052 -0.097,-0.091c-0.024,-0.039 -0.036,-0.084 -0.036,-0.135c0,-0.051 0.012,-0.096 0.036,-0.135c0.023,-0.039 0.056,-0.069 0.097,-0.09c0.041,-0.021 0.086,-0.032 0.137,-0.032c0.039,0 0.074,0.006 0.106,0.019c0.031,0.013 0.058,0.032 0.079,0.058l0,-0.071l0.119,0Zm-0.285,0.404c0.047,0 0.086,-0.014 0.117,-0.042c0.03,-0.029 0.045,-0.066 0.045,-0.111c0,-0.045 -0.015,-0.081 -0.045,-0.109c-0.031,-0.028 -0.07,-0.042 -0.117,-0.042c-0.048,0 -0.087,0.014 -0.117,0.042c-0.031,0.028 -0.046,0.064 -0.046,0.109c0,0.045 0.015,0.082 0.046,0.111c0.03,0.028 0.069,0.042 0.117,0.042Z" style="fill:#fff;fill-rule:nonzero;"/></g><g transform="matrix(388.889,0,0,388.889,1060.42,1882.05)"><path d="M0.247,0.007c-0.043,0 -0.086,-0.006 -0.127,-0.017c-0.041,-0.011 -0.074,-0.026 -0.099,-0.043l0.048,-0.095c0.024,0.016 0.053,0.029 0.087,0.039c0.033,0.009 0.066,0.014 0.099,0.014c0.075,0 0.112,-0.02 0.112,-0.059c0,-0.019 -0.01,-0.032 -0.028,-0.039c-0.019,-0.007 -0.05,-0.014 -0.092,-0.021c-0.044,-0.007 -0.08,-0.014 -0.107,-0.023c-0.028,-0.009 -0.052,-0.024 -0.072,-0.045c-0.021,-0.022 -0.031,-0.052 -0.031,-0.091c0,-0.051 0.021,-0.091 0.064,-0.122c0.042,-0.03 0.099,-0.045 0.171,-0.045c0.037,0 0.073,0.004 0.11,0.013c0.037,0.008 0.067,0.019 0.09,0.033l-0.048,0.095c-0.045,-0.027 -0.096,-0.04 -0.153,-0.04c-0.037,0 -0.065,0.006 -0.084,0.017c-0.018,0.011 -0.028,0.025 -0.028,0.043c0,0.02 0.01,0.034 0.031,0.042c0.02,0.009 0.051,0.017 0.094,0.024c0.043,0.007 0.078,0.014 0.105,0.023c0.027,0.009 0.051,0.023 0.071,0.044c0.019,0.021 0.029,0.05 0.029,0.088c0,0.05 -0.022,0.09 -0.065,0.12c-0.043,0.03 -0.102,0.045 -0.177,0.045Z" style="fill:#fff;fill-rule:nonzero;"/></g></g><g transform="matrix(0.809232,0,0,0.943714,-13.4025,-1599.7)"><g transform="matrix(416.667,0,0,416.667,205.501,2316.71)"><path d="M0.59,-0.364c0.039,0.013 0.069,0.034 0.092,0.064c0.023,0.029 0.034,0.066 0.034,0.11c0,0.061 -0.023,0.108 -0.07,0.141c-0.047,0.032 -0.115,0.049 -0.204,0.049l-0.348,0l0,-0.7l0.328,0c0.083,0 0.146,0.016 0.191,0.049c0.045,0.032 0.067,0.076 0.067,0.133c0,0.035 -0.008,0.065 -0.024,0.092c-0.016,0.027 -0.038,0.047 -0.066,0.062Zm-0.366,-0.234l0,0.193l0.184,0c0.045,0 0.08,-0.008 0.105,-0.024c0.024,-0.017 0.036,-0.041 0.036,-0.072c0,-0.032 -0.012,-0.056 -0.036,-0.072c-0.025,-0.017 -0.06,-0.025 -0.105,-0.025l-0.184,0Zm0.21,0.496c0.101,0 0.151,-0.034 0.151,-0.101c0,-0.067 -0.05,-0.101 -0.151,-0.101l-0.21,0l0,0.202l0.21,0Z" style="fill:#6a72a3;fill-rule:nonzero;"/></g><g transform="matrix(416.667,0,0,416.667,522.584,2316.71)"><path d="M0.201,-0.456c0.036,-0.056 0.099,-0.084 0.19,-0.084l0,0.119c-0.011,-0.002 -0.02,-0.003 -0.029,-0.003c-0.049,0 -0.087,0.014 -0.114,0.043c-0.027,0.028 -0.041,0.069 -0.041,0.122l0,0.259l-0.125,0l0,-0.534l0.119,0l0,0.078Z" style="fill:#6a72a3;fill-rule:nonzero;"/></g><g transform="matrix(416.667,0,0,416.667,1206.18,2316.71)"><path d="M0.385,-0.54c0.067,0 0.121,0.02 0.162,0.059c0.041,0.039 0.061,0.098 0.061,0.175l0,0.306l-0.125,0l0,-0.29c0,-0.047 -0.011,-0.082 -0.033,-0.105c-0.022,-0.024 -0.053,-0.036 -0.094,-0.036c-0.046,0 -0.082,0.014 -0.109,0.042c-0.027,0.027 -0.04,0.067 -0.04,0.119l0,0.27l-0.125,0l0,-0.534l0.119,0l0,0.069c0.021,-0.025 0.047,-0.043 0.078,-0.056c0.031,-0.013 0.067,-0.019 0.106,-0.019Z" style="fill:#6a72a3;fill-rule:nonzero;"/></g><g transform="matrix(416.667,0,0,416.667,1493.68,2316.71)"><path d="M0.605,-0.742l0,0.742l-0.12,0l0,-0.069c-0.021,0.025 -0.046,0.044 -0.077,0.057c-0.03,0.013 -0.063,0.019 -0.1,0.019c-0.051,0 -0.097,-0.011 -0.138,-0.034c-0.041,-0.023 -0.074,-0.055 -0.097,-0.096c-0.023,-0.042 -0.035,-0.09 -0.035,-0.144c0,-0.054 0.012,-0.102 0.035,-0.143c0.023,-0.041 0.056,-0.073 0.097,-0.096c0.041,-0.023 0.087,-0.034 0.138,-0.034c0.035,0 0.068,0.006 0.097,0.018c0.029,0.012 0.054,0.03 0.075,0.054l0,-0.274l0.125,0Zm-0.282,0.642c0.03,0 0.057,-0.007 0.081,-0.021c0.024,-0.013 0.043,-0.033 0.057,-0.058c0.014,-0.025 0.021,-0.055 0.021,-0.088c0,-0.033 -0.007,-0.063 -0.021,-0.088c-0.014,-0.025 -0.033,-0.045 -0.057,-0.058c-0.024,-0.014 -0.051,-0.021 -0.081,-0.021c-0.03,0 -0.057,0.007 -0.081,0.021c-0.024,0.013 -0.043,0.033 -0.057,0.058c-0.014,0.025 -0.021,0.055 -0.021,0.088c0,0.033 0.007,0.063 0.021,0.088c0.014,0.025 0.033,0.045 0.057,0.059c0.024,0.013 0.051,0.02 0.081,0.02Z" style="fill:#6a72a3;fill-rule:nonzero;"/></g><g transform="matrix(416.667,0,0,416.667,1779.93,2316.71)"><path d="M0.082,-0.534l0.125,0l0,0.534l-0.125,0l0,-0.534Zm0.063,-0.088c-0.023,0 -0.042,-0.007 -0.057,-0.021c-0.015,-0.015 -0.023,-0.033 -0.023,-0.054c0,-0.021 0.008,-0.039 0.023,-0.053c0.015,-0.015 0.034,-0.022 0.057,-0.022c0.023,0 0.042,0.007 0.057,0.021c0.015,0.013 0.023,0.03 0.023,0.051c0,0.022 -0.008,0.041 -0.022,0.056c-0.016,0.015 -0.035,0.022 -0.058,0.022Z" style="fill:#6a72a3;fill-rule:nonzero;"/></g><g transform="matrix(416.667,0,0,416.667,1900.34,2316.71)"><path d="M0.385,-0.54c0.067,0 0.121,0.02 0.162,0.059c0.041,0.039 0.061,0.098 0.061,0.175l0,0.306l-0.125,0l0,-0.29c0,-0.047 -0.011,-0.082 -0.033,-0.105c-0.022,-0.024 -0.053,-0.036 -0.094,-0.036c-0.046,0 -0.082,0.014 -0.109,0.042c-0.027,0.027 -0.04,0.067 -0.04,0.119l0,0.27l-0.125,0l0,-0.534l0.119,0l0,0.069c0.021,-0.025 0.047,-0.043 0.078,-0.056c0.031,-0.013 0.067,-0.019 0.106,-0.019Z" style="fill:#6a72a3;fill-rule:nonzero;"/></g><g transform="matrix(416.667,0,0,416.667,2187.84,2316.71)"><path d="M0.612,-0.534l0,0.453c0,0.188 -0.096,0.282 -0.288,0.282c-0.051,0 -0.1,-0.007 -0.146,-0.02c-0.046,-0.013 -0.084,-0.031 -0.114,-0.056l0.056,-0.094c0.023,0.019 0.053,0.035 0.089,0.046c0.035,0.012 0.071,0.018 0.108,0.018c0.059,0 0.102,-0.013 0.129,-0.04c0.027,-0.027 0.041,-0.067 0.041,-0.122l0,-0.028c-0.021,0.023 -0.047,0.041 -0.078,0.053c-0.031,0.012 -0.064,0.018 -0.101,0.018c-0.051,0 -0.096,-0.011 -0.137,-0.033c-0.041,-0.021 -0.074,-0.052 -0.097,-0.091c-0.024,-0.039 -0.036,-0.084 -0.036,-0.135c0,-0.051 0.012,-0.096 0.036,-0.135c0.023,-0.039 0.056,-0.069 0.097,-0.09c0.041,-0.021 0.086,-0.032 0.137,-0.032c0.039,0 0.074,0.006 0.106,0.019c0.031,0.013 0.058,0.032 0.079,0.058l0,-0.071l0.119,0Zm-0.285,0.404c0.047,0 0.086,-0.014 0.117,-0.042c0.03,-0.029 0.045,-0.066 0.045,-0.111c0,-0.045 -0.015,-0.081 -0.045,-0.109c-0.031,-0.028 -0.07,-0.042 -0.117,-0.042c-0.048,0 -0.087,0.014 -0.117,0.042c-0.031,0.028 -0.046,0.064 -0.046,0.109c0,0.045 0.015,0.082 0.046,0.111c0.03,0.028 0.069,0.042 0.117,0.042Z" style="fill:#6a72a3;fill-rule:nonzero;"/></g></g><g transform="matrix(0.809232,0,0,0.943714,-24.7667,-1608.67)"><g transform="matrix(416.667,0,0,416.667,205.501,2316.71)"><path d="M0.59,-0.364c0.039,0.013 0.069,0.034 0.092,0.064c0.023,0.029 0.034,0.066 0.034,0.11c0,0.061 -0.023,0.108 -0.07,0.141c-0.047,0.032 -0.115,0.049 -0.204,0.049l-0.348,0l0,-0.7l0.328,0c0.083,0 0.146,0.016 0.191,0.049c0.045,0.032 0.067,0.076 0.067,0.133c0,0.035 -0.008,0.065 -0.024,0.092c-0.016,0.027 -0.038,0.047 -0.066,0.062Zm-0.366,-0.234l0,0.193l0.184,0c0.045,0 0.08,-0.008 0.105,-0.024c0.024,-0.017 0.036,-0.041 0.036,-0.072c0,-0.032 -0.012,-0.056 -0.036,-0.072c-0.025,-0.017 -0.06,-0.025 -0.105,-0.025l-0.184,0Zm0.21,0.496c0.101,0 0.151,-0.034 0.151,-0.101c0,-0.067 -0.05,-0.101 -0.151,-0.101l-0.21,0l0,0.202l0.21,0Z" style="fill:#fff;fill-rule:nonzero;"/></g><g transform="matrix(416.667,0,0,416.667,522.584,2316.71)"><path d="M0.201,-0.456c0.036,-0.056 0.099,-0.084 0.19,-0.084l0,0.119c-0.011,-0.002 -0.02,-0.003 -0.029,-0.003c-0.049,0 -0.087,0.014 -0.114,0.043c-0.027,0.028 -0.041,0.069 -0.041,0.122l0,0.259l-0.125,0l0,-0.534l0.119,0l0,0.078Z" style="fill:#fff;fill-rule:nonzero;"/></g><g transform="matrix(416.667,0,0,416.667,1206.18,2316.71)"><path d="M0.385,-0.54c0.067,0 0.121,0.02 0.162,0.059c0.041,0.039 0.061,0.098 0.061,0.175l0,0.306l-0.125,0l0,-0.29c0,-0.047 -0.011,-0.082 -0.033,-0.105c-0.022,-0.024 -0.053,-0.036 -0.094,-0.036c-0.046,0 -0.082,0.014 -0.109,0.042c-0.027,0.027 -0.04,0.067 -0.04,0.119l0,0.27l-0.125,0l0,-0.534l0.119,0l0,0.069c0.021,-0.025 0.047,-0.043 0.078,-0.056c0.031,-0.013 0.067,-0.019 0.106,-0.019Z" style="fill:#fff;fill-rule:nonzero;"/></g><g transform="matrix(416.667,0,0,416.667,1493.68,2316.71)"><path d="M0.605,-0.742l0,0.742l-0.12,0l0,-0.069c-0.021,0.025 -0.046,0.044 -0.077,0.057c-0.03,0.013 -0.063,0.019 -0.1,0.019c-0.051,0 -0.097,-0.011 -0.138,-0.034c-0.041,-0.023 -0.074,-0.055 -0.097,-0.096c-0.023,-0.042 -0.035,-0.09 -0.035,-0.144c0,-0.054 0.012,-0.102 0.035,-0.143c0.023,-0.041 0.056,-0.073 0.097,-0.096c0.041,-0.023 0.087,-0.034 0.138,-0.034c0.035,0 0.068,0.006 0.097,0.018c0.029,0.012 0.054,0.03 0.075,0.054l0,-0.274l0.125,0Zm-0.282,0.642c0.03,0 0.057,-0.007 0.081,-0.021c0.024,-0.013 0.043,-0.033 0.057,-0.058c0.014,-0.025 0.021,-0.055 0.021,-0.088c0,-0.033 -0.007,-0.063 -0.021,-0.088c-0.014,-0.025 -0.033,-0.045 -0.057,-0.058c-0.024,-0.014 -0.051,-0.021 -0.081,-0.021c-0.03,0 -0.057,0.007 -0.081,0.021c-0.024,0.013 -0.043,0.033 -0.057,0.058c-0.014,0.025 -0.021,0.055 -0.021,0.088c0,0.033 0.007,0.063 0.021,0.088c0.014,0.025 0.033,0.045 0.057,0.059c0.024,0.013 0.051,0.02 0.081,0.02Z" style="fill:#fff;fill-rule:nonzero;"/></g><g transform="matrix(416.667,0,0,416.667,1779.93,2316.71)"><path d="M0.082,-0.534l0.125,0l0,0.534l-0.125,0l0,-0.534Zm0.063,-0.088c-0.023,0 -0.042,-0.007 -0.057,-0.021c-0.015,-0.015 -0.023,-0.033 -0.023,-0.054c0,-0.021 0.008,-0.039 0.023,-0.053c0.015,-0.015 0.034,-0.022 0.057,-0.022c0.023,0 0.042,0.007 0.057,0.021c0.015,0.013 0.023,0.03 0.023,0.051c0,0.022 -0.008,0.041 -0.022,0.056c-0.016,0.015 -0.035,0.022 -0.058,0.022Z" style="fill:#fff;fill-rule:nonzero;"/></g><g transform="matrix(416.667,0,0,416.667,1900.34,2316.71)"><path d="M0.385,-0.54c0.067,0 0.121,0.02 0.162,0.059c0.041,0.039 0.061,0.098 0.061,0.175l0,0.306l-0.125,0l0,-0.29c0,-0.047 -0.011,-0.082 -0.033,-0.105c-0.022,-0.024 -0.053,-0.036 -0.094,-0.036c-0.046,0 -0.082,0.014 -0.109,0.042c-0.027,0.027 -0.04,0.067 -0.04,0.119l0,0.27l-0.125,0l0,-0.534l0.119,0l0,0.069c0.021,-0.025 0.047,-0.043 0.078,-0.056c0.031,-0.013 0.067,-0.019 0.106,-0.019Z" style="fill:#fff;fill-rule:nonzero;"/></g><g transform="matrix(416.667,0,0,416.667,2187.84,2316.71)"><path d="M0.612,-0.534l0,0.453c0,0.188 -0.096,0.282 -0.288,0.282c-0.051,0 -0.1,-0.007 -0.146,-0.02c-0.046,-0.013 -0.084,-0.031 -0.114,-0.056l0.056,-0.094c0.023,0.019 0.053,0.035 0.089,0.046c0.035,0.012 0.071,0.018 0.108,0.018c0.059,0 0.102,-0.013 0.129,-0.04c0.027,-0.027 0.041,-0.067 0.041,-0.122l0,-0.028c-0.021,0.023 -0.047,0.041 -0.078,0.053c-0.031,0.012 -0.064,0.018 -0.101,0.018c-0.051,0 -0.096,-0.011 -0.137,-0.033c-0.041,-0.021 -0.074,-0.052 -0.097,-0.091c-0.024,-0.039 -0.036,-0.084 -0.036,-0.135c0,-0.051 0.012,-0.096 0.036,-0.135c0.023,-0.039 0.056,-0.069 0.097,-0.09c0.041,-0.021 0.086,-0.032 0.137,-0.032c0.039,0 0.074,0.006 0.106,0.019c0.031,0.013 0.058,0.032 0.079,0.058l0,-0.071l0.119,0Zm-0.285,0.404c0.047,0 0.086,-0.014 0.117,-0.042c0.03,-0.029 0.045,-0.066 0.045,-0.111c0,-0.045 -0.015,-0.081 -0.045,-0.109c-0.031,-0.028 -0.07,-0.042 -0.117,-0.042c-0.048,0 -0.087,0.014 -0.117,0.042c-0.031,0.028 -0.046,0.064 -0.046,0.109c0,0.045 0.015,0.082 0.046,0.111c0.03,0.028 0.069,0.042 0.117,0.042Z" style="fill:#fff;fill-rule:nonzero;"/></g></g><path d="M902.464,590.003l-50.775,-61.194c-37.697,40.316 -82.895,60.474 -135.593,60.474c-28.08,0 -53.276,-5.76 -75.586,-17.279c-22.31,-11.518 -39.812,-27.477 -52.506,-47.874c-12.694,-20.398 -19.041,-43.556 -19.041,-69.473c0,-31.197 7.309,-58.674 21.926,-82.431c14.617,-23.758 38.466,-47.155 71.547,-70.193c-16.156,-20.157 -27.696,-38.995 -34.62,-56.513c-6.924,-17.519 -10.385,-35.637 -10.385,-54.355c0,-35.516 10.674,-64.193 32.023,-86.03c21.348,-21.838 49.717,-32.757 85.106,-32.757c32.696,0 58.853,9.959 78.47,29.877c19.618,19.918 29.427,46.915 29.427,80.991c0,25.917 -6.443,48.955 -19.329,69.113c-12.886,20.158 -36.937,51.521 -66.171,72.159l89.333,106.98c16.239,-20.206 23.561,-38.153 32.257,-73.477l58.277,0c-5.486,61.192 -31.773,92.004 -48.314,124.16l89.087,107.822l-75.133,0Zm-167.904,-453.552c-15.771,0 -28.273,4.92 -37.505,14.759c-9.232,9.839 -17.835,20.683 -17.835,36.522c0,11.518 1.503,26.425 6.504,36.744c5,10.319 16.611,33.329 30.843,51.087c23.08,-15.838 42.13,-40.602 51.17,-52.361c9.039,-11.759 13.559,-24.597 13.559,-38.516c0,-14.878 -4.135,-26.637 -12.405,-35.276c-8.271,-8.639 -19.714,-12.959 -34.331,-12.959Zm-13.271,379.4c33.465,0 62.7,-12.719 87.702,-38.156l-106.743,-127.427c-23.079,15.839 -39.331,31.077 -48.756,45.715c-9.424,14.639 -14.136,31.077 -14.136,49.315c0,21.118 7.501,38.156 22.503,51.115c15.002,12.958 34.812,19.438 59.43,19.438Z" style="fill:#6a72a3;fill-rule:nonzero;"/><path d="M891.1,581.031l-50.776,-61.194c-37.696,40.316 -82.894,60.474 -135.592,60.474c-28.081,0 -53.276,-5.76 -75.586,-17.279c-22.31,-11.518 -39.812,-27.477 -52.506,-47.874c-12.694,-20.398 -19.041,-43.556 -19.041,-69.473c0,-31.197 7.309,-58.674 21.926,-82.431c14.617,-23.758 38.466,-47.155 71.547,-70.193c-16.156,-20.157 -27.696,-38.995 -34.62,-56.513c-6.924,-17.519 -10.386,-35.637 -10.386,-54.355c0,-35.516 10.675,-64.193 32.023,-86.03c21.349,-21.838 49.718,-32.757 85.106,-32.757c32.697,0 58.853,9.959 78.471,29.877c19.618,19.918 29.427,46.915 29.427,80.991c0,25.917 -6.443,48.955 -19.33,69.113c-12.886,20.158 -36.937,51.521 -66.171,72.159l89.333,106.98c16.24,-20.206 23.562,-38.153 32.258,-73.477l58.276,0c-5.485,61.192 -31.772,92.004 -48.313,124.16l89.086,107.822l-75.132,0Zm-167.905,-453.552c-15.771,0 -28.272,4.92 -37.504,14.759c-9.232,9.839 -17.835,20.683 -17.835,36.522c0,11.518 1.503,26.425 6.504,36.744c5,10.319 16.611,33.329 30.843,51.087c23.08,-15.838 42.13,-40.602 51.169,-52.361c9.04,-11.759 13.56,-24.597 13.56,-38.516c0,-14.878 -4.135,-26.637 -12.406,-35.276c-8.27,-8.639 -19.714,-12.959 -34.331,-12.959Zm-13.27,379.4c33.465,0 62.699,-12.719 87.702,-38.156l-106.743,-127.427c-23.08,15.839 -39.332,31.077 -48.756,45.715c-9.424,14.639 -14.136,31.077 -14.136,49.315c0,21.118 7.501,38.156 22.503,51.115c15.001,12.958 34.811,19.438 59.43,19.438Z" style="fill:#fff;fill-rule:nonzero;"/></svg>