<svg xmlns="http://www.w3.org/2000/svg" viewBox="0 0 48.28 42.17"><defs><style>.cls-1{fill:#fff;stroke:#fff;stroke-miterlimit:10;}</style></defs><title>logoBranding-light</title><g id="Layer_2" data-name="Layer 2"><g id="Layer_1-2" data-name="Layer 1"><path class="cls-1" d="M46.76,1.52a3.46,3.46,0,0,0-4.91,0L21.68,21.69l-2.45,7.36,7.36-2.45L44.91,8.28h0l1.85-1.85a3.46,3.46,0,0,0,0-4.91ZM44.55,7.19,41.09,3.73l1.49-1.49a2.45,2.45,0,0,1,3.45,0A2.45,2.45,0,0,1,46,5.7ZM20.86,27.42l1.61-4.86,3.25,3.25Zm5.69-2.23-3.46-3.46L40.36,4.46l3.46,3.46Z"/><path class="cls-1" d="M31.26,24.51a.51.51,0,0,0-.2.7,6.19,6.19,0,0,1-5.19,9.21,13.46,13.46,0,0,0,1.48-5.37.52.52,0,0,0-.49-.54.51.51,0,0,0-.54.48,12.5,12.5,0,0,1-1.59,5.37,6.24,6.24,0,0,1-4.65-3.43.5.5,0,0,0-.68-.24.51.51,0,0,0-.25.68,7.32,7.32,0,0,0,5,3.92,12.4,12.4,0,1,1-2.31-16.63.51.51,0,1,0,.65-.79,13.44,13.44,0,1,0,2.79,17.56l.39,0A7.21,7.21,0,0,0,32,24.71.51.51,0,0,0,31.26,24.51Z"/></g></g></svg>