<svg xmlns="http://www.w3.org/2000/svg" viewBox="0 0 259.49 260.08"><defs><style>.cls-1{stroke:#000;stroke-width:8px;}.cls-1,.cls-2{stroke-miterlimit:10;}.cls-2{fill:#ff5e4d;stroke:#ff5e4d;stroke-width:3px;}</style></defs><title>marketingDark</title><g id="Layer_2" data-name="Layer 2"><g id="Layer_1-2" data-name="Layer 1"><circle class="cls-1" cx="116.23" cy="143.86" r="29.01"/><path d="M175,113.63A66.21,66.21,0,1,1,146.34,85l1.11-12.76a78.16,78.16,0,1,0,40.3,40.24Z"/><path d="M210.92,95.84c9.23,15.54,9.53,28.67,9.53,48A104.23,104.23,0,1,1,116.23,39.63c19,0,31.89,1.14,47.27,10.09L172.24,41c-17.74-11-33.65-13.35-56-13.35A116.23,116.23,0,1,0,232.45,143.86c0-22.67-1.53-38.85-12.8-56.75Z"/><path class="cls-2" d="M214.69,44.79,218.25,4l-65.1,65.09L151.5,88a26.62,26.62,0,0,1-3.34,10.78l-1.54,2.74a42.55,42.55,0,0,1-7,9.19l-24.79,24.8c0,6,2.42,9.86,9.82,9.82L153,117a25.8,25.8,0,0,1,5-3.86l3.14-1.87A23.07,23.07,0,0,1,171,108l19.42-1.69,65.09-65.11Z"/></g></g></svg>