<svg xmlns="http://www.w3.org/2000/svg" viewBox="0 0 242.65 242.5"><defs><style>.cls-1{fill:none;stroke-width:12px;}.cls-1,.cls-2{stroke:#000;}.cls-1,.cls-2,.cls-4{stroke-miterlimit:10;}.cls-2{stroke-width:8px;}.cls-3,.cls-4{fill:#ff5e4d;}.cls-4{stroke:#ff5e4d;stroke-width:3px;}</style></defs><title>marketingBulls</title><g id="Layer_2" data-name="Layer 2"><g id="Layer_1-2" data-name="Layer 1"><path class="cls-1" d="M211.56,69.6c12.44,15.25,14.89,35.11,14.89,56.67A110.23,110.23,0,1,1,6,126.27C6,65.4,55.35,14.41,116.23,14.41c21.86,0,39.94,4.83,56.37,17"/><path class="cls-1" d="M179.3,91.92c7,11.11,9,20.26,9,34.35a72.11,72.11,0,1,1-144.21,0c0-39.82,31.28-72.11,71.11-72.11,12.44,0,20.29,0,35.37,9.71"/><circle class="cls-2" cx="116.23" cy="126.27" r="29.01"/><path class="cls-3" d="M147.45,107.18l22-22,20.15-1.75,53.05-53.07-33.28,2.91L212.27,0,159.22,53.05l-1.75,20.14L135.52,95.13Z"/><path class="cls-4" d="M139,93.81,114.85,118c0,6,2.42,9.86,9.82,9.81l24-24Z"/></g></g></svg>