<svg xmlns="http://www.w3.org/2000/svg" viewBox="0 0 1959.2 602.3"><defs><style>.cls-1{fill:#6a72a3;}.cls-1,.cls-2{stroke:#6a72a3;}.cls-1,.cls-2,.cls-3{stroke-miterlimit:10;stroke-width:10px;}.cls-2{fill:#060607;}.cls-3{fill:#fff;stroke:#fff;}</style></defs><title>onlinemarketing</title><g id="Layer_2" data-name="Layer 2"><g id="Layer_1-2" data-name="Layer 1"><g id="Layer_1-2-2" data-name="Layer 1-2"><path class="cls-1" d="M600.1,122.9c0,75.5-48.6,115.6-101.9,115.6-57.9,0-98.6-44.9-98.6-111.3C399.6,57.6,442.9,12,501.5,12,561.4,11.9,600.1,57.8,600.1,122.9Zm-170.2,3.6c0,46.9,25.4,88.9,70,88.9,44.9,0,70.3-41.3,70.3-91.1,0-43.6-22.8-89.2-70-89.2-46.9,0-70.3,43.2-70.3,91.4Z"/><path class="cls-1" d="M627.2,120c0-16.3-.3-29.6-1.3-42.6h25.4l1.6,26h.7c7.8-15,26-29.6,52.1-29.6,21.8,0,55.7,13,55.7,67v94.1H732.8V144.1c0-25.4-9.4-46.5-36.5-46.5-18.9,0-33.5,13.3-38.4,29.3a40.13,40.13,0,0,0-2,13.3v94.7H627.3V120Z"/><path class="cls-1" d="M788.1,23.8h28.7V234.9H788.1Z"/><rect class="cls-2" x="850.2" y="85.5" width="36.6" height="149.4"/><path class="cls-1" d="M868.8,67.7c11.4,0,22.5-11.8,22.2-21.6,0-10.1-10.8-21.9-21.6-21.9-10.4,0-21.9,11.8-21.9,21.9C847.5,55.9,858.7,67.7,868.8,67.7Z"/><polygon class="cls-1" points="818.2 270.4 818.2 510.9 854.8 510.9 855.7 270.6 818.2 270.4"/><path class="cls-1" d="M923.6,120c0-16.3-.3-29.6-1.3-42.6h25.4l1.6,26h.7c7.8-15,26-29.6,52.1-29.6,21.8,0,55.7,13,55.7,67v94.1h-28.7V144.1c0-25.4-9.4-46.5-36.5-46.5-18.9,0-33.5,13.3-38.4,29.3a42.9,42.9,0,0,0-2,13.3v94.7H923.6Z"/><path class="cls-1" d="M1109.4,162.3c.7,38.7,25.4,54.7,54,54.7,20.5,0,32.9-3.6,43.6-8.1l4.9,20.5c-10.1,4.6-27.3,9.8-52.4,9.8-48.5,0-77.5-31.9-77.5-79.4s28-84.9,73.9-84.9c51.4,0,65.1,45.2,65.1,74.2a120.8,120.8,0,0,1-1,13.4Zm84-20.5c.3-18.2-7.5-46.5-39.7-46.5-29,0-41.7,26.7-43.9,46.5Z"/><path class="cls-1" d="M336.9,359.7c-2.7-48.5-6-93.8-5.5-137.2h-1.6c-12.6,40.8-27.9,71.1-46.5,119.1L218.2,510.4H182.1L122.5,344.7c-17.5-49-32.3-80.9-42.6-122.2H78.8c-1.1,43.4-3.8,88.7-7.1,140.8L61.9,512.5H16.5L42.2,177.6h60.7l62.9,155.3c15.3,42.8,27.9,81,37.2,117.2h1.6c9.3-35.1,22.4-73.3,38.8-117.2L309,177.6h60.7l23,334.9H346.2Z"/><path class="cls-1" d="M581.5,512.5,577.7,481H576c-14.7,19.6-43.2,37.1-80.9,37.1-53.6,0-80.9-35.6-80.9-71.7,0-60.4,56.9-93.4,159.1-92.9v-5.2c0-20.6-6-44.8-60.1-44.8-24.6,0-50.3-5.8-68.9,5.6l-10.9-16.9C455.3,278.8,487,270,520.3,270c80.9,0,100.6,39.1,100.6,89.2v93.4c0,21.7,1.1,42.8,4.4,59.9ZM574.4,385c-52.5-1-112.1,7.7-112.1,56.3,0,29.4,20.8,43.4,45.4,43.4,34.4,0,56.3-20.6,64-41.8a44.36,44.36,0,0,0,2.7-14.5Z"/><path class="cls-1" d="M658.9,340.6c0-29.4-.5-41.7-2.2-64.9h42.1l1.6,36h2.2c12-33.5,41-41.7,73.3-41.7a57.54,57.54,0,0,1,13.7,1.5v29.8a75.3,75.3,0,0,0-16.4-1.5c-33.9,0-58,24.3-64.5,58.3a126,126,0,0,0-2.2,21.2V512.5H658.9V340.6Z"/><path class="cls-1" d="M857.5,348.9l78.6-73.2h58L891.9,365.4l116.5,147.1H949.9L857.6,392.8V348.9Z"/><path class="cls-1" d="M1038,395.8c1.1,61.4,42.7,86.7,90.8,86.7,34.4,0,55.2-5.7,73.3-12.9l8.2,32.5c-16.9,7.2-45.9,15.5-88,15.5-81.5,0-130.1-50.6-130.1-125.9s47-121.7,124.1-121.7c86.4,0,109.3,58.7,109.3,104.7a166.66,166.66,0,0,1-1.6,21.2Zm141-32.5c.6-28.9-12.6-60.8-66.7-60.8-48.7,0-70,29.3-73.8,60.8Z"/><path class="cls-1" d="M1302.5,203.9v71.7h68.9v34.6h-68.9V431.9c0,31,9.3,48.5,36.1,48.5a113.7,113.7,0,0,0,27.9-3.1l2.2,34.1c-9.3,3.6-24.1,6.2-42.6,6.2-22.4,0-40.5-6.7-51.9-19.1-13.7-13.4-18.6-35.6-18.6-65V310.2h-41V275.6h41V215.7Z"/><path class="cls-1" d="M1444.5,205.5c.5,15.5-11.5,27.9-30.6,27.9-16.9,0-29-12.4-29-27.9,0-16,12.6-28.4,30.1-28.4C1433,177.1,1444.5,189.5,1444.5,205.5Zm-53.6,307V275.7H1439V512.5Z"/><path class="cls-1" d="M1469.3,330.3c0-25.8-.6-34-2.2-54.6h42.6l2.7,28.3h1.1c13.1-23.8,31.7-34,75.5-34,36.6,0,93.5,7.6,93.5,93.3V512.5h-48.1v-144c0-40.3-15.9-60.8-61.2-60.8-31.7,0-44.3,8.2-52.5,33.5-2.2,5.7-3.3,13.4-3.3,21.2V512.6h-48.1Z"/><path class="cls-1" d="M1954.2,275.7c-1.1,18.1-2.2,25.2-2.2,55.6v145c0,57.3-12,69.4-37.7,91.1-25.7,22.7-62.9,29.9-96.2,29.9-31.7,0-66.7-7.2-88-20.6l12-34.6c17.5,10.3,44.8,19.6,77.6,19.6,49.2,0,85.3-24.3,85.3-87.2v-4.8h-1.1c-14.8,23.2-43.2,41.8-84.2,41.8-65.6,0-112.6-52.7-112.6-121.8,0-84.6,58.5-119.6,119.2-119.6,45.9,0,71.1,9.7,82.6,30.4h1.1l2.2-24.7h42Zm-49.8,85.5c0-7.8-.5-14.5-2.7-20.6-8.8-26.3-32.3-35-67.3-35-45.9,0-78.7,23.6-78.7,81.4,0,49,26.2,89.8,78.2,89.8,29.5,0,56.3-17.6,66.7-46.5a74,74,0,0,0,3.8-24.3Z"/><path class="cls-3" d="M590,115.9c0,75.5-45.9,115.6-101.9,115.6-57.9,0-98.6-44.9-98.6-111.3C389.5,50.5,432.8,5,491.4,5,551.2,4.9,590,50.8,590,115.9Zm-170.2,3.6c0,46.9,25.4,88.9,70,88.9,44.9,0,70.3-41.3,70.3-91.1,0-43.6-22.8-89.2-70-89.2-46.9-.1-70.3,43.2-70.3,91.4Z"/><path class="cls-3" d="M618,113c0-16.3-.3-29.6-1.3-42.6h25.4l1.6,26h.7c7.8-15,26-29.6,52.1-29.6,21.8,0,55.7,13,55.7,67V228H723.6V137.1c0-25.4-9.4-46.5-36.5-46.5-18.9,0-33.5,13.3-38.4,29.3a40.13,40.13,0,0,0-2,13.3V228H618.1V113Z"/><path class="cls-3" d="M778.9,16.8h28.7V227.9H778.9Z"/><path class="cls-3" d="M859.7,60.7c11.4,0,22.5-11.8,22.2-21.6,0-10.1-10.8-21.9-21.6-21.9-10.4,0-21.9,11.8-21.9,21.9C838.4,48.8,849.6,60.7,859.7,60.7Z"/><rect class="cls-3" x="841" y="79.3" width="36.6" height="149.4"/><path class="cls-3" d="M832.3,264.5c-7.8-.1-15.5-.2-23.3-.2V503.9h36.6V264.8Z"/><path class="cls-3" d="M914.4,113c0-16.3-.3-29.6-1.3-42.6h25.4l1.6,26h.7c7.8-15,26-29.6,52.1-29.6,21.8,0,55.7,13,55.7,67V228H1020V137.1c0-25.4-9.4-46.5-36.5-46.5-18.9,0-33.5,13.3-38.4,29.3a40.13,40.13,0,0,0-2,13.3V228H914.5V113Z"/><path class="cls-3" d="M1100.3,155.3c.7,38.7,25.4,54.7,54,54.7,20.5,0,32.9-3.6,43.6-8.1l4.9,20.5c-10.1,4.6-27.3,9.8-52.4,9.8-48.5,0-77.5-31.9-77.5-79.4s28-84.9,73.9-84.9c51.4,0,65.1,45.2,65.1,74.2a120.8,120.8,0,0,1-1,13.4H1100.3Zm84-20.5c.3-18.2-7.5-46.5-39.7-46.5-29,0-41.7,26.7-43.9,46.5Z"/><path class="cls-3" d="M325.8,350.7c-2.7-48.5-6-93.8-5.5-137.2h-1.6c-12.6,40.8-27.9,71.1-46.5,119.1L207.1,501.4H171L111.4,335.7c-17.4-49-32.3-80.9-42.6-122.2H67.7c-1.1,43.4-3.8,88.7-7.1,140.8L50.8,503.5H5.4L31.1,168.6H91.8l62.9,155.3c15.3,42.8,27.9,81,37.2,117.2h1.6c9.3-35.1,22.4-73.3,38.8-117.2l65.6-155.3h60.7l23,334.9H335.1Z"/><path class="cls-3" d="M570.4,503.4l-3.8-31.5H565c-14.8,19.6-43.2,37.2-80.9,37.2-53.6,0-80.9-35.6-80.9-71.7,0-60.4,56.9-93.4,159.1-92.9v-5.2c0-20.6-6-44.8-60.1-44.8-24.6,0-50.3-5.8-68.9,5.6l-10.9-16.9C444.3,269.8,476,261,509.3,261c80.9,0,100.6,39.1,100.6,89.2v93.4c0,21.7,1.1,42.8,4.4,59.9Zm-7.1-127.5c-52.5-1-112.1,7.7-112.1,56.3,0,29.4,20.8,43.4,45.4,43.4,34.4,0,56.3-20.6,64-41.8a44.36,44.36,0,0,0,2.7-14.5Z"/><path class="cls-3" d="M647.8,331.6c0-29.4-.5-41.7-2.2-64.9h42.1l1.6,36h2.2c12-33.5,41-41.7,73.3-41.7a52.92,52.92,0,0,1,13.7,1.6v42.8a75.3,75.3,0,0,0-16.4-1.5c-33.9,0-58,11.3-64.5,45.3a126,126,0,0,0-2.2,21.2V503.6H647.8v-172Z"/><path class="cls-3" d="M846.4,339.8,925,266.6h58L880.7,356.4,997.2,503.5H938.7L846.4,383.8Z"/><path class="cls-3" d="M1026.9,386.8c1.1,61.4,42.7,86.7,90.8,86.7,34.4,0,55.2-5.7,73.3-12.9l8.2,32.5c-16.9,7.2-45.9,15.5-88,15.5-81.5,0-130.1-50.6-130.1-125.9s47-121.8,124.1-121.8c86.4,0,109.3,58.7,109.3,104.7a166.66,166.66,0,0,1-1.6,21.2Zm141-32.5c.6-28.9-12.6-60.8-66.7-60.8-48.7,0-70,29.3-73.8,60.8Z"/><path class="cls-3" d="M1291.4,194.9v71.8h68.9v34.5h-68.9V422.9c0,31,9.3,48.5,36.1,48.5a113.7,113.7,0,0,0,27.9-3.1l2.2,34.1c-9.3,3.6-24.1,6.2-42.6,6.2-22.4,0-40.5-6.7-51.9-19.1-13.7-13.4-18.6-35.6-18.6-65V301.2h-41V266.6h41V206.7Z"/><path class="cls-3" d="M1433.4,196.4c.5,15.5-11.5,27.9-30.6,27.9-17,0-29-12.4-29-27.9,0-16,12.6-28.4,30.1-28.4C1421.9,168.1,1433.4,180.4,1433.4,196.4Zm-53.6,307V266.6h48.1V503.4Z"/><path class="cls-3" d="M1458.2,321.3c0-25.8-.6-34-2.2-54.6h42.6l2.7,41.3h1.1c13.1-23.8,31.7-47,75.5-47,36.6,0,93.5,7.6,93.5,93.3V503.5h-48.1v-144c0-40.3-15.9-60.8-61.2-60.8-31.7,0-44.3,8.2-52.5,33.5-2.2,5.7-3.3,13.4-3.3,21.2V503.6h-48.1Z"/><path class="cls-3" d="M1943,266.6c-1.1,18.1-2.2,25.2-2.2,55.6v145c0,57.3-12,69.4-37.7,91.1-25.7,22.7-62.9,29.9-96.2,29.9-31.7,0-66.7-7.2-88-20.6l12-34.6c17.5,10.3,44.8,19.6,77.6,19.6,49.2,0,85.3-24.3,85.3-87.2v-4.8h-1.1c-14.8,23.2-43.2,41.8-84.2,41.8-65.6,0-112.6-52.7-112.6-121.8,0-84.7,58.5-119.7,119.2-119.7,45.9,0,71.1,22.7,82.6,43.4h1.1l2.2-37.7Zm-49.7,85.6c0-7.8-.5-14.5-2.7-20.6-8.8-26.3-32.3-35-67.3-35-45.9,0-78.7,23.6-78.7,81.4,0,49,26.2,89.8,78.2,89.8,29.5,0,56.3-17.5,66.7-46.5a74,74,0,0,0,3.8-24.3Z"/></g></g></g></svg>