<svg xmlns="http://www.w3.org/2000/svg" viewBox="0 0 1944.76 616.41"><defs><style>.cls-1{fill:#6a72a3;}.cls-2{fill:#fff;}</style></defs><title>onlinemarketing</title><g id="Layer_2" data-name="Layer 2"><g id="Layer_1-2" data-name="Layer 1"><path class="cls-1" d="M573.71,118c0,75.51-45.89,115.55-101.87,115.55-57.94,0-98.62-44.92-98.62-111.32C373.22,52.59,416.51,7,475.09,7,535,7,573.71,52.91,573.71,118Zm-170.22,3.58c0,46.87,25.38,88.86,70,88.86,44.91,0,70.3-41.34,70.3-91.14,0-43.61-22.78-89.18-70-89.18C426.92,30.13,403.49,73.42,403.49,121.59Z"/><path class="cls-1" d="M587.78,115.08c0-16.27-.33-29.62-1.3-42.64h25.38l1.63,26h.65c7.81-15,26-29.62,52.08-29.62,21.81,0,55.66,13,55.66,67.05V230H693.23V139.17c0-25.39-9.43-46.55-36.45-46.55-18.88,0-33.52,13.35-38.41,29.29a41.32,41.32,0,0,0-2,13.35V230H587.78Z"/><path class="cls-1" d="M748.68,18.88h28.64V230H748.68Z"/><path class="cls-1" d="M851.65,41.18c.33,9.76-10.83,21.57-22.22,21.57-10.09,0-21.25-11.81-21.25-21.57,0-10.09,11.48-21.91,21.9-21.91C840.82,19.27,851.65,31.09,851.65,41.18ZM810.76,509V81.44H847.4V509Z"/><path class="cls-1" d="M884.18,115.08c0-16.27-.33-29.62-1.3-42.64h25.39l1.62,26h.65c7.82-15,26-29.62,52.08-29.62,21.81,0,55.66,13,55.66,67.05V230H989.64V139.17c0-25.39-9.44-46.55-36.46-46.55-18.88,0-33.52,13.35-38.41,29.29a41.32,41.32,0,0,0-1.95,13.35V230H884.18Z"/><path class="cls-1" d="M1056,156.42c.65,38.73,25.39,54.68,54,54.68,20.51,0,32.88-3.58,43.62-8.14l4.88,20.51c-10.09,4.55-27.34,9.76-52.4,9.76-48.5,0-77.47-31.9-77.47-79.42s28-84.95,73.89-84.95c51.42,0,65.09,45.24,65.09,74.21a109.51,109.51,0,0,1-1,13.35Zm84-20.51c.32-18.23-7.49-46.54-39.71-46.54-29,0-41.66,26.69-43.94,46.54Z"/><path class="cls-1" d="M327.5,355.77c-2.74-48.52-6-106.84-5.47-150.2h-1.64c-12.58,40.78-27.88,84.13-46.47,132.13L208.86,506.48H172.78L113.19,340.8c-17.49-49-32.26-93.94-42.64-135.23h-1.1c-1.09,43.36-3.82,101.68-7.1,153.81L52.51,508.54H7.13L32.82,160.67H93.51l62.87,168.26c15.31,42.84,27.88,81,37.17,117.16h1.64c9.3-35.1,22.42-73.29,38.82-117.16l65.6-168.26H360.3l23,347.87H336.79Z"/><path class="cls-1" d="M572.11,508.54l-3.83-31.48h-1.64c-14.76,19.61-43.19,37.16-80.91,37.16-53.57,0-80.91-35.61-80.91-71.74,0-60.39,56.86-93.42,159.09-92.91v-5.16c0-20.64-6-57.8-60.14-57.8-24.6,0-50.29,7.22-68.88,18.58L424,275.25c21.86-13.42,53.57-22.19,86.92-22.19,80.91,0,100.59,52.13,100.59,102.19v93.42c0,21.68,1.1,42.84,4.38,59.87ZM565,381.06c-52.48-1-112.07,7.74-112.07,56.26,0,29.41,20.78,43.35,45.38,43.35,34.44,0,56.31-20.64,64-41.81A45,45,0,0,0,565,424.41Z"/><path class="cls-1" d="M649.55,336.67c0-29.42-.55-54.71-2.19-77.94h42.1l1.64,49h2.19c12-33.55,41-54.71,73.25-54.71a54.58,54.58,0,0,1,13.67,1.55v42.83a76.57,76.57,0,0,0-16.4-1.54c-33.89,0-57.95,24.25-64.51,58.32a121.21,121.21,0,0,0-2.19,21.16V508.54H649.55Z"/><path class="cls-1" d="M848.12,344.93l78.63-86.2h58L882.47,361.44l116.44,147.1H940.42L848.12,388.8Z"/><path class="cls-1" d="M1028.59,391.9c1.1,61.42,42.64,86.71,90.75,86.71,34.45,0,55.22-5.68,73.26-12.91l8.2,32.52c-17,7.22-45.92,15.48-88,15.48-81.45,0-130.11-50.58-130.11-125.93s47-134.71,124.1-134.71c86.38,0,109.34,71.74,109.34,117.67a161.42,161.42,0,0,1-1.64,21.17Zm141.05-32.52c.55-28.9-12.57-73.81-66.7-73.81-48.65,0-70,42.33-73.8,73.81Z"/><path class="cls-1" d="M1293.09,187v71.74H1362v34.59h-68.89V428c0,31,9.3,48.51,36.09,48.51a113,113,0,0,0,27.88-3.1l2.18,34.07c-9.29,3.61-24,6.19-42.64,6.19-22.41,0-40.45-6.71-51.93-19.09-13.67-13.42-18.59-35.62-18.59-65V293.32h-41V258.73h41V198.86Z"/><path class="cls-1" d="M1435.12,188.54c.55,15.49-11.48,27.87-30.61,27.87-17,0-29-12.38-29-27.87,0-16,12.58-28.39,30.07-28.39C1423.64,160.15,1435.12,172.54,1435.12,188.54Zm-53.57,320V258.73h48.11V508.54Z"/><path class="cls-1" d="M1459.92,326.35c0-25.81-.54-47-2.18-67.62h42.64l2.73,41.3h1.1c13.12-23.75,31.73-47,75.47-47,36.63,0,93.48,20.64,93.48,106.32V508.54h-48.11v-144c0-40.26-15.85-73.81-61.23-73.81-31.71,0-44.31,21.17-52.51,46.46-2.18,5.67-3.28,13.42-3.28,21.16V508.54h-48.11Z"/><path class="cls-1" d="M1944.76,258.73c-1.09,18.07-2.19,38.2-2.19,68.65v145c0,57.29-12,92.39-37.72,114.07-25.69,22.71-62.87,29.93-96.22,29.93-31.71,0-66.7-7.22-88-20.64l12-34.58c17.49,10.32,44.83,19.61,77.63,19.61,49.2,0,85.29-24.26,85.29-87.23V465.7h-1.1c-14.76,23.23-43.19,41.81-84.19,41.81-65.6,0-112.62-52.65-112.62-121.81,0-84.64,58.5-132.64,119.18-132.64,45.92,0,71.07,22.71,82.55,43.35h1.1l2.18-37.68ZM1895,357.32c0-7.75-.55-14.46-2.73-20.65-8.75-26.32-32.26-48-67.25-48-45.92,0-78.72,36.65-78.72,94.45,0,49,26.24,89.81,78.18,89.81,29.52,0,56.31-17.55,66.69-46.45a74.83,74.83,0,0,0,3.83-24.26Z"/><path class="cls-2" d="M566.58,111c0,75.51-45.89,115.55-101.87,115.55-57.94,0-98.62-44.92-98.62-111.32C366.09,45.57,409.38,0,468,0,527.85,0,566.58,45.89,566.58,111Zm-170.22,3.58c0,46.87,25.38,88.86,70,88.86,44.92,0,70.31-41.34,70.31-91.14,0-43.61-22.78-89.18-70-89.18C419.79,23.11,396.36,66.4,396.36,114.57Z"/><path class="cls-2" d="M580.65,108.06c0-16.27-.33-29.62-1.3-42.64h25.38l1.63,26H607c7.81-15,26-29.62,52.08-29.62,21.81,0,55.66,13,55.66,67V223H686.1V132.15c0-25.39-9.43-46.55-36.45-46.55-18.88,0-33.52,13.35-38.41,29.3a41.22,41.22,0,0,0-2,13.34V223H580.65Z"/><path class="cls-2" d="M741.55,11.86h28.64V223H741.55Z"/><path class="cls-2" d="M844.52,34.16c.33,9.76-10.83,21.57-22.22,21.57C812.21,55.73,801,43.92,801,34.16c0-10.09,11.49-21.91,21.91-21.91C833.69,12.25,844.52,24.07,844.52,34.16ZM803.63,502V74.42h36.64V502Z"/><path class="cls-2" d="M877.05,108.06c0-16.27-.33-29.62-1.3-42.64h25.38l1.63,26h.65c7.82-15,26-29.62,52.08-29.62,21.81,0,55.66,13,55.66,67V223H982.51V132.15c0-25.39-9.44-46.55-36.46-46.55-18.88,0-33.52,13.35-38.41,29.3a41.22,41.22,0,0,0-1.95,13.34V223H877.05Z"/><path class="cls-2" d="M1048.9,149.4c.65,38.73,25.39,54.68,54,54.68,20.51,0,32.88-3.58,43.62-8.14l4.88,20.51c-10.09,4.55-27.34,9.76-52.4,9.76-48.5,0-77.47-31.9-77.47-79.42s28-84.95,73.89-84.95c51.42,0,65.09,45.24,65.09,74.21a109.51,109.51,0,0,1-1,13.35Zm84-20.51c.32-18.22-7.49-46.54-39.71-46.54-29,0-41.67,26.69-43.94,46.54Z"/><path class="cls-2" d="M320.36,348.75c-2.73-48.52-6-106.84-5.46-150.2h-1.64c-12.58,40.78-27.88,84.13-46.47,132.13L201.73,499.46H165.65L106.06,333.78c-17.49-49-32.26-93.93-42.64-135.23h-1.1c-1.09,43.36-3.82,101.68-7.1,153.81L45.38,501.52H0L25.69,153.65H86.38l62.87,168.26c15.31,42.84,27.88,81,37.17,117.16h1.64c9.3-35.1,22.42-73.29,38.82-117.16l65.6-168.26h60.69l23,347.87H329.66Z"/><path class="cls-2" d="M565,501.52,561.15,470h-1.64c-14.76,19.61-43.19,37.16-80.91,37.16-53.57,0-80.91-35.61-80.91-71.74,0-60.39,56.86-93.42,159.09-92.91v-5.16c0-20.64-6-57.8-60.14-57.8-24.6,0-50.29,7.22-68.88,18.58l-10.93-29.94C438.69,254.81,470.4,246,503.75,246c80.91,0,100.59,52.13,100.59,102.19v93.42c0,21.68,1.1,42.84,4.38,59.87ZM557.87,374c-52.48-1-112.07,7.74-112.07,56.26,0,29.42,20.77,43.35,45.38,43.35,34.44,0,56.31-20.64,64-41.81a45,45,0,0,0,2.73-14.45Z"/><path class="cls-2" d="M642.42,329.65c0-29.42-.55-54.71-2.19-77.93h42.1l1.64,49h2.19c12-33.55,41-54.71,73.25-54.71a54.58,54.58,0,0,1,13.67,1.55v42.84a75.89,75.89,0,0,0-16.4-1.55c-33.89,0-57.95,24.26-64.51,58.32A121.21,121.21,0,0,0,690,368.36V501.52H642.42Z"/><path class="cls-2" d="M841,337.91l78.63-86.19h58L875.34,354.43,991.78,501.52H933.29L841,381.78Z"/><path class="cls-2" d="M1021.46,384.88c1.09,61.42,42.64,86.71,90.75,86.71,34.45,0,55.22-5.68,73.26-12.91l8.2,32.52c-17,7.23-45.92,15.48-88,15.48-81.46,0-130.11-50.58-130.11-125.93s47-134.71,124.1-134.71C1186,246,1209,317.78,1209,363.72a163.18,163.18,0,0,1-1.64,21.16Zm141-32.52c.55-28.9-12.57-73.81-66.7-73.81-48.65,0-70,42.33-73.8,73.81Z"/><path class="cls-2" d="M1286,180v71.75h68.89V286.3H1286V421c0,31,9.3,48.51,36.09,48.51a113.56,113.56,0,0,0,27.88-3.09l2.18,34.06c-9.29,3.61-24,6.19-42.64,6.19-22.41,0-40.45-6.71-51.93-19.09-13.67-13.42-18.59-35.62-18.59-65V286.3h-41V251.72h41V191.85Z"/><path class="cls-2" d="M1428,181.52c.55,15.49-11.48,27.87-30.61,27.87-17,0-29-12.38-29-27.87,0-16,12.58-28.38,30.07-28.38C1416.51,153.14,1428,165.52,1428,181.52Zm-53.57,320V251.72h48.11v249.8Z"/><path class="cls-2" d="M1452.79,319.33c0-25.81-.54-47-2.18-67.61h42.64L1496,293h1.09c13.13-23.75,31.74-47,75.48-47,36.63,0,93.48,20.64,93.48,106.32V501.52h-48.11v-144c0-40.26-15.85-73.8-61.23-73.8-31.71,0-44.31,21.16-52.51,46.45-2.18,5.67-3.28,13.42-3.28,21.16V501.52h-48.11Z"/><path class="cls-2" d="M1937.63,251.72c-1.09,18.06-2.19,38.19-2.19,68.64v145c0,57.29-12,92.39-37.72,114.07-25.69,22.71-62.87,29.93-96.22,29.93-31.71,0-66.7-7.22-88-20.64l12-34.58c17.49,10.32,44.83,19.61,77.63,19.61,49.2,0,85.29-24.26,85.29-87.23V458.68h-1.1c-14.76,23.23-43.19,41.81-84.19,41.81-65.6,0-112.62-52.65-112.62-121.81C1690.52,294,1749,246,1809.7,246c45.92,0,71.07,22.71,82.55,43.35h1.1l2.18-37.67Zm-49.75,98.58c0-7.75-.55-14.46-2.73-20.65-8.75-26.32-32.26-48-67.25-48-45.92,0-78.72,36.65-78.72,94.45,0,49,26.24,89.81,78.18,89.81,29.52,0,56.31-17.55,66.69-46.45a74.79,74.79,0,0,0,3.83-24.26Z"/></g></g></svg>