<?xml version="1.0" encoding="utf-8"?>
<!-- Generator: Adobe Illustrator 23.1.0, SVG Export Plug-In . SVG Version: 6.00 Build 0)  -->
<svg version="1.1" id="Layer_1" xmlns="http://www.w3.org/2000/svg" xmlns:xlink="http://www.w3.org/1999/xlink" x="0px" y="0px"
	 viewBox="0 0 1959.4 628.4" style="enable-background:new 0 0 1959.4 628.4;" xml:space="preserve">
<style type="text/css">
	.st0{fill:#060607;stroke:#6A72A3;stroke-width:10;stroke-miterlimit:10;}
	.st1{fill:#6A72A3;stroke:#6A72A3;stroke-width:10;stroke-miterlimit:10;}
	.st2{fill:#FFFFFF;stroke:#FFFFFF;stroke-width:10;stroke-miterlimit:10;}
</style>
<rect x="-343.7" y="760.8" class="st0" width="2513.7" height="1374.3"/>
<title>onlinemarketing</title>
<g>
	<g id="Layer_1-2">
		<path class="st1" d="M600.1,113c0,75.5-48.6,115.6-101.9,115.6c-57.9,0-98.6-44.9-98.6-111.3C399.6,47.6,442.9,2,501.5,2
			C561.4,2,600.1,47.9,600.1,113z M429.9,116.6c0,46.9,25.4,88.9,70,88.9c44.9,0,70.3-41.3,70.3-91.1c0-43.6-22.8-89.2-70-89.2
			C453.3,25.1,429.9,68.4,429.9,116.6L429.9,116.6z"/>
		<path class="st1" d="M627.2,110.1c0-16.3-0.3-29.6-1.3-42.6h25.4l1.6,26h0.7c7.8-15,26-29.6,52.1-29.6c21.8,0,55.7,13,55.7,67V225
			h-28.6v-90.8c0-25.4-9.4-46.6-36.5-46.6c-18.9,0-33.5,13.3-38.4,29.3c-1.4,4.3-2.1,8.8-2,13.3V225h-28.6V110.1z"/>
		<path class="st1" d="M788.1,13.9h28.7V225h-28.7V13.9z"/>
		<rect x="850.1" y="75.6" class="st0" width="36.6" height="149.4"/>
		<path class="st1" d="M868.8,57.8c11.4,0,22.5-11.8,22.2-21.6c0-10.1-10.8-21.9-21.6-21.9c-10.4,0-21.9,11.8-21.9,21.9
			C847.5,45.9,858.7,57.8,868.8,57.8z"/>
		<polygon class="st1" points="818.1,260.5 818.1,514 854.8,514 855.7,260.7 		"/>
		<path class="st1" d="M923.6,110.1c0-16.3-0.3-29.6-1.3-42.6h25.4l1.6,26h0.7c7.8-15,26-29.6,52.1-29.6c21.8,0,55.7,13,55.7,67V225
			H1029v-90.8c0-25.4-9.4-46.6-36.5-46.6c-18.9,0-33.5,13.3-38.4,29.3c-1.4,4.3-2,8.8-2,13.3V225h-28.6V110.1z"/>
		<path class="st1" d="M1109.4,152.4c0.7,38.7,25.4,54.7,54,54.7c20.5,0,32.9-3.6,43.6-8.1l4.9,20.5c-10.1,4.6-27.3,9.8-52.4,9.8
			c-48.5,0-77.5-31.9-77.5-79.4s28-84.9,73.9-84.9c51.4,0,65.1,45.2,65.1,74.2c-0.1,4.5-0.4,8.9-1,13.4L1109.4,152.4z M1193.4,131.9
			c0.3-18.2-7.5-46.5-39.7-46.5c-29,0-41.7,26.7-43.9,46.5H1193.4z"/>
		<path class="st1" d="M336.9,362.8c-2.7-48.5-6-106.8-5.5-150.2h-1.6c-12.6,40.8-27.9,84.1-46.5,132.1l-65.1,168.8h-36.1
			l-59.6-165.7c-17.5-49-32.3-93.9-42.6-135.2h-1.1c-1.1,43.4-3.8,101.7-7.1,153.8l-9.8,149.2H16.5l25.7-347.9h60.7l62.9,168.3
			c15.3,42.8,27.9,81,37.2,117.2h1.6c9.3-35.1,22.4-73.3,38.8-117.2L309,167.7h60.7l23,347.9h-46.5L336.9,362.8z"/>
		<path class="st1" d="M581.5,515.5l-3.8-31.5H576c-14.8,19.6-43.2,37.2-80.9,37.2c-53.6,0-80.9-35.6-80.9-71.7
			c0-60.4,56.9-93.4,159.1-92.9v-5.2c0-20.6-6-57.8-60.1-57.8c-24.6,0-50.3,7.2-68.9,18.6l-10.9-29.9c21.9-13.4,53.6-22.2,86.9-22.2
			c80.9,0,100.6,52.1,100.6,102.2v93.4c0,21.7,1.1,42.8,4.4,59.9H581.5z M574.4,388.1c-52.5-1-112.1,7.7-112.1,56.3
			c0,29.4,20.8,43.4,45.4,43.4c34.4,0,56.3-20.6,64-41.8c1.7-4.6,2.6-9.5,2.7-14.5L574.4,388.1z"/>
		<path class="st1" d="M658.9,343.7c0-29.4-0.5-54.7-2.2-77.9h42.1l1.6,49h2.2c12-33.5,41-54.7,73.3-54.7c4.6-0.1,9.2,0.5,13.7,1.5
			v42.8c-5.4-1.1-10.9-1.6-16.4-1.5c-33.9,0-58,24.3-64.5,58.3c-1.3,7-2.1,14.1-2.2,21.2v133.2h-47.6V343.7z"/>
		<path class="st1" d="M857.5,351.9l78.6-86.2h58L891.8,368.4l116.5,147.1h-58.5l-92.3-119.7V351.9z"/>
		<path class="st1" d="M1038,398.9c1.1,61.4,42.7,86.7,90.8,86.7c34.4,0,55.2-5.7,73.3-12.9l8.2,32.5c-16.9,7.2-45.9,15.5-88,15.5
			c-81.5,0-130.1-50.6-130.1-125.9s47-134.7,124.1-134.7c86.4,0,109.3,71.7,109.3,117.7c-0.1,7.1-0.6,14.2-1.6,21.2L1038,398.9z
			 M1179,366.4c0.6-28.9-12.6-73.8-66.7-73.8c-48.7,0-70,42.3-73.8,73.8H1179z"/>
		<path class="st1" d="M1302.5,194v71.7h68.9v34.6h-68.9V435c0,31,9.3,48.5,36.1,48.5c9.4,0.1,18.8-0.9,27.9-3.1l2.2,34.1
			c-9.3,3.6-24.1,6.2-42.6,6.2c-22.4,0-40.5-6.7-51.9-19.1c-13.7-13.4-18.6-35.6-18.6-65V300.3h-41v-34.6h41v-59.9L1302.5,194z"/>
		<path class="st1" d="M1444.5,195.5c0.5,15.5-11.5,27.9-30.6,27.9c-16.9,0-29-12.4-29-27.9c0-16,12.6-28.4,30.1-28.4
			C1433,167.1,1444.5,179.5,1444.5,195.5z M1390.9,515.5V265.7h48.1v249.8H1390.9z"/>
		<path class="st1" d="M1469.3,333.4c0-25.8-0.6-47-2.2-67.6h42.6l2.7,41.3h1.1c13.1-23.8,31.7-47,75.5-47
			c36.6,0,93.5,20.6,93.5,106.3v149.2h-48.1v-144c0-40.3-15.9-73.8-61.2-73.8c-31.7,0-44.3,21.2-52.5,46.5
			c-2.2,5.7-3.3,13.4-3.3,21.2v150.2h-48.1V333.4z"/>
		<path class="st1" d="M1954.1,265.7c-1.1,18.1-2.2,38.2-2.2,68.6v145c0,57.3-12,92.4-37.7,114.1c-25.7,22.7-62.9,29.9-96.2,29.9
			c-31.7,0-66.7-7.2-88-20.6l12-34.6c17.5,10.3,44.8,19.6,77.6,19.6c49.2,0,85.3-24.3,85.3-87.2v-27.8h-1.1
			c-14.8,23.2-43.2,41.8-84.2,41.8c-65.6,0-112.6-52.6-112.6-121.8c0-84.6,58.5-132.6,119.2-132.6c45.9,0,71.1,22.7,82.6,43.4h1.1
			l2.2-37.7H1954.1z M1904.4,364.3c0-7.8-0.5-14.5-2.7-20.6c-8.8-26.3-32.3-48-67.3-48c-45.9,0-78.7,36.6-78.7,94.4
			c0,49,26.2,89.8,78.2,89.8c29.5,0,56.3-17.5,66.7-46.5c2.6-7.8,3.9-16,3.8-24.3V364.3z"/>
		<path class="st2" d="M590,106c0,75.5-45.9,115.6-101.9,115.6c-57.9,0-98.6-44.9-98.6-111.3C389.5,40.6,432.8-5,491.4-5
			C551.2-5,590,40.9,590,106z M419.8,109.6c0,46.9,25.4,88.9,70,88.9c44.9,0,70.3-41.3,70.3-91.1c0-43.6-22.8-89.2-70-89.2
			C443.2,18.1,419.7,61.4,419.8,109.6L419.8,109.6z"/>
		<path class="st2" d="M618,103.1c0-16.3-0.3-29.6-1.3-42.6h25.4l1.6,26h0.7c7.8-15,26-29.6,52.1-29.6c21.8,0,55.7,13,55.7,67V218
			h-28.6v-90.9c0-25.4-9.4-46.6-36.5-46.6c-18.9,0-33.5,13.3-38.4,29.3c-1.4,4.3-2.1,8.8-2,13.3V218H618V103.1z"/>
		<path class="st2" d="M778.9,6.9h28.7V218h-28.7V6.9z"/>
		<path class="st2" d="M859.7,50.7c11.4,0,22.5-11.8,22.2-21.6c0-10.1-10.8-21.9-21.6-21.9c-10.4,0-21.9,11.8-21.9,21.9
			C838.4,38.9,849.6,50.7,859.7,50.7z"/>
		<rect x="841" y="69.4" class="st2" width="36.6" height="149.4"/>
		<path class="st2" d="M832.3,254.6c-7.8-0.1-15.5-0.2-23.3-0.2V507h36.6V254.9C841.2,254.8,836.7,254.7,832.3,254.6z"/>
		<path class="st2" d="M914.4,103.1c0-16.3-0.3-29.6-1.3-42.6h25.4l1.6,26h0.7c7.8-15,26-29.6,52.1-29.6c21.8,0,55.7,13,55.7,67V218
			h-28.6v-90.9c0-25.4-9.4-46.6-36.5-46.6c-18.9,0-33.5,13.3-38.4,29.3c-1.4,4.3-2.1,8.8-2,13.3V218h-28.6V103.1z"/>
		<path class="st2" d="M1100.3,145.4c0.7,38.7,25.4,54.7,54,54.7c20.5,0,32.9-3.6,43.6-8.1l4.9,20.5c-10.1,4.6-27.3,9.8-52.4,9.8
			c-48.5,0-77.5-31.9-77.5-79.4s28-84.9,73.9-84.9c51.4,0,65.1,45.2,65.1,74.2c-0.1,4.5-0.4,8.9-1,13.4H1100.3z M1184.3,124.9
			c0.3-18.2-7.5-46.5-39.7-46.5c-29,0-41.7,26.7-43.9,46.5H1184.3z"/>
		<path class="st2" d="M325.8,353.8c-2.7-48.5-6-106.8-5.5-150.2h-1.6c-12.6,40.8-27.9,84.1-46.5,132.1l-65.1,168.8H171l-59.6-165.7
			c-17.4-49-32.3-93.9-42.6-135.2h-1.1c-1.1,43.4-3.8,101.7-7.1,153.8l-9.8,149.2H5.4l25.7-347.9h60.7l62.9,168.3
			c15.3,42.8,27.9,81,37.2,117.2h1.6c9.3-35.1,22.4-73.3,38.8-117.2l65.6-168.3h60.7l23,347.9H335L325.8,353.8z"/>
		<path class="st2" d="M570.4,506.5l-3.8-31.5h-1.6c-14.8,19.6-43.2,37.2-80.9,37.2c-53.6,0-80.9-35.6-80.9-71.7
			c0-60.4,56.9-93.4,159.1-92.9v-5.2c0-20.6-6-57.8-60.1-57.8c-24.6,0-50.3,7.2-68.9,18.6l-10.9-29.9c21.9-13.4,53.6-22.2,86.9-22.2
			c80.9,0,100.6,52.1,100.6,102.2v93.4c0,21.7,1.1,42.8,4.4,59.9L570.4,506.5z M563.3,379c-52.5-1-112.1,7.7-112.1,56.3
			c0,29.4,20.8,43.4,45.4,43.4c34.4,0,56.3-20.6,64-41.8c1.7-4.6,2.6-9.5,2.7-14.5L563.3,379z"/>
		<path class="st2" d="M647.8,334.6c0-29.4-0.5-54.7-2.2-77.9h42.1l1.6,49h2.2c12-33.5,41-54.7,73.3-54.7c4.6-0.1,9.2,0.5,13.7,1.6
			v42.8c-5.4-1.1-10.9-1.6-16.4-1.5c-33.9,0-58,24.3-64.5,58.3c-1.3,7-2.1,14.1-2.2,21.2v133.2h-47.6V334.6z"/>
		<path class="st2" d="M846.4,342.9l78.6-86.2h58L880.7,359.4l116.5,147.1h-58.5l-92.3-119.7V342.9z"/>
		<path class="st2" d="M1026.8,389.9c1.1,61.4,42.7,86.7,90.8,86.7c34.4,0,55.2-5.7,73.3-12.9l8.2,32.5c-16.9,7.2-45.9,15.5-88,15.5
			c-81.5,0-130.1-50.6-130.1-125.9S1027.9,251,1105,251c86.4,0,109.3,71.7,109.3,117.7c-0.1,7.1-0.6,14.2-1.6,21.2L1026.8,389.9z
			 M1167.9,357.4c0.6-28.9-12.6-73.8-66.7-73.8c-48.7,0-70,42.3-73.8,73.8H1167.9z"/>
		<path class="st2" d="M1291.3,185v71.8h68.9v34.5h-68.9V426c0,31,9.3,48.5,36.1,48.5c9.4,0.1,18.8-0.9,27.9-3.1l2.2,34.1
			c-9.3,3.6-24.1,6.2-42.6,6.2c-22.4,0-40.5-6.7-51.9-19.1c-13.7-13.4-18.6-35.6-18.6-65V291.3h-41v-34.6h41v-59.9L1291.3,185z"/>
		<path class="st2" d="M1433.4,186.5c0.5,15.5-11.5,27.9-30.6,27.9c-17,0-29-12.4-29-27.9c0-16,12.6-28.4,30.1-28.4
			C1421.9,158.1,1433.4,170.5,1433.4,186.5z M1379.8,506.5V256.7h48.1v249.8H1379.8z"/>
		<path class="st2" d="M1458.2,324.3c0-25.8-0.6-47-2.2-67.6h42.6l2.7,41.3h1.1c13.1-23.8,31.7-47,75.5-47
			c36.6,0,93.5,20.6,93.5,106.3v149.2h-48.1v-144c0-40.3-15.9-73.8-61.2-73.8c-31.7,0-44.3,21.2-52.5,46.5
			c-2.2,5.7-3.3,13.4-3.3,21.2v150.2h-48.1V324.3z"/>
		<path class="st2" d="M1943,256.7c-1.1,18.1-2.2,38.2-2.2,68.6v145c0,57.3-12,92.4-37.7,114.1c-25.7,22.7-62.9,29.9-96.2,29.9
			c-31.7,0-66.7-7.2-88-20.6l12-34.6c17.5,10.3,44.8,19.6,77.6,19.6c49.2,0,85.3-24.3,85.3-87.2v-27.8h-1.1
			c-14.8,23.2-43.2,41.8-84.2,41.8c-65.6,0-112.6-52.6-112.6-121.8c0-84.7,58.5-132.7,119.2-132.7c45.9,0,71.1,22.7,82.6,43.4h1.1
			l2.2-37.7L1943,256.7z M1893.3,355.3c0-7.8-0.5-14.5-2.7-20.6c-8.8-26.3-32.3-48-67.3-48c-45.9,0-78.7,36.6-78.7,94.4
			c0,49,26.2,89.8,78.2,89.8c29.5,0,56.3-17.5,66.7-46.5c2.6-7.8,3.9-16,3.8-24.3V355.3z"/>
	</g>
</g>
</svg>
