<svg xmlns="http://www.w3.org/2000/svg" viewBox="0 0 48.74 41.67"><defs><style>.cls-1,.cls-2{fill:#fff;}.cls-1{stroke:#fff;stroke-miterlimit:10;stroke-width:0.5px;}</style></defs><title>onlineMarketing-light</title><g id="Layer_2" data-name="Layer 2"><g id="Layer_1-2" data-name="Layer 1"><path class="cls-1" d="M40.63.25A8,8,0,0,0,33.22,6H19.55V3.6a1.39,1.39,0,0,0-1.32-1.43H1.57A1.38,1.38,0,0,0,.25,3.6V17a1.39,1.39,0,0,0,1.32,1.44h5.7v12a2.31,2.31,0,0,0,2.19,2.4H22.18v4.8H20a1.39,1.39,0,0,0-1.31,1.44v2.32h14V39.1a1.39,1.39,0,0,0-1.31-1.44h-2.2v-4.8H41.91a2.31,2.31,0,0,0,2.19-2.4V16.54a8.69,8.69,0,0,0,4.39-7.7C48.49,4.1,45,.25,40.63.25Zm0,1h0c3.86,0,7,3.41,7,7.63s-3.12,7.64-7,7.64a6.62,6.62,0,0,1-1.41-.16,6.73,6.73,0,0,1-1.31-.44l-.11-.06-4.08.58.53-4.47,0-.12a7.58,7.58,0,0,1-.41-1.43,8.65,8.65,0,0,1-.14-1.54c0-4.22,3.12-7.63,7-7.63ZM1.57,3.12H18.23a.45.45,0,0,1,.44.48V17a.45.45,0,0,1-.44.48h-4V19l-2.06-1.51H1.57A.45.45,0,0,1,1.13,17V3.6A.45.45,0,0,1,1.57,3.12ZM4.2,5a1,1,0,0,0-.35.06l-.17.06-.06,0a1.4,1.4,0,0,0-.33.26,1.3,1.3,0,0,0-.18.23h0A1.34,1.34,0,0,0,3,5.92a1.39,1.39,0,0,0-.06.19s0,0,0,.08h0a1.43,1.43,0,0,0,0,.29v7.68A1.39,1.39,0,0,0,4.2,15.59H15.6a1.38,1.38,0,0,0,1.31-1.43V6.48A1.39,1.39,0,0,0,15.6,5Zm0,1H15.6a.45.45,0,0,1,.44.48v.64L9.9,9.8,3.76,7.12V6.48A.46.46,0,0,1,4.2,6ZM19.55,7H33a9,9,0,0,0-.2,1.88v0H19.55V7ZM3.76,8.15,9.9,10.84,16,8.15v6a.45.45,0,0,1-.44.48H4.2a.45.45,0,0,1-.44-.48ZM19.55,9.84H32.83c0,.25.06.49.1.73A8.88,8.88,0,0,0,33.35,12l-.65,5.47,5-.7a6.81,6.81,0,0,0,1.34.45,7.22,7.22,0,0,0,1.55.17v7.76H10.77V18.47H12l3.2,2.34V18.47h3.07A1.39,1.39,0,0,0,19.55,17V9.84Zm23.68,7.1V28.06H8.14V18.47H9.9v7.68H41.47V17.38a7,7,0,0,0,1.76-.44ZM8.14,29H43.23v1.44a1.37,1.37,0,0,1-1.32,1.44H9.46a1.37,1.37,0,0,1-1.32-1.44V29Zm14.91,3.84h5.27v4.8H23.05ZM20,38.62H31.39a.44.44,0,0,1,.43.48v1.36H19.55V39.1A.44.44,0,0,1,20,38.62Z"/><path class="cls-2" d="M41.65,9.84H39.86l.48-1.92h1.79Zm3.17-1.92.36-1.45H43.83L44.19,5H42.85l-.36,1.44H40.7L41.06,5H39.71l-.36,1.44H38l-.36,1.45H39l-.48,1.92H37.17l-.36,1.45h1.34l-.36,1.44h1.35l.36-1.44h1.79l-.36,1.44h1.34l.36-1.44H44l.36-1.45H43l.48-1.92Z"/></g></g></svg>