<?xml version="1.0" encoding="utf-8"?>
<!-- Generator: Adobe Illustrator 23.1.0, SVG Export Plug-In . SVG Version: 6.00 Build 0)  -->
<svg version="1.1" id="Layer_1" xmlns="http://www.w3.org/2000/svg" xmlns:xlink="http://www.w3.org/1999/xlink" x="0px" y="0px"
	 viewBox="0 0 2087.2 665.2" style="enable-background:new 0 0 2087.2 665.2;" xml:space="preserve">
<style type="text/css">
	.st0{fill:#060607;stroke:#6A72A3;stroke-width:10;stroke-miterlimit:10;}
	.st1{fill:#6A72A3;stroke:#6A72A3;stroke-width:10;stroke-miterlimit:10;}
	.st2{fill:#FFFFFF;stroke:#FFFFFF;stroke-width:10;stroke-miterlimit:10;}
</style>
<rect x="-226.9" y="925.5" class="st0" width="2513.7" height="1374.3"/>
<title>onlinemarketing</title>
<g>
	<g id="Layer_1-2">
		<path class="st1" d="M670,149.8c0,75.5-48.6,115.6-101.9,115.6c-57.9,0-98.6-44.9-98.6-111.3c0-69.6,43.3-115.2,101.9-115.2
			C631.3,38.8,670,84.7,670,149.8z M499.8,153.4c0,46.9,25.4,88.9,70,88.9c44.9,0,70.3-41.3,70.3-91.1c0-43.6-22.8-89.2-70-89.2
			C523.2,62,499.8,105.2,499.8,153.4L499.8,153.4z"/>
		<path class="st1" d="M697.1,146.9c0-16.3-0.3-29.6-1.3-42.6h25.4l1.6,26h0.7c7.8-15,26-29.6,52.1-29.6c21.8,0,55.7,13,55.7,67
			v94.1h-28.6V171c0-25.4-9.4-46.5-36.5-46.5c-18.9,0-33.5,13.3-38.4,29.3c-1.4,4.3-2.1,8.8-2,13.3v94.7h-28.6V146.9z"/>
		<path class="st1" d="M858,50.7h28.7v211.1H858V50.7z"/>
		<rect x="920.1" y="112.4" class="st0" width="36.6" height="149.4"/>
		<path class="st1" d="M938.7,94.6c11.4,0,22.5-11.8,22.2-21.6c0-10.1-10.8-21.9-21.6-21.9c-10.4,0-21.9,11.8-21.9,21.9
			C917.4,82.8,928.6,94.6,938.7,94.6z"/>
		<polygon class="st1" points="888.1,297.3 888.1,550.8 924.7,550.8 925.6,297.5 		"/>
		<path class="st1" d="M993.5,146.9c0-16.3-0.3-29.6-1.3-42.6h25.4l1.6,26h0.7c7.8-15,26-29.6,52.1-29.6c21.8,0,55.7,13,55.7,67
			v94.1h-28.7V171c0-25.4-9.4-46.5-36.5-46.5c-18.9,0-33.5,13.3-38.4,29.3c-1.4,4.3-2,8.8-2,13.3v94.7h-28.6V146.9z"/>
		<path class="st1" d="M1179.3,189.2c0.7,38.7,25.4,54.7,54,54.7c20.5,0,32.9-3.6,43.6-8.1l4.9,20.5c-10.1,4.6-27.3,9.8-52.4,9.8
			c-48.5,0-77.5-31.9-77.5-79.4s28-84.9,73.9-84.9c51.4,0,65.1,45.2,65.1,74.2c-0.1,4.5-0.4,8.9-1,13.4L1179.3,189.2z M1263.3,168.7
			c0.3-18.2-7.5-46.5-39.7-46.5c-29,0-41.7,26.7-43.9,46.5H1263.3z"/>
		<path class="st1" d="M406.8,399.6c-2.7-48.5-6-106.8-5.5-150.2h-1.6c-12.6,40.8-27.9,84.1-46.5,132.1l-65.1,168.8h-36.1
			l-59.6-165.7c-17.5-49-32.3-93.9-42.6-135.2h-1.1c-1.1,43.4-3.8,101.7-7.1,153.8l-9.8,149.2H86.4l25.7-347.9h60.7l62.9,168.3
			c15.3,42.8,27.9,81,37.2,117.2h1.6c9.3-35.1,22.4-73.3,38.8-117.2l65.6-168.3h60.7l23,347.9h-46.5L406.8,399.6z"/>
		<path class="st1" d="M651.4,552.4l-3.8-31.5h-1.7C631.2,540.5,602.7,558,565,558c-53.6,0-80.9-35.6-80.9-71.7
			c0-60.4,56.9-93.4,159.1-92.9v-5.2c0-20.6-6-57.8-60.1-57.8c-24.6,0-50.3,7.2-68.9,18.6l-10.9-29.9c21.9-13.4,53.6-22.2,86.9-22.2
			c80.9,0,100.6,52.1,100.6,102.2v93.4c0,21.7,1.1,42.8,4.4,59.9H651.4z M644.3,424.9c-52.5-1-112.1,7.7-112.1,56.3
			c0,29.4,20.8,43.4,45.4,43.4c34.4,0,56.3-20.6,64-41.8c1.7-4.6,2.6-9.5,2.7-14.5L644.3,424.9z"/>
		<path class="st1" d="M728.8,380.5c0-29.4-0.5-54.7-2.2-77.9h42.1l1.6,49h2.2c12-33.5,41-54.7,73.3-54.7c4.6-0.1,9.2,0.5,13.7,1.5
			v42.8c-5.4-1.1-10.9-1.6-16.4-1.5c-33.9,0-58,24.3-64.5,58.3c-1.3,7-2.1,14.1-2.2,21.2v133.2h-47.6V380.5z"/>
		<path class="st1" d="M927.4,388.8l78.6-86.2h58L961.8,405.3l116.5,147.1h-58.5l-92.3-119.7V388.8z"/>
		<path class="st1" d="M1107.9,435.7c1.1,61.4,42.7,86.7,90.8,86.7c34.4,0,55.2-5.7,73.3-12.9l8.2,32.5c-16.9,7.2-45.9,15.5-88,15.5
			c-81.5,0-130.1-50.6-130.1-125.9s47-134.7,124.1-134.7c86.4,0,109.3,71.7,109.3,117.7c-0.1,7.1-0.6,14.2-1.6,21.2L1107.9,435.7z
			 M1248.9,403.2c0.6-28.9-12.6-73.8-66.7-73.8c-48.7,0-70,42.3-73.8,73.8H1248.9z"/>
		<path class="st1" d="M1372.4,230.8v71.7h68.9v34.6h-68.9v134.7c0,31,9.3,48.5,36.1,48.5c9.4,0.1,18.8-0.9,27.9-3.1l2.2,34.1
			c-9.3,3.6-24.1,6.2-42.6,6.2c-22.4,0-40.5-6.7-51.9-19.1c-13.7-13.4-18.6-35.6-18.6-65V337.1h-41v-34.6h41v-59.9L1372.4,230.8z"/>
		<path class="st1" d="M1514.4,232.4c0.5,15.5-11.5,27.9-30.6,27.9c-16.9,0-29-12.4-29-27.9c0-16,12.6-28.4,30.1-28.4
			C1502.9,204,1514.4,216.4,1514.4,232.4z M1460.8,552.4V302.6h48.1v249.8H1460.8z"/>
		<path class="st1" d="M1539.2,370.2c0-25.8-0.6-47-2.2-67.6h42.6l2.7,41.3h1.1c13.1-23.8,31.7-47,75.5-47
			c36.6,0,93.5,20.6,93.5,106.3v149.2h-48.1v-144c0-40.3-15.9-73.8-61.2-73.8c-31.7,0-44.3,21.2-52.5,46.5
			c-2.2,5.7-3.3,13.4-3.3,21.2v150.2h-48.1V370.2z"/>
		<path class="st1" d="M2024.1,302.6c-1.1,18.1-2.2,38.2-2.2,68.6v145c0,57.3-12,69.4-37.7,91.1c-25.7,22.7-62.9,29.9-96.2,29.9
			c-31.7,0-66.7-7.2-88-20.6l12-34.6c17.5,10.3,44.8,19.6,77.6,19.6c49.2,0,85.3-24.3,85.3-87.2v-4.8h-1.1
			c-14.8,23.2-43.2,41.8-84.2,41.8c-65.6,0-112.6-52.7-112.6-121.8c0-84.6,58.5-132.6,119.2-132.6c45.9,0,71.1,22.7,82.6,43.4h1.1
			l2.2-37.7H2024.1z M1974.3,401.1c0-7.8-0.5-14.5-2.7-20.6c-8.8-26.3-32.3-48-67.3-48c-45.9,0-78.7,36.6-78.7,94.4
			c0,49,26.2,89.8,78.2,89.8c29.5,0,56.3-17.6,66.7-46.5c2.6-7.8,3.9-16,3.8-24.3V401.1z"/>
		<path class="st2" d="M659.9,142.8c0,75.5-45.9,115.6-101.9,115.6c-57.9,0-98.6-44.9-98.6-111.3c0-69.7,43.3-115.2,101.9-115.2
			C621.1,31.8,659.9,77.7,659.9,142.8z M489.7,146.4c0,46.9,25.4,88.9,70,88.9c44.9,0,70.3-41.3,70.3-91.1c0-43.6-22.8-89.2-70-89.2
			C513.1,54.9,489.7,98.2,489.7,146.4L489.7,146.4z"/>
		<path class="st2" d="M687.9,139.9c0-16.3-0.3-29.6-1.3-42.6H712l1.6,26h0.7c7.8-15,26-29.6,52.1-29.6c21.8,0,55.7,13,55.7,67v94.2
			h-28.6V164c0-25.4-9.4-46.5-36.5-46.5c-18.9,0-33.5,13.3-38.4,29.3c-1.4,4.3-2.1,8.8-2,13.3v94.8h-28.6V139.9z"/>
		<path class="st2" d="M848.8,43.7h28.7v211.1h-28.7V43.7z"/>
		<path class="st2" d="M929.6,87.6c11.4,0,22.5-11.8,22.2-21.6c0-10.1-10.8-21.9-21.6-21.9c-10.4,0-21.9,11.8-21.9,21.9
			C908.3,75.7,919.5,87.6,929.6,87.6z"/>
		<rect x="910.9" y="106.2" class="st2" width="36.6" height="149.4"/>
		<path class="st2" d="M902.2,291.4c-7.8-0.1-15.5-0.2-23.3-0.2v252.6h36.6V291.7C911.1,291.6,906.6,291.5,902.2,291.4z"/>
		<path class="st2" d="M984.3,139.9c0-16.3-0.3-29.6-1.3-42.6h25.4l1.6,26h0.7c7.8-15,26-29.6,52.1-29.6c21.8,0,55.7,13,55.7,67
			v94.2h-28.6V164c0-25.4-9.4-46.5-36.5-46.5c-18.9,0-33.5,13.3-38.4,29.3c-1.4,4.3-2.1,8.8-2,13.3v94.8h-28.6V139.9z"/>
		<path class="st2" d="M1170.2,182.2c0.7,38.7,25.4,54.7,54,54.7c20.5,0,32.9-3.6,43.6-8.1l4.9,20.5c-10.1,4.6-27.3,9.8-52.4,9.8
			c-48.5,0-77.5-31.9-77.5-79.4s28-84.9,73.9-84.9c51.4,0,65.1,45.2,65.1,74.2c-0.1,4.5-0.4,8.9-1,13.4H1170.2z M1254.2,161.7
			c0.3-18.2-7.5-46.5-39.7-46.5c-29,0-41.7,26.7-43.9,46.5H1254.2z"/>
		<path class="st2" d="M395.7,390.6c-2.7-48.5-6-106.8-5.5-150.2h-1.6c-12.6,40.8-27.9,84.1-46.5,132.1L277,541.3h-36.1l-59.6-165.7
			c-17.4-49-32.3-93.9-42.6-135.2h-1.1c-1.1,43.4-3.8,101.7-7.1,153.8l-9.8,149.2H75.3L101,195.5h60.7l62.9,168.3
			c15.3,42.8,27.9,81,37.2,117.2h1.6c9.3-35.1,22.4-73.3,38.8-117.2l65.6-168.3h60.7l23,347.9h-46.5L395.7,390.6z"/>
		<path class="st2" d="M640.3,543.3l-3.8-31.5h-1.6c-14.8,19.6-43.2,37.2-80.9,37.2c-53.6,0-80.9-35.6-80.9-71.7
			c0-60.4,56.9-93.4,159.1-92.9v-5.2c0-20.6-6-57.8-60.1-57.8c-24.6,0-50.3,7.2-68.9,18.6l-10.9-29.9c21.9-13.4,53.6-22.2,86.9-22.2
			c80.9,0,100.6,52.1,100.6,102.2v93.4c0,21.7,1.1,42.8,4.4,59.9L640.3,543.3z M633.2,415.8c-52.5-1-112.1,7.7-112.1,56.3
			c0,29.4,20.8,43.4,45.4,43.4c34.4,0,56.3-20.6,64-41.8c1.7-4.6,2.6-9.5,2.7-14.5L633.2,415.8z"/>
		<path class="st2" d="M717.7,371.5c0-29.4-0.5-54.7-2.2-77.9h42.1l1.6,49h2.2c12-33.5,41-54.7,73.3-54.7c4.6-0.1,9.2,0.5,13.7,1.6
			v42.8c-5.4-1.1-10.9-1.6-16.4-1.5c-33.9,0-58,24.3-64.5,58.3c-1.3,7-2.1,14.1-2.2,21.2v133.2h-47.6V371.5z"/>
		<path class="st2" d="M916.3,379.7l78.6-86.2h58L950.6,396.3l116.5,147.1h-58.5l-92.3-119.7V379.7z"/>
		<path class="st2" d="M1096.8,426.7c1.1,61.4,42.7,86.7,90.8,86.7c34.4,0,55.2-5.7,73.3-12.9l8.2,32.5c-16.9,7.2-45.9,15.5-88,15.5
			c-81.5,0-130.1-50.6-130.1-125.9s47-134.8,124.1-134.8c86.4,0,109.3,71.7,109.3,117.7c-0.1,7.1-0.6,14.2-1.6,21.2L1096.8,426.7z
			 M1237.8,394.2c0.6-28.9-12.6-73.8-66.7-73.8c-48.7,0-70,42.3-73.8,73.8H1237.8z"/>
		<path class="st2" d="M1361.3,221.8v71.8h68.9v34.5h-68.9v134.7c0,31,9.3,48.5,36.1,48.5c9.4,0.1,18.8-0.9,27.9-3.1l2.2,34.1
			c-9.3,3.6-24.1,6.2-42.6,6.2c-22.4,0-40.5-6.7-51.9-19.1c-13.7-13.4-18.6-35.6-18.6-65V328.1h-41v-34.6h41v-59.9L1361.3,221.8z"/>
		<path class="st2" d="M1503.3,223.3c0.5,15.5-11.5,27.9-30.6,27.9c-17,0-29-12.4-29-27.9c0-16,12.6-28.4,30.1-28.4
			C1491.8,195,1503.3,207.3,1503.3,223.3z M1449.7,543.3V293.5h48.1v249.8H1449.7z"/>
		<path class="st2" d="M1528.1,361.2c0-25.8-0.6-47-2.2-67.6h42.6l2.7,41.3h1.1c13.1-23.8,31.7-47,75.5-47
			c36.6,0,93.5,20.6,93.5,106.3v149.2h-48.1v-144c0-40.3-15.9-73.8-61.2-73.8c-31.7,0-44.3,21.2-52.5,46.5
			c-2.2,5.7-3.3,13.4-3.3,21.2v150.2h-48.1V361.2z"/>
		<path class="st2" d="M2012.9,293.5c-1.1,18.1-2.2,38.2-2.2,68.6v145c0,57.3-12,69.4-37.7,91.1c-25.7,22.7-62.9,29.9-96.2,29.9
			c-31.7,0-66.7-7.2-88-20.6l12-34.6c17.5,10.3,44.8,19.6,77.6,19.6c49.2,0,85.3-24.3,85.3-87.2v-4.8h-1.1
			c-14.8,23.2-43.2,41.8-84.2,41.8c-65.6,0-112.6-52.7-112.6-121.8c0-84.7,58.5-132.7,119.2-132.7c45.9,0,71.1,22.7,82.6,43.4h1.1
			l2.2-37.7L2012.9,293.5z M1963.2,392.1c0-7.8-0.5-14.5-2.7-20.6c-8.8-26.3-32.3-48-67.3-48c-45.9,0-78.7,36.6-78.7,94.4
			c0,49,26.2,89.8,78.2,89.8c29.5,0,56.3-17.5,66.7-46.5c2.6-7.8,3.9-16,3.8-24.3V392.1z"/>
	</g>
</g>
</svg>
