<svg xmlns="http://www.w3.org/2000/svg" viewBox="0 0 1959.45 628.41"><defs><style>.cls-1{fill:#6a72a3;stroke:#6a72a3;}.cls-1,.cls-2{stroke-miterlimit:10;stroke-width:10px;}.cls-2{fill:#fff;stroke:#fff;}</style></defs><title>onlinemarketing</title><g id="Layer_2" data-name="Layer 2"><g id="Layer_1-2" data-name="Layer 1"><path class="cls-1" d="M581.1,123c0,75.51-45.9,115.55-101.88,115.55-57.94,0-98.62-44.92-98.62-111.32C380.6,57.59,423.89,12,482.48,12,542.36,12,581.1,57.91,581.1,123Zm-170.23,3.58c0,46.87,25.39,88.86,70,88.86,44.92,0,70.3-41.34,70.3-91.14,0-43.61-22.78-89.18-70-89.18C434.3,35.13,410.87,78.42,410.87,126.59Z"/><path class="cls-1" d="M595.16,120.08c0-16.27-.32-29.62-1.3-42.64h25.39l1.62,26h.65c7.82-15,26-29.62,52.08-29.62,21.81,0,55.66,13,55.66,67.05V235H700.62V144.17c0-25.39-9.44-46.55-36.46-46.55-18.87,0-33.52,13.35-38.4,29.29a41,41,0,0,0-2,13.35V235H595.16Z"/><path class="cls-1" d="M756.06,23.88h28.65V235H756.06Z"/><path class="cls-1" d="M859,46.18c.32,9.76-10.84,21.57-22.23,21.57-10.09,0-21.25-11.81-21.25-21.57,0-10.09,11.48-21.91,21.9-21.91C848.2,24.27,859,36.09,859,46.18ZM818.14,514V86.44h36.64V514Z"/><path class="cls-1" d="M891.56,120.08c0-16.27-.32-29.62-1.3-42.64h25.39l1.63,26h.65c7.81-15,26-29.62,52.07-29.62,21.81,0,55.66,13,55.66,67.05V235H997V144.17c0-25.39-9.44-46.55-36.45-46.55-18.88,0-33.53,13.35-38.41,29.29a41.32,41.32,0,0,0-1.95,13.35V235H891.56Z"/><path class="cls-1" d="M1063.41,161.42c.66,38.73,25.39,54.68,54,54.68,20.5,0,32.87-3.58,43.61-8.14l4.88,20.51c-10.09,4.55-27.34,9.76-52.4,9.76-48.5,0-77.47-31.9-77.47-79.42s28-84.95,73.89-84.95c51.43,0,65.1,45.24,65.1,74.21a109.08,109.08,0,0,1-1,13.35Zm84-20.51c.33-18.23-7.49-46.54-39.71-46.54-29,0-41.66,26.69-43.94,46.54Z"/><path class="cls-1" d="M336.88,362.77c-2.74-48.52-6-106.84-5.47-150.2h-1.64C317.2,253.35,301.89,296.7,283.3,344.7L218.24,513.48H182.16L122.57,347.8c-17.49-49-32.25-93.94-42.64-135.23H78.84c-1.1,43.36-3.83,101.68-7.11,153.81L61.89,515.54H16.51l25.7-347.87h60.68l62.87,168.26c15.31,42.84,27.88,81,37.18,117.16h1.64C213.87,418,227,379.8,243.39,335.93L309,167.67h60.68l23,347.87H346.17Z"/><path class="cls-1" d="M581.49,515.54l-3.82-31.48H576c-14.76,19.61-43.19,37.16-80.91,37.16-53.58,0-80.92-35.61-80.92-71.74,0-60.39,56.86-93.42,159.09-92.91v-5.16c0-20.64-6-57.8-60.13-57.8-24.61,0-50.3,7.22-68.89,18.58l-10.93-29.94c21.87-13.42,53.57-22.19,86.92-22.19,80.91,0,100.6,52.13,100.6,102.19v93.42c0,21.68,1.09,42.84,4.37,59.87Zm-7.1-127.48c-52.49-1-112.08,7.74-112.08,56.26,0,29.41,20.78,43.35,45.38,43.35,34.44,0,56.31-20.64,64-41.81a45,45,0,0,0,2.74-14.45Z"/><path class="cls-1" d="M658.93,343.67c0-29.42-.54-54.71-2.18-77.94h42.09l1.64,49h2.19c12-33.55,41-54.71,73.26-54.71a54.55,54.55,0,0,1,13.66,1.55v42.83a76.57,76.57,0,0,0-16.4-1.54c-33.89,0-58,24.25-64.51,58.32a121.26,121.26,0,0,0-2.18,21.16V515.54H658.93Z"/><path class="cls-1" d="M857.5,351.93l78.63-86.2h58L891.85,368.44l116.45,147.1H949.8L857.5,395.8Z"/><path class="cls-1" d="M1038,398.9c1.1,61.42,42.65,86.71,90.76,86.71,34.44,0,55.21-5.68,73.25-12.91l8.2,32.52c-16.94,7.22-45.92,15.48-88,15.48-81.46,0-130.12-50.58-130.12-125.93s47-134.71,124.1-134.71c86.38,0,109.34,71.74,109.34,117.67a161.42,161.42,0,0,1-1.64,21.17Zm141-32.52c.55-28.9-12.57-73.81-66.69-73.81-48.66,0-70,42.33-73.81,73.81Z"/><path class="cls-1" d="M1302.48,194v71.74h68.88v34.59h-68.88V435c0,31,9.29,48.51,36.08,48.51a112.9,112.9,0,0,0,27.88-3.1l2.19,34.07c-9.3,3.61-24.06,6.19-42.64,6.19-22.42,0-40.46-6.71-51.94-19.09-13.67-13.42-18.59-35.62-18.59-65V300.32h-41V265.73h41V205.86Z"/><path class="cls-1" d="M1444.51,195.54c.54,15.49-11.48,27.87-30.62,27.87-16.94,0-29-12.38-29-27.87,0-16,12.57-28.39,30.07-28.39C1433,167.15,1444.51,179.54,1444.51,195.54Zm-53.58,320V265.73H1439V515.54Z"/><path class="cls-1" d="M1469.31,333.35c0-25.81-.55-47-2.19-67.62h42.64l2.73,41.3h1.1c13.12-23.75,31.73-47,75.47-47,36.63,0,93.49,20.64,93.49,106.32V515.54h-48.11v-144c0-40.26-15.86-73.81-61.23-73.81-31.71,0-44.31,21.17-52.51,46.46-2.19,5.67-3.28,13.42-3.28,21.16V515.54h-48.11Z"/><path class="cls-1" d="M1954.14,265.73c-1.09,18.07-2.18,38.2-2.18,68.65v145c0,57.29-12,92.39-37.73,114.07-25.69,22.71-62.87,29.93-96.22,29.93-31.7,0-66.69-7.22-88-20.64l12-34.58c17.5,10.32,44.83,19.61,77.63,19.61,49.21,0,85.29-24.26,85.29-87.23V472.7h-1.09c-14.76,23.23-43.19,41.81-84.2,41.81-65.6,0-112.62-52.65-112.62-121.81,0-84.64,58.5-132.64,119.19-132.64,45.92,0,71.07,22.71,82.55,43.35h1.09l2.19-37.68Zm-49.75,98.59c0-7.75-.54-14.46-2.73-20.65-8.75-26.32-32.26-48-67.25-48-45.92,0-78.72,36.65-78.72,94.45,0,49,26.24,89.81,78.18,89.81,29.52,0,56.31-17.55,66.7-46.45a75.09,75.09,0,0,0,3.82-24.26Z"/><path class="cls-2" d="M572,116c0,75.51-45.9,115.55-101.88,115.55-57.94,0-98.62-44.92-98.62-111.32C371.47,50.57,414.76,5,473.35,5,533.23,5,572,50.89,572,116Zm-170.23,3.58c0,46.87,25.39,88.86,70,88.86,44.91,0,70.3-41.34,70.3-91.14,0-43.61-22.78-89.18-70-89.18C425.17,28.11,401.74,71.4,401.74,119.57Z"/><path class="cls-2" d="M586,113.06c0-16.27-.33-29.62-1.3-42.64h25.39l1.62,26h.65c7.82-15,26-29.62,52.08-29.62,21.81,0,55.66,13,55.66,67V228H691.49V137.15c0-25.39-9.44-46.55-36.46-46.55-18.88,0-33.52,13.35-38.4,29.3a40.93,40.93,0,0,0-2,13.34V228H586Z"/><path class="cls-2" d="M746.93,16.86h28.65V228H746.93Z"/><path class="cls-2" d="M849.91,39.16c.32,9.76-10.84,21.57-22.23,21.57-10.09,0-21.25-11.81-21.25-21.57,0-10.09,11.48-21.91,21.9-21.91C839.07,17.25,849.91,29.07,849.91,39.16ZM809,507V79.42h36.64V507Z"/><path class="cls-2" d="M882.43,113.06c0-16.27-.32-29.62-1.3-42.64h25.39l1.63,26h.65c7.81-15,26-29.62,52.07-29.62,21.81,0,55.66,13,55.66,67V228H987.89V137.15c0-25.39-9.44-46.55-36.46-46.55-18.87,0-33.52,13.35-38.4,29.3a41.21,41.21,0,0,0-2,13.34V228H882.43Z"/><path class="cls-2" d="M1054.28,154.4c.66,38.73,25.39,54.68,54,54.68,20.51,0,32.88-3.58,43.62-8.14l4.88,20.51c-10.09,4.55-27.34,9.76-52.4,9.76-48.5,0-77.47-31.9-77.47-79.42s28-84.95,73.89-84.95c51.43,0,65.1,45.24,65.1,74.21a109.08,109.08,0,0,1-1,13.35Zm84-20.51c.32-18.22-7.49-46.54-39.71-46.54-29,0-41.66,26.69-43.94,46.54Z"/><path class="cls-2" d="M325.75,353.75c-2.74-48.52-6-106.84-5.47-150.2h-1.64c-12.57,40.78-27.88,84.13-46.47,132.13L207.11,504.46H171L111.44,338.78C94,289.75,79.19,244.85,68.8,203.55H67.71c-1.1,43.36-3.83,101.68-7.11,153.81L50.76,506.52H5.38l25.7-347.87H91.76l62.87,168.26c15.31,42.84,27.88,81,37.18,117.16h1.64c9.29-35.1,22.41-73.29,38.81-117.16l65.61-168.26h60.68l23,347.87H335Z"/><path class="cls-2" d="M570.36,506.52,566.54,475H564.9C550.14,494.65,521.71,512.2,484,512.2c-53.58,0-80.92-35.61-80.92-71.74,0-60.39,56.86-93.42,159.09-92.91v-5.16c0-20.64-6-57.8-60.13-57.8-24.61,0-50.3,7.22-68.89,18.58l-10.93-29.94C444.08,259.81,475.78,251,509.13,251c80.91,0,100.6,52.13,100.6,102.19v93.42c0,21.68,1.09,42.84,4.37,59.87ZM563.26,379c-52.49-1-112.08,7.74-112.08,56.26,0,29.42,20.78,43.35,45.38,43.35,34.44,0,56.31-20.64,64-41.81a45,45,0,0,0,2.74-14.45Z"/><path class="cls-2" d="M647.8,334.65c0-29.42-.54-54.71-2.18-77.93h42.09l1.64,49h2.19c12-33.55,41-54.71,73.26-54.71a54.55,54.55,0,0,1,13.66,1.55v42.84a75.89,75.89,0,0,0-16.4-1.55c-33.89,0-57.95,24.26-64.51,58.32a121.26,121.26,0,0,0-2.18,21.16V506.52H647.8Z"/><path class="cls-2" d="M846.37,342.91,925,256.72h58L880.72,359.43,997.17,506.52h-58.5l-92.3-119.74Z"/><path class="cls-2" d="M1026.84,389.88c1.1,61.42,42.65,86.71,90.76,86.71,34.44,0,55.21-5.68,73.25-12.91l8.2,32.52c-16.94,7.23-45.92,15.48-88,15.48-81.46,0-130.12-50.58-130.12-125.93S1027.94,251,1105,251c86.38,0,109.34,71.74,109.34,117.68a161.39,161.39,0,0,1-1.64,21.16Zm141.05-32.52c.55-28.9-12.57-73.81-66.69-73.81-48.66,0-70,42.33-73.81,73.81Z"/><path class="cls-2" d="M1291.35,185v71.75h68.88V291.3h-68.88V426c0,31,9.29,48.51,36.08,48.51a113.49,113.49,0,0,0,27.88-3.09l2.19,34.06c-9.3,3.61-24.06,6.19-42.64,6.19-22.42,0-40.46-6.71-51.94-19.09-13.67-13.42-18.59-35.62-18.59-65V291.3h-41V256.72h41V196.85Z"/><path class="cls-2" d="M1433.38,186.52c.54,15.49-11.48,27.87-30.62,27.87-17,0-29-12.38-29-27.87,0-16,12.57-28.38,30.07-28.38C1421.9,158.14,1433.38,170.52,1433.38,186.52Zm-53.58,320V256.72h48.11v249.8Z"/><path class="cls-2" d="M1458.18,324.33c0-25.81-.55-47-2.19-67.61h42.64l2.73,41.29h1.1c13.12-23.75,31.73-47,75.47-47,36.63,0,93.48,20.64,93.48,106.32V506.52h-48.1v-144c0-40.26-15.86-73.8-61.23-73.8-31.71,0-44.31,21.16-52.52,46.45-2.18,5.67-3.28,13.42-3.28,21.16V506.52h-48.1Z"/><path class="cls-2" d="M1943,256.72c-1.09,18.06-2.18,38.19-2.18,68.64v145c0,57.29-12,92.39-37.73,114.07-25.69,22.71-62.87,29.93-96.22,29.93-31.7,0-66.69-7.22-88-20.64l12-34.58c17.5,10.32,44.83,19.61,77.63,19.61,49.21,0,85.29-24.26,85.29-87.23V463.68h-1.09c-14.77,23.23-43.19,41.81-84.2,41.81-65.6,0-112.62-52.65-112.62-121.81C1695.9,299,1754.4,251,1815.08,251c45.93,0,71.08,22.71,82.56,43.35h1.09l2.19-37.67Zm-49.75,98.58c0-7.75-.54-14.46-2.73-20.65-8.75-26.32-32.26-48-67.25-48-45.92,0-78.72,36.65-78.72,94.45,0,49,26.24,89.81,78.18,89.81,29.52,0,56.31-17.55,66.7-46.45a75,75,0,0,0,3.82-24.26Z"/></g></g></svg>