<svg xmlns="http://www.w3.org/2000/svg" viewBox="0 0 1943.52 406.2"><defs><style>.cls-1{fill:#6a72a3;stroke:#6a72a3;}.cls-1,.cls-2{stroke-miterlimit:10;stroke-width:23px;}.cls-2{fill:#fff;stroke:#fff;}</style></defs><title>webDesign2</title><g id="Layer_2" data-name="Layer 2"><g id="Layer_1-2" data-name="Layer 1"><path class="cls-1" d="M95.38,303.66,28.6,40.44H64.52L95.77,173.62c7.81,32.8,14.84,65.61,19.52,91h.79c4.29-26.16,12.49-57.41,21.47-91.38L172.7,40.44h35.54l32,133.57c7.42,31.24,14.45,62.48,18.36,90.21h.78c5.47-28.9,12.89-58.19,21.09-91L315.25,40.44H350L275.41,303.66H239.87L206.68,166.59C198.48,133,193,107.23,189.5,80.67h-.79c-4.68,26.17-10.54,51.94-20.3,85.92L130.92,303.66Z"/><path class="cls-1" d="M387.88,215.4c.79,46.48,30.47,65.61,64.83,65.61,24.61,0,39.45-4.29,52.33-9.76l5.86,24.6c-12.1,5.47-32.8,11.72-62.87,11.72-58.19,0-92.95-38.27-92.95-95.29s33.59-101.93,88.65-101.93c61.7,0,78.11,54.28,78.11,89a129.67,129.67,0,0,1-1.17,16Zm100.76-24.6C489,168.93,479.66,135,441,135c-34.76,0-50,32-52.73,55.85Z"/><path class="cls-1" d="M562.84,303.66c.78-12.88,1.56-32,1.56-48.81V26.39h34V145.11h.78c12.1-21.09,34-34.76,64.44-34.76,46.86,0,80.06,39.05,79.67,96.46,0,67.56-42.57,101.15-84.75,101.15-27.34,0-49.21-10.54-63.27-35.54h-1.17l-1.56,31.24Zm35.54-75.76a64.46,64.46,0,0,0,1.56,12.5c6.64,23.82,26.56,40.22,51.55,40.22,35.93,0,57.41-29.29,57.41-72.64,0-37.88-19.53-70.29-56.24-70.29-23.43,0-45.3,16-52.33,42.17-.78,3.91-2,8.6-2,14.06Z"/><path class="cls-1" d="M842.59,67.69a487.32,487.32,0,0,1,72.25-5.46c48.81,0,83.57,11.32,106.61,32.8,23.43,21.48,37.1,51.94,37.1,94.51,0,43-13.27,78.11-37.88,102.32-24.6,24.6-65.22,37.88-116.38,37.88a549.06,549.06,0,0,1-61.7-3.12Zm34,232.76c8.6,1.56,21.09,2,34.37,2,72.64,0,112.08-40.62,112.08-111.7.39-62.09-34.75-101.54-106.61-101.54-17.58,0-30.85,1.57-39.84,3.52Z"/><path class="cls-1" d="M1132.62,239.14c.78,46.47,30.46,65.61,64.82,65.61,24.61,0,39.45-4.3,52.33-9.77l5.86,24.61c-12.1,5.47-32.8,11.71-62.87,11.71-58.19,0-93-38.27-93-95.29s33.59-101.92,88.65-101.92c61.71,0,78.11,54.28,78.11,89a129.84,129.84,0,0,1-1.17,16Zm100.75-24.6c.39-21.87-9-55.85-47.64-55.85-34.76,0-50,32-52.72,55.85Z"/><path class="cls-1" d="M1304.44,292.25c10.16,6.64,28.12,13.67,45.31,13.67,25,0,36.71-12.5,36.71-28.12,0-16.4-9.77-25.38-35.15-34.76-34-12.1-50-30.85-50-53.5,0-30.46,24.6-55.45,65.22-55.45,19.14,0,35.93,5.46,46.47,11.71l-8.59,25a73.53,73.53,0,0,0-38.66-10.94c-20.31,0-31.64,11.72-31.64,25.78,0,15.62,11.33,22.65,35.93,32,32.81,12.5,49.6,28.9,49.6,57,0,33.19-25.77,56.62-70.68,56.62-20.7,0-39.84-5.07-53.12-12.88Z"/><path class="cls-1" d="M1502.05,85.27c.39,11.71-8.2,21.09-21.87,21.09-12.11,0-20.7-9.38-20.7-21.09,0-12.11,9-21.48,21.48-21.48C1493.85,63.79,1502.05,73.16,1502.05,85.27ZM1463.78,327.4v-189h34.37v189Z"/><path class="cls-1" d="M1718,138.38c-.78,13.67-1.56,28.9-1.56,51.94V300.06c0,43.35-8.59,55.59-27,72-18.35,17.18-44.91,22.65-68.73,22.65-22.65,0-47.65-5.47-62.88-15.62l8.59-26.17c12.5,7.82,32,14.84,55.46,14.84,35.15,0,60.92-14.45,60.92-62.09V295h-.78c-10.54,17.58-30.85,31.64-60.14,31.64-46.86,0-80.45-39.84-80.45-92.17,0-64,41.79-100.36,85.14-100.36,32.8,0,50.77,17.18,59,32.8h.78l1.56-28.51ZM1682.47,213c0-5.85-.39-10.93-2-15.62-6.25-19.92-23-36.32-48-36.32-32.81,0-56.24,27.73-56.24,71.47,0,37.1,18.74,67.95,55.85,67.95,21.08,0,40.22-13.28,47.64-35.15a59.79,59.79,0,0,0,2.73-18.35Z"/><path class="cls-1" d="M1771.12,189.54c0-19.53-.39-35.54-1.56-51.16H1800l2,31.24h.78c9.38-18,31.25-35.53,62.49-35.53,26.16,0,66.78,15.62,66.78,80.45V327.4h-34.37v-109c0-30.46-11.32-55.85-43.74-55.85-22.65,0-40.22,16-46.08,35.15a49.52,49.52,0,0,0-2.34,16V327.4h-34.37Z"/><path class="cls-2" d="M81.56,288.78,14.78,25.56H50.71L82,158.73c7.81,32.81,14.84,65.61,19.53,91h.78c4.3-26.16,12.5-57.4,21.48-91.38L158.89,25.56h35.54l32,133.56c7.42,31.24,14.45,62.49,18.36,90.21h.78c5.46-28.89,12.89-58.19,21.09-91L301.43,25.56h34.76L261.6,288.78H226.06L192.87,151.7c-8.21-33.58-13.67-59.36-17.19-85.92h-.78a821.61,821.61,0,0,1-20.31,85.92L117.1,288.78Z"/><path class="cls-2" d="M374.07,200.52c.78,46.47,30.46,65.61,64.83,65.61,24.6,0,39.44-4.3,52.33-9.77L497.09,281c-12.11,5.47-32.81,11.71-62.88,11.71-58.19,0-92.94-38.27-92.94-95.29S374.85,95.46,429.92,95.46c61.7,0,78.1,54.29,78.1,89.05a129.84,129.84,0,0,1-1.17,16Zm100.76-24.61c.39-21.87-9-55.84-47.65-55.84-34.75,0-50,32-52.72,55.84Z"/><path class="cls-2" d="M549,288.78c.79-12.89,1.57-32,1.57-48.82V11.5h34V130.22h.78c12.11-21.09,34-34.76,64.44-34.76,46.87,0,80.06,39.06,79.67,96.47,0,67.56-42.57,101.14-84.74,101.14-27.34,0-49.21-10.54-63.27-35.53h-1.17l-1.56,31.24ZM584.56,213a63.6,63.6,0,0,0,1.57,12.5c6.63,23.82,26.55,40.23,51.55,40.23,35.93,0,57.4-29.29,57.4-72.64,0-37.88-19.52-70.3-56.23-70.3-23.43,0-45.3,16-52.33,42.18-.79,3.9-2,8.59-2,14.06Z"/><path class="cls-2" d="M828.77,52.81A486,486,0,0,1,901,47.34c48.82,0,83.58,11.33,106.62,32.81,23.43,21.48,37.1,51.94,37.1,94.51,0,43-13.28,78.1-37.88,102.31-24.61,24.61-65.22,37.89-116.38,37.89a549.12,549.12,0,0,1-61.71-3.13Zm34,232.76c8.59,1.56,21.09,1.95,34.37,1.95,72.64,0,112.08-40.62,112.08-111.69.39-62.1-34.76-101.54-106.61-101.54-17.58,0-30.86,1.56-39.84,3.51Z"/><path class="cls-2" d="M1118.8,224.25c.78,46.48,30.46,65.61,64.83,65.61,24.6,0,39.44-4.29,52.33-9.76l5.86,24.6c-12.11,5.47-32.81,11.72-62.88,11.72-58.19,0-92.94-38.27-92.94-95.29s33.58-101.93,88.65-101.93c61.7,0,78.1,54.28,78.1,89a129.67,129.67,0,0,1-1.17,16Zm100.76-24.6c.39-21.87-9-55.85-47.65-55.85-34.75,0-50,32-52.72,55.85Z"/><path class="cls-2" d="M1290.63,277.37c10.15,6.63,28.12,13.66,45.3,13.66,25,0,36.71-12.49,36.71-28.11,0-16.41-9.76-25.39-35.15-34.76-34-12.11-50-30.85-50-53.5,0-30.47,24.6-55.46,65.22-55.46,19.13,0,35.93,5.47,46.47,11.72l-8.59,25A73.53,73.53,0,0,0,1352,145c-20.31,0-31.64,11.72-31.64,25.78,0,15.62,11.33,22.65,35.93,32,32.81,12.5,49.6,28.9,49.6,57,0,33.2-25.78,56.63-70.69,56.63-20.7,0-39.83-5.08-53.11-12.89Z"/><path class="cls-2" d="M1488.24,70.38c.39,11.72-8.2,21.09-21.87,21.09-12.11,0-20.7-9.37-20.7-21.09,0-12.1,9-21.48,21.48-21.48C1480,48.9,1488.24,58.28,1488.24,70.38ZM1450,312.51v-189h34.36v189Z"/><path class="cls-2" d="M1704.2,123.5c-.78,13.66-1.56,28.89-1.56,51.94V285.18c0,43.35-8.6,55.58-27,72-18.36,17.19-44.91,22.66-68.73,22.66-22.65,0-47.65-5.47-62.88-15.63l8.59-26.16c12.5,7.81,32,14.84,55.46,14.84,35.15,0,60.92-14.45,60.92-62.1V280.1h-.78c-10.54,17.57-30.85,31.63-60.14,31.63-46.87,0-80.45-39.83-80.45-92.16,0-64,41.78-100.37,85.13-100.37,32.81,0,50.77,17.18,59,32.8h.78l1.56-28.5Zm-35.54,74.59c0-5.86-.39-10.94-2-15.62-6.25-19.92-23-36.32-48-36.32-32.8,0-56.23,27.72-56.23,71.46,0,37.1,18.74,68,55.84,68,21.09,0,40.23-13.28,47.65-35.15a59.9,59.9,0,0,0,2.73-18.36Z"/><path class="cls-2" d="M1757.31,174.66c0-19.53-.39-35.54-1.56-51.16h30.46l2,31.24h.78c9.37-18,31.24-35.54,62.49-35.54,26.16,0,66.78,15.62,66.78,80.45V312.51h-34.37v-109c0-30.46-11.33-55.84-43.74-55.84-22.65,0-40.22,16-46.08,35.15a49.42,49.42,0,0,0-2.35,16V312.51h-34.36Z"/></g></g></svg>