<svg xmlns="http://www.w3.org/2000/svg" viewBox="0 0 1917.97 634.78"><defs><style>.cls-1,.cls-2{fill:#6a72a3;}.cls-1,.cls-2,.cls-3{stroke:#6a72a3;}.cls-1,.cls-2,.cls-3,.cls-4,.cls-5,.cls-6{stroke-miterlimit:10;}.cls-1,.cls-3,.cls-4,.cls-6{stroke-width:7px;}.cls-2,.cls-5{stroke-width:2px;}.cls-3,.cls-6{fill:none;}.cls-4,.cls-5{fill:#fff;}.cls-4,.cls-5,.cls-6{stroke:#fff;}</style></defs><title>webDesign</title><g id="Layer_2" data-name="Layer 2"><g id="Layer_1-2" data-name="Layer 1"><path class="cls-1" d="M66.41,227.94,15.11,25.73h27.6L66.71,128c6,25.2,11.4,50.4,15,69.9h.6c3.3-20.1,9.6-44.1,16.5-70.2l27-102h27.3l24.6,102.61c5.7,24,11.1,48,14.1,69.3h.6c4.2-22.2,9.9-44.7,16.2-69.9l26.7-102H262l-57.3,202.21h-27.3l-25.5-105.3c-6.3-25.8-10.5-45.6-13.2-66h-.6a631.7,631.7,0,0,1-15.6,66l-28.8,105.3Z"/><path class="cls-1" d="M291.11,160.14c.6,35.7,23.4,50.4,49.8,50.4,18.9,0,30.3-3.3,40.2-7.5l4.5,18.9c-9.3,4.2-25.2,9-48.3,9-44.7,0-71.4-29.4-71.4-73.2s25.8-78.3,68.1-78.3c47.4,0,60,41.7,60,68.4a99.57,99.57,0,0,1-.9,12.3Zm77.4-18.9c.3-16.8-6.9-42.9-36.6-42.9-26.7,0-38.4,24.6-40.5,42.9Z"/><path class="cls-1" d="M425.51,227.94c.6-9.9,1.2-24.6,1.2-37.5V14.94h26.1v91.2h.6c9.3-16.2,26.1-26.7,49.5-26.7,36,0,61.5,30,61.2,74.1,0,51.9-32.7,77.7-65.1,77.7-21,0-37.8-8.1-48.6-27.3h-.9l-1.2,24Zm27.3-58.2a49.43,49.43,0,0,0,1.2,9.6c5.1,18.3,20.4,30.9,39.6,30.9,27.6,0,44.1-22.5,44.1-55.8,0-29.1-15-54-43.2-54-18,0-34.8,12.3-40.2,32.4a52,52,0,0,0-1.5,10.8Z"/><path class="cls-1" d="M593.8,200.94c7.8,5.1,21.6,10.5,34.8,10.5,19.21,0,28.21-9.6,28.21-21.6,0-12.6-7.5-19.5-27-26.7-26.11-9.3-38.41-23.7-38.41-41.1,0-23.4,18.9-42.6,50.1-42.6,14.71,0,27.61,4.2,35.71,9l-6.6,19.2a56.51,56.51,0,0,0-29.7-8.4c-15.61,0-24.31,9-24.31,19.8,0,12,8.7,17.4,27.61,24.6,25.2,9.6,38.1,22.2,38.1,43.8,0,25.5-19.8,43.5-54.31,43.5-15.9,0-30.6-3.9-40.8-9.9Z"/><path class="cls-1" d="M745.6,41.94c.3,9-6.3,16.2-16.8,16.2-9.3,0-15.9-7.2-15.9-16.2a16.09,16.09,0,0,1,16.5-16.5C739.3,25.44,745.6,32.64,745.6,41.94Zm-29.4,186V82.74h26.4v145.2Z"/><path class="cls-1" d="M818.2,41v41.7H856v20.1H818.2v78.3c0,18,5.1,28.2,19.8,28.2a58.73,58.73,0,0,0,15.3-1.8l1.2,19.8c-5.1,2.1-13.2,3.6-23.4,3.6-12.3,0-22.2-3.9-28.5-11.1-7.5-7.8-10.2-20.7-10.2-37.8v-79.2H769.9V82.74h22.5V47.94Z"/><path class="cls-1" d="M898.6,160.14c.6,35.7,23.4,50.4,49.8,50.4,18.9,0,30.3-3.3,40.2-7.5l4.5,18.9c-9.3,4.2-25.2,9-48.3,9-44.7,0-71.4-29.4-71.4-73.2s25.8-78.3,68.1-78.3c47.4,0,60,41.7,60,68.4a99.57,99.57,0,0,1-.9,12.3Zm77.4-18.9c.3-16.8-6.9-42.9-36.6-42.9-26.7,0-38.4,24.6-40.5,42.9Z"/><path class="cls-1" d="M1079.54,27.43a373.85,373.85,0,0,1,55.5-4.2c37.5,0,64.2,8.7,81.9,25.2,18,16.51,28.5,39.9,28.5,72.61,0,33-10.2,60-29.1,78.6-18.9,18.9-50.1,29.1-89.4,29.1a421.27,421.27,0,0,1-47.4-2.4Zm26.1,178.81c6.6,1.2,16.2,1.5,26.4,1.5,55.8,0,86.1-31.2,86.1-85.8.3-47.71-26.7-78-81.9-78-13.5,0-23.7,1.2-30.6,2.7Z"/><path class="cls-1" d="M1294.34,159.14c.6,35.7,23.4,50.4,49.8,50.4,18.9,0,30.3-3.3,40.2-7.5l4.5,18.9c-9.3,4.2-25.2,9-48.3,9-44.7,0-71.4-29.4-71.4-73.2s25.8-78.3,68.1-78.3c47.4,0,60,41.7,60,68.4a99.57,99.57,0,0,1-.9,12.3Zm77.4-18.9c.3-16.8-6.9-42.9-36.6-42.9-26.7,0-38.4,24.6-40.5,42.9Z"/><path class="cls-1" d="M1426.33,199.94c7.8,5.1,21.6,10.5,34.8,10.5,19.2,0,28.2-9.6,28.2-21.6,0-12.6-7.5-19.5-27-26.7-26.1-9.3-38.4-23.7-38.4-41.1,0-23.4,18.9-42.6,50.1-42.6,14.7,0,27.61,4.2,35.7,9l-6.59,19.2a56.51,56.51,0,0,0-29.7-8.4c-15.61,0-24.31,9-24.31,19.8,0,12,8.7,17.4,27.6,24.6,25.21,9.6,38.11,22.2,38.11,43.8,0,25.5-19.81,43.5-54.31,43.5-15.9,0-30.6-3.9-40.8-9.9Z"/><path class="cls-1" d="M1578.13,40.93c.3,9-6.3,16.2-16.8,16.2-9.3,0-15.9-7.2-15.9-16.2a16.09,16.09,0,0,1,16.5-16.5C1571.83,24.43,1578.13,31.63,1578.13,40.93Zm-29.4,186V81.73h26.4V226.94Z"/><path class="cls-1" d="M1744,81.73c-.6,10.51-1.2,22.21-1.2,39.91v84.3c0,33.3-6.6,42.7-20.7,55.3-14.1,13.2-34.5,17.4-52.8,17.4-17.4,0-36.6-4.2-48.3-12l6.6-20.1c9.6,6,24.6,11.4,42.6,11.4,27,0,46.8-11.1,46.8-47.7V202h-.6c-8.1,13.5-23.7,24.3-46.2,24.3-36,0-61.8-30.6-61.8-70.8,0-49.2,32.1-77.1,65.4-77.1,25.2,0,39,13.2,45.3,25.2h.6l1.2-21.91ZM1716.73,139a37.6,37.6,0,0,0-1.5-12c-4.8-15.3-17.7-27.9-36.9-27.9-25.2,0-43.2,21.3-43.2,54.9,0,28.5,14.4,52.2,42.9,52.2,16.2,0,30.9-10.2,36.6-27a45.93,45.93,0,0,0,2.1-14.1Z"/><path class="cls-1" d="M1784.83,121c0-15-.3-27.3-1.2-39.31H1807l1.5,24h.6c7.2-13.8,24-27.3,48-27.3,20.1,0,51.3,12,51.3,61.8v86.7H1882v-83.7c0-23.4-8.7-42.9-33.6-42.9-17.4,0-30.9,12.3-35.4,27a38,38,0,0,0-1.8,12.3v87.3h-26.4Z"/><path class="cls-1" d="M16.68,332.11a409.77,409.77,0,0,1,62.41-4.85c42.17,0,72.19,10.05,92.1,29.12,20.24,19.06,32,46.1,32,83.89,0,38.13-11.47,69.33-32.72,90.83C149.26,552.94,114.17,564.72,70,564.72A462.08,462.08,0,0,1,16.68,562ZM46,538.72c7.42,1.39,18.22,1.74,29.69,1.74,62.74,0,96.82-36.06,96.82-99.15.33-55.12-30-90.13-92.1-90.13-15.18,0-26.65,1.38-34.41,3.12Z"/><path class="cls-1" d="M258.22,484.3c.67,41.25,26.31,58.24,56,58.24,21.25,0,34.07-3.82,45.2-8.67l5.06,21.84c-10.46,4.85-28.34,10.4-54.31,10.4-50.27,0-80.29-34-80.29-84.59s29-90.48,76.58-90.48c53.3,0,67.47,48.19,67.47,79a117.41,117.41,0,0,1-1,14.22Zm87-21.84c.34-19.42-7.76-49.58-41.15-49.58-30,0-43.18,28.43-45.55,49.58Z"/><path class="cls-1" d="M422.16,394.86l32,94.29a440.91,440.91,0,0,1,13.16,43h1c3.71-13.87,8.43-27.74,13.83-43l31.71-94.29h31l-64.1,167.78H452.52L390.45,394.86Z"/><path class="cls-1" d="M586.11,484.3c.68,41.25,26.31,58.24,56,58.24,21.25,0,34.07-3.82,45.2-8.67l5.06,21.84c-10.45,4.85-28.33,10.4-54.31,10.4-50.26,0-80.28-34-80.28-84.59s29-90.48,76.57-90.48c53.3,0,67.47,48.19,67.47,79a117.85,117.85,0,0,1-1,14.22Zm87-21.84c.33-19.42-7.76-49.58-41.16-49.58-30,0-43.18,28.43-45.54,49.58Z"/><path class="cls-1" d="M738.59,346.51h29.69V562.64H738.59Z"/><path class="cls-1" d="M966,477.36c0,62.06-41.83,89.1-81.3,89.1-44.19,0-78.27-33.28-78.27-86.32,0-56.16,35.76-89.1,81-89.1C934.25,391,966,426.06,966,477.36ZM836.42,479.1c0,36.74,20.58,64.48,49.59,64.48,28.33,0,49.59-27.39,49.59-65.18,0-28.42-13.83-64.48-48.92-64.48S836.42,447.2,836.42,479.1Z"/><path class="cls-1" d="M1003.4,449.63c0-21.49-.67-38.83-1.35-54.77h26.65l1.35,28.77h.68c12.14-20.45,31.37-32.59,58-32.59,39.47,0,69.15,34.32,69.15,85.28,0,60.32-35.75,90.14-74.21,90.14-21.59,0-40.48-9.71-50.26-26.35h-.68v91.17H1003.4Zm29.35,44.72a70.89,70.89,0,0,0,1.35,12.48c5.4,21.15,23.28,35.71,44.53,35.71,31.37,0,49.59-26.35,49.59-64.83,0-33.63-17.2-62.4-48.58-62.4-20.24,0-39.13,14.91-44.86,37.79a50.33,50.33,0,0,0-2,12.48Z"/><path class="cls-1" d="M1195.35,440.27c0-17.33-.34-31.55-1.35-45.41h26l1.35,27h1c9.1-15.95,24.28-30.86,51.27-30.86,22.27,0,39.13,13.87,46.22,33.63h.67a68.59,68.59,0,0,1,18.22-21.84c9.78-7.63,20.58-11.79,36.09-11.79,21.59,0,53.64,14.56,53.64,72.8v98.8h-29v-95c0-32.24-11.47-51.66-35.42-51.66-16.87,0-30,12.83-35.08,27.74a51.43,51.43,0,0,0-2.37,15.25V562.64h-29V462.11c0-26.69-11.47-46.11-34.07-46.11-18.55,0-32,15.26-36.77,30.51a43.06,43.06,0,0,0-2.36,14.91V562.64h-29Z"/><path class="cls-1" d="M1493.22,484.3c.68,41.25,26.32,58.24,56,58.24,21.26,0,34.07-3.82,45.21-8.67l5.06,21.84c-10.46,4.85-28.34,10.4-54.32,10.4-50.26,0-80.28-34-80.28-84.59s29-90.48,76.57-90.48c53.3,0,67.47,48.19,67.47,79a117.85,117.85,0,0,1-1,14.22Zm87-21.84c.34-19.42-7.76-49.58-41.16-49.58-30,0-43.18,28.43-45.54,49.58Z"/><path class="cls-1" d="M1645.7,440.27c0-17.33-.34-31.55-1.35-45.41h26.31l1.69,27.73h.68c8.09-15.95,27-31.55,54-31.55,22.6,0,57.69,13.87,57.69,71.42V562.64H1755V465.92c0-27-9.78-49.57-37.78-49.57-19.57,0-34.75,14.21-39.81,31.2a44.93,44.93,0,0,0-2,14.21V562.64H1645.7Z"/><path class="cls-1" d="M1867.34,346.67v48.19h42.5v23.22h-42.5v90.48c0,20.8,5.73,32.59,22.26,32.59a64.31,64.31,0,0,0,17.2-2.08l1.35,22.88c-5.73,2.43-14.84,4.16-26.31,4.16-13.83,0-25-4.51-32-12.83-8.43-9-11.47-23.92-11.47-43.68V418.08H1813V394.86h25.3V354.64Z"/><path class="cls-2" d="M891.24,342.88l-.91-7.91h-.39a23.38,23.38,0,0,1-19.18,9.33c-12.71,0-19.19-8.94-19.19-18,0-15.17,13.48-23.46,37.73-23.33v-1.3c0-5.19-1.43-14.52-14.26-14.52a31.29,31.29,0,0,0-16.34,4.67l-2.59-7.52c5.18-3.37,12.7-5.58,20.61-5.58,19.19,0,23.86,13.1,23.86,25.67v23.47a88.25,88.25,0,0,0,1,15Zm-1.68-32C877.11,310.6,863,312.8,863,325c0,7.39,4.93,10.89,10.76,10.89a15.61,15.61,0,0,0,15.17-10.5,11.82,11.82,0,0,0,.65-3.63Z"/><path class="cls-2" d="M919,297.11c0-6.48-.13-11.79-.52-17h10.11l.65,10.37h.26c3.11-6,10.37-11.8,20.74-11.8,8.69,0,22.17,5.19,22.17,26.71v37.47H961V306.71c0-10.12-3.76-18.54-14.52-18.54a16.19,16.19,0,0,0-15.29,11.66,16.43,16.43,0,0,0-.78,5.32v37.73H919Z"/><path class="cls-2" d="M1045.11,250.83v75.84c0,5.57.13,11.93.52,16.21h-10.24l-.52-10.89h-.26c-3.5,7-11.14,12.31-21.39,12.31-15.16,0-26.83-12.83-26.83-31.89-.13-20.87,12.83-33.71,28.13-33.71,9.59,0,16.08,4.54,18.93,9.6h.26V250.83Zm-11.4,54.84a20.11,20.11,0,0,0-.52-4.8,16.78,16.78,0,0,0-16.47-13.22c-11.79,0-18.79,10.37-18.79,24.24,0,12.71,6.22,23.21,18.53,23.21,7.65,0,14.65-5.06,16.73-13.62a19.71,19.71,0,0,0,.52-4.92Z"/><line class="cls-3" x1="17.61" y1="305.37" x2="818.83" y2="305.37"/><line class="cls-3" x1="1086.83" y1="304.37" x2="1917.97" y2="304.37"/><path class="cls-4" d="M55.8,216.5,4.5,14.3H32.1l24,102.3c6,25.2,11.4,50.4,15,69.9h.6c3.3-20.1,9.6-44.1,16.5-70.2l27-102h27.3l24.6,102.6c5.7,24,11.1,48,14.1,69.3h.6c4.2-22.2,9.9-44.7,16.2-69.9l26.7-102h26.7L194.1,216.5H166.8L141.3,111.2c-6.3-25.8-10.5-45.6-13.2-66h-.6a631.7,631.7,0,0,1-15.6,66L83.1,216.5Z"/><path class="cls-4" d="M280.5,148.7c.6,35.7,23.4,50.4,49.8,50.4,18.9,0,30.3-3.3,40.2-7.5l4.5,18.9c-9.3,4.2-25.2,9-48.3,9-44.7,0-71.4-29.4-71.4-73.2S281.1,68,323.4,68c47.4,0,60,41.7,60,68.4a99.57,99.57,0,0,1-.9,12.3Zm77.4-18.9c.3-16.8-6.9-42.9-36.6-42.9-26.7,0-38.4,24.6-40.5,42.9Z"/><path class="cls-4" d="M414.9,216.5c.6-9.9,1.2-24.6,1.2-37.5V3.5h26.1V94.7h.6C452.1,78.5,468.9,68,492.3,68c36,0,61.5,30,61.2,74.1,0,51.9-32.7,77.7-65.1,77.7-21,0-37.8-8.1-48.6-27.3h-.9l-1.2,24Zm27.3-58.2a49.43,49.43,0,0,0,1.2,9.6c5.1,18.3,20.4,30.9,39.6,30.9,27.6,0,44.1-22.5,44.1-55.8,0-29.1-15-54-43.2-54-18,0-34.8,12.3-40.2,32.4a52,52,0,0,0-1.5,10.8Z"/><path class="cls-4" d="M583.19,189.5c7.8,5.1,21.6,10.5,34.8,10.5,19.2,0,28.2-9.6,28.2-21.6,0-12.6-7.5-19.5-27-26.7-26.1-9.3-38.4-23.7-38.4-41.1,0-23.4,18.9-42.6,50.1-42.6,14.7,0,27.6,4.2,35.7,9L660,96.2a56.51,56.51,0,0,0-29.7-8.4c-15.6,0-24.3,9-24.3,19.8,0,12,8.7,17.4,27.6,24.6,25.2,9.6,38.1,22.2,38.1,43.8,0,25.5-19.8,43.5-54.3,43.5-15.9,0-30.6-3.9-40.8-9.9Z"/><path class="cls-4" d="M735,30.5c.3,9-6.3,16.2-16.8,16.2-9.3,0-15.9-7.2-15.9-16.2A16.09,16.09,0,0,1,718.79,14C728.69,14,735,21.2,735,30.5Zm-29.4,186V71.3H732V216.5Z"/><path class="cls-4" d="M807.59,29.6V71.3h37.8V91.4h-37.8v78.3c0,18,5.1,28.2,19.8,28.2a58.73,58.73,0,0,0,15.3-1.8l1.2,19.8c-5.1,2.1-13.2,3.6-23.4,3.6-12.3,0-22.2-3.9-28.5-11.1-7.5-7.8-10.2-20.7-10.2-37.8V91.4h-22.5V71.3h22.5V36.5Z"/><path class="cls-4" d="M888,148.7c.6,35.7,23.4,50.4,49.8,50.4,18.9,0,30.3-3.3,40.2-7.5l4.5,18.9c-9.3,4.2-25.2,9-48.3,9-44.7,0-71.4-29.4-71.4-73.2S888.59,68,930.89,68c47.4,0,60,41.7,60,68.4a99.57,99.57,0,0,1-.9,12.3Zm77.4-18.9c.3-16.8-6.9-42.9-36.6-42.9-26.7,0-38.4,24.6-40.5,42.9Z"/><path class="cls-4" d="M1068.93,16a373.85,373.85,0,0,1,55.5-4.2c37.5,0,64.2,8.7,81.9,25.2,18,16.5,28.5,39.9,28.5,72.6,0,33-10.2,60-29.1,78.6-18.9,18.9-50.1,29.1-89.4,29.1a421.27,421.27,0,0,1-47.4-2.4ZM1095,194.8c6.6,1.2,16.2,1.5,26.4,1.5,55.8,0,86.1-31.2,86.1-85.8.3-47.7-26.7-78-81.9-78-13.5,0-23.7,1.2-30.6,2.7Z"/><path class="cls-4" d="M1283.73,147.7c.6,35.7,23.4,50.4,49.8,50.4,18.9,0,30.3-3.3,40.2-7.5l4.5,18.9c-9.3,4.2-25.2,9-48.3,9-44.7,0-71.41-29.4-71.41-73.2S1284.33,67,1326.63,67c47.4,0,60,41.7,60,68.4a99.57,99.57,0,0,1-.9,12.3Zm77.4-18.9c.3-16.8-6.9-42.9-36.6-42.9-26.7,0-38.4,24.6-40.5,42.9Z"/><path class="cls-4" d="M1415.72,188.5c7.8,5.1,21.6,10.5,34.8,10.5,19.2,0,28.2-9.6,28.2-21.6,0-12.6-7.5-19.5-27-26.7-26.1-9.3-38.4-23.7-38.4-41.1,0-23.4,18.9-42.6,50.1-42.6,14.7,0,27.6,4.2,35.7,9l-6.6,19.2a56.51,56.51,0,0,0-29.7-8.4c-15.6,0-24.3,9-24.3,19.8,0,12,8.7,17.4,27.6,24.6,25.2,9.6,38.1,22.2,38.1,43.8,0,25.5-19.8,43.5-54.3,43.5-15.9,0-30.6-3.9-40.8-9.9Z"/><path class="cls-4" d="M1567.52,29.5c.3,9-6.3,16.2-16.8,16.2-9.3,0-15.9-7.2-15.9-16.2a16.09,16.09,0,0,1,16.5-16.5C1561.22,13,1567.52,20.2,1567.52,29.5Zm-29.4,186V70.3h26.4V215.5Z"/><path class="cls-4" d="M1733.42,70.3c-.6,10.5-1.2,22.2-1.2,39.9v84.3c0,33.3-6.6,42.7-20.7,55.3-14.1,13.2-34.5,17.4-52.8,17.4-17.4,0-36.6-4.2-48.3-12l6.6-20.1c9.6,6,24.6,11.4,42.6,11.4,27,0,46.8-11.1,46.8-47.7v-8.2h-.6c-8.1,13.5-23.7,24.3-46.2,24.3-36,0-61.8-30.6-61.8-70.8,0-49.2,32.1-77.1,65.4-77.1,25.2,0,39,13.2,45.3,25.2h.6l1.2-21.9Zm-27.3,57.3a37.6,37.6,0,0,0-1.5-12c-4.8-15.3-17.7-27.9-36.9-27.9-25.2,0-43.2,21.3-43.2,54.9,0,28.5,14.4,52.2,42.9,52.2,16.2,0,30.9-10.2,36.6-27a45.93,45.93,0,0,0,2.1-14.1Z"/><path class="cls-4" d="M1774.22,109.6c0-15-.3-27.3-1.2-39.3h23.4l1.5,24h.6c7.2-13.8,24-27.3,48-27.3,20.1,0,51.3,12,51.3,61.8v86.7h-26.4V131.8c0-23.4-8.7-42.9-33.6-42.9-17.4,0-30.9,12.3-35.4,27a38,38,0,0,0-1.8,12.3v87.3h-26.4Z"/><path class="cls-4" d="M6.07,320.68a408.39,408.39,0,0,1,62.41-4.86c42.17,0,72.19,10.06,92.09,29.12,20.24,19.07,32.05,46.11,32.05,83.9,0,38.13-11.47,69.33-32.72,90.82-21.25,21.84-56.34,33.63-100.53,33.63a459.47,459.47,0,0,1-53.3-2.78ZM35.42,527.29c7.42,1.38,18.22,1.73,29.69,1.73,62.74,0,96.81-36,96.81-99.14.34-55.12-30-90.14-92.09-90.14-15.18,0-26.65,1.39-34.41,3.12Z"/><path class="cls-4" d="M247.61,472.86c.67,41.25,26.31,58.24,56,58.24,21.26,0,34.08-3.81,45.21-8.66l5.06,21.83c-10.46,4.86-28.34,10.4-54.31,10.4-50.27,0-80.29-34-80.29-84.58s29-90.48,76.58-90.48c53.3,0,67.46,48.19,67.46,79a117.65,117.65,0,0,1-1,14.21Zm87-21.84c.34-19.41-7.76-49.57-41.16-49.57-30,0-43.18,28.43-45.54,49.57Z"/><path class="cls-4" d="M411.55,383.42l32.05,94.3a440.76,440.76,0,0,1,13.16,43h1c3.71-13.87,8.43-27.73,13.83-43l31.71-94.3h31l-64.1,167.79H441.91L379.84,383.42Z"/><path class="cls-4" d="M575.5,472.86c.68,41.25,26.31,58.24,56,58.24,21.25,0,34.07-3.81,45.2-8.66l5.06,21.83c-10.45,4.86-28.33,10.4-54.31,10.4-50.26,0-80.29-34-80.29-84.58s29-90.48,76.58-90.48c53.3,0,67.47,48.19,67.47,79a119.77,119.77,0,0,1-1,14.21Zm87-21.84c.34-19.41-7.75-49.57-41.15-49.57-30,0-43.18,28.43-45.54,49.57Z"/><path class="cls-4" d="M728,335.08h29.68V551.21H728Z"/><path class="cls-4" d="M955.35,465.93c0,62.05-41.84,89.09-81.3,89.09-44.2,0-78.27-33.28-78.27-86.32,0-56.16,35.76-89.09,81-89.09C923.64,379.61,955.35,414.62,955.35,465.93Zm-129.54,1.73c0,36.75,20.57,64.48,49.58,64.48,28.34,0,49.59-27.39,49.59-65.17,0-28.43-13.83-64.48-48.91-64.48S825.81,435.77,825.81,467.66Z"/><path class="cls-4" d="M992.79,438.2c0-21.5-.67-38.83-1.35-54.78h26.65l1.35,28.78h.68c12.14-20.46,31.37-32.59,58-32.59,39.47,0,69.15,34.32,69.15,85.28,0,60.32-35.75,90.13-74.21,90.13-21.59,0-40.48-9.71-50.27-26.35h-.67v91.18H992.79Zm29.35,44.72a70.16,70.16,0,0,0,1.35,12.48c5.4,21.14,23.28,35.7,44.53,35.7,31.37,0,49.59-26.35,49.59-64.82,0-33.63-17.21-62.4-48.58-62.4-20.24,0-39.13,14.9-44.87,37.78a50.87,50.87,0,0,0-2,12.48Z"/><path class="cls-4" d="M1184.74,428.84c0-17.34-.34-31.55-1.35-45.42h26l1.35,27h1c9.11-15.94,24.29-30.85,51.28-30.85,22.26,0,39.13,13.87,46.22,33.63h.67a68.59,68.59,0,0,1,18.22-21.84c9.78-7.63,20.57-11.79,36.09-11.79,21.59,0,53.64,14.56,53.64,72.8v98.8h-29v-95c0-32.24-11.47-51.65-35.42-51.65-16.87,0-30,12.83-35.09,27.73a51.52,51.52,0,0,0-2.36,15.26V551.21h-29V450.68c0-26.7-11.47-46.11-34.07-46.11-18.55,0-32.05,15.25-36.77,30.51a43,43,0,0,0-2.36,14.9V551.21h-29Z"/><path class="cls-4" d="M1482.61,472.86c.68,41.25,26.32,58.24,56,58.24,21.25,0,34.07-3.81,45.2-8.66l5.06,21.83c-10.45,4.86-28.33,10.4-54.31,10.4-50.26,0-80.28-34-80.28-84.58s29-90.48,76.57-90.48c53.3,0,67.47,48.19,67.47,79a117.65,117.65,0,0,1-1,14.21Zm87-21.84c.33-19.41-7.76-49.57-41.16-49.57-30,0-43.18,28.43-45.54,49.57Z"/><path class="cls-4" d="M1635.09,428.84c0-17.34-.34-31.55-1.35-45.42h26.31l1.69,27.74h.67c8.1-16,27-31.55,54-31.55,22.6,0,57.68,13.87,57.68,71.41V551.21h-29.68V454.49c0-27-9.78-49.57-37.78-49.57-19.57,0-34.75,14.21-39.81,31.2a44.93,44.93,0,0,0-2,14.21V551.21h-29.69Z"/><path class="cls-4" d="M1856.72,335.24v48.18h42.51v23.23h-42.51v90.48c0,20.8,5.74,32.58,22.27,32.58a64.31,64.31,0,0,0,17.2-2.08l1.35,22.88c-5.73,2.43-14.84,4.16-26.31,4.16-13.83,0-25-4.5-32-12.82-8.43-9-11.47-23.92-11.47-43.68V406.65h-25.3V383.42h25.3V343.21Z"/><path class="cls-5" d="M884.63,334.44l-.91-7.91h-.39a23.36,23.36,0,0,1-19.18,9.34c-12.71,0-19.19-8.95-19.19-18,0-15.17,13.48-23.47,37.72-23.34v-1.3c0-5.18-1.42-14.51-14.25-14.51a31.29,31.29,0,0,0-16.34,4.66l-2.59-7.52c5.18-3.37,12.7-5.57,20.61-5.57,19.19,0,23.85,13.09,23.85,25.67V319.4a88.1,88.1,0,0,0,1,15Zm-1.69-32c-12.44-.26-26.57,1.94-26.57,14.13,0,7.39,4.93,10.89,10.76,10.89a15.62,15.62,0,0,0,15.17-10.5,12.17,12.17,0,0,0,.64-3.63Z"/><path class="cls-5" d="M912.37,288.68c0-6.48-.13-11.8-.52-17H922l.65,10.38h.26c3.11-6,10.37-11.8,20.74-11.8,8.69,0,22.17,5.18,22.17,26.7v37.47H954.37V298.27c0-10.11-3.76-18.54-14.52-18.54a16.2,16.2,0,0,0-15.29,11.67,16.36,16.36,0,0,0-.78,5.31v37.73H912.37Z"/><path class="cls-5" d="M1038.5,242.4v75.84c0,5.57.13,11.92.52,16.2h-10.24l-.52-10.89H1028c-3.5,7-11.15,12.32-21.39,12.32-15.17,0-26.83-12.84-26.83-31.9-.13-20.87,12.83-33.7,28.13-33.7,9.59,0,16.07,4.54,18.93,9.59h.26V242.4Zm-11.4,54.83a20,20,0,0,0-.52-4.79,16.79,16.79,0,0,0-16.47-13.23c-11.79,0-18.8,10.37-18.8,24.25,0,12.7,6.23,23.2,18.54,23.2,7.65,0,14.65-5.05,16.73-13.61a19.79,19.79,0,0,0,.52-4.93Z"/><line class="cls-6" x1="8" y1="295.94" x2="809.22" y2="295.94"/><line class="cls-6" x1="1079.22" y1="295.94" x2="1910.36" y2="295.94"/></g></g></svg>