<svg xmlns="http://www.w3.org/2000/svg" viewBox="0 0 95 76.11"><defs><style>.cls-1{fill:#1b1b1b;opacity:0.68;}</style></defs><title>webDev-dark_2</title><g id="Layer_2" data-name="Layer 2"><g id="Layer_1-2" data-name="Layer 1"><path class="cls-1" d="M92.17,0H2.91A2.84,2.84,0,0,0,0,2.75V62.36a3,3,0,0,0,2.91,2.88H38.06c0,.89-.32,4.75-2.16,6.62-1.44,1.47-3.45,2.85-2.67,3.56.19.44,1.09.69,3.14.69H59.49c2.34,0,3.15-.38,3.16-1h-.08V75h-.08c-.1-.77-1.66-1.91-2.84-3.11-1.83-1.86-2.11-5.72-2.15-6.62H92.17A2.87,2.87,0,0,0,95,62.36V2.75A2.77,2.77,0,0,0,92.17,0ZM47.5,62.5a1.85,1.85,0,1,1,1.85-1.85A1.85,1.85,0,0,1,47.5,62.5ZM91,52.84H4v-48H91Z"/></g></g></svg>