<svg id="Layer_1" data-name="Layer 1" xmlns="http://www.w3.org/2000/svg" viewBox="0 0 1981.57 694.96"><defs><style>.cls-1,.cls-2{fill:#6a72a3;}.cls-1,.cls-2,.cls-3{stroke:#6a72a3;}.cls-1,.cls-2,.cls-3,.cls-4,.cls-5,.cls-6{stroke-miterlimit:10;}.cls-1,.cls-3,.cls-4,.cls-6{stroke-width:7px;}.cls-2,.cls-5{font-size:129.63px;stroke-width:2px;font-family:MyriadPro-Regular, Myriad Pro;}.cls-3,.cls-6{fill:none;}.cls-4,.cls-5{fill:#fff;}.cls-4,.cls-5,.cls-6{stroke:#fff;}</style></defs><title>webDesign</title><path class="cls-1" d="M101.19,254.22,49.89,52h27.6l24,102.3c6,25.2,11.4,50.4,15,69.9h.6c3.3-20.1,9.6-44.1,16.5-70.2l27-102h27.3l24.6,102.6c5.7,24,11.1,48,14.1,69.3h.6c4.2-22.2,9.9-44.7,16.2-69.9L270.1,52h26.7l-57.3,202.2H212.2l-25.5-105.3c-6.3-25.8-10.5-45.6-13.21-66h-.59a631.7,631.7,0,0,1-15.6,66l-28.81,105.3Z"/><path class="cls-1" d="M325.9,186.42c.59,35.7,23.4,50.4,49.8,50.4,18.9,0,30.3-3.3,40.2-7.5l4.5,18.9c-9.3,4.2-25.2,9-48.3,9-44.7,0-71.41-29.4-71.41-73.2s25.8-78.3,68.11-78.3c47.4,0,60,41.7,60,68.4a99.57,99.57,0,0,1-.9,12.3Zm77.4-18.9c.3-16.8-6.9-42.9-36.6-42.9-26.7,0-38.4,24.6-40.5,42.9Z"/><path class="cls-1" d="M460.29,254.22c.6-9.9,1.2-24.6,1.2-37.5V41.22h26.1v91.2h.6c9.3-16.2,26.1-26.7,49.5-26.7,36,0,61.5,30,61.2,74.1,0,51.9-32.7,77.7-65.1,77.7-21,0-37.8-8.1-48.6-27.3h-.9l-1.2,24Zm27.3-58.2a49.43,49.43,0,0,0,1.2,9.6c5.1,18.3,20.4,30.9,39.6,30.9,27.6,0,44.1-22.5,44.1-55.8,0-29.1-15-54-43.2-54-18,0-34.8,12.3-40.2,32.4a52,52,0,0,0-1.5,10.8Z"/><path class="cls-1" d="M628.59,227.22c7.8,5.1,21.6,10.5,34.8,10.5,19.2,0,28.2-9.6,28.2-21.6,0-12.6-7.5-19.5-27-26.7-26.1-9.3-38.4-23.7-38.4-41.1,0-23.4,18.9-42.6,50.1-42.6,14.7,0,27.6,4.2,35.7,9l-6.6,19.2a56.51,56.51,0,0,0-29.7-8.4c-15.6,0-24.3,9-24.3,19.8,0,12,8.7,17.4,27.6,24.6,25.2,9.6,38.1,22.2,38.1,43.8,0,25.5-19.8,43.5-54.3,43.5-15.9,0-30.6-3.9-40.8-9.9Z"/><path class="cls-1" d="M780.39,68.22c.3,9-6.3,16.2-16.8,16.2-9.3,0-15.9-7.2-15.9-16.2a16.09,16.09,0,0,1,16.5-16.5C774.09,51.72,780.39,58.92,780.39,68.22Zm-29.4,186V109h26.4v145.2Z"/><path class="cls-1" d="M853,67.32V109h37.81v20.1H853v78.3c0,18,5.11,28.2,19.81,28.2a58.79,58.79,0,0,0,15.3-1.8l1.2,19.8c-5.11,2.1-13.2,3.6-23.4,3.6-12.3,0-22.21-3.9-28.5-11.1-7.5-7.8-10.21-20.7-10.21-37.8v-79.2h-22.5V109h22.5V74.22Z"/><path class="cls-1" d="M933.38,186.42c.6,35.7,23.4,50.4,49.8,50.4,18.9,0,30.3-3.3,40.2-7.5l4.5,18.9c-9.3,4.2-25.2,9-48.3,9-44.7,0-71.4-29.4-71.4-73.2s25.8-78.3,68.1-78.3c47.4,0,60,41.7,60,68.4a99.57,99.57,0,0,1-.9,12.3Zm77.4-18.9c.3-16.8-6.9-42.9-36.6-42.9-26.7,0-38.4,24.6-40.5,42.9Z"/><path class="cls-1" d="M1114.33,53.72a373.75,373.75,0,0,1,55.5-4.21c37.5,0,64.2,8.71,81.9,25.21,18,16.5,28.5,39.9,28.5,72.6,0,33-10.2,60-29.1,78.6-18.9,18.9-50.1,29.1-89.4,29.1a421.27,421.27,0,0,1-47.4-2.4Zm26.1,178.8c6.6,1.2,16.2,1.5,26.4,1.5,55.8,0,86.1-31.2,86.1-85.8.3-47.7-26.7-78-81.9-78-13.5,0-23.7,1.2-30.6,2.7Z"/><path class="cls-1" d="M1329.12,185.42c.6,35.7,23.4,50.4,49.8,50.4,18.9,0,30.3-3.3,40.2-7.5l4.5,18.9c-9.3,4.2-25.2,9-48.3,9-44.7,0-71.4-29.4-71.4-73.2s25.8-78.3,68.1-78.3c47.4,0,60,41.7,60,68.4a99.57,99.57,0,0,1-.9,12.3Zm77.4-18.9c.3-16.8-6.9-42.9-36.6-42.9-26.7,0-38.4,24.6-40.5,42.9Z"/><path class="cls-1" d="M1461.12,226.22c7.8,5.1,21.6,10.5,34.8,10.5,19.2,0,28.2-9.6,28.2-21.6,0-12.6-7.5-19.5-27-26.7-26.1-9.3-38.4-23.7-38.4-41.1,0-23.4,18.9-42.6,50.1-42.6,14.7,0,27.6,4.2,35.7,9l-6.6,19.2a56.51,56.51,0,0,0-29.7-8.4c-15.6,0-24.3,9-24.3,19.8,0,12,8.7,17.4,27.6,24.6,25.2,9.6,38.1,22.2,38.1,43.8,0,25.5-19.8,43.5-54.3,43.5-15.9,0-30.6-3.9-40.8-9.9Z"/><path class="cls-1" d="M1612.92,67.22c.3,9-6.3,16.2-16.8,16.2-9.3,0-15.9-7.2-15.9-16.2a16.09,16.09,0,0,1,16.5-16.5C1606.62,50.72,1612.92,57.92,1612.92,67.22Zm-29.4,186V108h26.4v145.2Z"/><path class="cls-1" d="M1778.82,108c-.6,10.5-1.2,22.2-1.2,39.9v84.3c0,33.3-6.6,42.7-20.7,55.3-14.1,13.2-34.51,17.4-52.8,17.4-17.41,0-36.61-4.2-48.31-12l6.6-20.1c9.6,6,24.6,11.4,42.6,11.4,27,0,46.81-11.1,46.81-47.7v-8.2h-.6c-8.1,13.5-23.7,24.3-46.21,24.3-36,0-61.8-30.6-61.8-70.8,0-49.2,32.1-77.1,65.41-77.1,25.2,0,39,13.2,45.3,25.2h.6l1.2-21.9Zm-27.3,57.3a37.6,37.6,0,0,0-1.5-12c-4.8-15.3-17.7-27.9-36.9-27.9-25.21,0-43.21,21.3-43.21,54.9,0,28.5,14.4,52.2,42.91,52.2,16.2,0,30.9-10.2,36.6-27a45.93,45.93,0,0,0,2.1-14.1Z"/><path class="cls-1" d="M1819.61,147.32c0-15-.3-27.3-1.2-39.3h23.4l1.5,24h.6c7.2-13.8,24-27.3,48-27.3,20.1,0,51.3,12,51.3,61.8v86.7h-26.4v-83.7c0-23.4-8.7-42.9-33.6-42.9-17.4,0-30.9,12.3-35.4,27a38,38,0,0,0-1.8,12.3v87.3h-26.4Z"/><path class="cls-1" d="M51.47,358.39a409.73,409.73,0,0,1,62.4-4.85c42.17,0,72.2,10,92.1,29.12,20.24,19.06,32.05,46.1,32.05,83.89,0,38.13-11.47,69.33-32.73,90.83C184,579.22,149,591,104.77,591a461.82,461.82,0,0,1-53.3-2.77ZM80.82,565c7.42,1.39,18.21,1.74,29.68,1.74,62.75,0,96.82-36.06,96.82-99.15.34-55.12-30-90.13-92.1-90.13-15.18,0-26.65,1.39-34.4,3.12Z"/><path class="cls-1" d="M293,510.58c.68,41.25,26.31,58.24,56,58.24,21.25,0,34.07-3.82,45.2-8.67L399.26,582c-10.45,4.85-28.33,10.4-54.31,10.4-50.26,0-80.29-34-80.29-84.59s29-90.48,76.58-90.48c53.3,0,67.47,48.19,67.47,79a120,120,0,0,1-1,14.22Zm87-21.84c.33-19.42-7.76-49.58-41.16-49.58-30,0-43.18,28.43-45.54,49.58Z"/><path class="cls-1" d="M457,421.14,489,515.43a440.74,440.74,0,0,1,13.15,43h1c3.71-13.87,8.44-27.74,13.83-43l31.71-94.29h31L515.65,588.92H487.31L425.24,421.14Z"/><path class="cls-1" d="M620.9,510.58c.67,41.25,26.31,58.24,56,58.24,21.26,0,34.08-3.82,45.21-8.67L727.16,582c-10.46,4.85-28.34,10.4-54.31,10.4-50.27,0-80.29-34-80.29-84.59s29-90.48,76.58-90.48c53.3,0,67.46,48.19,67.46,79a117.85,117.85,0,0,1-1,14.22Zm87-21.84c.34-19.42-7.76-49.58-41.16-49.58-30,0-43.18,28.43-45.54,49.58Z"/><path class="cls-1" d="M773.37,372.79h29.69V588.92H773.37Z"/><path class="cls-1" d="M1000.74,503.64c0,62.06-41.83,89.1-81.3,89.1-44.19,0-78.26-33.28-78.26-86.32,0-56.16,35.76-89.1,81-89.1C969,417.32,1000.74,452.34,1000.74,503.64ZM871.2,505.38c0,36.74,20.58,64.48,49.59,64.48,28.34,0,49.59-27.39,49.59-65.18,0-28.42-13.83-64.48-48.92-64.48S871.2,473.48,871.2,505.38Z"/><path class="cls-1" d="M1038.19,475.91c0-21.49-.68-38.83-1.35-54.77h26.65l1.35,28.77h.67c12.15-20.45,31.37-32.59,58-32.59,39.47,0,69.16,34.32,69.16,85.28,0,60.32-35.76,90.14-74.22,90.14-21.59,0-40.48-9.71-50.26-26.35h-.67v91.17h-29.35Zm29.35,44.72a70.92,70.92,0,0,0,1.34,12.48c5.4,21.15,23.28,35.71,44.53,35.71,31.38,0,49.59-26.35,49.59-64.83,0-33.63-17.2-62.4-48.57-62.4-20.24,0-39.14,14.91-44.87,37.79a50.79,50.79,0,0,0-2,12.48Z"/><path class="cls-1" d="M1230.13,466.55c0-17.33-.34-31.55-1.35-45.41h26l1.35,27h1c9.11-15.95,24.29-30.86,51.27-30.86,22.27,0,39.14,13.87,46.22,33.63h.68a68.56,68.56,0,0,1,18.21-21.84c9.79-7.63,20.58-11.79,36.1-11.79,21.59,0,53.63,14.56,53.63,72.8v98.8h-29v-95c0-32.24-11.47-51.66-35.42-51.66-16.86,0-30,12.83-35.08,27.74a51.45,51.45,0,0,0-2.36,15.25V588.92h-29V488.39c0-26.69-11.47-46.11-34.08-46.11-18.55,0-32,15.26-36.77,30.51a43.3,43.3,0,0,0-2.36,14.91V588.92h-29Z"/><path class="cls-1" d="M1528,510.58c.67,41.25,26.31,58.24,56,58.24,21.25,0,34.07-3.82,45.2-8.67l5.06,21.84c-10.46,4.85-28.34,10.4-54.31,10.4-50.27,0-80.29-34-80.29-84.59s29-90.48,76.58-90.48c53.3,0,67.46,48.19,67.46,79a117.85,117.85,0,0,1-1,14.22Zm87-21.84c.34-19.42-7.76-49.58-41.15-49.58-30,0-43.18,28.43-45.55,49.58Z"/><path class="cls-1" d="M1680.49,466.55c0-17.33-.34-31.55-1.35-45.41h26.31l1.68,27.73h.68c8.1-15.95,27-31.55,54-31.55,22.61,0,57.69,13.87,57.69,71.42V588.92h-29.69V492.2c0-27-9.78-49.57-37.78-49.57-19.56,0-34.74,14.21-39.8,31.2a44.92,44.92,0,0,0-2,14.21V588.92h-29.68Z"/><path class="cls-1" d="M1902.12,373v48.19h42.5v23.22h-42.5v90.48c0,20.8,5.73,32.59,22.26,32.59a64.4,64.4,0,0,0,17.21-2.08l1.35,22.88c-5.74,2.43-14.85,4.16-26.32,4.16-13.83,0-25-4.51-32-12.83-8.44-9-11.47-23.92-11.47-43.68V444.36h-25.3V421.14h25.3V380.93Z"/><text class="cls-2" transform="translate(881.82 369.16)">and</text><line class="cls-3" x1="52.39" y1="331.65" x2="853.61" y2="331.65"/><line class="cls-3" x1="1121.61" y1="330.65" x2="1952.75" y2="330.65"/><path class="cls-4" d="M90.58,242.78,39.28,40.58h27.6l24,102.3c6,25.2,11.4,50.4,15,69.9h.6c3.3-20.1,9.6-44.1,16.5-70.2l27-102h27.3l24.6,102.6c5.7,24,11.1,48,14.1,69.3h.6c4.2-22.2,9.9-44.7,16.2-69.9l26.7-102h26.7l-57.3,202.2h-27.3l-25.5-105.3c-6.3-25.8-10.5-45.6-13.2-66h-.6a631.7,631.7,0,0,1-15.6,66l-28.8,105.3Z"/><path class="cls-4" d="M315.28,175c.6,35.7,23.4,50.4,49.8,50.4,18.9,0,30.3-3.3,40.2-7.5l4.5,18.9c-9.3,4.2-25.2,9-48.3,9-44.7,0-71.4-29.4-71.4-73.2s25.8-78.3,68.1-78.3c47.4,0,60,41.7,60,68.4a99.57,99.57,0,0,1-.9,12.3Zm77.4-18.9c.3-16.8-6.9-42.9-36.6-42.9-26.7,0-38.4,24.6-40.5,42.9Z"/><path class="cls-4" d="M449.68,242.78c.6-9.9,1.2-24.6,1.2-37.5V29.78H477V121h.6c9.3-16.2,26.1-26.7,49.5-26.7,36,0,61.5,30,61.2,74.1,0,51.9-32.7,77.7-65.1,77.7-21,0-37.8-8.1-48.6-27.3h-.9l-1.2,24Zm27.3-58.2a49.43,49.43,0,0,0,1.2,9.6c5.1,18.3,20.4,30.9,39.6,30.9,27.6,0,44.1-22.5,44.1-55.8,0-29.1-15-54-43.2-54-18,0-34.8,12.3-40.2,32.4a52,52,0,0,0-1.5,10.8Z"/><path class="cls-4" d="M618,215.78c7.8,5.1,21.6,10.5,34.8,10.5,19.2,0,28.2-9.6,28.2-21.6,0-12.6-7.5-19.5-27-26.7-26.1-9.3-38.4-23.7-38.4-41.1,0-23.4,18.9-42.6,50.1-42.6,14.7,0,27.6,4.2,35.7,9l-6.6,19.2a56.51,56.51,0,0,0-29.7-8.4c-15.6,0-24.3,9-24.3,19.8,0,12,8.7,17.4,27.6,24.6,25.2,9.6,38.1,22.2,38.1,43.8,0,25.5-19.8,43.5-54.3,43.5-15.9,0-30.6-3.9-40.8-9.9Z"/><path class="cls-4" d="M769.78,56.78c.3,9-6.3,16.2-16.8,16.2-9.3,0-15.9-7.2-15.9-16.2a16.09,16.09,0,0,1,16.5-16.5C763.48,40.28,769.78,47.48,769.78,56.78Zm-29.4,186V97.58h26.4v145.2Z"/><path class="cls-4" d="M842.37,55.88v41.7h37.8v20.1h-37.8V196c0,18,5.1,28.2,19.8,28.2a58.73,58.73,0,0,0,15.3-1.8l1.2,19.8c-5.1,2.1-13.2,3.6-23.4,3.6-12.3,0-22.2-3.9-28.5-11.1-7.5-7.8-10.2-20.7-10.2-37.8v-79.2h-22.5V97.58h22.5V62.78Z"/><path class="cls-4" d="M922.77,175c.6,35.7,23.4,50.4,49.8,50.4,18.9,0,30.3-3.3,40.2-7.5l4.5,18.9c-9.3,4.2-25.2,9-48.3,9-44.7,0-71.4-29.4-71.4-73.2s25.8-78.3,68.1-78.3c47.4,0,60,41.7,60,68.4a99.57,99.57,0,0,1-.9,12.3Zm77.4-18.9c.3-16.8-6.9-42.9-36.6-42.9-26.7,0-38.4,24.6-40.5,42.9Z"/><path class="cls-4" d="M1103.71,42.28a373.85,373.85,0,0,1,55.5-4.2c37.5,0,64.2,8.7,81.9,25.2,18,16.5,28.51,39.9,28.51,72.6,0,33-10.2,60-29.1,78.6-18.91,18.9-50.11,29.1-89.41,29.1a421.27,421.27,0,0,1-47.4-2.4Zm26.1,178.8c6.6,1.2,16.2,1.5,26.4,1.5,55.81,0,86.11-31.2,86.11-85.8.29-47.7-26.71-78-81.91-78-13.5,0-23.7,1.2-30.6,2.7Z"/><path class="cls-4" d="M1318.51,174c.6,35.7,23.4,50.4,49.8,50.4,18.9,0,30.3-3.3,40.2-7.5l4.5,18.9c-9.3,4.2-25.2,9-48.3,9-44.7,0-71.4-29.4-71.4-73.2s25.8-78.3,68.1-78.3c47.4,0,60,41.7,60,68.4a99.57,99.57,0,0,1-.9,12.3Zm77.4-18.9c.3-16.8-6.9-42.9-36.6-42.9-26.7,0-38.4,24.6-40.5,42.9Z"/><path class="cls-4" d="M1450.51,214.78c7.8,5.1,21.6,10.5,34.8,10.5,19.2,0,28.2-9.6,28.2-21.6,0-12.6-7.5-19.5-27-26.7-26.1-9.3-38.4-23.7-38.4-41.1,0-23.4,18.9-42.6,50.1-42.6,14.7,0,27.6,4.2,35.7,9l-6.6,19.2a56.51,56.51,0,0,0-29.7-8.4c-15.6,0-24.3,9-24.3,19.8,0,12,8.7,17.4,27.6,24.6,25.2,9.6,38.1,22.2,38.1,43.8,0,25.5-19.8,43.5-54.3,43.5-15.9,0-30.6-3.9-40.8-9.9Z"/><path class="cls-4" d="M1602.31,55.78c.3,9-6.3,16.2-16.8,16.2-9.31,0-15.9-7.2-15.9-16.2a16.09,16.09,0,0,1,16.5-16.5C1596,39.28,1602.31,46.48,1602.31,55.78Zm-29.4,186V96.58h26.4v145.2Z"/><path class="cls-4" d="M1768.2,96.58c-.6,10.5-1.2,22.2-1.2,39.9v84.3c0,33.3-6.6,42.7-20.7,55.3-14.1,13.2-34.5,17.4-52.8,17.4-17.4,0-36.6-4.2-48.3-12l6.6-20.1c9.6,6,24.6,11.4,42.6,11.4,27,0,46.8-11.1,46.8-47.7v-8.2h-.6c-8.1,13.5-23.7,24.3-46.2,24.3-36,0-61.8-30.6-61.8-70.8,0-49.2,32.1-77.1,65.4-77.1,25.2,0,39,13.2,45.3,25.2h.6l1.2-21.9Zm-27.3,57.3a37.6,37.6,0,0,0-1.5-12c-4.8-15.3-17.7-27.9-36.9-27.9-25.2,0-43.2,21.3-43.2,54.9,0,28.5,14.4,52.2,42.9,52.2,16.2,0,30.9-10.2,36.6-27a45.93,45.93,0,0,0,2.1-14.1Z"/><path class="cls-4" d="M1809,135.88c0-15-.3-27.3-1.2-39.3h23.4l1.5,24h.6c7.2-13.8,24-27.3,48-27.3,20.1,0,51.3,12,51.3,61.8v86.7h-26.4v-83.7c0-23.4-8.7-42.9-33.6-42.9-17.4,0-30.9,12.3-35.4,27a38,38,0,0,0-1.8,12.3v87.3H1809Z"/><path class="cls-4" d="M40.86,347a408.26,408.26,0,0,1,62.4-4.86c42.17,0,72.19,10.06,92.1,29.12,20.24,19.07,32,46.11,32,83.9,0,38.13-11.47,69.33-32.73,90.82-21.25,21.84-56.33,33.63-100.52,33.63a461.82,461.82,0,0,1-53.3-2.77ZM70.2,553.57c7.43,1.39,18.22,1.73,29.69,1.73,62.75,0,96.82-36,96.82-99.14C197,401,166.68,366,104.61,366c-15.18,0-26.65,1.39-34.41,3.12Z"/><path class="cls-4" d="M282.39,499.14c.67,41.26,26.31,58.24,56,58.24,21.25,0,34.07-3.81,45.2-8.66l5.06,21.84c-10.46,4.85-28.33,10.4-54.31,10.4-50.26,0-80.29-34-80.29-84.59s29-90.48,76.58-90.48c53.3,0,67.47,48.19,67.47,79a119.77,119.77,0,0,1-1,14.21Zm87-21.84c.34-19.41-7.76-49.57-41.15-49.57-30,0-43.18,28.43-45.54,49.57Z"/><path class="cls-4" d="M446.34,409.7l32,94.3a438.85,438.85,0,0,1,13.16,43h1c3.71-13.86,8.44-27.73,13.83-43l31.71-94.3h31L505,577.49H476.7L414.63,409.7Z"/><path class="cls-4" d="M610.28,499.14c.68,41.26,26.32,58.24,56,58.24,21.26,0,34.07-3.81,45.21-8.66l5.06,21.84c-10.46,4.85-28.34,10.4-54.31,10.4C612,581,582,547,582,496.37s29-90.48,76.57-90.48c53.3,0,67.47,48.19,67.47,79a117.65,117.65,0,0,1-1,14.21Zm87-21.84c.34-19.41-7.76-49.57-41.16-49.57-30,0-43.18,28.43-45.54,49.57Z"/><path class="cls-4" d="M762.76,361.36h29.69V577.49H762.76Z"/><path class="cls-4" d="M990.13,492.21c0,62.05-41.83,89.09-81.3,89.09-44.19,0-78.26-33.28-78.26-86.32,0-56.16,35.75-89.09,81-89.09C958.42,405.89,990.13,440.9,990.13,492.21Zm-129.54,1.73c0,36.75,20.58,64.48,49.59,64.48,28.34,0,49.59-27.38,49.59-65.17,0-28.43-13.83-64.48-48.92-64.48S860.59,462.05,860.59,493.94Z"/><path class="cls-4" d="M1027.57,464.48c0-21.5-.67-38.83-1.34-54.78h26.65l1.34,28.78h.68c12.14-20.46,31.37-32.59,58-32.59,39.47,0,69.16,34.32,69.16,85.28,0,60.32-35.76,90.13-74.22,90.13-21.59,0-40.48-9.7-50.26-26.34h-.68v91.17h-29.35Zm29.35,44.72a71.1,71.1,0,0,0,1.35,12.48c5.4,21.14,23.28,35.7,44.53,35.7,31.37,0,49.59-26.34,49.59-64.82,0-33.63-17.2-62.4-48.58-62.4-20.24,0-39.13,14.9-44.86,37.78a50.87,50.87,0,0,0-2,12.48Z"/><path class="cls-4" d="M1219.52,455.12c0-17.34-.34-31.55-1.35-45.42h26l1.35,27h1c9.11-15.94,24.29-30.85,51.27-30.85,22.27,0,39.13,13.87,46.22,33.63h.67a68.59,68.59,0,0,1,18.22-21.84c9.78-7.63,20.58-11.79,36.1-11.79,21.59,0,53.63,14.56,53.63,72.8v98.8h-29v-95c0-32.24-11.47-51.65-35.42-51.65-16.87,0-30,12.83-35.08,27.73a51.52,51.52,0,0,0-2.36,15.26V577.49h-29V477c0-26.7-11.46-46.11-34.07-46.11-18.55,0-32,15.25-36.77,30.51a43.2,43.2,0,0,0-2.36,14.9V577.49h-29Z"/><path class="cls-4" d="M1517.4,499.14c.67,41.26,26.31,58.24,56,58.24,21.26,0,34.08-3.81,45.21-8.66l5.06,21.84c-10.46,4.85-28.34,10.4-54.31,10.4-50.27,0-80.29-34-80.29-84.59s29-90.48,76.58-90.48c53.3,0,67.46,48.19,67.46,79a117.65,117.65,0,0,1-1,14.21Zm87-21.84c.34-19.41-7.76-49.57-41.16-49.57-30,0-43.18,28.43-45.54,49.57Z"/><path class="cls-4" d="M1669.87,455.12c0-17.34-.33-31.55-1.35-45.42h26.32l1.68,27.74h.68c8.09-15.95,27-31.55,54-31.55,22.61,0,57.69,13.87,57.69,71.41V577.49h-29.69V480.77c0-27-9.78-49.57-37.78-49.57-19.57,0-34.75,14.21-39.81,31.2a44.93,44.93,0,0,0-2,14.21V577.49h-29.69Z"/><path class="cls-4" d="M1891.51,361.52V409.7H1934v23.23h-42.5v90.48c0,20.8,5.73,32.59,22.26,32.59a64.4,64.4,0,0,0,17.21-2.08l1.35,22.88c-5.74,2.42-14.85,4.16-26.32,4.16-13.83,0-25-4.51-32-12.83-8.44-9-11.47-23.92-11.47-43.68V432.93h-25.3V409.7h25.3V369.49Z"/><text class="cls-5" transform="translate(875.21 360.72)">and</text><line class="cls-6" x1="42.78" y1="322.22" x2="844" y2="322.22"/><line class="cls-6" x1="1114" y1="322.22" x2="1945.14" y2="322.22"/></svg>