<?xml version="1.0" encoding="UTF-8" standalone="no"?>
<!DOCTYPE svg PUBLIC "-//W3C//DTD SVG 1.1//EN" "http://www.w3.org/Graphics/SVG/1.1/DTD/svg11.dtd">
<svg width="100%" height="100%" viewBox="0 0 461 368" version="1.1" xmlns="http://www.w3.org/2000/svg" xmlns:xlink="http://www.w3.org/1999/xlink" xml:space="preserve" xmlns:serif="http://www.serif.com/" style="fill-rule:evenodd;clip-rule:evenodd;stroke-miterlimit:10;">
    <g transform="matrix(1,0,0,1,-170.808,-5752.48)">
        <g transform="matrix(1,0,0,1,4.13659,-59.9599)">
            <g transform="matrix(1,0,0,1,0,29)">
                <g>
                    <g id="Img" transform="matrix(-2.11763,2.43181e-32,2.43181e-32,2.0505,1124.18,2689.18)">
                        <g>
                            <g transform="matrix(-0.414132,4.91144e-33,4.91144e-33,0.427691,509.793,-931.195)">
                                <path d="M403.901,5780.74L404.195,5780.74L404.212,5780.74L404.463,5780.74L404.79,5780.74L404.807,5780.74L405.047,5780.75L405.384,5780.75L405.401,5780.75L405.651,5780.76L405.978,5780.76L405.996,5780.76L406.27,5780.77L406.572,5780.78L406.59,5780.78L406.901,5780.79L407.166,5780.8L407.184,5780.8L407.538,5780.81L407.76,5780.82L407.778,5780.82L408.177,5780.84L408.354,5780.84L408.372,5780.85L408.813,5780.87L408.947,5780.87L408.965,5780.87L409.439,5780.9L409.558,5780.91L410.052,5780.94L410.152,5780.94L410.648,5780.98L410.745,5780.98L411.223,5781.02L411.337,5781.03L411.775,5781.06L411.913,5781.07L411.93,5781.07L412.304,5781.11L412.506,5781.13L412.522,5781.13L412.824,5781.15L413.098,5781.18L413.115,5781.18L413.361,5781.2L413.69,5781.24L413.706,5781.24L413.925,5781.26L414.281,5781.3L414.298,5781.3L414.511,5781.32L414.871,5781.36L414.889,5781.37L415.116,5781.39L415.461,5781.43L415.479,5781.44L415.736,5781.47L416.051,5781.51L416.068,5781.51L416.367,5781.55L416.64,5781.58L416.658,5781.58L417.003,5781.63L417.228,5781.66L417.246,5781.66L417.64,5781.72L417.817,5781.74L417.834,5781.75L418.271,5781.81L418.404,5781.83L418.421,5781.83L418.893,5781.91L419.008,5781.93L419.499,5782L419.595,5782.02L420.087,5782.1L420.18,5782.12L420.653,5782.2L420.766,5782.22L421.195,5782.3L421.334,5782.32L421.35,5782.32L421.717,5782.39L421.918,5782.43L421.934,5782.43L422.233,5782.49L422.502,5782.54L422.518,5782.54L422.762,5782.59L423.084,5782.65L423.101,5782.66L423.314,5782.7L423.666,5782.77L423.683,5782.78L423.889,5782.82L424.247,5782.9L424.264,5782.9L424.482,5782.95L424.826,5783.02L424.844,5783.03L425.091,5783.08L425.405,5783.15L425.423,5783.15L425.71,5783.22L425.984,5783.28L426.001,5783.29L426.336,5783.37L426.561,5783.42L426.578,5783.42L426.962,5783.52L427.137,5783.56L427.154,5783.56L427.583,5783.67L427.713,5783.7L427.73,5783.71L428.194,5783.83L428.304,5783.86L428.791,5783.98L428.878,5784.01L429.369,5784.14L429.45,5784.16L429.925,5784.29L430.022,5784.32L430.458,5784.44L430.577,5784.47L430.593,5784.48L430.965,5784.59L431.147,5784.64L431.163,5784.64L431.463,5784.73L431.716,5784.81L431.732,5784.81L431.973,5784.88L432.283,5784.98L432.299,5784.98L432.504,5785.05L432.85,5785.15L432.866,5785.16L433.056,5785.22L433.415,5785.33L433.431,5785.34L433.626,5785.4L433.978,5785.51L433.995,5785.52L434.21,5785.59L434.541,5785.7L434.558,5785.7L434.805,5785.78L435.102,5785.88L435.119,5785.89L435.405,5785.99L435.662,5786.08L435.679,5786.08L436.007,5786.2L436.221,5786.27L436.238,5786.28L436.604,5786.41L436.779,5786.47L436.795,5786.48L437.194,5786.62L437.335,5786.67L437.352,5786.68L437.77,5786.83L437.89,5786.88L437.907,5786.88L438.329,5787.04L438.444,5787.09L438.46,5787.09L438.868,5787.25L438.997,5787.3L439.013,5787.3L439.384,5787.45L439.548,5787.51L439.564,5787.52L439.878,5787.65L440.098,5787.73L440.114,5787.74L440.363,5787.84L440.647,5787.95L440.662,5787.96L440.852,5788.04L441.194,5788.18L441.209,5788.19L441.352,5788.25L441.739,5788.41L441.755,5788.42L441.874,5788.47L442.282,5788.64L442.298,5788.65L442.417,5788.7L442.824,5788.88L442.84,5788.88L442.977,5788.94L443.365,5789.11L443.381,5789.12L443.549,5789.2L443.904,5789.36L443.92,5789.36L444.129,5789.46L444.441,5789.6L444.457,5789.61L444.711,5789.73L444.977,5789.85L444.993,5789.86L445.289,5790L445.511,5790.1L445.527,5790.11L445.858,5790.27L446.043,5790.36L446.059,5790.36L446.412,5790.54L446.574,5790.62L446.59,5790.62L446.948,5790.8L447.103,5790.88L447.119,5790.89L447.461,5791.06L447.631,5791.14L447.646,5791.15L447.951,5791.31L448.157,5791.41L448.172,5791.42L448.415,5791.54L448.682,5791.68L448.696,5791.69L448.866,5791.78L449.204,5791.96L449.219,5791.96L449.324,5792.02L449.725,5792.23L450.243,5792.51L450.76,5792.8L451.275,5793.08L451.788,5793.37L452.298,5793.67L452.314,5793.68L452.431,5793.74L452.807,5793.96L452.823,5793.97L452.982,5794.07L453.314,5794.26L453.33,5794.27L453.531,5794.39L453.82,5794.56L453.835,5794.57L454.071,5794.72L454.323,5794.87L454.338,5794.88L454.6,5795.04L454.824,5795.18L454.839,5795.19L455.112,5795.36L455.323,5795.49L455.338,5795.5L455.605,5795.67L455.821,5795.8L455.835,5795.81L456.075,5795.97L456.316,5796.12L456.33,5796.13L456.521,5796.26L456.81,5796.44L456.823,5796.45L456.952,5796.54L457.301,5796.77L457.79,5797.09L458.277,5797.42L458.761,5797.76L459.243,5798.09L459.723,5798.43L459.738,5798.44L459.843,5798.51L460.201,5798.77L460.215,5798.78L460.368,5798.89L460.677,5799.11L460.691,5799.12L460.895,5799.27L461.15,5799.46L461.164,5799.47L461.418,5799.66L461.621,5799.81L461.635,5799.82L461.933,5800.05L462.09,5800.16L462.104,5800.17L462.435,5800.43L462.557,5800.52L462.57,5800.53L462.92,5800.8L463.021,5800.88L463.034,5800.89L463.385,5801.16L463.483,5801.24L463.496,5801.25L463.827,5801.51L463.943,5801.6L463.945,5801.6C464.254,5801.85 464.562,5802.1 464.868,5802.35C467.289,5804.33 469.6,5806.42 471.802,5808.63C474.004,5810.84 476.085,5813.14 478.046,5815.55C480.006,5817.96 481.837,5820.46 483.536,5823.04L486.275,5823.04C488.476,5823.03 490.669,5823.16 492.853,5823.43C495.036,5823.69 497.193,5824.1 499.322,5824.63C501.452,5825.17 503.536,5825.84 505.575,5826.64C507.614,5827.44 509.591,5828.37 511.505,5829.41C513.419,5830.46 515.254,5831.63 517.011,5832.91C518.767,5834.19 520.431,5835.57 522,5837.06C523.57,5838.55 525.032,5840.13 526.388,5841.81C527.744,5843.48 528.982,5845.23 530.101,5847.06L530.152,5847.15C530.383,5847.39 530.576,5847.66 530.729,5847.96C531.801,5849.82 532.743,5851.73 533.556,5853.7C534.369,5855.68 535.045,5857.7 535.586,5859.76C536.126,5861.82 536.525,5863.9 536.784,5866.01C537.021,5867.94 537.138,5869.88 537.134,5871.83C537.138,5873.78 537.021,5875.72 536.784,5877.65C536.525,5879.76 536.126,5881.84 535.586,5883.9C535.045,5885.96 534.369,5887.98 533.556,5889.95C532.743,5891.93 531.801,5893.84 530.729,5895.7C530.576,5896 530.383,5896.27 530.152,5896.51L530.101,5896.6C528.982,5898.43 527.744,5900.18 526.388,5901.85C525.032,5903.52 523.57,5905.11 522,5906.59C520.431,5908.08 518.767,5909.47 517.011,5910.75C515.254,5912.03 513.419,5913.19 511.505,5914.24C509.591,5915.29 507.614,5916.22 505.575,5917.02C503.536,5917.82 501.452,5918.48 499.322,5919.02C497.193,5919.56 495.036,5919.96 492.853,5920.23C490.669,5920.5 488.476,5920.63 486.275,5920.61L483.536,5920.61C481.837,5923.2 480.006,5925.7 478.046,5928.11C476.085,5930.52 474.004,5932.82 471.802,5935.03C469.6,5937.23 467.289,5939.33 464.868,5941.31C464.562,5941.56 464.254,5941.81 463.945,5942.05L463.943,5942.06L463.827,5942.15L463.496,5942.41L463.483,5942.42L463.385,5942.5L463.034,5942.77L463.021,5942.78L462.92,5942.86L462.57,5943.13L462.557,5943.14L462.435,5943.23L462.104,5943.48L462.09,5943.49L461.933,5943.61L461.635,5943.84L461.621,5943.85L461.418,5944L461.164,5944.19L461.15,5944.2L460.895,5944.38L460.691,5944.53L460.677,5944.54L460.368,5944.77L460.215,5944.88L460.201,5944.89L459.843,5945.14L459.738,5945.22L459.723,5945.23L459.324,5945.51L459.243,5945.57L458.815,5945.86L458.761,5945.9L458.321,5946.2L458.277,5946.23L457.845,5946.53L457.79,5946.56L457.389,5946.83L457.301,5946.89L456.952,5947.12L456.823,5947.2L456.81,5947.21L456.521,5947.4L456.33,5947.53L456.316,5947.53L456.075,5947.69L455.835,5947.84L455.821,5947.85L455.605,5947.99L455.338,5948.16L455.323,5948.17L455.112,5948.3L454.839,5948.47L454.824,5948.48L454.6,5948.62L454.338,5948.78L454.323,5948.79L454.071,5948.94L453.835,5949.08L453.82,5949.09L453.531,5949.27L453.33,5949.39L453.314,5949.4L452.982,5949.59L452.823,5949.69L452.807,5949.69L452.431,5949.91L452.314,5949.98L452.298,5949.99L451.882,5950.23L451.788,5950.28L451.34,5950.54L451.275,5950.57L450.81,5950.83L450.76,5950.86L450.296,5951.11L450.243,5951.14L449.799,5951.38L449.725,5951.42L449.324,5951.64L449.219,5951.69L449.204,5951.7L448.866,5951.88L448.696,5951.97L448.682,5951.98L448.415,5952.11L448.172,5952.24L448.157,5952.25L447.951,5952.35L447.646,5952.51L447.631,5952.52L447.461,5952.6L447.119,5952.77L447.103,5952.78L446.948,5952.86L446.59,5953.03L446.574,5953.04L446.412,5953.12L446.059,5953.29L446.043,5953.3L445.858,5953.39L445.527,5953.55L445.511,5953.56L445.289,5953.66L444.993,5953.8L444.977,5953.81L444.711,5953.93L444.457,5954.05L444.441,5954.06L444.129,5954.2L443.92,5954.29L443.904,5954.3L443.549,5954.46L443.381,5954.53L443.365,5954.54L442.977,5954.71L442.84,5954.77L442.824,5954.78L442.417,5954.96L442.298,5955.01L442.282,5955.02L441.874,5955.19L441.755,5955.24L441.739,5955.25L441.352,5955.41L441.209,5955.47L441.194,5955.48L440.852,5955.62L440.662,5955.7L440.647,5955.7L440.363,5955.82L440.114,5955.92L440.098,5955.93L439.878,5956.01L439.564,5956.14L439.548,5956.14L439.384,5956.21L439.013,5956.35L438.997,5956.36L438.868,5956.41L438.46,5956.57L438.444,5956.57L438.329,5956.61L437.907,5956.77L437.89,5956.78L437.77,5956.82L437.352,5956.98L437.335,5956.99L437.194,5957.04L436.795,5957.18L436.779,5957.19L436.604,5957.25L436.238,5957.38L436.221,5957.39L436.007,5957.46L435.679,5957.57L435.662,5957.58L435.405,5957.67L435.119,5957.77L435.102,5957.77L434.805,5957.87L434.558,5957.96L434.541,5957.96L434.21,5958.07L433.995,5958.14L433.978,5958.15L433.626,5958.26L433.431,5958.32L433.415,5958.33L433.056,5958.44L432.866,5958.5L432.85,5958.51L432.504,5958.61L432.299,5958.68L432.283,5958.68L431.973,5958.77L431.732,5958.85L431.716,5958.85L431.463,5958.93L431.163,5959.02L431.147,5959.02L430.965,5959.07L430.593,5959.18L430.577,5959.18L430.458,5959.22L430.022,5959.34L429.45,5959.5L428.878,5959.65L428.304,5959.8L427.73,5959.95L427.713,5959.95L427.583,5959.99L427.154,5960.09L427.137,5960.1L426.962,5960.14L426.578,5960.23L426.561,5960.24L426.336,5960.29L426.001,5960.37L425.984,5960.37L425.71,5960.44L425.423,5960.5L425.405,5960.51L425.091,5960.58L424.844,5960.63L424.826,5960.64L424.482,5960.71L424.264,5960.76L424.247,5960.76L423.889,5960.84L423.683,5960.88L423.666,5960.88L423.314,5960.96L423.101,5961L423.084,5961L422.762,5961.07L422.518,5961.11L422.502,5961.12L422.233,5961.17L421.934,5961.23L421.918,5961.23L421.717,5961.27L421.35,5961.34L421.334,5961.34L421.195,5961.36L420.766,5961.44L420.749,5961.44L420.653,5961.46L420.18,5961.54L419.595,5961.64L419.008,5961.73L418.421,5961.82L418.404,5961.83L418.271,5961.85L417.834,5961.91L417.817,5961.91L417.64,5961.94L417.246,5961.99L417.228,5962L417.003,5962.03L416.658,5962.07L416.64,5962.07L416.367,5962.11L416.068,5962.15L416.051,5962.15L415.736,5962.19L415.479,5962.22L415.461,5962.22L415.116,5962.26L414.889,5962.29L414.871,5962.29L414.511,5962.33L414.298,5962.36L414.281,5962.36L413.925,5962.4L413.706,5962.42L413.69,5962.42L413.361,5962.45L413.115,5962.48L413.098,5962.48L412.824,5962.5L412.522,5962.53L412.506,5962.53L412.304,5962.55L411.93,5962.58L411.913,5962.58L411.775,5962.59L411.337,5962.63L411.32,5962.63L411.223,5962.64L410.745,5962.67L410.152,5962.71L409.558,5962.75L409.541,5962.75L409.439,5962.76L408.965,5962.78L408.947,5962.78L408.813,5962.79L408.372,5962.81L408.354,5962.81L408.177,5962.82L407.778,5962.84L407.76,5962.84L407.538,5962.85L407.184,5962.86L407.166,5962.86L406.901,5962.87L406.59,5962.88L406.572,5962.88L406.27,5962.89L405.996,5962.89L405.978,5962.9L405.651,5962.9L405.401,5962.9L405.384,5962.91L405.047,5962.91L404.807,5962.91L404.79,5962.91L404.463,5962.92L404.212,5962.92L404.195,5962.92L403.901,5962.92L403.617,5962.92L403.6,5962.92L403.366,5962.92L403.022,5962.91L403.006,5962.91L402.847,5962.91L402.427,5962.91L401.833,5962.9L401.238,5962.88L400.644,5962.87L400.05,5962.85L399.457,5962.82L398.863,5962.79L398.845,5962.79L398.708,5962.78L398.27,5962.76L398.252,5962.76L398.062,5962.75L397.677,5962.72L397.659,5962.72L397.416,5962.71L397.084,5962.69L397.066,5962.68L396.777,5962.66L396.491,5962.64L396.473,5962.64L396.149,5962.62L395.898,5962.6L395.881,5962.6L395.537,5962.57L395.306,5962.55L395.289,5962.54L394.945,5962.51L394.714,5962.49L394.697,5962.49L394.377,5962.46L394.122,5962.44L394.105,5962.43L393.845,5962.41L393.53,5962.37L393.514,5962.37L393.336,5962.35L392.939,5962.31L392.923,5962.31L392.818,5962.3L392.349,5962.24L391.759,5962.17L391.169,5962.1L390.581,5962.02L389.993,5961.93L389.405,5961.85L389.387,5961.85L389.262,5961.83L388.818,5961.76L388.8,5961.76L388.629,5961.73L388.231,5961.67L388.214,5961.66L387.999,5961.63L387.646,5961.57L387.628,5961.57L387.379,5961.52L387.06,5961.47L387.043,5961.47L386.772,5961.42L386.476,5961.36L386.458,5961.36L386.183,5961.31L385.891,5961.26L385.875,5961.26L385.617,5961.21L385.308,5961.15L385.291,5961.14L385.076,5961.1L384.725,5961.03L384.709,5961.03L384.55,5961L384.143,5960.91L384.126,5960.91L384.023,5960.89L383.561,5960.79L382.981,5960.67L382.401,5960.54L381.823,5960.41L381.245,5960.27L380.669,5960.13L380.652,5960.13L380.535,5960.1L380.093,5959.99L380.076,5959.99L379.91,5959.94L379.518,5959.85L379.501,5959.84L379.286,5959.78L378.945,5959.69L378.928,5959.69L378.668,5959.62L378.372,5959.54L378.355,5959.54L378.062,5959.46L377.8,5959.39L377.783,5959.38L377.472,5959.29L377.229,5959.23L377.212,5959.22L376.901,5959.13L376.659,5959.06L376.643,5959.06L376.353,5958.97L376.09,5958.9L376.074,5958.89L375.83,5958.82L375.522,5958.73L375.506,5958.72L375.329,5958.67L374.955,5958.55L374.939,5958.55L374.839,5958.52L374.389,5958.37L374.344,5958.36C373.224,5958 372.111,5957.63 371.006,5957.23L370.466,5957.04L369.91,5956.83L369.357,5956.63L369.34,5956.62L369.21,5956.57L368.804,5956.41L368.788,5956.41L368.627,5956.35L368.252,5956.2L368.236,5956.19L368.061,5956.12L367.702,5955.98L367.687,5955.98L367.514,5955.9L367.154,5955.76L367.138,5955.75L366.989,5955.69L366.606,5955.53L366.591,5955.53L366.489,5955.49L366.06,5955.31L366.011,5955.29C364.932,5954.83 363.863,5954.36 362.803,5953.86L362.284,5953.62L361.752,5953.36L361.736,5953.36L361.614,5953.3L361.221,5953.11L361.205,5953.1L361.029,5953.01L360.691,5952.85L360.675,5952.84L360.453,5952.73L360.163,5952.58L360.148,5952.58L359.889,5952.44L359.637,5952.32L359.622,5952.31L359.342,5952.16L359.112,5952.05L359.097,5952.04L358.816,5951.89L358.59,5951.77L358.575,5951.77L358.313,5951.63L358.068,5951.5L358.054,5951.49L357.842,5951.37L357.549,5951.22L357.535,5951.21L357.392,5951.13L357.031,5950.93L356.516,5950.65L356.002,5950.36L355.491,5950.07L354.981,5949.77L354.474,5949.47L353.968,5949.17L353.953,5949.16L353.845,5949.1L353.465,5948.87L353.45,5948.86L353.292,5948.76L352.963,5948.56L352.948,5948.55L352.742,5948.42L352.463,5948.25L352.448,5948.24L352.199,5948.08L351.966,5947.93L351.951,5947.93L351.669,5947.74L351.47,5947.62L351.455,5947.61L351.157,5947.41L350.976,5947.3L350.962,5947.29L350.665,5947.09L350.485,5946.97L350.471,5946.97L350.196,5946.78L349.995,5946.65L349.981,5946.64L349.75,5946.48L349.507,5946.32L349.494,5946.31L349.317,5946.19L349.022,5945.99L349.008,5945.98L348.879,5945.89L348.539,5945.65L348.525,5945.64L348.428,5945.57L348.058,5945.32L348.044,5945.31L347.957,5945.24L347.58,5944.98L347.566,5944.97L347.469,5944.9L347.103,5944.63L347.089,5944.62L346.967,5944.53L346.63,5944.28L346.616,5944.28L346.455,5944.16L346.158,5943.94L346.144,5943.93L345.939,5943.77L345.689,5943.59L345.675,5943.57L345.423,5943.38L345.222,5943.23L345.208,5943.22L344.912,5942.99L344.757,5942.87L344.743,5942.86L344.413,5942.6L344.295,5942.51L344.281,5942.5L343.929,5942.22L343.834,5942.15L343.821,5942.14L343.463,5941.85L343.377,5941.78L343.363,5941.77L343.018,5941.49L342.921,5941.41L342.908,5941.4L342.597,5941.15L342.468,5941.04L342.455,5941.03L342.198,5940.82L342.017,5940.67L342.004,5940.66L341.81,5940.49L341.569,5940.29L341.556,5940.28L341.416,5940.16L341.123,5939.91L341.11,5939.9L341.005,5939.81L340.68,5939.53L340.667,5939.52L340.576,5939.44L340.239,5939.14L340.226,5939.13L340.132,5939.05L339.801,5938.75L339.788,5938.74L339.675,5938.64L339.366,5938.36L339.353,5938.35L339.21,5938.22L338.933,5937.97L338.92,5937.96L338.74,5937.79L338.503,5937.57L338.49,5937.56L338.27,5937.36L338.075,5937.18L338.062,5937.16L337.804,5936.92L337.65,5936.78L337.637,5936.76L337.348,5936.49L337.228,5936.37L337.215,5936.36L336.904,5936.06L336.808,5935.97L336.795,5935.95L336.477,5935.64L336.39,5935.56L336.378,5935.55L336.069,5935.24L335.976,5935.15L335.964,5935.13L335.682,5934.85L335.563,5934.73L335.552,5934.72L335.316,5934.48L335.154,5934.32L335.143,5934.3L334.961,5934.12L334.747,5933.9L334.736,5933.89L334.6,5933.74L334.343,5933.48L334.332,5933.46L334.223,5933.35L333.942,5933.05L333.931,5933.04L333.832,5932.93L333.544,5932.63L333.533,5932.61L333.428,5932.5L333.149,5932.2L333.137,5932.19L333.013,5932.05L332.756,5931.77L332.745,5931.75L332.593,5931.59L332.367,5931.33L332.355,5931.32L332.17,5931.11L331.98,5930.9L331.968,5930.89L331.749,5930.64L331.596,5930.46L331.585,5930.45L331.334,5930.16L331.215,5930.02L331.204,5930.01L330.93,5929.69L330.837,5929.58L330.825,5929.57L330.539,5929.23L330.461,5929.13L330.45,5929.12L330.164,5928.78L330.089,5928.69L330.078,5928.67L329.807,5928.34L329.719,5928.24L329.708,5928.22L329.469,5927.93L329.352,5927.78L329.342,5927.77L329.148,5927.53L328.988,5927.33L328.978,5927.32L328.837,5927.14L328.627,5926.87L328.617,5926.86L328.521,5926.74L328.269,5926.41L328.259,5926.4L328.195,5926.32L327.914,5925.95L327.562,5925.49L327.214,5925.03L327.204,5925.01L327.143,5924.93L326.868,5924.56L326.858,5924.55L326.776,5924.44L326.526,5924.09L326.516,5924.08L326.406,5923.93L326.186,5923.62L326.176,5923.61L326.036,5923.41L325.85,5923.15L325.84,5923.14L325.671,5922.89L325.517,5922.67L325.507,5922.66L325.314,5922.38L325.186,5922.2L325.177,5922.18L324.968,5921.88L324.859,5921.72L324.85,5921.7L324.635,5921.39L324.535,5921.24L324.526,5921.22L324.319,5920.91L324.214,5920.75L324.205,5920.74L324.019,5920.46L323.896,5920.27L323.887,5920.26L323.737,5920.02L323.581,5919.78L323.573,5919.77L323.465,5919.6L323.27,5919.29L323.261,5919.28L323.188,5919.16L322.962,5918.8L322.953,5918.79L322.898,5918.7L322.657,5918.31L322.648,5918.3L322.597,5918.21L322.355,5917.82L322.346,5917.8L322.287,5917.7L322.056,5917.32L322.048,5917.3L321.97,5917.17L321.761,5916.82L321.752,5916.81L321.65,5916.63L321.469,5916.32L321.461,5916.31L321.329,5916.08L321.181,5915.82L321.172,5915.81L321.011,5915.52L320.895,5915.32L320.887,5915.3L320.698,5914.96L320.613,5914.81L320.605,5914.8L320.395,5914.41L320.334,5914.31L320.326,5914.29L320.103,5913.88L320.051,5913.78L319.824,5913.36L319.779,5913.27L319.561,5912.86L319.51,5912.76L319.312,5912.38L319.252,5912.26L319.244,5912.25L319.079,5911.92L318.989,5911.75L318.982,5911.73L318.852,5911.47L318.73,5911.23L318.723,5911.22L318.624,5911.01L318.475,5910.71L318.468,5910.7L318.39,5910.54L318.223,5910.19L318.215,5910.18L318.148,5910.03L317.974,5909.67L317.967,5909.65L317.899,5909.51L317.729,5909.15L317.722,5909.13L317.646,5908.97L317.487,5908.62L317.48,5908.61L317.391,5908.41L317.249,5908.1L317.242,5908.08L317.135,5907.84L317.014,5907.57L317.007,5907.56L316.882,5907.27L316.782,5907.04L316.775,5907.03L316.633,5906.7L316.554,5906.51L316.547,5906.5L316.391,5906.13L316.33,5905.98L316.323,5905.97L316.159,5905.57L316.108,5905.45L316.102,5905.43L315.936,5905.03L315.891,5904.92L315.884,5904.9L315.726,5904.5L315.676,5904.38L315.67,5904.36L315.527,5904L315.466,5903.84L315.46,5903.83L315.341,5903.52L315.258,5903.31L315.253,5903.29L315.161,5903.05L315.054,5902.77L315.049,5902.75L314.98,5902.57L314.854,5902.23L314.849,5902.21L314.796,5902.07L314.658,5901.68L314.652,5901.67L314.606,5901.54L314.465,5901.14L314.459,5901.13L314.412,5900.99L314.275,5900.6L314.27,5900.58L314.216,5900.43L314.089,5900.05L314.084,5900.04L314.019,5899.84L313.907,5899.51L313.901,5899.49L313.823,5899.25L313.728,5898.96L313.723,5898.94L313.63,5898.65L313.553,5898.41L313.548,5898.4L313.442,5898.06L313.381,5897.86L313.376,5897.85L313.261,5897.47L313.213,5897.31L313.208,5897.3L313.088,5896.9L313.048,5896.76L313.044,5896.74L312.925,5896.34L312.887,5896.21L312.883,5896.19L312.771,5895.8L312.73,5895.65L312.726,5895.64L312.628,5895.29L312.576,5895.1L312.572,5895.09L312.493,5894.79L312.426,5894.55L312.422,5894.53L312.363,5894.31L312.28,5893.99L312.276,5893.97L312.234,5893.81L312.137,5893.43L312.133,5893.42L312.101,5893.29L311.998,5892.87L311.994,5892.86L311.965,5892.74L311.862,5892.32L311.858,5892.3L311.828,5892.17L311.73,5891.76L311.726,5891.74L311.691,5891.59L311.602,5891.2L311.598,5891.18L311.554,5890.98L311.477,5890.64L311.474,5890.62L311.42,5890.37L311.357,5890.07L311.353,5890.06L311.29,5889.76L311.239,5889.51L311.236,5889.49L311.165,5889.14L311.126,5888.95L311.122,5888.93L311.045,5888.53L311.016,5888.39L311.013,5888.37L310.933,5887.94L310.91,5887.82L310.907,5887.8L310.828,5887.37L310.807,5887.26L310.804,5887.24L310.73,5886.81L310.708,5886.69L310.706,5886.67L310.64,5886.28L310.613,5886.12L310.611,5886.11L310.558,5885.78L310.522,5885.56L310.519,5885.54L310.48,5885.29L310.434,5884.99L310.431,5884.97L310.403,5884.78L310.35,5884.42L310.347,5884.4L310.326,5884.25L310.269,5883.85L310.267,5883.83L310.249,5883.7L310.193,5883.28L310.191,5883.27L310.173,5883.12L310.12,5882.71L310.118,5882.69L310.098,5882.53L310.051,5882.14L310.049,5882.13L310.025,5881.92L309.985,5881.57L309.983,5881.56L309.956,5881.3L309.924,5881L309.922,5880.98L309.89,5880.68L309.866,5880.43L309.864,5880.41L309.83,5880.05L309.811,5879.86L309.81,5879.84L309.774,5879.44L309.761,5879.29L309.759,5879.27L309.724,5878.84L309.714,5878.72L309.713,5878.7L309.68,5878.26L309.671,5878.14L309.67,5878.13L309.641,5877.7L309.632,5877.57L309.631,5877.56L309.607,5877.17L309.596,5877L309.595,5876.98L309.577,5876.66L309.564,5876.43L309.563,5876.41L309.551,5876.16L309.536,5875.85L309.535,5875.84L309.527,5875.65L309.512,5875.28L309.511,5875.26L309.506,5875.11L309.491,5874.7L309.49,5874.69L309.487,5874.56L309.474,5874.13L309.474,5874.11L309.47,5873.98L309.461,5873.56L309.461,5873.54L309.458,5873.38L309.451,5872.98L309.451,5872.97L309.449,5872.76L309.446,5872.41L309.446,5872.39L309.445,5872.14L309.444,5871.84L309.444,5871.82L309.445,5871.52L309.446,5871.26L309.446,5871.25L309.449,5870.89L309.451,5870.69L309.451,5870.67L309.458,5870.28L309.461,5870.12L309.461,5870.1L309.47,5869.68L309.474,5869.54L309.474,5869.53L309.487,5869.1L309.49,5868.97L309.491,5868.95L309.506,5868.54L309.511,5868.4L309.512,5868.38L309.527,5868.01L309.535,5867.82L309.536,5867.81L309.551,5867.5L309.563,5867.25L309.564,5867.23L309.577,5867L309.595,5866.68L309.596,5866.66L309.607,5866.49L309.631,5866.1L309.632,5866.09L309.641,5865.95L309.67,5865.53L309.671,5865.51L309.68,5865.4L309.713,5864.96L309.714,5864.94L309.724,5864.82L309.759,5864.39L309.761,5864.37L309.774,5864.22L309.81,5863.81L309.811,5863.8L309.83,5863.6L309.864,5863.24L309.866,5863.23L309.89,5862.98L309.922,5862.67L309.924,5862.65L309.956,5862.36L309.983,5862.1L309.985,5862.09L310.025,5861.74L310.049,5861.53L310.051,5861.52L310.098,5861.13L310.118,5860.96L310.12,5860.94L310.173,5860.53L310.191,5860.39L310.193,5860.38L310.249,5859.96L310.267,5859.82L310.269,5859.81L310.326,5859.4L310.347,5859.26L310.35,5859.24L310.403,5858.88L310.431,5858.69L310.434,5858.67L310.48,5858.37L310.519,5858.12L310.522,5858.1L310.558,5857.88L310.611,5857.55L310.613,5857.53L310.64,5857.37L310.706,5856.98L310.708,5856.97L310.73,5856.84L310.804,5856.42L310.807,5856.4L310.828,5856.29L310.907,5855.85L310.91,5855.84L310.933,5855.72L311.013,5855.29L311.016,5855.27L311.045,5855.12L311.122,5854.73L311.126,5854.71L311.165,5854.52L311.236,5854.16L311.239,5854.15L311.29,5853.9L311.353,5853.6L311.357,5853.58L311.42,5853.29L311.474,5853.04L311.477,5853.02L311.554,5852.68L311.598,5852.48L311.602,5852.46L311.691,5852.07L311.726,5851.92L311.73,5851.9L311.828,5851.48L311.858,5851.36L311.862,5851.34L311.965,5850.92L311.994,5850.8L311.998,5850.78L312.101,5850.37L312.133,5850.24L312.137,5850.23L312.234,5849.85L312.276,5849.68L312.28,5849.67L312.363,5849.35L312.422,5849.13L312.426,5849.11L312.493,5848.86L312.572,5848.57L312.576,5848.56L312.635,5848.34L312.726,5848.02L312.729,5848.01L312.764,5847.88C312.996,5847.06 313.24,5846.24 313.495,5845.43L313.545,5845.27L313.548,5845.26L313.644,5844.96L313.718,5844.73L313.723,5844.71L313.809,5844.45L313.895,5844.18L313.901,5844.17L313.983,5843.92L314.076,5843.64L314.084,5843.62L314.166,5843.38L314.26,5843.1L314.27,5843.08L314.355,5842.83L314.448,5842.56L314.459,5842.53L314.552,5842.27L314.639,5842.02L314.645,5842.01L314.652,5841.99L314.755,5841.7L314.834,5841.49L314.84,5841.47L314.849,5841.45L314.965,5841.13L315.033,5840.95L315.038,5840.94L315.049,5840.91L315.235,5840.41C315.302,5840.24 315.371,5840.06 315.44,5839.88L321.253,5845.67C320.542,5847.77 319.918,5849.89 319.379,5852.03C318.695,5854.75 318.154,5857.5 317.754,5860.27C317.355,5863.05 317.1,5865.84 316.989,5868.63C316.962,5869.33 316.943,5870.02 316.934,5870.71L316.933,5870.74L316.929,5871.16L316.928,5871.28L316.927,5871.61L316.926,5871.83L316.927,5872.05L316.928,5872.37L316.929,5872.5L316.933,5872.92L316.934,5872.95C316.943,5873.64 316.962,5874.33 316.989,5875.02C317.1,5877.82 317.355,5880.61 317.754,5883.38C318.154,5886.16 318.695,5888.91 319.379,5891.63C320.064,5894.35 320.887,5897.03 321.849,5899.68C322.811,5902.32 323.907,5904.91 325.138,5907.45C326.368,5909.98 327.727,5912.46 329.213,5914.86C330.7,5917.27 332.307,5919.6 334.035,5921.85C335.762,5924.1 337.602,5926.26 339.554,5928.33C341.506,5930.41 343.56,5932.38 345.716,5934.26C347.873,5936.13 350.121,5937.9 352.46,5939.56C354.8,5941.22 357.219,5942.76 359.718,5944.18C362.217,5945.61 364.784,5946.91 367.418,5948.08C370.052,5949.26 372.74,5950.31 375.483,5951.23C378.225,5952.14 381.008,5952.93 383.832,5953.58C386.655,5954.23 389.505,5954.74 392.382,5955.11C395.259,5955.48 398.148,5955.72 401.049,5955.81C403.949,5955.91 406.848,5955.86 409.744,5955.68C412.641,5955.49 415.52,5955.17 418.383,5954.71C421.246,5954.25 424.078,5953.65 426.878,5952.91C429.679,5952.18 432.435,5951.31 435.146,5950.31C437.856,5949.31 440.509,5948.18 443.102,5946.92C445.696,5945.66 448.218,5944.28 450.669,5942.78C453.12,5941.28 455.487,5939.66 457.77,5937.93C460.054,5936.2 462.242,5934.37 464.335,5932.43C466.428,5930.49 468.416,5928.45 470.299,5926.32C472.181,5924.19 473.948,5921.97 475.601,5919.67C475.601,5919.67 479.674,5913.36 479.674,5913.36C486.191,5902.22 490.71,5881.5 490.837,5866.65C489.999,5853.7 486.278,5841.59 479.674,5830.29C476.183,5830.82 472.807,5831.73 469.546,5833.05C466.285,5834.36 463.233,5836.03 460.39,5838.05C457.547,5840.07 454.995,5842.4 452.733,5845.02C450.472,5847.64 448.567,5850.48 447.018,5853.54C446.606,5854.42 445.93,5855.02 444.989,5855.34C444.049,5855.66 443.133,5855.6 442.243,5855.17C441.337,5854.77 440.713,5854.12 440.369,5853.22C440.026,5852.32 440.065,5851.43 440.487,5850.56C442.191,5847.21 444.26,5844.09 446.693,5841.2C449.125,5838.3 451.862,5835.71 454.901,5833.41C457.941,5831.11 461.207,5829.16 464.701,5827.57C468.195,5825.98 471.828,5824.79 475.601,5823.99C473.948,5821.69 472.181,5819.47 470.299,5817.34C468.416,5815.2 466.428,5813.17 464.335,5811.23C462.242,5809.29 460.054,5807.45 457.77,5805.72C455.487,5803.99 453.12,5802.38 450.669,5800.88C448.218,5799.38 445.696,5798 443.102,5796.74C440.509,5795.48 437.856,5794.35 435.146,5793.35C432.435,5792.35 429.679,5791.48 426.878,5790.74C424.078,5790.01 421.246,5789.41 418.383,5788.95C415.52,5788.48 412.641,5788.16 409.744,5787.98C406.848,5787.79 403.949,5787.75 401.049,5787.84C398.148,5787.94 395.259,5788.17 392.382,5788.55C389.505,5788.92 386.655,5789.43 383.832,5790.08C381.008,5790.73 378.225,5791.51 375.483,5792.43C372.74,5793.35 370.052,5794.4 367.418,5795.57C364.784,5796.75 362.217,5798.05 359.718,5799.48C357.219,5800.9 354.8,5802.44 352.46,5804.1C350.121,5805.76 347.873,5807.53 345.716,5809.4C344.291,5810.64 342.91,5811.92 341.574,5813.25L336.5,5807.99C336.613,5807.88 336.727,5807.77 336.841,5807.66L336.859,5807.64L336.923,5807.58L337.113,5807.4L337.179,5807.33L337.22,5807.29L337.289,5807.23L337.421,5807.1L337.522,5807L337.582,5806.95L337.639,5806.89L337.731,5806.81L337.871,5806.67L337.947,5806.6L337.985,5806.57L338.042,5806.51L338.241,5806.33L338.313,5806.26L338.33,5806.24C338.445,5806.14 338.56,5806.03 338.676,5805.92L338.681,5805.92L338.727,5805.88L338.983,5805.64L339.02,5805.61L339.051,5805.58L339.144,5805.49L339.3,5805.35L339.366,5805.29L339.423,5805.24L339.508,5805.17L339.618,5805.07L339.717,5804.98L339.797,5804.91L339.864,5804.85L339.938,5804.78L340.073,5804.66L340.173,5804.57L340.216,5804.54L340.259,5804.5L340.451,5804.33L340.551,5804.24L340.569,5804.23C340.684,5804.13 340.799,5804.03 340.914,5803.93L340.93,5803.91L341.026,5803.83L341.23,5803.66L341.271,5803.62L341.312,5803.59L341.411,5803.5L341.556,5803.38L341.616,5803.33L341.695,5803.26L341.897,5803.09L342.004,5803L342.039,5802.97L342.08,5802.94L342.384,5802.69L342.455,5802.63L342.468,5802.62L342.597,5802.51L342.908,5802.26L342.921,5802.24L343.018,5802.16L343.363,5801.89L343.377,5801.88L343.463,5801.81L343.821,5801.52L343.834,5801.51L343.929,5801.44L344.281,5801.16L344.295,5801.15L344.413,5801.05L344.743,5800.8L344.757,5800.78L344.912,5800.67L345.208,5800.44L345.222,5800.43L345.423,5800.28L345.675,5800.08L345.689,5800.07L345.939,5799.89L346.144,5799.73L346.158,5799.72L346.455,5799.5L346.616,5799.38L346.63,5799.37L346.967,5799.13L347.089,5799.04L347.103,5799.03L347.469,5798.76L347.566,5798.69L347.58,5798.68L347.957,5798.41L348.044,5798.35L348.058,5798.34L348.428,5798.08L348.525,5798.01L348.539,5798.01L348.879,5797.77L349.008,5797.68L349.022,5797.67L349.317,5797.47L349.494,5797.35L349.507,5797.34L349.75,5797.17L349.981,5797.02L349.995,5797.01L350.196,5796.88L350.471,5796.69L350.485,5796.68L350.665,5796.57L350.962,5796.37L350.976,5796.36L351.157,5796.24L351.455,5796.05L351.47,5796.04L351.669,5795.91L351.951,5795.73L351.966,5795.72L352.199,5795.58L352.448,5795.42L352.463,5795.41L352.742,5795.24L352.948,5795.11L352.963,5795.1L353.292,5794.9L353.45,5794.8L353.465,5794.79L353.845,5794.56L353.953,5794.5L353.968,5794.49L354.395,5794.23L354.474,5794.19L354.936,5793.91L354.981,5793.89L355.491,5793.59L356.002,5793.3L356.467,5793.04L356.516,5793.01L356.937,5792.78L357.031,5792.72L357.392,5792.53L357.535,5792.45L357.549,5792.44L357.842,5792.28L358.054,5792.17L358.068,5792.16L358.313,5792.03L358.575,5791.89L358.59,5791.89L358.816,5791.77L359.097,5791.62L359.112,5791.61L359.342,5791.49L359.622,5791.35L359.637,5791.34L359.889,5791.21L360.148,5791.08L360.163,5791.07L360.453,5790.93L360.675,5790.82L360.691,5790.81L361.029,5790.64L361.205,5790.56L361.221,5790.55L361.614,5790.36L361.736,5790.3L361.752,5790.29L362.202,5790.08L362.284,5790.04L362.803,5789.79C363.863,5789.3 364.932,5788.83 366.011,5788.37L366.06,5788.35L366.489,5788.17L366.591,5788.13L366.606,5788.12L366.989,5787.97L367.138,5787.9L367.154,5787.9L367.514,5787.75L367.687,5787.68L367.702,5787.68L368.061,5787.53L368.236,5787.46L368.252,5787.46L368.627,5787.31L368.788,5787.25L368.804,5787.24L369.21,5787.09L369.34,5787.04L369.357,5787.03L369.803,5786.86L369.91,5786.82L370.402,5786.64L370.466,5786.62L371.006,5786.43C372.111,5786.03 373.224,5785.65 374.344,5785.3L374.389,5785.28L374.839,5785.14L374.939,5785.11L374.955,5785.11L375.329,5784.99L375.506,5784.94L375.522,5784.93L375.83,5784.84L376.074,5784.77L376.09,5784.76L376.353,5784.69L376.643,5784.6L376.659,5784.6L376.901,5784.53L377.212,5784.44L377.229,5784.43L377.472,5784.36L377.783,5784.28L377.8,5784.27L378.062,5784.2L378.355,5784.12L378.372,5784.11L378.668,5784.04L378.928,5783.97L378.945,5783.96L379.286,5783.87L379.501,5783.82L379.518,5783.81L379.91,5783.71L380.076,5783.67L380.093,5783.67L380.535,5783.56L380.652,5783.53L380.669,5783.52L381.155,5783.41L381.245,5783.39L381.765,5783.26L381.823,5783.25L382.36,5783.13L382.401,5783.12L382.937,5783L382.981,5782.99L383.491,5782.88L383.561,5782.86L384.023,5782.77L384.126,5782.75L384.143,5782.74L384.55,5782.66L384.709,5782.63L384.725,5782.63L385.076,5782.56L385.291,5782.51L385.308,5782.51L385.617,5782.45L385.875,5782.4L385.891,5782.4L386.183,5782.35L386.458,5782.3L386.476,5782.29L386.772,5782.24L387.043,5782.19L387.06,5782.19L387.379,5782.13L387.628,5782.09L387.646,5782.09L387.999,5782.03L388.214,5781.99L388.231,5781.99L388.629,5781.93L388.8,5781.9L388.818,5781.9L389.262,5781.83L389.387,5781.81L389.405,5781.81L389.892,5781.74L389.993,5781.72L390.513,5781.65L390.581,5781.64L391.12,5781.57L391.169,5781.56L391.709,5781.49L391.759,5781.49L392.276,5781.43L392.349,5781.42L392.818,5781.36L392.923,5781.35L392.939,5781.35L393.336,5781.3L393.514,5781.28L393.53,5781.28L393.845,5781.25L394.105,5781.22L394.122,5781.22L394.377,5781.2L394.697,5781.17L394.714,5781.16L394.945,5781.14L395.289,5781.11L395.306,5781.11L395.537,5781.09L395.881,5781.06L395.898,5781.06L396.149,5781.04L396.473,5781.02L396.491,5781.02L396.777,5780.99L397.066,5780.97L397.084,5780.97L397.416,5780.95L397.659,5780.93L397.677,5780.93L398.062,5780.91L398.252,5780.9L398.27,5780.9L398.708,5780.87L398.845,5780.87L398.863,5780.86L399.349,5780.84L399.457,5780.84L399.981,5780.82L400.05,5780.81L400.597,5780.79L400.644,5780.79L401.194,5780.78L401.238,5780.77L401.77,5780.76L401.833,5780.76L402.32,5780.75L402.427,5780.75L402.847,5780.74L403.006,5780.74L403.022,5780.74L403.366,5780.74L403.6,5780.74L403.617,5780.74L403.901,5780.74ZM523.975,5851.06C523.088,5849.56 522.108,5848.11 521.035,5846.73C519.925,5845.29 518.724,5843.93 517.433,5842.64C516.142,5841.35 514.771,5840.15 513.321,5839.03C511.87,5837.91 510.352,5836.89 508.765,5835.96C507.178,5835.03 505.537,5834.2 503.84,5833.47C502.144,5832.75 500.406,5832.13 498.627,5831.61C496.848,5831.1 495.043,5830.7 493.211,5830.41C491.379,5830.12 489.535,5829.95 487.68,5829.89C493.759,5841.23 497.218,5853.27 498.055,5866.01L498.091,5866.01C499.322,5885.61 493.803,5902.35 487.68,5913.77C489.535,5913.71 491.379,5913.53 493.211,5913.24C495.043,5912.96 496.848,5912.56 498.627,5912.04C500.406,5911.53 502.144,5910.91 503.84,5910.18C505.537,5909.46 507.178,5908.63 508.765,5907.7C510.352,5906.77 511.87,5905.74 513.321,5904.63C514.771,5903.51 516.142,5902.31 517.433,5901.02C518.724,5899.73 519.925,5898.37 521.035,5896.93C522.108,5895.55 523.088,5894.1 523.975,5892.6C524.021,5892.5 524.072,5892.4 524.128,5892.31C525.035,5890.74 525.834,5889.13 526.527,5887.47C527.22,5885.81 527.8,5884.11 528.267,5882.38C528.734,5880.64 529.085,5878.89 529.319,5877.11C529.538,5875.45 529.653,5873.79 529.665,5872.12L529.666,5872.03L529.667,5871.83L529.666,5871.62L529.665,5871.53C529.653,5869.86 529.538,5868.2 529.319,5866.55C529.085,5864.77 528.734,5863.02 528.267,5861.28C527.8,5859.55 527.22,5857.85 526.527,5856.19C525.834,5854.53 525.035,5852.91 524.128,5851.35C524.072,5851.25 524.021,5851.16 523.975,5851.06Z" style="fill:rgb(43,44,43);fill-rule:nonzero;stroke:rgb(43,44,43);stroke-width:3.59px;"/>
                            </g>
                            <g transform="matrix(-0.438048,0.0307815,0.0267603,0.406168,351.457,-814.76)">
                                <path d="M446.839,5821.67C446.839,5821.67 452.58,5819.77 459.019,5820.52" style="fill:none;stroke:white;stroke-width:1.64px;stroke-linejoin:round;stroke-miterlimit:1.5;"/>
                            </g>
                            <g transform="matrix(0.24496,0.402262,0.134992,-0.0876754,-589.173,1927.84)">
                                <path d="M445.84,5821.95C445.84,5821.95 452.58,5819.77 459.019,5820.52" style="fill:none;stroke:white;stroke-width:1.99px;stroke-linejoin:round;stroke-miterlimit:1.5;"/>
                            </g>
                            <g transform="matrix(-0.446012,-0.0489139,-0.0137717,0.1376,593.81,779.686)">
                                <path d="M445.958,5822.11C445.958,5822.11 452.58,5819.77 459.019,5820.52" style="fill:none;stroke:white;stroke-width:2.07px;stroke-linejoin:round;stroke-miterlimit:1.5;"/>
                            </g>
                            <g transform="matrix(1.77867,-2.10944e-32,-2.10242e-32,-1.8308,314.668,1587.28)">
                                <path d="M46.76,28.028C46.599,28.19 46.424,28.335 46.235,28.462C46.045,28.589 45.845,28.697 45.635,28.784C45.424,28.872 45.207,28.938 44.983,28.983C44.759,29.028 44.533,29.05 44.305,29.05C44.077,29.05 43.851,29.028 43.627,28.983C43.403,28.938 43.186,28.872 42.975,28.784C42.765,28.697 42.565,28.589 42.375,28.462C42.186,28.335 42.011,28.19 41.85,28.028L21.68,7.858L19.23,0.498L26.59,2.948L44.91,21.268L46.76,23.118C46.922,23.279 47.066,23.454 47.194,23.643C47.321,23.833 47.428,24.033 47.516,24.244C47.604,24.454 47.67,24.671 47.715,24.895C47.759,25.119 47.782,25.345 47.782,25.573C47.782,25.801 47.759,26.027 47.715,26.251C47.67,26.475 47.604,26.692 47.516,26.903C47.428,27.113 47.321,27.313 47.194,27.503C47.066,27.692 46.922,27.867 46.76,28.028ZM44.55,22.358L41.09,25.818L42.58,27.308C42.694,27.421 42.817,27.521 42.95,27.61C43.084,27.698 43.224,27.773 43.372,27.834C43.52,27.895 43.673,27.941 43.83,27.972C43.987,28.003 44.145,28.018 44.305,28.018C44.465,28.018 44.623,28.003 44.78,27.972C44.937,27.941 45.09,27.895 45.238,27.834C45.386,27.773 45.526,27.698 45.66,27.61C45.793,27.521 45.916,27.421 46.03,27.308C46.142,27.193 46.243,27.069 46.331,26.935C46.418,26.8 46.492,26.659 46.552,26.51C46.613,26.361 46.658,26.207 46.687,26.049C46.717,25.892 46.732,25.733 46.73,25.572C46.729,25.411 46.712,25.252 46.679,25.095C46.647,24.938 46.599,24.785 46.536,24.638C46.474,24.49 46.397,24.349 46.307,24.216C46.217,24.084 46.114,23.961 46,23.848L44.55,22.358ZM20.86,2.128L22.47,6.988L25.72,3.738L20.86,2.128ZM26.55,4.358L23.09,7.818L40.36,25.088L43.82,21.628L26.55,4.358Z" style="fill:rgb(43,44,43);fill-rule:nonzero;"/>
                                <path d="M46.76,28.028C46.599,28.19 46.424,28.335 46.235,28.462C46.045,28.589 45.845,28.697 45.635,28.784C45.424,28.872 45.207,28.938 44.983,28.983C44.759,29.028 44.533,29.05 44.305,29.05C44.077,29.05 43.851,29.028 43.627,28.983C43.403,28.938 43.186,28.872 42.975,28.784C42.765,28.697 42.565,28.589 42.375,28.462C42.186,28.335 42.011,28.19 41.85,28.028L21.68,7.858L19.23,0.498L26.59,2.948L44.91,21.268L46.76,23.118C46.922,23.279 47.066,23.454 47.194,23.643C47.321,23.833 47.428,24.033 47.516,24.244C47.604,24.454 47.67,24.671 47.715,24.895C47.759,25.119 47.782,25.345 47.782,25.573C47.782,25.801 47.759,26.027 47.715,26.251C47.67,26.475 47.604,26.692 47.516,26.903C47.428,27.113 47.321,27.313 47.194,27.503C47.066,27.692 46.922,27.867 46.76,28.028ZM44.55,22.358L41.09,25.818L42.58,27.308C42.694,27.421 42.817,27.521 42.95,27.61C43.084,27.698 43.224,27.773 43.372,27.834C43.52,27.895 43.673,27.941 43.83,27.972C43.987,28.003 44.145,28.018 44.305,28.018C44.465,28.018 44.623,28.003 44.78,27.972C44.937,27.941 45.09,27.895 45.238,27.834C45.386,27.773 45.526,27.698 45.66,27.61C45.793,27.521 45.916,27.421 46.03,27.308C46.142,27.193 46.243,27.069 46.331,26.935C46.418,26.8 46.492,26.659 46.552,26.51C46.613,26.361 46.658,26.207 46.687,26.049C46.717,25.892 46.732,25.733 46.73,25.572C46.729,25.411 46.712,25.252 46.679,25.095C46.647,24.938 46.599,24.785 46.536,24.638C46.474,24.49 46.397,24.349 46.307,24.216C46.217,24.084 46.114,23.961 46,23.848L44.55,22.358ZM20.86,2.128L22.47,6.988L25.72,3.738L20.86,2.128ZM26.55,4.358L23.09,7.818L40.36,25.088L43.82,21.628L26.55,4.358Z" style="fill:none;fill-rule:nonzero;stroke:rgb(27,27,27);stroke-width:0.06px;"/>
                            </g>
                        </g>
                    </g>
                    <g transform="matrix(4.84262,0,0,-4.82902,166.672,6150.93)">
                        <path d="M92.17,76.101L2.91,76.101C2.535,76.11 2.172,76.048 1.822,75.913C1.472,75.779 1.161,75.583 0.888,75.326C0.615,75.068 0.402,74.768 0.248,74.426C0.095,74.084 0.012,73.725 0,73.351L0,13.741C0.015,13.361 0.099,12.997 0.252,12.649C0.406,12.302 0.617,11.994 0.887,11.727C1.157,11.46 1.467,11.251 1.816,11.102C2.166,10.952 2.53,10.872 2.91,10.861L38.06,10.861C38.06,9.971 37.74,6.111 35.9,4.241C34.46,2.771 32.45,1.391 33.23,0.681C33.42,0.241 34.32,-0.009 36.37,-0.009L59.49,-0.009C61.83,-0.009 62.64,0.371 62.65,0.991L62.57,0.991L62.57,1.101L62.49,1.101C62.39,1.871 60.83,3.011 59.65,4.211C57.82,6.071 57.54,9.931 57.5,10.831L92.17,10.831C92.551,10.836 92.916,10.914 93.265,11.064C93.615,11.215 93.922,11.427 94.188,11.699C94.453,11.972 94.656,12.286 94.797,12.639C94.938,12.993 95.005,13.36 95,13.741L95,73.351C94.997,73.721 94.923,74.077 94.778,74.418C94.632,74.76 94.426,75.059 94.16,75.318C93.895,75.576 93.589,75.773 93.244,75.909C92.899,76.045 92.541,76.109 92.17,76.101ZM47.5,13.601C47.255,13.601 47.019,13.648 46.792,13.741C46.565,13.835 46.365,13.969 46.192,14.142C46.018,14.316 45.885,14.516 45.791,14.743C45.697,14.969 45.65,15.205 45.65,15.451C45.65,15.696 45.697,15.932 45.791,16.159C45.885,16.385 46.018,16.585 46.192,16.759C46.365,16.932 46.565,17.066 46.792,17.16C47.019,17.254 47.255,17.301 47.5,17.301C47.745,17.301 47.981,17.254 48.208,17.16C48.435,17.066 48.635,16.932 48.808,16.759C48.982,16.585 49.115,16.385 49.209,16.159C49.303,15.932 49.35,15.696 49.35,15.451C49.35,15.205 49.303,14.969 49.209,14.743C49.115,14.516 48.982,14.316 48.808,14.142C48.635,13.969 48.435,13.835 48.208,13.741C47.981,13.648 47.745,13.601 47.5,13.601ZM91,23.261L4,23.261L4,71.261L91,71.261L91,23.261Z" style="fill:rgb(43,44,43);fill-rule:nonzero;"/>
                    </g>
                </g>
            </g>
        </g>
    </g>
</svg>
