<?xml version="1.0" encoding="UTF-8" standalone="no"?>
<!DOCTYPE svg PUBLIC "-//W3C//DTD SVG 1.1//EN" "http://www.w3.org/Graphics/SVG/1.1/DTD/svg11.dtd">
<svg width="100%" height="100%" viewBox="0 0 1050 1177" version="1.1" xmlns="http://www.w3.org/2000/svg" xmlns:xlink="http://www.w3.org/1999/xlink" xml:space="preserve" xmlns:serif="http://www.serif.com/" style="fill-rule:evenodd;clip-rule:evenodd;stroke-linecap:round;stroke-linejoin:round;stroke-miterlimit:1.5;">
    <g transform="matrix(1,0,0,1,-9060.23,-1692.66)">
        <g id="Artboard4" transform="matrix(2.85238e-17,0.465829,-0.811201,4.96717e-17,10231.4,-2208.96)">
            <rect x="8375.65" y="150.467" width="2525.8" height="1293.3" style="fill:none;"/>
            <clipPath id="_clip1">
                <rect x="8375.65" y="150.467" width="2525.8" height="1293.3"/>
            </clipPath>
            <g clip-path="url(#_clip1)">
                <g transform="matrix(2.1487,-1.36989e-16,1.19277e-16,1.23388,-10301.8,-383.751)">
                    <rect x="8701.4" y="190.201" width="2536.64" height="1323.19" style="fill:rgb(2,4,6);"/>
                </g>
                <g transform="matrix(0.686248,-4.37511e-17,6.01437e-17,0.622169,3102.75,934.653)">
                    <ellipse cx="10717" cy="432.611" rx="8.523" ry="12.71" style="fill:url(#_Radial2);"/>
                </g>
                <g transform="matrix(1.34183,-8.55472e-17,1.29602e-16,1.34069,-3980.71,688.233)">
                    <ellipse cx="10717" cy="432.611" rx="8.523" ry="12.71" style="fill:url(#_Radial3);"/>
                </g>
                <g transform="matrix(0.77352,-4.93151e-17,7.54723e-17,0.780739,1966.58,1104.35)">
                    <ellipse cx="10717" cy="432.611" rx="8.523" ry="12.71" style="fill:url(#_Radial4);"/>
                </g>
                <g transform="matrix(1.45935,-9.30394e-17,1.42388e-16,1.47297,-6046.28,716.36)">
                    <ellipse cx="10717" cy="432.611" rx="8.523" ry="12.71" style="fill:url(#_Radial5);"/>
                </g>
                <g transform="matrix(0.807925,-5.15086e-17,6.47908e-17,0.670241,2005.68,996.1)">
                    <ellipse cx="10717" cy="432.611" rx="8.523" ry="12.71" style="fill:url(#_Radial6);"/>
                </g>
                <g transform="matrix(0.807925,-5.15086e-17,7.90935e-17,0.818199,1897.97,691.588)">
                    <ellipse cx="10717" cy="432.611" rx="8.523" ry="12.71" style="fill:url(#_Radial7);"/>
                </g>
                <g transform="matrix(0.551776,-3.5178e-17,5.68448e-17,0.588042,4750.1,803.694)">
                    <ellipse cx="10717" cy="432.611" rx="8.523" ry="12.71" style="fill:url(#_Radial8);"/>
                </g>
                <g transform="matrix(0.423701,-2.70127e-17,4.57204e-17,0.472964,5064.78,878.761)">
                    <ellipse cx="10717" cy="432.611" rx="8.523" ry="12.71" style="fill:url(#_Radial9);"/>
                </g>
                <g transform="matrix(0.466393,-2.97345e-17,4.2542e-17,0.440084,4399.74,775.972)">
                    <ellipse cx="10717" cy="432.611" rx="8.523" ry="12.71" style="fill:url(#_Radial10);"/>
                </g>
                <g transform="matrix(1.49099,-9.50568e-17,1.22002e-16,1.26207,-6976.64,509.802)">
                    <ellipse cx="10717" cy="432.611" rx="8.523" ry="12.71" style="fill:url(#_Radial11);"/>
                </g>
                <g transform="matrix(1.14813,-7.31981e-17,1.05403e-16,1.09036,-2679.58,100.574)">
                    <ellipse cx="10717" cy="432.611" rx="8.523" ry="12.71" style="fill:url(#_Radial12);"/>
                </g>
                <g transform="matrix(1.14813,-7.31981e-17,1.05403e-16,1.09036,-2477.14,360.681)">
                    <ellipse cx="10717" cy="432.611" rx="8.523" ry="12.71" style="fill:url(#_Radial13);"/>
                </g>
                <g transform="matrix(0.766651,-4.88772e-17,7.98419e-17,0.825941,1564.35,517.27)">
                    <ellipse cx="10717" cy="432.611" rx="8.523" ry="12.71" style="fill:url(#_Radial14);"/>
                </g>
                <g transform="matrix(1.56776,-9.99511e-17,1.45165e-16,1.50169,-7345.93,305.595)">
                    <ellipse cx="10717" cy="432.611" rx="8.523" ry="12.71" style="fill:url(#_Radial15);"/>
                </g>
                <g transform="matrix(1.22006,-7.77836e-17,1.1558e-16,1.19564,-4177.48,309.628)">
                    <ellipse cx="10717" cy="432.611" rx="8.523" ry="12.71" style="fill:url(#_Radial16);"/>
                </g>
                <g transform="matrix(1.76644,-1.12618e-16,1.56259e-16,1.61645,-9850.44,168.91)">
                    <ellipse cx="10717" cy="432.611" rx="8.523" ry="12.71" style="fill:url(#_Radial17);"/>
                </g>
                <g transform="matrix(1.17038,-7.46168e-17,7.12032e-17,0.736576,-3244.54,357.979)">
                    <ellipse cx="10717" cy="432.611" rx="8.523" ry="12.71" style="fill:url(#_Radial18);"/>
                </g>
                <g transform="matrix(1.17038,-7.46168e-17,7.12032e-17,0.736576,-3344.46,118.753)">
                    <ellipse cx="10717" cy="432.611" rx="8.523" ry="12.71" style="fill:url(#_Radial19);"/>
                </g>
                <g transform="matrix(0.673666,-4.2949e-17,5.826e-17,0.602682,2147.36,385.514)">
                    <ellipse cx="10717" cy="432.611" rx="8.523" ry="12.71" style="fill:url(#_Radial20);"/>
                </g>
                <g transform="matrix(0.673666,-4.2949e-17,5.826e-17,0.602682,2086.4,187.132)">
                    <ellipse cx="10717" cy="432.611" rx="8.523" ry="12.71" style="fill:url(#_Radial21);"/>
                </g>
                <g transform="matrix(0.673666,-4.2949e-17,3.60715e-17,0.373149,2227.8,317.549)">
                    <ellipse cx="10717" cy="432.611" rx="8.523" ry="12.71" style="fill:url(#_Radial22);"/>
                </g>
                <g transform="matrix(0.673666,-4.2949e-17,3.60715e-17,0.373149,2310.76,404.098)">
                    <ellipse cx="10717" cy="432.611" rx="8.523" ry="12.71" style="fill:url(#_Radial23);"/>
                </g>
                <g transform="matrix(0.574322,-3.66154e-17,4.53167e-17,0.468788,3515.14,154.86)">
                    <ellipse cx="10717" cy="432.611" rx="8.523" ry="12.71" style="fill:url(#_Radial24);"/>
                </g>
                <g transform="matrix(1.39556,-8.89729e-17,1.33947e-16,1.38565,-5643.86,-336.027)">
                    <ellipse cx="10717" cy="432.611" rx="8.523" ry="12.71" style="fill:url(#_Radial25);"/>
                </g>
                <g transform="matrix(0.574322,-3.66154e-17,4.90148e-17,0.507043,3321.26,575.918)">
                    <ellipse cx="10717" cy="432.611" rx="8.523" ry="12.71" style="fill:url(#_Radial26);"/>
                </g>
                <g transform="matrix(2.10183,-1.34e-16,1.94867e-16,2.01584,-13551.6,332.055)">
                    <ellipse cx="10717" cy="432.611" rx="8.523" ry="12.71" style="fill:url(#_Radial27);"/>
                </g>
                <g transform="matrix(0.957391,-6.10377e-17,6.42212e-17,0.66435,-92.8671,968.631)">
                    <ellipse cx="10717" cy="432.611" rx="8.523" ry="12.71" style="fill:url(#_Radial28);"/>
                </g>
                <g transform="matrix(1.56776,-9.99511e-17,1.26704e-16,1.31072,-7257.62,752.862)">
                    <ellipse cx="10717" cy="432.611" rx="8.523" ry="12.71" style="fill:url(#_Radial29);"/>
                </g>
                <g transform="matrix(0.476151,-3.03566e-17,3.7729e-17,0.390295,4594.57,625.216)">
                    <ellipse cx="10717" cy="432.611" rx="8.523" ry="12.71" style="fill:url(#_Radial30);"/>
                </g>
                <g transform="matrix(0.850617,-5.42304e-17,9.33963e-17,0.966158,-11.521,754.413)">
                    <ellipse cx="10717" cy="432.611" rx="8.523" ry="12.71" style="fill:url(#_Radial31);"/>
                </g>
                <g transform="matrix(1.45935,-9.30394e-17,1.28421e-16,1.32847,-6581.74,859.47)">
                    <ellipse cx="10717" cy="432.611" rx="8.523" ry="12.71" style="fill:url(#_Radial32);"/>
                </g>
                <g transform="matrix(1.08413,-6.91177e-17,8.34142e-17,0.862895,-2595.7,915.802)">
                    <ellipse cx="10717" cy="432.611" rx="8.523" ry="12.71" style="fill:url(#_Radial33);"/>
                </g>
                <g transform="matrix(1.08413,-6.91177e-17,8.34142e-17,0.862895,-1490.8,858.412)">
                    <ellipse cx="10717" cy="432.611" rx="8.523" ry="12.71" style="fill:url(#_Radial34);"/>
                </g>
                <g transform="matrix(0.562991,-3.5893e-17,6.88646e-17,0.712384,3611.43,1097.61)">
                    <ellipse cx="10717" cy="432.611" rx="8.523" ry="12.71" style="fill:url(#_Radial35);"/>
                </g>
                <g transform="matrix(1.45935,-9.30394e-17,1.00486e-16,1.03949,-6155.73,988.975)">
                    <ellipse cx="10717" cy="432.611" rx="8.523" ry="12.71" style="fill:url(#_Radial36);"/>
                </g>
                <g transform="matrix(2.1487,-1.36989e-16,1.31021e-16,1.35537,-10099.5,-536.299)">
                    <rect x="8167.84" y="1411.41" width="2564.74" height="237.871" style="fill:rgb(255,154,81);"/>
                </g>
                <g transform="matrix(2.21002,-1.40898e-16,1.25149e-16,1.29463,-10124.5,-1901.15)">
                    <rect x="8167.84" y="1411.41" width="2564.74" height="237.871" style="fill:rgb(255,154,81);"/>
                </g>
                <g transform="matrix(0.0725602,-4.62602e-18,8.08941e-16,8.36826,10188.4,-12204.1)">
                    <rect x="8167.84" y="1411.41" width="2564.74" height="237.871" style="fill:rgb(255,154,81);"/>
                </g>
                <g transform="matrix(0.0725602,-4.62602e-18,8.08941e-16,8.36826,7715.72,-12222.9)">
                    <rect x="8167.84" y="1411.41" width="2564.74" height="237.871" style="fill:rgb(255,154,81);"/>
                </g>
                <g transform="matrix(2.28177,0.0780972,-0.12215,1.17687,-11619.2,-1069.48)">
                    <path d="M8701.4,323.284C8701.4,323.284 8763.89,310.39 8805.47,360.252C8847.06,410.113 8977.4,533.138 9099.8,1228.02C9099.8,1228.02 9146.16,1411.05 9255.2,1414.05C9364.25,1417.06 9313.11,1367.43 9438.69,1396.01C9438.69,1396.01 9521.42,1427.59 9564.28,1520.84C9607.15,1614.09 9059.4,1529.41 9059.4,1529.41L9001.21,1495.21C9001.21,1495.21 8954.11,1112.89 8801.8,1144.9C8738.46,1158.21 8698.77,1211.83 8686.74,1237.39C8674.71,1262.96 8634.1,1263.71 8634.1,1263.71L8665.66,1137.01L8659.65,487.267L8681.45,331.601L8701.4,323.284Z" style="fill:rgb(2,41,166);"/>
                    <path d="M8701.4,323.284C8701.4,323.284 8763.89,310.39 8805.47,360.252C8847.06,410.113 8977.4,533.138 9099.8,1228.02C9099.8,1228.02 9146.16,1411.05 9255.2,1414.05C9364.25,1417.06 9313.11,1367.43 9438.69,1396.01C9438.69,1396.01 9521.42,1427.59 9564.28,1520.84C9607.15,1614.09 9059.4,1529.41 9059.4,1529.41L9001.21,1495.21C9001.21,1495.21 8954.11,1112.89 8801.8,1144.9C8738.46,1158.21 8698.77,1211.83 8686.74,1237.39C8674.71,1262.96 8634.1,1263.71 8634.1,1263.71L8665.66,1137.01L8659.65,487.267L8681.45,331.601L8701.4,323.284Z" style="fill:none;stroke:black;stroke-width:0.99px;"/>
                </g>
                <g transform="matrix(1.58622,-9.8405e-17,8.80528e-17,0.886354,-6862.47,-39.723)">
                    <path d="M10337.7,188.547C10337.7,188.547 10382.8,280.293 10384.3,698.411C10385.8,1116.53 10388.8,1146.61 10450.5,1266.93C10512.2,1387.25 10620.5,1253.39 10620.5,1253.39C10620.5,1253.39 10703.2,1140.59 10743.8,1130.07C10784.4,1119.54 10834,1128.56 10916.7,1151.12C10999.5,1173.68 11097.2,1066.9 11109.3,1048.85C11121.3,1030.8 11192,917.998 11249.1,863.853C11306.3,809.708 11273.2,408.134 11273.2,408.134L11238.7,410.594C11238.7,410.594 11209.7,389.032 11152.4,424.763C11095.1,460.494 10976.4,645.924 10876.4,639.147C10776.4,632.371 10707.2,483.287 10705,443.244C10702.7,403.201 10692.2,313.474 10697.8,185.12C10703.3,56.767 10337.7,188.547 10337.7,188.547Z" style="fill:url(#_Radial37);stroke:black;stroke-width:1.37px;"/>
                </g>
                <g transform="matrix(0.666079,-1.40898e-16,3.77187e-17,1.29463,3453.39,-1901.15)">
                    <rect x="8167.84" y="1411.41" width="2564.74" height="237.871" style="fill:rgb(255,154,81);"/>
                </g>
                <g transform="matrix(0.698302,-1.36989e-16,4.25803e-17,1.35537,2864.12,-536.299)">
                    <rect x="8167.84" y="1411.41" width="2564.74" height="237.871" style="fill:rgb(255,154,81);"/>
                </g>
                <g transform="matrix(2.1487,-1.36989e-16,1.19277e-16,1.23388,-13802.4,-196.097)">
                    <ellipse cx="10717" cy="432.611" rx="8.523" ry="12.71" style="fill:url(#_Radial38);"/>
                </g>
                <g transform="matrix(1.27843,-8.15054e-17,7.09672e-17,0.734135,-4289.65,4.45829)">
                    <ellipse cx="10717" cy="432.611" rx="8.523" ry="12.71" style="fill:url(#_Radial39);"/>
                </g>
            </g>
        </g>
        <g transform="matrix(8.69918e-17,0.505019,-0.699981,8.17183e-17,9354.02,-2795.23)">
            <ellipse cx="10717" cy="432.611" rx="8.523" ry="12.71" style="fill:url(#_Radial40);"/>
        </g>
        <g id="Layer1">
        </g>
    </g>
    <defs>
        <radialGradient id="_Radial2" cx="0" cy="0" r="1" gradientUnits="userSpaceOnUse" gradientTransform="matrix(8.52325,0,0,12.7101,10717,432.611)"><stop offset="0" style="stop-color:white;stop-opacity:1"/><stop offset="0.52" style="stop-color:rgb(221,243,241);stop-opacity:1"/><stop offset="0.67" style="stop-color:rgb(123,209,201);stop-opacity:1"/><stop offset="0.78" style="stop-color:rgb(0,166,150);stop-opacity:1"/><stop offset="0.89" style="stop-color:rgb(0,121,158);stop-opacity:1"/><stop offset="1" style="stop-color:rgb(0,0,180);stop-opacity:1"/></radialGradient>
        <radialGradient id="_Radial3" cx="0" cy="0" r="1" gradientUnits="userSpaceOnUse" gradientTransform="matrix(8.52325,0,0,12.7101,10717,432.611)"><stop offset="0" style="stop-color:white;stop-opacity:1"/><stop offset="0.52" style="stop-color:rgb(221,243,241);stop-opacity:1"/><stop offset="0.67" style="stop-color:rgb(123,209,201);stop-opacity:1"/><stop offset="0.78" style="stop-color:rgb(0,166,150);stop-opacity:1"/><stop offset="0.89" style="stop-color:rgb(0,121,158);stop-opacity:1"/><stop offset="1" style="stop-color:rgb(0,0,180);stop-opacity:1"/></radialGradient>
        <radialGradient id="_Radial4" cx="0" cy="0" r="1" gradientUnits="userSpaceOnUse" gradientTransform="matrix(8.52325,0,0,12.7101,10717,432.611)"><stop offset="0" style="stop-color:white;stop-opacity:1"/><stop offset="0.52" style="stop-color:rgb(221,243,241);stop-opacity:1"/><stop offset="0.67" style="stop-color:rgb(123,209,201);stop-opacity:1"/><stop offset="0.78" style="stop-color:rgb(0,166,150);stop-opacity:1"/><stop offset="0.89" style="stop-color:rgb(0,121,158);stop-opacity:1"/><stop offset="1" style="stop-color:rgb(0,0,180);stop-opacity:1"/></radialGradient>
        <radialGradient id="_Radial5" cx="0" cy="0" r="1" gradientUnits="userSpaceOnUse" gradientTransform="matrix(8.52325,0,0,12.7101,10717,432.611)"><stop offset="0" style="stop-color:white;stop-opacity:1"/><stop offset="0.52" style="stop-color:rgb(221,243,241);stop-opacity:1"/><stop offset="0.67" style="stop-color:rgb(123,209,201);stop-opacity:1"/><stop offset="0.78" style="stop-color:rgb(0,166,150);stop-opacity:1"/><stop offset="0.89" style="stop-color:rgb(0,121,158);stop-opacity:1"/><stop offset="1" style="stop-color:rgb(0,0,180);stop-opacity:1"/></radialGradient>
        <radialGradient id="_Radial6" cx="0" cy="0" r="1" gradientUnits="userSpaceOnUse" gradientTransform="matrix(8.52325,0,0,12.7101,10717,432.611)"><stop offset="0" style="stop-color:white;stop-opacity:1"/><stop offset="0.52" style="stop-color:rgb(221,243,241);stop-opacity:1"/><stop offset="0.67" style="stop-color:rgb(123,209,201);stop-opacity:1"/><stop offset="0.78" style="stop-color:rgb(0,166,150);stop-opacity:1"/><stop offset="0.89" style="stop-color:rgb(0,121,158);stop-opacity:1"/><stop offset="1" style="stop-color:rgb(0,0,180);stop-opacity:1"/></radialGradient>
        <radialGradient id="_Radial7" cx="0" cy="0" r="1" gradientUnits="userSpaceOnUse" gradientTransform="matrix(8.52325,0,0,12.7101,10717,432.611)"><stop offset="0" style="stop-color:white;stop-opacity:1"/><stop offset="0.52" style="stop-color:rgb(221,243,241);stop-opacity:1"/><stop offset="0.67" style="stop-color:rgb(123,209,201);stop-opacity:1"/><stop offset="0.78" style="stop-color:rgb(0,166,150);stop-opacity:1"/><stop offset="0.89" style="stop-color:rgb(0,121,158);stop-opacity:1"/><stop offset="1" style="stop-color:rgb(0,0,180);stop-opacity:1"/></radialGradient>
        <radialGradient id="_Radial8" cx="0" cy="0" r="1" gradientUnits="userSpaceOnUse" gradientTransform="matrix(8.52325,0,0,12.7101,10717,432.611)"><stop offset="0" style="stop-color:white;stop-opacity:1"/><stop offset="0.52" style="stop-color:rgb(221,243,241);stop-opacity:1"/><stop offset="0.67" style="stop-color:rgb(123,209,201);stop-opacity:1"/><stop offset="0.78" style="stop-color:rgb(0,166,150);stop-opacity:1"/><stop offset="0.89" style="stop-color:rgb(0,121,158);stop-opacity:1"/><stop offset="1" style="stop-color:rgb(0,0,180);stop-opacity:1"/></radialGradient>
        <radialGradient id="_Radial9" cx="0" cy="0" r="1" gradientUnits="userSpaceOnUse" gradientTransform="matrix(8.52325,0,0,12.7101,10717,432.611)"><stop offset="0" style="stop-color:white;stop-opacity:1"/><stop offset="0.52" style="stop-color:rgb(221,243,241);stop-opacity:1"/><stop offset="0.67" style="stop-color:rgb(123,209,201);stop-opacity:1"/><stop offset="0.78" style="stop-color:rgb(0,166,150);stop-opacity:1"/><stop offset="0.89" style="stop-color:rgb(0,121,158);stop-opacity:1"/><stop offset="1" style="stop-color:rgb(0,0,180);stop-opacity:1"/></radialGradient>
        <radialGradient id="_Radial10" cx="0" cy="0" r="1" gradientUnits="userSpaceOnUse" gradientTransform="matrix(8.52325,0,0,12.7101,10717,432.611)"><stop offset="0" style="stop-color:white;stop-opacity:1"/><stop offset="0.52" style="stop-color:rgb(221,243,241);stop-opacity:1"/><stop offset="0.67" style="stop-color:rgb(123,209,201);stop-opacity:1"/><stop offset="0.78" style="stop-color:rgb(0,166,150);stop-opacity:1"/><stop offset="0.89" style="stop-color:rgb(0,121,158);stop-opacity:1"/><stop offset="1" style="stop-color:rgb(0,0,180);stop-opacity:1"/></radialGradient>
        <radialGradient id="_Radial11" cx="0" cy="0" r="1" gradientUnits="userSpaceOnUse" gradientTransform="matrix(8.52325,0,0,12.7101,10717,432.611)"><stop offset="0" style="stop-color:white;stop-opacity:1"/><stop offset="0.52" style="stop-color:rgb(221,243,241);stop-opacity:1"/><stop offset="0.67" style="stop-color:rgb(123,209,201);stop-opacity:1"/><stop offset="0.78" style="stop-color:rgb(0,166,150);stop-opacity:1"/><stop offset="0.89" style="stop-color:rgb(0,121,158);stop-opacity:1"/><stop offset="1" style="stop-color:rgb(0,0,180);stop-opacity:1"/></radialGradient>
        <radialGradient id="_Radial12" cx="0" cy="0" r="1" gradientUnits="userSpaceOnUse" gradientTransform="matrix(8.52325,0,0,12.7101,10717,432.611)"><stop offset="0" style="stop-color:white;stop-opacity:1"/><stop offset="0.52" style="stop-color:rgb(221,243,241);stop-opacity:1"/><stop offset="0.67" style="stop-color:rgb(123,209,201);stop-opacity:1"/><stop offset="0.78" style="stop-color:rgb(0,166,150);stop-opacity:1"/><stop offset="0.89" style="stop-color:rgb(0,121,158);stop-opacity:1"/><stop offset="1" style="stop-color:rgb(0,0,180);stop-opacity:1"/></radialGradient>
        <radialGradient id="_Radial13" cx="0" cy="0" r="1" gradientUnits="userSpaceOnUse" gradientTransform="matrix(8.52325,0,0,12.7101,10717,432.611)"><stop offset="0" style="stop-color:white;stop-opacity:1"/><stop offset="0.52" style="stop-color:rgb(221,243,241);stop-opacity:1"/><stop offset="0.67" style="stop-color:rgb(123,209,201);stop-opacity:1"/><stop offset="0.78" style="stop-color:rgb(0,166,150);stop-opacity:1"/><stop offset="0.89" style="stop-color:rgb(0,121,158);stop-opacity:1"/><stop offset="1" style="stop-color:rgb(0,0,180);stop-opacity:1"/></radialGradient>
        <radialGradient id="_Radial14" cx="0" cy="0" r="1" gradientUnits="userSpaceOnUse" gradientTransform="matrix(8.52325,0,0,12.7101,10717,432.611)"><stop offset="0" style="stop-color:white;stop-opacity:1"/><stop offset="0.52" style="stop-color:rgb(221,243,241);stop-opacity:1"/><stop offset="0.67" style="stop-color:rgb(123,209,201);stop-opacity:1"/><stop offset="0.78" style="stop-color:rgb(0,166,150);stop-opacity:1"/><stop offset="0.89" style="stop-color:rgb(0,121,158);stop-opacity:1"/><stop offset="1" style="stop-color:rgb(0,0,180);stop-opacity:1"/></radialGradient>
        <radialGradient id="_Radial15" cx="0" cy="0" r="1" gradientUnits="userSpaceOnUse" gradientTransform="matrix(8.52325,0,0,12.7101,10717,432.611)"><stop offset="0" style="stop-color:white;stop-opacity:1"/><stop offset="0.52" style="stop-color:rgb(221,243,241);stop-opacity:1"/><stop offset="0.67" style="stop-color:rgb(123,209,201);stop-opacity:1"/><stop offset="0.78" style="stop-color:rgb(0,166,150);stop-opacity:1"/><stop offset="0.89" style="stop-color:rgb(0,121,158);stop-opacity:1"/><stop offset="1" style="stop-color:rgb(0,0,180);stop-opacity:1"/></radialGradient>
        <radialGradient id="_Radial16" cx="0" cy="0" r="1" gradientUnits="userSpaceOnUse" gradientTransform="matrix(8.52325,0,0,12.7101,10717,432.611)"><stop offset="0" style="stop-color:white;stop-opacity:1"/><stop offset="0.52" style="stop-color:rgb(221,243,241);stop-opacity:1"/><stop offset="0.67" style="stop-color:rgb(123,209,201);stop-opacity:1"/><stop offset="0.78" style="stop-color:rgb(0,166,150);stop-opacity:1"/><stop offset="0.89" style="stop-color:rgb(0,121,158);stop-opacity:1"/><stop offset="1" style="stop-color:rgb(0,0,180);stop-opacity:1"/></radialGradient>
        <radialGradient id="_Radial17" cx="0" cy="0" r="1" gradientUnits="userSpaceOnUse" gradientTransform="matrix(8.52325,0,0,12.7101,10717,432.611)"><stop offset="0" style="stop-color:white;stop-opacity:1"/><stop offset="0.52" style="stop-color:rgb(221,243,241);stop-opacity:1"/><stop offset="0.67" style="stop-color:rgb(123,209,201);stop-opacity:1"/><stop offset="0.78" style="stop-color:rgb(0,166,150);stop-opacity:1"/><stop offset="0.89" style="stop-color:rgb(0,121,158);stop-opacity:1"/><stop offset="1" style="stop-color:rgb(0,0,180);stop-opacity:1"/></radialGradient>
        <radialGradient id="_Radial18" cx="0" cy="0" r="1" gradientUnits="userSpaceOnUse" gradientTransform="matrix(8.52325,0,0,12.7101,10717,432.611)"><stop offset="0" style="stop-color:white;stop-opacity:1"/><stop offset="0.52" style="stop-color:rgb(221,243,241);stop-opacity:1"/><stop offset="0.67" style="stop-color:rgb(123,209,201);stop-opacity:1"/><stop offset="0.78" style="stop-color:rgb(0,166,150);stop-opacity:1"/><stop offset="0.89" style="stop-color:rgb(0,121,158);stop-opacity:1"/><stop offset="1" style="stop-color:rgb(0,0,180);stop-opacity:1"/></radialGradient>
        <radialGradient id="_Radial19" cx="0" cy="0" r="1" gradientUnits="userSpaceOnUse" gradientTransform="matrix(8.52325,0,0,12.7101,10717,432.611)"><stop offset="0" style="stop-color:white;stop-opacity:1"/><stop offset="0.52" style="stop-color:rgb(221,243,241);stop-opacity:1"/><stop offset="0.67" style="stop-color:rgb(123,209,201);stop-opacity:1"/><stop offset="0.78" style="stop-color:rgb(0,166,150);stop-opacity:1"/><stop offset="0.89" style="stop-color:rgb(0,121,158);stop-opacity:1"/><stop offset="1" style="stop-color:rgb(0,0,180);stop-opacity:1"/></radialGradient>
        <radialGradient id="_Radial20" cx="0" cy="0" r="1" gradientUnits="userSpaceOnUse" gradientTransform="matrix(8.52325,0,0,12.7101,10717,432.611)"><stop offset="0" style="stop-color:white;stop-opacity:1"/><stop offset="0.52" style="stop-color:rgb(221,243,241);stop-opacity:1"/><stop offset="0.67" style="stop-color:rgb(123,209,201);stop-opacity:1"/><stop offset="0.78" style="stop-color:rgb(0,166,150);stop-opacity:1"/><stop offset="0.89" style="stop-color:rgb(0,121,158);stop-opacity:1"/><stop offset="1" style="stop-color:rgb(0,0,180);stop-opacity:1"/></radialGradient>
        <radialGradient id="_Radial21" cx="0" cy="0" r="1" gradientUnits="userSpaceOnUse" gradientTransform="matrix(8.52325,0,0,12.7101,10717,432.611)"><stop offset="0" style="stop-color:white;stop-opacity:1"/><stop offset="0.52" style="stop-color:rgb(221,243,241);stop-opacity:1"/><stop offset="0.67" style="stop-color:rgb(123,209,201);stop-opacity:1"/><stop offset="0.78" style="stop-color:rgb(0,166,150);stop-opacity:1"/><stop offset="0.89" style="stop-color:rgb(0,121,158);stop-opacity:1"/><stop offset="1" style="stop-color:rgb(0,0,180);stop-opacity:1"/></radialGradient>
        <radialGradient id="_Radial22" cx="0" cy="0" r="1" gradientUnits="userSpaceOnUse" gradientTransform="matrix(8.52325,0,0,12.7101,10717,432.611)"><stop offset="0" style="stop-color:white;stop-opacity:1"/><stop offset="0.52" style="stop-color:rgb(221,243,241);stop-opacity:1"/><stop offset="0.67" style="stop-color:rgb(123,209,201);stop-opacity:1"/><stop offset="0.78" style="stop-color:rgb(0,166,150);stop-opacity:1"/><stop offset="0.89" style="stop-color:rgb(0,121,158);stop-opacity:1"/><stop offset="1" style="stop-color:rgb(0,0,180);stop-opacity:1"/></radialGradient>
        <radialGradient id="_Radial23" cx="0" cy="0" r="1" gradientUnits="userSpaceOnUse" gradientTransform="matrix(8.52325,0,0,12.7101,10717,432.611)"><stop offset="0" style="stop-color:white;stop-opacity:1"/><stop offset="0.52" style="stop-color:rgb(221,243,241);stop-opacity:1"/><stop offset="0.67" style="stop-color:rgb(123,209,201);stop-opacity:1"/><stop offset="0.78" style="stop-color:rgb(0,166,150);stop-opacity:1"/><stop offset="0.89" style="stop-color:rgb(0,121,158);stop-opacity:1"/><stop offset="1" style="stop-color:rgb(0,0,180);stop-opacity:1"/></radialGradient>
        <radialGradient id="_Radial24" cx="0" cy="0" r="1" gradientUnits="userSpaceOnUse" gradientTransform="matrix(8.52325,0,0,12.7101,10717,432.611)"><stop offset="0" style="stop-color:white;stop-opacity:1"/><stop offset="0.52" style="stop-color:rgb(221,243,241);stop-opacity:1"/><stop offset="0.67" style="stop-color:rgb(123,209,201);stop-opacity:1"/><stop offset="0.78" style="stop-color:rgb(0,166,150);stop-opacity:1"/><stop offset="0.89" style="stop-color:rgb(0,121,158);stop-opacity:1"/><stop offset="1" style="stop-color:rgb(0,0,180);stop-opacity:1"/></radialGradient>
        <radialGradient id="_Radial25" cx="0" cy="0" r="1" gradientUnits="userSpaceOnUse" gradientTransform="matrix(8.52325,0,0,12.7101,10717,432.611)"><stop offset="0" style="stop-color:white;stop-opacity:1"/><stop offset="0.52" style="stop-color:rgb(221,243,241);stop-opacity:1"/><stop offset="0.67" style="stop-color:rgb(123,209,201);stop-opacity:1"/><stop offset="0.78" style="stop-color:rgb(0,166,150);stop-opacity:1"/><stop offset="0.89" style="stop-color:rgb(0,121,158);stop-opacity:1"/><stop offset="1" style="stop-color:rgb(0,0,180);stop-opacity:1"/></radialGradient>
        <radialGradient id="_Radial26" cx="0" cy="0" r="1" gradientUnits="userSpaceOnUse" gradientTransform="matrix(8.52325,0,0,12.7101,10717,432.611)"><stop offset="0" style="stop-color:white;stop-opacity:1"/><stop offset="0.52" style="stop-color:rgb(221,243,241);stop-opacity:1"/><stop offset="0.67" style="stop-color:rgb(123,209,201);stop-opacity:1"/><stop offset="0.78" style="stop-color:rgb(0,166,150);stop-opacity:1"/><stop offset="0.89" style="stop-color:rgb(0,121,158);stop-opacity:1"/><stop offset="1" style="stop-color:rgb(0,0,180);stop-opacity:1"/></radialGradient>
        <radialGradient id="_Radial27" cx="0" cy="0" r="1" gradientUnits="userSpaceOnUse" gradientTransform="matrix(8.52325,0,0,12.7101,10717,432.611)"><stop offset="0" style="stop-color:white;stop-opacity:1"/><stop offset="0.52" style="stop-color:rgb(221,243,241);stop-opacity:1"/><stop offset="0.67" style="stop-color:rgb(123,209,201);stop-opacity:1"/><stop offset="0.78" style="stop-color:rgb(0,166,150);stop-opacity:1"/><stop offset="0.89" style="stop-color:rgb(0,121,158);stop-opacity:1"/><stop offset="1" style="stop-color:rgb(0,0,180);stop-opacity:1"/></radialGradient>
        <radialGradient id="_Radial28" cx="0" cy="0" r="1" gradientUnits="userSpaceOnUse" gradientTransform="matrix(8.52325,0,0,12.7101,10717,432.611)"><stop offset="0" style="stop-color:white;stop-opacity:1"/><stop offset="0.52" style="stop-color:rgb(221,243,241);stop-opacity:1"/><stop offset="0.67" style="stop-color:rgb(123,209,201);stop-opacity:1"/><stop offset="0.78" style="stop-color:rgb(0,166,150);stop-opacity:1"/><stop offset="0.89" style="stop-color:rgb(0,121,158);stop-opacity:1"/><stop offset="1" style="stop-color:rgb(0,0,180);stop-opacity:1"/></radialGradient>
        <radialGradient id="_Radial29" cx="0" cy="0" r="1" gradientUnits="userSpaceOnUse" gradientTransform="matrix(8.52325,0,0,12.7101,10717,432.611)"><stop offset="0" style="stop-color:white;stop-opacity:1"/><stop offset="0.52" style="stop-color:rgb(221,243,241);stop-opacity:1"/><stop offset="0.67" style="stop-color:rgb(123,209,201);stop-opacity:1"/><stop offset="0.78" style="stop-color:rgb(0,166,150);stop-opacity:1"/><stop offset="0.89" style="stop-color:rgb(0,121,158);stop-opacity:1"/><stop offset="1" style="stop-color:rgb(0,0,180);stop-opacity:1"/></radialGradient>
        <radialGradient id="_Radial30" cx="0" cy="0" r="1" gradientUnits="userSpaceOnUse" gradientTransform="matrix(8.52325,0,0,12.7101,10717,432.611)"><stop offset="0" style="stop-color:white;stop-opacity:1"/><stop offset="0.52" style="stop-color:rgb(221,243,241);stop-opacity:1"/><stop offset="0.67" style="stop-color:rgb(123,209,201);stop-opacity:1"/><stop offset="0.78" style="stop-color:rgb(0,166,150);stop-opacity:1"/><stop offset="0.89" style="stop-color:rgb(0,121,158);stop-opacity:1"/><stop offset="1" style="stop-color:rgb(0,0,180);stop-opacity:1"/></radialGradient>
        <radialGradient id="_Radial31" cx="0" cy="0" r="1" gradientUnits="userSpaceOnUse" gradientTransform="matrix(8.52325,0,0,12.7101,10717,432.611)"><stop offset="0" style="stop-color:white;stop-opacity:1"/><stop offset="0.52" style="stop-color:rgb(221,243,241);stop-opacity:1"/><stop offset="0.67" style="stop-color:rgb(123,209,201);stop-opacity:1"/><stop offset="0.78" style="stop-color:rgb(0,166,150);stop-opacity:1"/><stop offset="0.89" style="stop-color:rgb(0,121,158);stop-opacity:1"/><stop offset="1" style="stop-color:rgb(0,0,180);stop-opacity:1"/></radialGradient>
        <radialGradient id="_Radial32" cx="0" cy="0" r="1" gradientUnits="userSpaceOnUse" gradientTransform="matrix(8.52325,0,0,12.7101,10717,432.611)"><stop offset="0" style="stop-color:white;stop-opacity:1"/><stop offset="0.52" style="stop-color:rgb(221,243,241);stop-opacity:1"/><stop offset="0.67" style="stop-color:rgb(123,209,201);stop-opacity:1"/><stop offset="0.78" style="stop-color:rgb(0,166,150);stop-opacity:1"/><stop offset="0.89" style="stop-color:rgb(0,121,158);stop-opacity:1"/><stop offset="1" style="stop-color:rgb(0,0,180);stop-opacity:1"/></radialGradient>
        <radialGradient id="_Radial33" cx="0" cy="0" r="1" gradientUnits="userSpaceOnUse" gradientTransform="matrix(8.52325,0,0,12.7101,10717,432.611)"><stop offset="0" style="stop-color:white;stop-opacity:1"/><stop offset="0.52" style="stop-color:rgb(221,243,241);stop-opacity:1"/><stop offset="0.67" style="stop-color:rgb(123,209,201);stop-opacity:1"/><stop offset="0.78" style="stop-color:rgb(0,166,150);stop-opacity:1"/><stop offset="0.89" style="stop-color:rgb(0,121,158);stop-opacity:1"/><stop offset="1" style="stop-color:rgb(0,0,180);stop-opacity:1"/></radialGradient>
        <radialGradient id="_Radial34" cx="0" cy="0" r="1" gradientUnits="userSpaceOnUse" gradientTransform="matrix(8.52325,0,0,12.7101,10717,432.611)"><stop offset="0" style="stop-color:white;stop-opacity:1"/><stop offset="0.52" style="stop-color:rgb(221,243,241);stop-opacity:1"/><stop offset="0.67" style="stop-color:rgb(123,209,201);stop-opacity:1"/><stop offset="0.78" style="stop-color:rgb(0,166,150);stop-opacity:1"/><stop offset="0.89" style="stop-color:rgb(0,121,158);stop-opacity:1"/><stop offset="1" style="stop-color:rgb(0,0,180);stop-opacity:1"/></radialGradient>
        <radialGradient id="_Radial35" cx="0" cy="0" r="1" gradientUnits="userSpaceOnUse" gradientTransform="matrix(8.52325,0,0,12.7101,10717,432.611)"><stop offset="0" style="stop-color:white;stop-opacity:1"/><stop offset="0.52" style="stop-color:rgb(221,243,241);stop-opacity:1"/><stop offset="0.67" style="stop-color:rgb(123,209,201);stop-opacity:1"/><stop offset="0.78" style="stop-color:rgb(0,166,150);stop-opacity:1"/><stop offset="0.89" style="stop-color:rgb(0,121,158);stop-opacity:1"/><stop offset="1" style="stop-color:rgb(0,0,180);stop-opacity:1"/></radialGradient>
        <radialGradient id="_Radial36" cx="0" cy="0" r="1" gradientUnits="userSpaceOnUse" gradientTransform="matrix(8.52325,0,0,12.7101,10717,432.611)"><stop offset="0" style="stop-color:white;stop-opacity:1"/><stop offset="0.52" style="stop-color:rgb(221,243,241);stop-opacity:1"/><stop offset="0.67" style="stop-color:rgb(123,209,201);stop-opacity:1"/><stop offset="0.78" style="stop-color:rgb(0,166,150);stop-opacity:1"/><stop offset="0.89" style="stop-color:rgb(0,121,158);stop-opacity:1"/><stop offset="1" style="stop-color:rgb(0,0,180);stop-opacity:1"/></radialGradient>
        <radialGradient id="_Radial37" cx="0" cy="0" r="1" gradientUnits="userSpaceOnUse" gradientTransform="matrix(945.029,0,0,1188.16,10337.7,723.03)"><stop offset="0" style="stop-color:rgb(5,8,131);stop-opacity:1"/><stop offset="0.48" style="stop-color:rgb(1,48,173);stop-opacity:1"/><stop offset="1" style="stop-color:rgb(0,60,186);stop-opacity:1"/></radialGradient>
        <radialGradient id="_Radial38" cx="0" cy="0" r="1" gradientUnits="userSpaceOnUse" gradientTransform="matrix(8.52325,0,0,12.7101,10717,432.611)"><stop offset="0" style="stop-color:white;stop-opacity:1"/><stop offset="0.52" style="stop-color:rgb(221,243,241);stop-opacity:1"/><stop offset="0.67" style="stop-color:rgb(123,209,201);stop-opacity:1"/><stop offset="0.78" style="stop-color:rgb(0,166,150);stop-opacity:1"/><stop offset="0.89" style="stop-color:rgb(0,121,158);stop-opacity:1"/><stop offset="1" style="stop-color:rgb(0,0,180);stop-opacity:1"/></radialGradient>
        <radialGradient id="_Radial39" cx="0" cy="0" r="1" gradientUnits="userSpaceOnUse" gradientTransform="matrix(8.52325,0,0,12.7101,10717,432.611)"><stop offset="0" style="stop-color:white;stop-opacity:1"/><stop offset="0.52" style="stop-color:rgb(221,243,241);stop-opacity:1"/><stop offset="0.67" style="stop-color:rgb(123,209,201);stop-opacity:1"/><stop offset="0.78" style="stop-color:rgb(0,166,150);stop-opacity:1"/><stop offset="0.89" style="stop-color:rgb(0,121,158);stop-opacity:1"/><stop offset="1" style="stop-color:rgb(0,0,180);stop-opacity:1"/></radialGradient>
        <radialGradient id="_Radial40" cx="0" cy="0" r="1" gradientUnits="userSpaceOnUse" gradientTransform="matrix(8.52325,0,0,12.7101,10717,432.611)"><stop offset="0" style="stop-color:white;stop-opacity:1"/><stop offset="0.52" style="stop-color:rgb(221,243,241);stop-opacity:1"/><stop offset="0.67" style="stop-color:rgb(123,209,201);stop-opacity:1"/><stop offset="0.78" style="stop-color:rgb(0,166,150);stop-opacity:1"/><stop offset="0.89" style="stop-color:rgb(0,121,158);stop-opacity:1"/><stop offset="1" style="stop-color:rgb(0,0,180);stop-opacity:1"/></radialGradient>
    </defs>
</svg>
